<svg width="640" height="500" viewBox="0 0 640 500" fill="none" xmlns="http://www.w3.org/2000/svg">
<rect width="71.5935" height="28.2968" transform="translate(101.645 410.018)" fill="#CCE8FF"/>
<path d="M112.996 420.991C113.302 420.991 113.593 421.057 113.869 421.189C114.151 421.321 114.382 421.576 114.562 421.954C114.742 422.332 114.832 422.884 114.832 423.61V430.666H113.428V423.853C113.428 423.259 113.392 422.83 113.32 422.566C113.248 422.302 113.041 422.17 112.699 422.17C112.417 422.17 112.135 422.26 111.853 422.44C111.577 422.614 111.307 422.902 111.043 423.304V430.666H109.63V423.853C109.63 423.259 109.594 422.83 109.522 422.566C109.45 422.302 109.243 422.17 108.901 422.17C108.607 422.17 108.322 422.26 108.046 422.44C107.776 422.614 107.509 422.902 107.245 423.304V430.666H105.85V421.189H107.038L107.128 422.287C107.386 421.921 107.674 421.615 107.992 421.369C108.316 421.117 108.715 420.991 109.189 420.991C109.549 420.991 109.888 421.078 110.206 421.252C110.524 421.42 110.758 421.75 110.908 422.242C111.166 421.87 111.457 421.57 111.781 421.342C112.105 421.108 112.51 420.991 112.996 420.991ZM124.329 428.596C124.329 428.974 124.392 429.25 124.518 429.424C124.644 429.598 124.839 429.727 125.103 429.811L124.734 430.873C124.326 430.819 123.969 430.69 123.663 430.486C123.357 430.276 123.135 429.961 122.997 429.541C122.655 429.979 122.229 430.312 121.719 430.54C121.209 430.762 120.645 430.873 120.027 430.873C119.079 430.873 118.332 430.606 117.786 430.072C117.24 429.538 116.967 428.83 116.967 427.948C116.967 426.97 117.348 426.22 118.11 425.698C118.872 425.176 119.973 424.915 121.413 424.915H122.808V424.123C122.808 423.439 122.607 422.956 122.205 422.674C121.809 422.386 121.257 422.242 120.549 422.242C120.237 422.242 119.871 422.281 119.451 422.359C119.031 422.431 118.575 422.554 118.083 422.728L117.687 421.585C118.269 421.369 118.815 421.216 119.325 421.126C119.835 421.036 120.321 420.991 120.783 420.991C121.965 420.991 122.85 421.267 123.438 421.819C124.032 422.365 124.329 423.109 124.329 424.051V428.596ZM120.414 429.721C120.882 429.721 121.329 429.604 121.755 429.37C122.181 429.13 122.532 428.8 122.808 428.38V425.941H121.44C120.396 425.941 119.658 426.121 119.226 426.481C118.8 426.841 118.587 427.324 118.587 427.93C118.587 428.518 118.737 428.965 119.037 429.271C119.343 429.571 119.802 429.721 120.414 429.721ZM128.426 430.666V429.505H129.902V422.35H128.426V421.189H131.054L131.333 423.43C131.699 422.65 132.143 422.047 132.665 421.621C133.187 421.195 133.877 420.982 134.735 420.982C134.999 420.982 135.233 421.003 135.437 421.045C135.647 421.081 135.86 421.129 136.076 421.189L135.635 422.539C135.437 422.485 135.257 422.446 135.095 422.422C134.933 422.392 134.747 422.377 134.537 422.377C133.811 422.377 133.187 422.635 132.665 423.151C132.143 423.667 131.726 424.447 131.414 425.491V429.505H133.34V430.666H128.426ZM134.618 424.393V422.332L134.771 421.189H136.076L135.86 424.393H134.618ZM146.833 420.181L147.301 421.603C146.899 421.729 146.47 421.807 146.014 421.837C145.558 421.867 145.063 421.882 144.529 421.882C145.075 422.134 145.486 422.461 145.762 422.863C146.038 423.259 146.176 423.727 146.176 424.267C146.176 424.891 146.035 425.446 145.753 425.932C145.471 426.418 145.063 426.799 144.529 427.075C144.001 427.351 143.362 427.489 142.612 427.489C142.294 427.489 142.027 427.474 141.811 427.444C141.601 427.414 141.397 427.369 141.199 427.309C141.055 427.405 140.935 427.537 140.839 427.705C140.749 427.873 140.704 428.047 140.704 428.227C140.704 428.455 140.794 428.644 140.974 428.794C141.154 428.944 141.487 429.019 141.973 429.019H143.683C144.319 429.019 144.889 429.133 145.393 429.361C145.903 429.589 146.302 429.895 146.59 430.279C146.884 430.663 147.031 431.101 147.031 431.593C147.031 432.523 146.635 433.237 145.843 433.735C145.057 434.233 143.944 434.482 142.504 434.482C141.496 434.482 140.701 434.377 140.119 434.167C139.537 433.963 139.12 433.648 138.868 433.222C138.622 432.802 138.499 432.271 138.499 431.629H139.867C139.867 431.995 139.939 432.298 140.083 432.538C140.227 432.778 140.488 432.955 140.866 433.069C141.244 433.189 141.787 433.249 142.495 433.249C143.191 433.249 143.758 433.189 144.196 433.069C144.64 432.955 144.967 432.781 145.177 432.547C145.393 432.319 145.501 432.034 145.501 431.692C145.501 431.242 145.297 430.903 144.889 430.675C144.481 430.447 143.971 430.333 143.359 430.333H141.667C140.851 430.333 140.248 430.153 139.858 429.793C139.474 429.433 139.282 429.019 139.282 428.551C139.282 428.245 139.369 427.948 139.543 427.66C139.723 427.372 139.984 427.117 140.326 426.895C139.78 426.607 139.378 426.25 139.12 425.824C138.862 425.398 138.733 424.882 138.733 424.276C138.733 423.634 138.892 423.067 139.21 422.575C139.528 422.077 139.972 421.687 140.542 421.405C141.112 421.123 141.769 420.982 142.513 420.982C143.311 420.976 143.959 420.943 144.457 420.883C144.955 420.817 145.381 420.724 145.735 420.604C146.095 420.484 146.461 420.343 146.833 420.181ZM142.513 422.089C141.751 422.089 141.187 422.296 140.821 422.71C140.461 423.118 140.281 423.64 140.281 424.276C140.281 424.918 140.467 425.446 140.839 425.86C141.211 426.274 141.781 426.481 142.549 426.481C143.221 426.481 143.731 426.286 144.079 425.896C144.433 425.506 144.61 424.963 144.61 424.267C144.61 423.553 144.433 423.013 144.079 422.647C143.731 422.275 143.209 422.089 142.513 422.089ZM154.719 421.189V429.469H157.392V430.666H150.282V429.469H153.207V422.386H150.372V421.189H154.719ZM153.513 416.752C153.849 416.752 154.116 416.854 154.314 417.058C154.518 417.262 154.62 417.511 154.62 417.805C154.62 418.111 154.518 418.369 154.314 418.579C154.116 418.783 153.849 418.885 153.513 418.885C153.195 418.885 152.934 418.783 152.73 418.579C152.526 418.369 152.424 418.111 152.424 417.805C152.424 417.511 152.526 417.262 152.73 417.058C152.934 416.854 153.195 416.752 153.513 416.752ZM160.715 430.666V421.189H162.002L162.119 422.503C162.503 422.017 162.983 421.645 163.559 421.387C164.141 421.123 164.705 420.991 165.251 420.991C166.181 420.991 166.856 421.237 167.276 421.729C167.702 422.221 167.915 422.905 167.915 423.781V430.666H166.403V424.897C166.403 424.249 166.367 423.727 166.295 423.331C166.223 422.929 166.073 422.638 165.845 422.458C165.617 422.272 165.263 422.179 164.783 422.179C164.411 422.179 164.06 422.26 163.73 422.422C163.406 422.584 163.115 422.788 162.857 423.034C162.605 423.274 162.395 423.517 162.227 423.763V430.666H160.715Z" fill="#313131"/>
<rect x="102.395" y="66.4336" width="435.207" height="342.835" fill="#FFD7CC" stroke="#313131" stroke-width="1.5"/>
<rect width="82.5935" height="28.2968" transform="translate(389.164 111.727)" fill="#CCE8FF"/>
<path d="M398.509 122.7C399.349 122.7 400.018 122.904 400.516 123.312C401.02 123.72 401.383 124.296 401.605 125.04C401.827 125.778 401.938 126.642 401.938 127.632C401.938 128.586 401.803 129.438 401.533 130.188C401.269 130.932 400.867 131.517 400.327 131.943C399.787 132.369 399.106 132.582 398.284 132.582C397.246 132.582 396.412 132.216 395.782 131.484V136.002L394.27 136.191V122.898H395.557L395.683 124.221C396.031 123.735 396.445 123.36 396.925 123.096C397.411 122.832 397.939 122.7 398.509 122.7ZM398.149 123.915C397.627 123.915 397.165 124.074 396.763 124.392C396.367 124.704 396.04 125.052 395.782 125.436V130.134C396.028 130.5 396.337 130.791 396.709 131.007C397.087 131.217 397.501 131.322 397.951 131.322C398.737 131.322 399.328 131.022 399.724 130.422C400.12 129.822 400.318 128.889 400.318 127.623C400.318 126.795 400.24 126.108 400.084 125.562C399.928 125.01 399.691 124.599 399.373 124.329C399.055 124.053 398.647 123.915 398.149 123.915ZM411.849 130.305C411.849 130.683 411.912 130.959 412.038 131.133C412.164 131.307 412.359 131.436 412.623 131.52L412.254 132.582C411.846 132.528 411.489 132.399 411.183 132.195C410.877 131.985 410.655 131.67 410.517 131.25C410.175 131.688 409.749 132.021 409.239 132.249C408.729 132.471 408.165 132.582 407.547 132.582C406.599 132.582 405.852 132.315 405.306 131.781C404.76 131.247 404.487 130.539 404.487 129.657C404.487 128.679 404.868 127.929 405.63 127.407C406.392 126.885 407.493 126.624 408.933 126.624H410.328V125.832C410.328 125.148 410.127 124.665 409.725 124.383C409.329 124.095 408.777 123.951 408.069 123.951C407.757 123.951 407.391 123.99 406.971 124.068C406.551 124.14 406.095 124.263 405.603 124.437L405.207 123.294C405.789 123.078 406.335 122.925 406.845 122.835C407.355 122.745 407.841 122.7 408.303 122.7C409.485 122.7 410.37 122.976 410.958 123.528C411.552 124.074 411.849 124.818 411.849 125.76V130.305ZM407.934 131.43C408.402 131.43 408.849 131.313 409.275 131.079C409.701 130.839 410.052 130.509 410.328 130.089V127.65H408.96C407.916 127.65 407.178 127.83 406.746 128.19C406.32 128.55 406.107 129.033 406.107 129.639C406.107 130.227 406.257 130.674 406.557 130.98C406.863 131.28 407.322 131.43 407.934 131.43ZM421.526 118.893L423.038 119.082V132.375H421.715L421.571 131.124C421.217 131.628 420.809 131.997 420.347 132.231C419.891 132.465 419.402 132.582 418.88 132.582C418.058 132.582 417.38 132.375 416.846 131.961C416.312 131.547 415.916 130.971 415.658 130.233C415.4 129.489 415.271 128.628 415.271 127.65C415.271 126.702 415.418 125.856 415.712 125.112C416.006 124.362 416.429 123.774 416.981 123.348C417.539 122.916 418.208 122.7 418.988 122.7C419.534 122.7 420.014 122.796 420.428 122.988C420.842 123.174 421.208 123.45 421.526 123.816V118.893ZM419.384 123.915C418.592 123.915 417.983 124.224 417.557 124.842C417.131 125.46 416.918 126.396 416.918 127.65C416.918 128.466 417.005 129.15 417.179 129.702C417.353 130.254 417.608 130.668 417.944 130.944C418.286 131.22 418.703 131.358 419.195 131.358C419.735 131.358 420.194 131.205 420.572 130.899C420.956 130.593 421.274 130.248 421.526 129.864V125.13C421.268 124.746 420.956 124.449 420.59 124.239C420.224 124.023 419.822 123.915 419.384 123.915ZM432.319 118.893L433.831 119.082V132.375H432.508L432.364 131.124C432.01 131.628 431.602 131.997 431.14 132.231C430.684 132.465 430.195 132.582 429.673 132.582C428.851 132.582 428.173 132.375 427.639 131.961C427.105 131.547 426.709 130.971 426.451 130.233C426.193 129.489 426.064 128.628 426.064 127.65C426.064 126.702 426.211 125.856 426.505 125.112C426.799 124.362 427.222 123.774 427.774 123.348C428.332 122.916 429.001 122.7 429.781 122.7C430.327 122.7 430.807 122.796 431.221 122.988C431.635 123.174 432.001 123.45 432.319 123.816V118.893ZM430.177 123.915C429.385 123.915 428.776 124.224 428.35 124.842C427.924 125.46 427.711 126.396 427.711 127.65C427.711 128.466 427.798 129.15 427.972 129.702C428.146 130.254 428.401 130.668 428.737 130.944C429.079 131.22 429.496 131.358 429.988 131.358C430.528 131.358 430.987 131.205 431.365 130.899C431.749 130.593 432.067 130.248 432.319 129.864V125.13C432.061 124.746 431.749 124.449 431.383 124.239C431.017 124.023 430.615 123.915 430.177 123.915ZM442.239 122.898V131.178H444.912V132.375H437.802V131.178H440.727V124.095H437.892V122.898H442.239ZM441.033 118.461C441.369 118.461 441.636 118.563 441.834 118.767C442.038 118.971 442.14 119.22 442.14 119.514C442.14 119.82 442.038 120.078 441.834 120.288C441.636 120.492 441.369 120.594 441.033 120.594C440.715 120.594 440.454 120.492 440.25 120.288C440.046 120.078 439.944 119.82 439.944 119.514C439.944 119.22 440.046 118.971 440.25 118.767C440.454 118.563 440.715 118.461 441.033 118.461ZM448.235 132.375V122.898H449.522L449.639 124.212C450.023 123.726 450.503 123.354 451.079 123.096C451.661 122.832 452.225 122.7 452.771 122.7C453.701 122.7 454.376 122.946 454.796 123.438C455.222 123.93 455.435 124.614 455.435 125.49V132.375H453.923V126.606C453.923 125.958 453.887 125.436 453.815 125.04C453.743 124.638 453.593 124.347 453.365 124.167C453.137 123.981 452.783 123.888 452.303 123.888C451.931 123.888 451.58 123.969 451.25 124.131C450.926 124.293 450.635 124.497 450.377 124.743C450.125 124.983 449.915 125.226 449.747 125.472V132.375H448.235ZM466.732 121.89L467.2 123.312C466.798 123.438 466.369 123.516 465.913 123.546C465.457 123.576 464.962 123.591 464.428 123.591C464.974 123.843 465.385 124.17 465.661 124.572C465.937 124.968 466.075 125.436 466.075 125.976C466.075 126.6 465.934 127.155 465.652 127.641C465.37 128.127 464.962 128.508 464.428 128.784C463.9 129.06 463.261 129.198 462.511 129.198C462.193 129.198 461.926 129.183 461.71 129.153C461.5 129.123 461.296 129.078 461.098 129.018C460.954 129.114 460.834 129.246 460.738 129.414C460.648 129.582 460.603 129.756 460.603 129.936C460.603 130.164 460.693 130.353 460.873 130.503C461.053 130.653 461.386 130.728 461.872 130.728H463.582C464.218 130.728 464.788 130.842 465.292 131.07C465.802 131.298 466.201 131.604 466.489 131.988C466.783 132.372 466.93 132.81 466.93 133.302C466.93 134.232 466.534 134.946 465.742 135.444C464.956 135.942 463.843 136.191 462.403 136.191C461.395 136.191 460.6 136.086 460.018 135.876C459.436 135.672 459.019 135.357 458.767 134.931C458.521 134.511 458.398 133.98 458.398 133.338H459.766C459.766 133.704 459.838 134.007 459.982 134.247C460.126 134.487 460.387 134.664 460.765 134.778C461.143 134.898 461.686 134.958 462.394 134.958C463.09 134.958 463.657 134.898 464.095 134.778C464.539 134.664 464.866 134.49 465.076 134.256C465.292 134.028 465.4 133.743 465.4 133.401C465.4 132.951 465.196 132.612 464.788 132.384C464.38 132.156 463.87 132.042 463.258 132.042H461.566C460.75 132.042 460.147 131.862 459.757 131.502C459.373 131.142 459.181 130.728 459.181 130.26C459.181 129.954 459.268 129.657 459.442 129.369C459.622 129.081 459.883 128.826 460.225 128.604C459.679 128.316 459.277 127.959 459.019 127.533C458.761 127.107 458.632 126.591 458.632 125.985C458.632 125.343 458.791 124.776 459.109 124.284C459.427 123.786 459.871 123.396 460.441 123.114C461.011 122.832 461.668 122.691 462.412 122.691C463.21 122.685 463.858 122.652 464.356 122.592C464.854 122.526 465.28 122.433 465.634 122.313C465.994 122.193 466.36 122.052 466.732 121.89ZM462.412 123.798C461.65 123.798 461.086 124.005 460.72 124.419C460.36 124.827 460.18 125.349 460.18 125.985C460.18 126.627 460.366 127.155 460.738 127.569C461.11 127.983 461.68 128.19 462.448 128.19C463.12 128.19 463.63 127.995 463.978 127.605C464.332 127.215 464.509 126.672 464.509 125.976C464.509 125.262 464.332 124.722 463.978 124.356C463.63 123.984 463.108 123.798 462.412 123.798Z" fill="#313131"/>
<rect x="168.988" y="140.773" width="302.018" height="268.492" fill="#DEFFCC" stroke="#313131" stroke-width="1.5"/>
<rect x="245.953" y="200.975" width="148.088" height="148.088" fill="#CCE8FF" stroke="#A7A6FF" stroke-width="1.5" stroke-dasharray="3.3 3.3"/>
<rect width="100" height="41" transform="translate(397.57 45.1836)" fill="#A7A6FF"/>
<path d="M417.823 63.9756L417.292 67.9626H418.75V69.1326H417.121L416.743 72.1836H415.447L415.852 69.1326H413.233L412.837 72.1836H411.541L411.946 69.1326H410.524V67.9626H412.099L412.648 63.9756H411.19V62.7966H412.801L413.197 59.7906H414.493L414.061 62.7966H416.707L417.103 59.7906H418.399L417.976 62.7966H419.416V63.9756H417.823ZM413.386 67.9626H416.005L416.554 63.9756H413.917L413.386 67.9626ZM428.643 65.9286C428.643 64.8486 428.529 63.9846 428.301 63.3366C428.073 62.6886 427.773 62.2026 427.401 61.8786C427.029 61.5546 426.621 61.3386 426.177 61.2306C425.739 61.1226 425.307 61.0686 424.881 61.0686H423.423V70.9326H424.899C425.343 70.9326 425.784 70.8636 426.222 70.7256C426.666 70.5816 427.071 70.3296 427.437 69.9696C427.803 69.6036 428.094 69.0966 428.31 68.4486C428.532 67.7946 428.643 66.9546 428.643 65.9286ZM430.308 65.9286C430.308 66.9606 430.197 67.8426 429.975 68.5746C429.759 69.3006 429.462 69.9006 429.084 70.3746C428.706 70.8486 428.274 71.2176 427.788 71.4816C427.308 71.7396 426.801 71.9226 426.267 72.0306C425.739 72.1326 425.22 72.1836 424.71 72.1836H421.866V59.7906H424.512C425.238 59.7906 425.943 59.8716 426.627 60.0336C427.317 60.1956 427.938 60.4956 428.49 60.9336C429.048 61.3656 429.489 61.9836 429.813 62.7876C430.143 63.5916 430.308 64.6386 430.308 65.9286ZM434.981 61.0686V65.2446H439.571V66.5316H434.981V70.9326H440.615V72.1836H433.415V59.7906H440.453L440.273 61.0686H434.981ZM445.99 61.0686V65.4066H450.85V66.6666H445.99V72.1836H444.442V59.7906H451.741L451.552 61.0686H445.99ZM456.783 61.0686V65.4066H461.643V66.6666H456.783V72.1836H455.235V59.7906H462.534L462.345 61.0686H456.783ZM469.979 59.5926C470.789 59.5926 471.467 59.6946 472.013 59.8986C472.559 60.1026 473.078 60.4026 473.57 60.7986L472.697 61.8156C472.307 61.4856 471.893 61.2516 471.455 61.1136C471.023 60.9696 470.57 60.8976 470.096 60.8976C469.418 60.8976 468.791 61.0596 468.215 61.3836C467.639 61.7016 467.174 62.2326 466.82 62.9766C466.472 63.7146 466.298 64.7166 466.298 65.9826C466.298 67.2126 466.463 68.1996 466.793 68.9436C467.129 69.6876 467.582 70.2246 468.152 70.5546C468.722 70.8846 469.358 71.0496 470.06 71.0496C470.756 71.0496 471.326 70.9446 471.77 70.7346C472.22 70.5246 472.61 70.2846 472.94 70.0146L473.75 71.0406C473.372 71.4066 472.88 71.7246 472.274 71.9946C471.668 72.2586 470.924 72.3906 470.042 72.3906C469.04 72.3906 468.131 72.1446 467.315 71.6526C466.505 71.1606 465.863 70.4406 465.389 69.4926C464.915 68.5386 464.678 67.3686 464.678 65.9826C464.678 64.5906 464.918 63.4206 465.398 62.4726C465.884 61.5246 466.529 60.8076 467.333 60.3216C468.143 59.8356 469.025 59.5926 469.979 59.5926ZM480.772 59.5926C481.582 59.5926 482.26 59.6946 482.806 59.8986C483.352 60.1026 483.871 60.4026 484.363 60.7986L483.49 61.8156C483.1 61.4856 482.686 61.2516 482.248 61.1136C481.816 60.9696 481.363 60.8976 480.889 60.8976C480.211 60.8976 479.584 61.0596 479.008 61.3836C478.432 61.7016 477.967 62.2326 477.613 62.9766C477.265 63.7146 477.091 64.7166 477.091 65.9826C477.091 67.2126 477.256 68.1996 477.586 68.9436C477.922 69.6876 478.375 70.2246 478.945 70.5546C479.515 70.8846 480.151 71.0496 480.853 71.0496C481.549 71.0496 482.119 70.9446 482.563 70.7346C483.013 70.5246 483.403 70.2846 483.733 70.0146L484.543 71.0406C484.165 71.4066 483.673 71.7246 483.067 71.9946C482.461 72.2586 481.717 72.3906 480.835 72.3906C479.833 72.3906 478.924 72.1446 478.108 71.6526C477.298 71.1606 476.656 70.4406 476.182 69.4926C475.708 68.5386 475.471 67.3686 475.471 65.9826C475.471 64.5906 475.711 63.4206 476.191 62.4726C476.677 61.5246 477.322 60.8076 478.126 60.3216C478.936 59.8356 479.818 59.5926 480.772 59.5926Z" fill="white"/>
<rect width="186" height="41" transform="translate(20 296)" fill="#A7A6FF"/>
<path d="M39.407 309.518C39.917 309.518 40.379 309.563 40.793 309.653C41.207 309.743 41.6 309.869 41.972 310.031L41.486 311.156C41.18 311.024 40.856 310.925 40.514 310.859C40.172 310.793 39.818 310.76 39.452 310.76C38.792 310.76 38.294 310.889 37.958 311.147C37.628 311.405 37.463 311.801 37.463 312.335V314.261H40.676L40.514 315.449H37.463V323H35.951V315.449H33.692V314.261H35.951V312.371C35.951 311.783 36.101 311.276 36.401 310.85C36.707 310.424 37.121 310.097 37.643 309.869C38.165 309.635 38.753 309.518 39.407 309.518ZM48.211 313.325C49.105 313.325 49.852 313.529 50.452 313.937C51.058 314.339 51.511 314.909 51.811 315.647C52.117 316.385 52.27 317.255 52.27 318.257C52.27 319.223 52.114 320.078 51.802 320.822C51.49 321.566 51.031 322.151 50.425 322.577C49.825 322.997 49.081 323.207 48.193 323.207C47.305 323.207 46.558 323.003 45.952 322.595C45.346 322.187 44.887 321.614 44.575 320.876C44.269 320.132 44.116 319.265 44.116 318.275C44.116 317.297 44.272 316.436 44.584 315.692C44.896 314.948 45.355 314.369 45.961 313.955C46.573 313.535 47.323 313.325 48.211 313.325ZM48.211 314.558C47.395 314.558 46.777 314.861 46.357 315.467C45.943 316.067 45.736 317.003 45.736 318.275C45.736 319.523 45.94 320.45 46.348 321.056C46.762 321.662 47.377 321.965 48.193 321.965C49.009 321.965 49.621 321.662 50.029 321.056C50.443 320.45 50.65 319.517 50.65 318.257C50.65 316.997 50.446 316.067 50.038 315.467C49.63 314.861 49.021 314.558 48.211 314.558ZM55.3949 323V313.523H56.6819L56.7989 314.837C57.1829 314.351 57.6629 313.979 58.2389 313.721C58.8209 313.457 59.3849 313.325 59.9309 313.325C60.8609 313.325 61.5359 313.571 61.9559 314.063C62.3819 314.555 62.5949 315.239 62.5949 316.115V323H61.0829V317.231C61.0829 316.583 61.0469 316.061 60.9749 315.665C60.9029 315.263 60.7529 314.972 60.5249 314.792C60.2969 314.606 59.9429 314.513 59.4629 314.513C59.0909 314.513 58.7399 314.594 58.4099 314.756C58.0859 314.918 57.7949 315.122 57.5369 315.368C57.2849 315.608 57.0749 315.851 56.9069 316.097V323H55.3949ZM73.7119 322.523C73.3879 322.739 72.9949 322.907 72.5329 323.027C72.0709 323.147 71.6179 323.207 71.1739 323.207C70.1539 323.207 69.3679 322.94 68.8159 322.406C68.2639 321.872 67.9879 321.185 67.9879 320.345V314.693H65.8099V313.523H67.9879V311.372L69.4999 311.192V313.523H72.7759L72.5959 314.693H69.4999V320.327C69.4999 320.855 69.6379 321.257 69.9139 321.533C70.1959 321.809 70.6609 321.947 71.3089 321.947C71.6629 321.947 71.9899 321.905 72.2899 321.821C72.5899 321.737 72.8689 321.629 73.1269 321.497L73.7119 322.523ZM76.9629 318.743V317.429H84.1809V318.743H76.9629ZM90.9958 321.956C91.7218 321.956 92.2948 321.821 92.7148 321.551C93.1408 321.275 93.3538 320.909 93.3538 320.453C93.3538 320.165 93.2998 319.916 93.1918 319.706C93.0898 319.496 92.8768 319.307 92.5528 319.139C92.2288 318.971 91.7308 318.803 91.0588 318.635C90.4048 318.473 89.8348 318.287 89.3488 318.077C88.8688 317.861 88.4938 317.582 88.2238 317.24C87.9598 316.898 87.8278 316.454 87.8278 315.908C87.8278 315.374 87.9778 314.915 88.2778 314.531C88.5838 314.141 89.0068 313.844 89.5468 313.64C90.0868 313.43 90.7138 313.325 91.4278 313.325C92.1898 313.325 92.8528 313.427 93.4168 313.631C93.9868 313.829 94.4698 314.075 94.8658 314.369L94.1998 315.395C93.8398 315.149 93.4438 314.948 93.0118 314.792C92.5798 314.63 92.0578 314.549 91.4458 314.549C90.7018 314.549 90.1738 314.666 89.8618 314.9C89.5498 315.128 89.3938 315.425 89.3938 315.791C89.3938 316.067 89.4688 316.298 89.6188 316.484C89.7748 316.664 90.0358 316.829 90.4018 316.979C90.7678 317.123 91.2718 317.282 91.9138 317.456C92.5318 317.618 93.0688 317.813 93.5248 318.041C93.9868 318.269 94.3468 318.569 94.6048 318.941C94.8628 319.313 94.9918 319.793 94.9918 320.381C94.9918 321.053 94.7998 321.599 94.4158 322.019C94.0318 322.433 93.5338 322.736 92.9218 322.928C92.3158 323.114 91.6738 323.207 90.9958 323.207C90.1378 323.207 89.4058 323.084 88.7998 322.838C88.1998 322.586 87.6958 322.283 87.2878 321.929L88.1518 320.93C88.5238 321.236 88.9498 321.485 89.4298 321.677C89.9158 321.863 90.4378 321.956 90.9958 321.956ZM103.364 313.523V321.803H106.037V323H98.9268V321.803H101.852V314.72H99.0168V313.523H103.364ZM102.158 309.086C102.494 309.086 102.761 309.188 102.959 309.392C103.163 309.596 103.265 309.845 103.265 310.139C103.265 310.445 103.163 310.703 102.959 310.913C102.761 311.117 102.494 311.219 102.158 311.219C101.84 311.219 101.579 311.117 101.375 310.913C101.171 310.703 101.069 310.445 101.069 310.139C101.069 309.845 101.171 309.596 101.375 309.392C101.579 309.188 101.84 309.086 102.158 309.086ZM111.25 321.713H116.524L116.326 323H109.396V321.857L114.652 314.837H109.81V313.523H116.47V314.693L111.25 321.713ZM121.341 318.797C121.371 319.529 121.512 320.129 121.764 320.597C122.016 321.059 122.349 321.401 122.763 321.623C123.177 321.839 123.627 321.947 124.113 321.947C124.599 321.947 125.037 321.875 125.427 321.731C125.823 321.587 126.228 321.374 126.642 321.092L127.353 322.091C126.909 322.439 126.402 322.712 125.832 322.91C125.268 323.108 124.689 323.207 124.095 323.207C123.177 323.207 122.394 323 121.746 322.586C121.098 322.172 120.603 321.596 120.261 320.858C119.925 320.114 119.757 319.253 119.757 318.275C119.757 317.315 119.928 316.463 120.27 315.719C120.612 314.975 121.092 314.39 121.71 313.964C122.328 313.538 123.057 313.325 123.897 313.325C124.695 313.325 125.382 313.514 125.958 313.892C126.534 314.264 126.975 314.798 127.281 315.494C127.593 316.184 127.749 317.009 127.749 317.969C127.749 318.131 127.746 318.284 127.74 318.428C127.734 318.566 127.725 318.689 127.713 318.797H121.341ZM123.915 314.567C123.213 314.567 122.625 314.816 122.151 315.314C121.683 315.812 121.416 316.583 121.35 317.627H126.291C126.273 316.613 126.051 315.851 125.625 315.341C125.199 314.825 124.629 314.567 123.915 314.567ZM133.07 321.74C133.07 321.35 133.208 321.011 133.484 320.723C133.766 320.435 134.111 320.291 134.519 320.291C134.939 320.291 135.287 320.435 135.563 320.723C135.845 321.011 135.986 321.35 135.986 321.74C135.986 322.148 135.845 322.496 135.563 322.784C135.287 323.066 134.939 323.207 134.519 323.207C134.111 323.207 133.766 323.066 133.484 322.784C133.208 322.496 133.07 322.148 133.07 321.74ZM133.07 315.251C133.07 314.975 133.133 314.729 133.259 314.513C133.385 314.297 133.559 314.126 133.781 314C134.003 313.868 134.249 313.802 134.519 313.802C134.939 313.802 135.287 313.943 135.563 314.225C135.845 314.507 135.986 314.849 135.986 315.251C135.986 315.647 135.845 315.992 135.563 316.286C135.287 316.574 134.939 316.718 134.519 316.718C134.111 316.718 133.766 316.574 133.484 316.286C133.208 315.992 133.07 315.647 133.07 315.251ZM155.655 310.409L156.915 310.94L153.621 318.779H160.236V319.985H152.019V318.887L155.655 310.409ZM158.634 315.26V323H157.176L157.167 319.067L157.374 315.26H158.634ZM166.916 310.409C168.254 310.409 169.265 310.961 169.949 312.065C170.633 313.169 170.975 314.747 170.975 316.799C170.975 318.857 170.633 320.441 169.949 321.551C169.265 322.655 168.254 323.207 166.916 323.207C165.584 323.207 164.573 322.655 163.883 321.551C163.199 320.441 162.857 318.857 162.857 316.799C162.857 314.747 163.199 313.169 163.883 312.065C164.573 310.961 165.584 310.409 166.916 310.409ZM166.916 311.624C166.154 311.624 165.554 312.029 165.116 312.839C164.678 313.643 164.459 314.963 164.459 316.799C164.459 317.729 164.507 318.524 164.603 319.184C164.699 319.844 164.846 320.381 165.044 320.795C165.248 321.203 165.503 321.503 165.809 321.695C166.121 321.887 166.49 321.983 166.916 321.983C167.432 321.983 167.873 321.806 168.239 321.452C168.611 321.098 168.893 320.54 169.085 319.778C169.283 319.01 169.382 318.017 169.382 316.799C169.382 315.563 169.295 314.564 169.121 313.802C168.953 313.04 168.686 312.488 168.32 312.146C167.96 311.798 167.492 311.624 166.916 311.624ZM168.743 312.065L169.139 313.388L165.197 321.371L164.639 320.318L168.743 312.065ZM178.357 313.325C179.197 313.325 179.866 313.529 180.364 313.937C180.868 314.345 181.231 314.921 181.453 315.665C181.675 316.403 181.786 317.267 181.786 318.257C181.786 319.211 181.651 320.063 181.381 320.813C181.117 321.557 180.715 322.142 180.175 322.568C179.635 322.994 178.954 323.207 178.132 323.207C177.094 323.207 176.26 322.841 175.63 322.109V326.627L174.118 326.816V313.523H175.405L175.531 314.846C175.879 314.36 176.293 313.985 176.773 313.721C177.259 313.457 177.787 313.325 178.357 313.325ZM177.997 314.54C177.475 314.54 177.013 314.699 176.611 315.017C176.215 315.329 175.888 315.677 175.63 316.061V320.759C175.876 321.125 176.185 321.416 176.557 321.632C176.935 321.842 177.349 321.947 177.799 321.947C178.585 321.947 179.176 321.647 179.572 321.047C179.968 320.447 180.166 319.514 180.166 318.248C180.166 317.42 180.088 316.733 179.932 316.187C179.776 315.635 179.539 315.224 179.221 314.954C178.903 314.678 178.495 314.54 177.997 314.54ZM185.829 323H184.101L187.602 317.996L184.533 313.523H186.324L188.52 317.051L190.743 313.523H192.471L189.411 317.933L192.903 323H191.049L188.457 318.932L185.829 323Z" fill="white"/>
</svg>
