<svg width="640" height="500" viewBox="0 0 640 500" fill="none" xmlns="http://www.w3.org/2000/svg">
<g clip-path="url(#clip0_3050_58072)">
<path d="M609.559 175.311H640V788.126H314.727V175.311H353.559V116.693H609.559V175.311Z" fill="#DEFFCC"/>
<path d="M568.484 156.243L573.727 151M573.727 151L578.97 145.758M573.727 151L568.484 145.758M573.727 151L578.97 156.243" stroke="#313131" stroke-width="1.5" stroke-linecap="round" stroke-linejoin="round"/>
<g clip-path="url(#clip1_3050_58072)">
<path fill-rule="evenodd" clip-rule="evenodd" d="M393.359 166.807C402.09 166.807 409.167 159.73 409.167 151C409.167 142.27 402.09 135.193 393.359 135.193C384.628 135.193 377.551 142.27 377.551 151C377.551 159.73 384.628 166.807 393.359 166.807Z" fill="#313131"/>
<path fill-rule="evenodd" clip-rule="evenodd" d="M393.359 140.936L397.374 147.197L393.359 153.476L389.344 147.197L393.359 140.936Z" fill="white"/>
<path d="M406.059 151.005C406.059 151.004 406.059 151.002 406.059 151.001H406.059C406.056 150.669 405.786 150.4 405.453 150.4C405.12 150.4 404.85 150.669 404.847 151.001H404.847C404.847 157.345 399.704 162.487 393.359 162.487C387.015 162.487 381.872 157.345 381.872 151.001H381.872C381.869 150.669 381.599 150.4 381.266 150.4C380.933 150.4 380.663 150.669 380.66 151.001H380.66C380.66 151.002 380.66 151.004 380.66 151.005C380.66 151.006 380.66 151.006 380.66 151.006C380.66 151.007 380.66 151.007 380.66 151.008C380.664 158.018 386.348 163.699 393.359 163.699C400.371 163.699 406.055 158.018 406.059 151.008C406.059 151.007 406.059 151.007 406.059 151.006C406.059 151.006 406.059 151.006 406.059 151.005Z" fill="white"/>
</g>
<path d="M432.204 154.6V153.784C428.244 154.168 425.724 154.768 425.724 156.544C425.724 157.768 426.66 158.584 428.22 158.584C430.26 158.584 432.204 157.648 432.204 154.6ZM427.74 160.312C425.316 160.312 423.3 158.968 423.3 156.592C423.3 153.544 426.756 152.632 432.036 152.056V151.744C432.036 149.368 430.74 148.6 429.108 148.6C427.284 148.6 426.252 149.56 426.156 151.168H423.9C424.092 148.384 426.588 146.824 429.084 146.824C432.66 146.824 434.244 148.504 434.22 152.152L434.196 155.128C434.172 157.312 434.268 158.776 434.532 160H432.324C432.252 159.52 432.18 158.992 432.156 158.224C431.364 159.568 430.044 160.312 427.74 160.312ZM445.37 149.128V142.6H447.554V160H445.37V158.056C444.578 159.424 443.234 160.312 441.146 160.312C438.17 160.312 435.626 157.888 435.626 153.592C435.626 149.368 438.17 146.872 441.146 146.872C443.234 146.872 444.578 147.76 445.37 149.128ZM445.466 153.592C445.466 150.184 443.642 148.744 441.698 148.744C439.466 148.744 438.002 150.496 438.002 153.592C438.002 156.688 439.466 158.44 441.698 158.44C443.642 158.44 445.466 157 445.466 153.592ZM450.038 147.088H452.222V160H450.038V147.088ZM450.038 142.6H452.222V145.24H450.038V142.6ZM455.423 147.088L458.927 156.976L462.431 147.088H464.687L459.815 160H457.871L452.999 147.088H455.423ZM470.58 146.872C473.748 146.872 475.668 149.2 475.98 151.408H473.772C473.46 149.872 472.14 148.792 470.436 148.792C468.516 148.792 466.716 150.304 466.716 153.544C466.716 156.808 468.516 158.392 470.436 158.392C472.284 158.392 473.556 157.144 473.868 155.8H476.124C475.668 158.224 473.388 160.312 470.364 160.312C466.644 160.312 464.34 157.504 464.34 153.568C464.34 149.728 466.764 146.872 470.58 146.872Z" fill="#1F1F1F"/>
<g clip-path="url(#clip2_3050_58072)">
<path fill-rule="evenodd" clip-rule="evenodd" d="M319.905 51.3008C302.262 51.3008 288 65.9674 288 84.1121C288 98.6161 297.138 110.893 309.816 115.239C311.4 115.565 311.981 114.533 311.981 113.664C311.981 112.903 311.929 110.296 311.929 107.579C303.054 109.535 301.206 103.668 301.206 103.668C299.779 99.8655 297.666 98.8881 297.666 98.8881C294.761 96.8781 297.878 96.8781 297.878 96.8781C301.1 97.0954 302.791 100.246 302.791 100.246C305.642 105.243 310.238 103.831 312.087 102.962C312.351 100.843 313.196 99.3768 314.094 98.5621C307.016 97.8014 299.568 94.9768 299.568 82.3734C299.568 78.7881 300.835 75.8548 302.843 73.5734C302.526 72.7588 301.416 69.3901 303.16 64.8814C303.16 64.8814 305.854 64.0121 311.928 68.2494C314.529 67.5312 317.211 67.1659 319.905 67.1628C322.599 67.1628 325.345 67.5434 327.88 68.2494C333.955 64.0121 336.649 64.8814 336.649 64.8814C338.393 69.3901 337.283 72.7588 336.966 73.5734C339.026 75.8548 340.241 78.7881 340.241 82.3734C340.241 94.9768 332.793 97.7468 325.662 98.5621C326.824 99.5941 327.828 101.549 327.828 104.646C327.828 109.046 327.775 112.577 327.775 113.663C327.775 114.533 328.357 115.565 329.941 115.239C342.618 110.893 351.756 98.6161 351.756 84.1121C351.809 65.9674 337.494 51.3008 319.905 51.3008Z" fill="#313131"/>
</g>
<line x1="609.641" y1="116.051" x2="30.3633" y2="116.051" stroke="#A7A6FF" stroke-width="1.5" stroke-dasharray="4 4"/>
<line x1="609.641" y1="50.25" x2="30.3633" y2="50.25" stroke="#A7A6FF" stroke-width="2" stroke-dasharray="4 4"/>
<path d="M446.211 234.59H615.023V847.405H151.379V234.59H190.211V175.973H446.211V234.59Z" fill="white"/>
<path d="M405.137 215.522L410.379 210.28M410.379 210.28L415.622 205.037M410.379 210.28L405.137 205.037M410.379 210.28L415.622 215.522" stroke="#313131" stroke-width="1.5" stroke-linecap="round" stroke-linejoin="round"/>
<g clip-path="url(#clip3_3050_58072)">
<path fill-rule="evenodd" clip-rule="evenodd" d="M230.011 226.086C238.742 226.086 245.82 219.009 245.82 210.28C245.82 201.55 238.742 194.473 230.011 194.473C221.281 194.473 214.203 201.55 214.203 210.28C214.203 219.009 221.281 226.086 230.011 226.086Z" fill="#313131"/>
<path fill-rule="evenodd" clip-rule="evenodd" d="M230.011 200.215L234.027 206.476L230.011 212.755L225.996 206.476L230.011 200.215Z" fill="white"/>
<path d="M242.711 210.285C242.711 210.283 242.711 210.282 242.711 210.28H242.711C242.708 209.948 242.438 209.68 242.105 209.68C241.772 209.68 241.502 209.948 241.499 210.28H241.499C241.499 216.624 236.356 221.767 230.012 221.767C223.668 221.767 218.524 216.624 218.524 210.28H218.524C218.522 209.948 218.251 209.68 217.918 209.68C217.586 209.68 217.315 209.948 217.313 210.28H217.312C217.312 210.282 217.312 210.283 217.312 210.285C217.312 210.285 217.312 210.285 217.312 210.286C217.312 210.286 217.312 210.287 217.312 210.287C217.316 217.297 223.001 222.979 230.012 222.979C237.023 222.979 242.707 217.297 242.711 210.287C242.711 210.287 242.711 210.286 242.711 210.286C242.711 210.285 242.711 210.285 242.711 210.285Z" fill="white"/>
</g>
<path d="M268.856 213.879V213.063C264.896 213.447 262.376 214.047 262.376 215.823C262.376 217.047 263.312 217.863 264.872 217.863C266.912 217.863 268.856 216.927 268.856 213.879ZM264.392 219.591C261.968 219.591 259.952 218.247 259.952 215.871C259.952 212.823 263.408 211.911 268.688 211.335V211.023C268.688 208.647 267.392 207.879 265.76 207.879C263.936 207.879 262.904 208.839 262.808 210.447H260.552C260.744 207.663 263.24 206.103 265.736 206.103C269.312 206.103 270.896 207.783 270.872 211.431L270.848 214.407C270.824 216.591 270.92 218.055 271.184 219.279H268.976C268.904 218.799 268.832 218.271 268.808 217.503C268.016 218.847 266.696 219.591 264.392 219.591ZM282.022 208.407V201.879H284.206V219.279H282.022V217.335C281.23 218.703 279.886 219.591 277.798 219.591C274.822 219.591 272.278 217.167 272.278 212.871C272.278 208.647 274.822 206.151 277.798 206.151C279.886 206.151 281.23 207.039 282.022 208.407ZM282.118 212.871C282.118 209.463 280.294 208.023 278.35 208.023C276.118 208.023 274.654 209.775 274.654 212.871C274.654 215.967 276.118 217.719 278.35 217.719C280.294 217.719 282.118 216.279 282.118 212.871ZM286.691 206.367H288.875V219.279H286.691V206.367ZM286.691 201.879H288.875V204.519H286.691V201.879ZM292.075 206.367L295.579 216.255L299.083 206.367H301.339L296.467 219.279H294.523L289.651 206.367H292.075ZM307.232 206.151C310.4 206.151 312.32 208.479 312.632 210.687H310.424C310.112 209.151 308.792 208.071 307.088 208.071C305.168 208.071 303.368 209.583 303.368 212.823C303.368 216.087 305.168 217.671 307.088 217.671C308.936 217.671 310.208 216.423 310.52 215.079H312.776C312.32 217.503 310.04 219.591 307.016 219.591C303.296 219.591 300.992 216.783 300.992 212.847C300.992 209.007 303.416 206.151 307.232 206.151Z" fill="#1F1F1F"/>
<path d="M294.832 290.918H561.727V903.733H0V290.918H38.832V232.301H294.832V290.918Z" fill="#CDCCFF"/>
<path d="M253.758 271.85L259 266.608M259 266.608L264.243 261.365M259 266.608L253.758 261.365M259 266.608L264.243 271.85" stroke="#313131" stroke-width="1.5" stroke-linecap="round" stroke-linejoin="round"/>
<g clip-path="url(#clip4_3050_58072)">
<path fill-rule="evenodd" clip-rule="evenodd" d="M78.6325 282.415C87.3632 282.415 94.4408 275.338 94.4408 266.608C94.4408 257.878 87.3632 250.801 78.6325 250.801C69.9018 250.801 62.8242 257.878 62.8242 266.608C62.8242 275.338 69.9018 282.415 78.6325 282.415Z" fill="#313131"/>
<path fill-rule="evenodd" clip-rule="evenodd" d="M78.6325 256.543L82.6478 262.804L78.6325 269.083L74.6172 262.804L78.6325 256.543Z" fill="white"/>
<path d="M91.3322 266.613C91.3322 266.611 91.3322 266.61 91.3322 266.608H91.3321C91.3293 266.276 91.0592 266.008 90.7262 266.008C90.3933 266.008 90.1232 266.276 90.1204 266.608H90.1203C90.1203 272.952 84.9772 278.095 78.6329 278.095C72.2886 278.095 67.1456 272.952 67.1456 266.608H67.1455C67.1426 266.276 66.8725 266.008 66.5396 266.008C66.2067 266.008 65.9365 266.276 65.9337 266.608H65.9336C65.9336 266.61 65.9336 266.611 65.9336 266.613C65.9336 266.613 65.9336 266.613 65.9336 266.614C65.9336 266.614 65.9336 266.615 65.9336 266.616C65.9374 273.625 71.6216 279.307 78.6329 279.307C85.6442 279.307 91.3284 273.625 91.3322 266.616C91.3322 266.615 91.3322 266.614 91.3322 266.614C91.3322 266.613 91.3322 266.613 91.3322 266.613Z" fill="white"/>
</g>
<path d="M117.477 270.207V269.391C113.517 269.775 110.997 270.375 110.997 272.151C110.997 273.375 111.933 274.191 113.493 274.191C115.533 274.191 117.477 273.255 117.477 270.207ZM113.013 275.919C110.589 275.919 108.573 274.575 108.573 272.199C108.573 269.151 112.029 268.239 117.309 267.663V267.351C117.309 264.975 116.013 264.207 114.381 264.207C112.557 264.207 111.525 265.167 111.429 266.775H109.173C109.365 263.991 111.861 262.431 114.357 262.431C117.933 262.431 119.517 264.111 119.493 267.759L119.469 270.735C119.445 272.919 119.541 274.383 119.805 275.607H117.597C117.525 275.127 117.453 274.599 117.429 273.831C116.637 275.175 115.317 275.919 113.013 275.919ZM130.644 264.735V258.207H132.828V275.607H130.644V273.663C129.852 275.031 128.508 275.919 126.42 275.919C123.444 275.919 120.9 273.495 120.9 269.199C120.9 264.975 123.444 262.479 126.42 262.479C128.508 262.479 129.852 263.367 130.644 264.735ZM130.74 269.199C130.74 265.791 128.916 264.351 126.972 264.351C124.74 264.351 123.276 266.103 123.276 269.199C123.276 272.295 124.74 274.047 126.972 274.047C128.916 274.047 130.74 272.607 130.74 269.199ZM135.312 262.695H137.496V275.607H135.312V262.695ZM135.312 258.207H137.496V260.847H135.312V258.207ZM140.696 262.695L144.2 272.583L147.704 262.695H149.96L145.088 275.607H143.144L138.272 262.695H140.696ZM155.853 262.479C159.021 262.479 160.941 264.807 161.253 267.015H159.045C158.733 265.479 157.413 264.399 155.709 264.399C153.789 264.399 151.989 265.911 151.989 269.151C151.989 272.415 153.789 273.999 155.709 273.999C157.557 273.999 158.829 272.751 159.141 271.407H161.397C160.941 273.831 158.661 275.919 155.637 275.919C151.917 275.919 149.613 273.111 149.613 269.175C149.613 265.335 152.037 262.479 155.853 262.479Z" fill="#1F1F1F"/>
<rect width="186" height="41" transform="translate(40 320)" fill="#DEFFCC"/>
<path d="M60.505 336.308L61.234 337.469L54.88 341.366L61.234 345.299L60.424 346.406L53.584 342.131V340.583L60.505 336.308ZM72.126 346.523C71.802 346.739 71.409 346.907 70.947 347.027C70.485 347.147 70.032 347.207 69.588 347.207C68.568 347.207 67.782 346.94 67.23 346.406C66.678 345.872 66.402 345.185 66.402 344.345V338.693H64.224V337.523H66.402V335.372L67.914 335.192V337.523H71.19L71.01 338.693H67.914V344.327C67.914 344.855 68.052 345.257 68.328 345.533C68.61 345.809 69.075 345.947 69.723 345.947C70.077 345.947 70.404 345.905 70.704 345.821C71.004 345.737 71.283 345.629 71.541 345.497L72.126 346.523ZM80.1919 337.523V345.803H82.8649V347H75.7549V345.803H78.6799V338.72H75.8449V337.523H80.1919ZM78.9859 333.086C79.3219 333.086 79.5889 333.188 79.7869 333.392C79.9909 333.596 80.0929 333.845 80.0929 334.139C80.0929 334.445 79.9909 334.703 79.7869 334.913C79.5889 335.117 79.3219 335.219 78.9859 335.219C78.6679 335.219 78.4069 335.117 78.2029 334.913C77.9989 334.703 77.8969 334.445 77.8969 334.139C77.8969 333.845 77.9989 333.596 78.2029 333.392C78.4069 333.188 78.6679 333.086 78.9859 333.086ZM93.7119 346.523C93.3879 346.739 92.9949 346.907 92.5329 347.027C92.0709 347.147 91.6179 347.207 91.1739 347.207C90.1539 347.207 89.3679 346.94 88.8159 346.406C88.2639 345.872 87.9879 345.185 87.9879 344.345V338.693H85.8099V337.523H87.9879V335.372L89.4999 335.192V337.523H92.7759L92.5959 338.693H89.4999V344.327C89.4999 344.855 89.6379 345.257 89.9139 345.533C90.1959 345.809 90.6609 345.947 91.3089 345.947C91.6629 345.947 91.9899 345.905 92.2899 345.821C92.5899 345.737 92.8689 345.629 93.1269 345.497L93.7119 346.523ZM100.671 333.707V344.66C100.671 345.128 100.815 345.461 101.103 345.659C101.397 345.851 101.775 345.947 102.237 345.947C102.525 345.947 102.798 345.917 103.056 345.857C103.314 345.797 103.572 345.716 103.83 345.614L104.235 346.721C103.977 346.847 103.656 346.958 103.272 347.054C102.894 347.156 102.465 347.207 101.985 347.207C101.145 347.207 100.464 346.976 99.9419 346.514C99.4199 346.046 99.1589 345.401 99.1589 344.579V334.904H96.2519V333.707H100.671ZM108.962 342.797C108.992 343.529 109.133 344.129 109.385 344.597C109.637 345.059 109.97 345.401 110.384 345.623C110.798 345.839 111.248 345.947 111.734 345.947C112.22 345.947 112.658 345.875 113.048 345.731C113.444 345.587 113.849 345.374 114.263 345.092L114.974 346.091C114.53 346.439 114.023 346.712 113.453 346.91C112.889 347.108 112.31 347.207 111.716 347.207C110.798 347.207 110.015 347 109.367 346.586C108.719 346.172 108.224 345.596 107.882 344.858C107.546 344.114 107.378 343.253 107.378 342.275C107.378 341.315 107.549 340.463 107.891 339.719C108.233 338.975 108.713 338.39 109.331 337.964C109.949 337.538 110.678 337.325 111.518 337.325C112.316 337.325 113.003 337.514 113.579 337.892C114.155 338.264 114.596 338.798 114.902 339.494C115.214 340.184 115.37 341.009 115.37 341.969C115.37 342.131 115.367 342.284 115.361 342.428C115.355 342.566 115.346 342.689 115.334 342.797H108.962ZM111.536 338.567C110.834 338.567 110.246 338.816 109.772 339.314C109.304 339.812 109.037 340.583 108.971 341.627H113.912C113.894 340.613 113.672 339.851 113.246 339.341C112.82 338.825 112.25 338.567 111.536 338.567ZM119.071 336.308L125.992 340.583V342.131L119.161 346.406L118.342 345.29L124.696 341.366L118.342 337.451L119.071 336.308ZM136.049 336.308L136.778 337.469L130.424 341.366L139.127 346.739L138.317 347.846L129.128 342.131V340.583L136.049 336.308ZM138.317 349.673L137.093 349.124L145.193 332.429L146.399 333.023L138.317 349.673ZM158.47 346.523C158.146 346.739 157.753 346.907 157.291 347.027C156.829 347.147 156.376 347.207 155.932 347.207C154.912 347.207 154.126 346.94 153.574 346.406C153.022 345.872 152.746 345.185 152.746 344.345V338.693H150.568V337.523H152.746V335.372L154.258 335.192V337.523H157.534L157.354 338.693H154.258V344.327C154.258 344.855 154.396 345.257 154.672 345.533C154.954 345.809 155.419 345.947 156.067 345.947C156.421 345.947 156.748 345.905 157.048 345.821C157.348 345.737 157.627 345.629 157.885 345.497L158.47 346.523ZM166.536 337.523V345.803H169.209V347H162.099V345.803H165.024V338.72H162.189V337.523H166.536ZM165.33 333.086C165.666 333.086 165.933 333.188 166.131 333.392C166.335 333.596 166.437 333.845 166.437 334.139C166.437 334.445 166.335 334.703 166.131 334.913C165.933 335.117 165.666 335.219 165.33 335.219C165.012 335.219 164.751 335.117 164.547 334.913C164.343 334.703 164.241 334.445 164.241 334.139C164.241 333.845 164.343 333.596 164.547 333.392C164.751 333.188 165.012 333.086 165.33 333.086ZM180.056 346.523C179.732 346.739 179.339 346.907 178.877 347.027C178.415 347.147 177.962 347.207 177.518 347.207C176.498 347.207 175.712 346.94 175.16 346.406C174.608 345.872 174.332 345.185 174.332 344.345V338.693H172.154V337.523H174.332V335.372L175.844 335.192V337.523H179.12L178.94 338.693H175.844V344.327C175.844 344.855 175.982 345.257 176.258 345.533C176.54 345.809 177.005 345.947 177.653 345.947C178.007 345.947 178.334 345.905 178.634 345.821C178.934 345.737 179.213 345.629 179.471 345.497L180.056 346.523ZM187.015 333.707V344.66C187.015 345.128 187.159 345.461 187.447 345.659C187.741 345.851 188.119 345.947 188.581 345.947C188.869 345.947 189.142 345.917 189.4 345.857C189.658 345.797 189.916 345.716 190.174 345.614L190.579 346.721C190.321 346.847 190 346.958 189.616 347.054C189.238 347.156 188.809 347.207 188.329 347.207C187.489 347.207 186.808 346.976 186.286 346.514C185.764 346.046 185.503 345.401 185.503 344.579V334.904H182.596V333.707H187.015ZM195.306 342.797C195.336 343.529 195.477 344.129 195.729 344.597C195.981 345.059 196.314 345.401 196.728 345.623C197.142 345.839 197.592 345.947 198.078 345.947C198.564 345.947 199.002 345.875 199.392 345.731C199.788 345.587 200.193 345.374 200.607 345.092L201.318 346.091C200.874 346.439 200.367 346.712 199.797 346.91C199.233 347.108 198.654 347.207 198.06 347.207C197.142 347.207 196.359 347 195.711 346.586C195.063 346.172 194.568 345.596 194.226 344.858C193.89 344.114 193.722 343.253 193.722 342.275C193.722 341.315 193.893 340.463 194.235 339.719C194.577 338.975 195.057 338.39 195.675 337.964C196.293 337.538 197.022 337.325 197.862 337.325C198.66 337.325 199.347 337.514 199.923 337.892C200.499 338.264 200.94 338.798 201.246 339.494C201.558 340.184 201.714 341.009 201.714 341.969C201.714 342.131 201.711 342.284 201.705 342.428C201.699 342.566 201.69 342.689 201.678 342.797H195.306ZM197.88 338.567C197.178 338.567 196.59 338.816 196.116 339.314C195.648 339.812 195.381 340.583 195.315 341.627H200.256C200.238 340.613 200.016 339.851 199.59 339.341C199.164 338.825 198.594 338.567 197.88 338.567ZM205.415 336.308L212.336 340.583V342.131L205.505 346.406L204.686 345.29L211.04 341.366L204.686 337.451L205.415 336.308Z" fill="#313131"/>
</g>
<defs>
<clipPath id="clip0_3050_58072">
<rect width="640" height="500" fill="white"/>
</clipPath>
<clipPath id="clip1_3050_58072">
<rect width="31.6166" height="31.6137" fill="white" transform="translate(377.551 135.193)"/>
</clipPath>
<clipPath id="clip2_3050_58072">
<rect width="64" height="64" fill="white" transform="translate(288 51.3008)"/>
</clipPath>
<clipPath id="clip3_3050_58072">
<rect width="31.6166" height="31.6137" fill="white" transform="translate(214.203 194.473)"/>
</clipPath>
<clipPath id="clip4_3050_58072">
<rect width="31.6166" height="31.6137" fill="white" transform="translate(62.8242 250.801)"/>
</clipPath>
</defs>
</svg>
