<svg width="640" height="500" viewBox="0 0 640 500" fill="none" xmlns="http://www.w3.org/2000/svg">
<path d="M437.57 115.141L433.24 122.641L441.9 122.641L437.57 115.141ZM437.57 189.634L437.57 190.384L438.32 190.384L438.32 189.634L437.57 189.634ZM320.002 189.634L320.002 188.884L319.252 188.884L319.252 189.634L320.002 189.634ZM320.002 255.271L324.332 247.771L315.672 247.771L320.002 255.271ZM437.57 121.891L436.82 121.891L436.82 189.634L437.57 189.634L438.32 189.634L438.32 121.891L437.57 121.891ZM437.57 189.634L437.57 188.884L320.002 188.884L320.002 189.634L320.002 190.384L437.57 190.384L437.57 189.634ZM320.002 189.634L319.252 189.634L319.252 248.521L320.002 248.521L320.752 248.521L320.752 189.634L320.002 189.634Z" fill="#313131"/>
<path d="M202.43 115.008L206.76 122.508L198.1 122.508L202.43 115.008ZM202.43 189.5L202.43 190.25L201.68 190.25L201.68 189.5L202.43 189.5ZM320 189.5L320 188.75L320.75 188.75L320.75 189.5L320 189.5ZM320 255.138L315.67 247.638L324.33 247.638L320 255.138ZM202.43 121.758L203.18 121.758L203.18 189.5L202.43 189.5L201.68 189.5L201.68 121.758L202.43 121.758ZM202.43 189.5L202.43 188.75L320 188.75L320 189.5L320 190.25L202.43 190.25L202.43 189.5ZM320 189.5L320.75 189.5L320.75 248.388L320 248.388L319.25 248.388L319.25 189.5L320 189.5Z" fill="#313131"/>
<path d="M320 115.141L324.33 122.641L315.67 122.641L320 115.141ZM320 189.564L320 190.314L319.25 190.314L319.25 189.564L320 189.564ZM320 189.564L320 188.814L320.75 188.814L320.75 189.564L320 189.564ZM320 255.141L315.67 247.641L324.33 247.641L320 255.141ZM320 121.891L320.75 121.891L320.75 189.564L320 189.564L319.25 189.564L319.25 121.891L320 121.891ZM320 189.564L320 188.814L320 188.814L320 189.564L320 190.314L320 190.314L320 189.564ZM320 189.564L320.75 189.564L320.75 248.391L320 248.391L319.25 248.391L319.25 189.564L320 189.564Z" fill="#313131"/>
<rect x="71.2031" y="235.141" width="207.25" height="239.598" fill="#CDCCFF" stroke="#313131" stroke-width="1.5"/>
<rect x="91.2031" y="255.27" width="457.594" height="199.328" fill="#CDCCFF" stroke="#313131" stroke-width="1.5"/>
<g clip-path="url(#clip0_3034_10116)">
<mask id="mask0_3034_10116" style="mask-type:alpha" maskUnits="userSpaceOnUse" x="105" y="269" width="28" height="27">
<path fill-rule="evenodd" clip-rule="evenodd" d="M124.855 295.816C125.296 295.982 125.799 295.971 126.244 295.765L132.009 293.09C132.615 292.809 133 292.218 133 291.569V273.432C133 272.784 132.615 272.193 132.009 271.912L126.244 269.237C125.66 268.966 124.976 269.032 124.464 269.391C124.391 269.443 124.321 269.5 124.255 269.563L113.219 279.272L108.412 275.753C107.965 275.426 107.339 275.453 106.923 275.817L105.382 277.17C104.873 277.615 104.873 278.387 105.38 278.833L109.549 282.501L105.38 286.168C104.873 286.615 104.873 287.386 105.382 287.832L106.923 289.184C107.339 289.549 107.965 289.576 108.412 289.248L113.219 285.73L124.255 295.438C124.43 295.607 124.635 295.733 124.855 295.816ZM126.004 276.371L117.631 282.501L126.004 288.63V276.371Z" fill="white"/>
</mask>
<g mask="url(#mask0_3034_10116)">
<path d="M132.011 271.915L126.241 269.237C125.574 268.927 124.775 269.058 124.251 269.563L105.365 286.168C104.857 286.615 104.858 287.386 105.366 287.832L106.909 289.184C107.325 289.549 107.951 289.575 108.399 289.248L131.142 272.61C131.905 272.052 133.001 272.577 133.001 273.5V273.436C133.001 272.788 132.616 272.197 132.011 271.915Z" fill="#8D7CFF"/>
<g filter="url(#filter0_d_3034_10116)">
<path d="M132.011 293.085L126.241 295.763C125.574 296.073 124.775 295.942 124.251 295.437L105.365 278.832C104.857 278.386 104.858 277.614 105.366 277.168L106.909 275.816C107.325 275.451 107.951 275.425 108.399 275.752L131.142 292.39C131.905 292.948 133.001 292.423 133.001 291.5V291.564C133.001 292.212 132.616 292.803 132.011 293.085Z" fill="#8D7CFF"/>
</g>
<g filter="url(#filter1_d_3034_10116)">
<path d="M126.24 295.765C125.572 296.075 124.774 295.944 124.25 295.438C124.896 296.061 126 295.62 126 294.739V270.262C126 269.382 124.896 268.94 124.25 269.563C124.774 269.058 125.572 268.927 126.24 269.237L132.008 271.912C132.615 272.193 133 272.784 133 273.432V291.569C133 292.218 132.615 292.809 132.008 293.09L126.24 295.765Z" fill="#8D7CFF"/>
</g>
<g style="mix-blend-mode:overlay" opacity="0.25">
<path fill-rule="evenodd" clip-rule="evenodd" d="M124.84 295.816C125.281 295.982 125.784 295.971 126.229 295.765L131.993 293.09C132.599 292.809 132.984 292.218 132.984 291.569V273.432C132.984 272.784 132.599 272.193 131.993 271.911L126.229 269.237C125.645 268.966 124.961 269.032 124.448 269.391C124.375 269.443 124.305 269.5 124.24 269.563L113.204 279.272L108.397 275.753C107.949 275.426 107.323 275.453 106.908 275.817L105.366 277.169C104.858 277.615 104.857 278.387 105.365 278.833L109.534 282.501L105.365 286.168C104.857 286.615 104.858 287.386 105.366 287.832L106.908 289.184C107.323 289.549 107.949 289.576 108.397 289.248L113.204 285.73L124.24 295.438C124.414 295.607 124.619 295.734 124.84 295.816ZM125.989 276.371L117.615 282.501L125.989 288.63V276.371Z" fill="#8D7CFF"/>
</g>
</g>
</g>
<rect x="316.586" y="265.27" width="222.211" height="178.908" fill="#F4F4F4" stroke="#313131" stroke-width="1.5"/>
<circle cx="329.825" cy="322.47" r="4.30158" fill="#E76B49"/>
<circle cx="343.302" cy="322.47" r="4.30158" fill="#FFD7CC"/>
<circle cx="356.778" cy="322.47" r="4.30158" fill="#6EA150"/>
<rect x="150.344" y="303.758" width="284.438" height="183.641" fill="#F4F4F4" stroke="#313131" stroke-width="1.5"/>
<rect x="272.062" y="336.344" width="41" height="4" fill="#8D7CFF"/>
<rect x="272.141" y="348.344" width="27.3281" height="4" fill="#8D7CFF"/>
<rect x="302.805" y="348.344" width="15.1484" height="4" fill="#8D7CFF"/>
<rect x="321.828" y="348.344" width="9.67969" height="4" fill="#8D7CFF"/>
<rect width="35.5547" height="8.60317" transform="translate(159.062 312.277)" fill="#F4F4F4"/>
<circle cx="163.364" cy="316.579" r="4.30158" fill="#E76B49"/>
<circle cx="176.841" cy="316.579" r="4.30158" fill="#FFD7CC"/>
<circle cx="190.317" cy="316.579" r="4.30158" fill="#6EA150"/>
<rect width="41" height="44" transform="translate(182.141 336.344)" fill="#F4F4F4"/>
<rect x="182.141" y="336.344" width="41" height="4" fill="#999999"/>
<rect x="182.141" y="346.344" width="41" height="4" fill="#999999"/>
<rect x="182.141" y="356.344" width="41" height="4" fill="#999999"/>
<rect x="182.141" y="366.344" width="41" height="4" fill="#999999"/>
<rect x="182.141" y="376.344" width="41" height="4" fill="#999999"/>
<rect width="12" height="56" transform="translate(159.062 336.344)" fill="#F4F4F4"/>
<rect x="159.062" y="336.344" width="12" height="12" fill="#999999"/>
<rect x="159.062" y="358.344" width="12" height="12" fill="#999999"/>
<rect x="159.062" y="380.344" width="12" height="12" fill="#999999"/>
<circle cx="329.825" cy="278.552" r="4.30158" fill="#E76B49"/>
<circle cx="343.302" cy="278.552" r="4.30158" fill="#FFD7CC"/>
<circle cx="356.778" cy="278.552" r="4.30158" fill="#6EA150"/>
<rect width="68" height="41" transform="translate(168.43 74.0078)" fill="#DEFFCC"/>
<path d="M188.17 101.008V95.1308H183.49V101.008H181.933V88.6148H183.49V93.8528H188.17V88.6148H189.727V101.008H188.17ZM197.37 89.9558V101.008H195.813V89.9558H191.943V88.6148H201.294L201.132 89.9558H197.37ZM211.565 88.6148L212.267 101.008H210.764L210.377 94.5368C210.359 94.0988 210.341 93.6548 210.323 93.2048C210.305 92.7548 210.293 92.3228 210.287 91.9088C210.281 91.4948 210.278 91.1258 210.278 90.8018C210.278 90.4778 210.278 90.2258 210.278 90.0458L208.19 98.7848H206.624L204.383 90.0458C204.389 90.2198 204.395 90.4778 204.401 90.8198C204.407 91.1558 204.41 91.5368 204.41 91.9628C204.416 92.3888 204.413 92.8268 204.401 93.2768C204.395 93.7208 204.383 94.1348 204.365 94.5188L204.032 101.008H202.565L203.267 88.6148H205.445L207.452 97.1018L209.369 88.6148H211.565ZM215.248 101.008V88.6148H216.814V99.6128H222.466L222.286 101.008H215.248Z" fill="#313131"/>
<rect width="46" height="41" transform="translate(414.57 74.0078)" fill="#DEFFCC"/>
<path d="M435.507 88.6148V96.8948C435.507 97.4108 435.438 97.9268 435.3 98.4428C435.168 98.9528 434.94 99.4178 434.616 99.8378C434.298 100.252 433.866 100.585 433.32 100.837C432.774 101.089 432.093 101.215 431.277 101.215C430.671 101.215 430.074 101.119 429.486 100.927C428.904 100.735 428.367 100.456 427.875 100.09L428.568 99.0548C429.108 99.3908 429.6 99.6188 430.044 99.7388C430.488 99.8528 430.893 99.9098 431.259 99.9098C432.123 99.9098 432.786 99.6338 433.248 99.0818C433.716 98.5298 433.95 97.7708 433.95 96.8048V89.8928H430.278V88.6148H435.507ZM447.02 97.5788C447.02 98.2868 446.843 98.9168 446.489 99.4688C446.135 100.015 445.622 100.444 444.95 100.756C444.278 101.062 443.459 101.215 442.493 101.215C441.587 101.215 440.765 101.077 440.027 100.801C439.295 100.525 438.668 100.135 438.146 99.6308L439.073 98.5868C439.505 98.9888 440 99.3098 440.558 99.5498C441.116 99.7838 441.77 99.9008 442.52 99.9008C443.024 99.9008 443.495 99.8198 443.933 99.6578C444.371 99.4898 444.725 99.2378 444.995 98.9018C445.265 98.5598 445.4 98.1278 445.4 97.6058C445.4 97.2038 445.322 96.8618 445.166 96.5798C445.01 96.2978 444.734 96.0488 444.338 95.8328C443.942 95.6108 443.39 95.3948 442.682 95.1848C441.866 94.9448 441.158 94.6748 440.558 94.3748C439.964 94.0688 439.502 93.6938 439.172 93.2498C438.848 92.8058 438.686 92.2568 438.686 91.6028C438.686 90.9848 438.857 90.4358 439.199 89.9558C439.541 89.4758 440.012 89.1008 440.612 88.8308C441.218 88.5548 441.914 88.4168 442.7 88.4168C443.558 88.4168 444.302 88.5398 444.932 88.7858C445.568 89.0258 446.144 89.3738 446.66 89.8298L445.742 90.8468C445.298 90.4508 444.821 90.1658 444.311 89.9918C443.801 89.8118 443.282 89.7218 442.754 89.7218C442.304 89.7218 441.89 89.7908 441.512 89.9288C441.14 90.0608 440.84 90.2618 440.612 90.5318C440.39 90.7958 440.279 91.1348 440.279 91.5488C440.279 91.9028 440.375 92.2088 440.567 92.4668C440.759 92.7248 441.083 92.9618 441.539 93.1778C441.995 93.3878 442.616 93.6098 443.402 93.8438C444.044 94.0298 444.638 94.2638 445.184 94.5458C445.736 94.8218 446.18 95.1998 446.516 95.6798C446.852 96.1538 447.02 96.7868 447.02 97.5788Z" fill="#313131"/>
<rect width="57" height="41" transform="translate(291.5 74.0078)" fill="#DEFFCC"/>
<path d="M309.944 88.4168C310.754 88.4168 311.432 88.5188 311.978 88.7228C312.524 88.9268 313.043 89.2268 313.535 89.6228L312.662 90.6398C312.272 90.3098 311.858 90.0758 311.42 89.9378C310.988 89.7938 310.535 89.7218 310.061 89.7218C309.383 89.7218 308.756 89.8838 308.18 90.2078C307.604 90.5258 307.139 91.0568 306.785 91.8008C306.437 92.5388 306.263 93.5408 306.263 94.8068C306.263 96.0368 306.428 97.0238 306.758 97.7678C307.094 98.5118 307.547 99.0488 308.117 99.3788C308.687 99.7088 309.323 99.8738 310.025 99.8738C310.721 99.8738 311.291 99.7688 311.735 99.5588C312.185 99.3488 312.575 99.1088 312.905 98.8388L313.715 99.8648C313.337 100.231 312.845 100.549 312.239 100.819C311.633 101.083 310.889 101.215 310.007 101.215C309.005 101.215 308.096 100.969 307.28 100.477C306.47 99.9848 305.828 99.2648 305.354 98.3168C304.88 97.3628 304.643 96.1928 304.643 94.8068C304.643 93.4148 304.883 92.2448 305.363 91.2968C305.849 90.3488 306.494 89.6318 307.298 89.1458C308.108 88.6598 308.99 88.4168 309.944 88.4168ZM323.95 97.5788C323.95 98.2868 323.773 98.9168 323.419 99.4688C323.065 100.015 322.552 100.444 321.88 100.756C321.208 101.062 320.389 101.215 319.423 101.215C318.517 101.215 317.695 101.077 316.957 100.801C316.225 100.525 315.598 100.135 315.076 99.6308L316.003 98.5868C316.435 98.9888 316.93 99.3098 317.488 99.5498C318.046 99.7838 318.7 99.9008 319.45 99.9008C319.954 99.9008 320.425 99.8198 320.863 99.6578C321.301 99.4898 321.655 99.2378 321.925 98.9018C322.195 98.5598 322.33 98.1278 322.33 97.6058C322.33 97.2038 322.252 96.8618 322.096 96.5798C321.94 96.2978 321.664 96.0488 321.268 95.8328C320.872 95.6108 320.32 95.3948 319.612 95.1848C318.796 94.9448 318.088 94.6748 317.488 94.3748C316.894 94.0688 316.432 93.6938 316.102 93.2498C315.778 92.8058 315.616 92.2568 315.616 91.6028C315.616 90.9848 315.787 90.4358 316.129 89.9558C316.471 89.4758 316.942 89.1008 317.542 88.8308C318.148 88.5548 318.844 88.4168 319.63 88.4168C320.488 88.4168 321.232 88.5398 321.862 88.7858C322.498 89.0258 323.074 89.3738 323.59 89.8298L322.672 90.8468C322.228 90.4508 321.751 90.1658 321.241 89.9918C320.731 89.8118 320.212 89.7218 319.684 89.7218C319.234 89.7218 318.82 89.7908 318.442 89.9288C318.07 90.0608 317.77 90.2618 317.542 90.5318C317.32 90.7958 317.209 91.1348 317.209 91.5488C317.209 91.9028 317.305 92.2088 317.497 92.4668C317.689 92.7248 318.013 92.9618 318.469 93.1778C318.925 93.3878 319.546 93.6098 320.332 93.8438C320.974 94.0298 321.568 94.2638 322.114 94.5458C322.666 94.8218 323.11 95.1998 323.446 95.6798C323.782 96.1538 323.95 96.7868 323.95 97.5788ZM334.743 97.5788C334.743 98.2868 334.566 98.9168 334.212 99.4688C333.858 100.015 333.345 100.444 332.673 100.756C332.001 101.062 331.182 101.215 330.216 101.215C329.31 101.215 328.488 101.077 327.75 100.801C327.018 100.525 326.391 100.135 325.869 99.6308L326.796 98.5868C327.228 98.9888 327.723 99.3098 328.281 99.5498C328.839 99.7838 329.493 99.9008 330.243 99.9008C330.747 99.9008 331.218 99.8198 331.656 99.6578C332.094 99.4898 332.448 99.2378 332.718 98.9018C332.988 98.5598 333.123 98.1278 333.123 97.6058C333.123 97.2038 333.045 96.8618 332.889 96.5798C332.733 96.2978 332.457 96.0488 332.061 95.8328C331.665 95.6108 331.113 95.3948 330.405 95.1848C329.589 94.9448 328.881 94.6748 328.281 94.3748C327.687 94.0688 327.225 93.6938 326.895 93.2498C326.571 92.8058 326.409 92.2568 326.409 91.6028C326.409 90.9848 326.58 90.4358 326.922 89.9558C327.264 89.4758 327.735 89.1008 328.335 88.8308C328.941 88.5548 329.637 88.4168 330.423 88.4168C331.281 88.4168 332.025 88.5398 332.655 88.7858C333.291 89.0258 333.867 89.3738 334.383 89.8298L333.465 90.8468C333.021 90.4508 332.544 90.1658 332.034 89.9918C331.524 89.8118 331.005 89.7218 330.477 89.7218C330.027 89.7218 329.613 89.7908 329.235 89.9288C328.863 90.0608 328.563 90.2618 328.335 90.5318C328.113 90.7958 328.002 91.1348 328.002 91.5488C328.002 91.9028 328.098 92.2088 328.29 92.4668C328.482 92.7248 328.806 92.9618 329.262 93.1778C329.718 93.3878 330.339 93.6098 331.125 93.8438C331.767 94.0298 332.361 94.2638 332.907 94.5458C333.459 94.8218 333.903 95.1998 334.239 95.6798C334.575 96.1538 334.743 96.7868 334.743 97.5788Z" fill="#313131"/>
<defs>
<filter id="filter0_d_3034_10116" x="96.651" y="267.19" width="44.6823" height="37.0729" filterUnits="userSpaceOnUse" color-interpolation-filters="sRGB">
<feFlood flood-opacity="0" result="BackgroundImageFix"/>
<feColorMatrix in="SourceAlpha" type="matrix" values="0 0 0 0 0 0 0 0 0 0 0 0 0 0 0 0 0 0 127 0" result="hardAlpha"/>
<feOffset/>
<feGaussianBlur stdDeviation="4.16667"/>
<feColorMatrix type="matrix" values="0 0 0 0 0 0 0 0 0 0 0 0 0 0 0 0 0 0 0.25 0"/>
<feBlend mode="overlay" in2="BackgroundImageFix" result="effect1_dropShadow_3034_10116"/>
<feBlend mode="normal" in="SourceGraphic" in2="effect1_dropShadow_3034_10116" result="shape"/>
</filter>
<filter id="filter1_d_3034_10116" x="115.917" y="260.737" width="25.4167" height="43.5261" filterUnits="userSpaceOnUse" color-interpolation-filters="sRGB">
<feFlood flood-opacity="0" result="BackgroundImageFix"/>
<feColorMatrix in="SourceAlpha" type="matrix" values="0 0 0 0 0 0 0 0 0 0 0 0 0 0 0 0 0 0 127 0" result="hardAlpha"/>
<feOffset/>
<feGaussianBlur stdDeviation="4.16667"/>
<feColorMatrix type="matrix" values="0 0 0 0 0 0 0 0 0 0 0 0 0 0 0 0 0 0 0.25 0"/>
<feBlend mode="overlay" in2="BackgroundImageFix" result="effect1_dropShadow_3034_10116"/>
<feBlend mode="normal" in="SourceGraphic" in2="effect1_dropShadow_3034_10116" result="shape"/>
</filter>
<clipPath id="clip0_3034_10116">
<rect width="28" height="27" fill="white" transform="translate(105 269)"/>
</clipPath>
</defs>
</svg>
