<svg width="340" height="369" viewBox="0 0 340 369" fill="none" xmlns="http://www.w3.org/2000/svg">
<rect width="92.5" height="41" fill="#313131"/>
<path d="M31.99 27V21.123H27.31V27H25.753V14.607H27.31V19.845H31.99V14.607H33.547V27H31.99ZM41.19 15.948V27H39.633V15.948H35.763V14.607H45.114L44.952 15.948H41.19ZM55.3849 14.607L56.0869 27H54.5839L54.1969 20.529C54.1789 20.091 54.1609 19.647 54.1429 19.197C54.1249 18.747 54.1129 18.315 54.1069 17.901C54.1009 17.487 54.0979 17.118 54.0979 16.794C54.0979 16.47 54.0979 16.218 54.0979 16.038L52.0099 24.777H50.4439L48.2029 16.038C48.2089 16.212 48.2149 16.47 48.2209 16.812C48.2269 17.148 48.2299 17.529 48.2299 17.955C48.2359 18.381 48.2329 18.819 48.2209 19.269C48.2149 19.713 48.2029 20.127 48.1849 20.511L47.8519 27H46.3849L47.0869 14.607H49.2649L51.2719 23.094L53.1889 14.607H55.3849ZM59.0679 27V14.607H60.6339V25.605H66.2859L66.1059 27H59.0679Z" fill="white"/>
<rect x="101.25" y="0.75" width="91" height="39.5" fill="white"/>
<rect x="101.25" y="0.75" width="91" height="39.5" stroke="#313131" stroke-width="1.5"/>
<path d="M136.694 14.409C137.504 14.409 138.182 14.511 138.728 14.715C139.274 14.919 139.793 15.219 140.285 15.615L139.412 16.632C139.022 16.302 138.608 16.068 138.17 15.93C137.738 15.786 137.285 15.714 136.811 15.714C136.133 15.714 135.506 15.876 134.93 16.2C134.354 16.518 133.889 17.049 133.535 17.793C133.187 18.531 133.013 19.533 133.013 20.799C133.013 22.029 133.178 23.016 133.508 23.76C133.844 24.504 134.297 25.041 134.867 25.371C135.437 25.701 136.073 25.866 136.775 25.866C137.471 25.866 138.041 25.761 138.485 25.551C138.935 25.341 139.325 25.101 139.655 24.831L140.465 25.857C140.087 26.223 139.595 26.541 138.989 26.811C138.383 27.075 137.639 27.207 136.757 27.207C135.755 27.207 134.846 26.961 134.03 26.469C133.22 25.977 132.578 25.257 132.104 24.309C131.63 23.355 131.393 22.185 131.393 20.799C131.393 19.407 131.633 18.237 132.113 17.289C132.599 16.341 133.244 15.624 134.048 15.138C134.858 14.652 135.74 14.409 136.694 14.409ZM150.7 23.571C150.7 24.279 150.523 24.909 150.169 25.461C149.815 26.007 149.302 26.436 148.63 26.748C147.958 27.054 147.139 27.207 146.173 27.207C145.267 27.207 144.445 27.069 143.707 26.793C142.975 26.517 142.348 26.127 141.826 25.623L142.753 24.579C143.185 24.981 143.68 25.302 144.238 25.542C144.796 25.776 145.45 25.893 146.2 25.893C146.704 25.893 147.175 25.812 147.613 25.65C148.051 25.482 148.405 25.23 148.675 24.894C148.945 24.552 149.08 24.12 149.08 23.598C149.08 23.196 149.002 22.854 148.846 22.572C148.69 22.29 148.414 22.041 148.018 21.825C147.622 21.603 147.07 21.387 146.362 21.177C145.546 20.937 144.838 20.667 144.238 20.367C143.644 20.061 143.182 19.686 142.852 19.242C142.528 18.798 142.366 18.249 142.366 17.595C142.366 16.977 142.537 16.428 142.879 15.948C143.221 15.468 143.692 15.093 144.292 14.823C144.898 14.547 145.594 14.409 146.38 14.409C147.238 14.409 147.982 14.532 148.612 14.778C149.248 15.018 149.824 15.366 150.34 15.822L149.422 16.839C148.978 16.443 148.501 16.158 147.991 15.984C147.481 15.804 146.962 15.714 146.434 15.714C145.984 15.714 145.57 15.783 145.192 15.921C144.82 16.053 144.52 16.254 144.292 16.524C144.07 16.788 143.959 17.127 143.959 17.541C143.959 17.895 144.055 18.201 144.247 18.459C144.439 18.717 144.763 18.954 145.219 19.17C145.675 19.38 146.296 19.602 147.082 19.836C147.724 20.022 148.318 20.256 148.864 20.538C149.416 20.814 149.86 21.192 150.196 21.672C150.532 22.146 150.7 22.779 150.7 23.571ZM161.493 23.571C161.493 24.279 161.316 24.909 160.962 25.461C160.608 26.007 160.095 26.436 159.423 26.748C158.751 27.054 157.932 27.207 156.966 27.207C156.06 27.207 155.238 27.069 154.5 26.793C153.768 26.517 153.141 26.127 152.619 25.623L153.546 24.579C153.978 24.981 154.473 25.302 155.031 25.542C155.589 25.776 156.243 25.893 156.993 25.893C157.497 25.893 157.968 25.812 158.406 25.65C158.844 25.482 159.198 25.23 159.468 24.894C159.738 24.552 159.873 24.12 159.873 23.598C159.873 23.196 159.795 22.854 159.639 22.572C159.483 22.29 159.207 22.041 158.811 21.825C158.415 21.603 157.863 21.387 157.155 21.177C156.339 20.937 155.631 20.667 155.031 20.367C154.437 20.061 153.975 19.686 153.645 19.242C153.321 18.798 153.159 18.249 153.159 17.595C153.159 16.977 153.33 16.428 153.672 15.948C154.014 15.468 154.485 15.093 155.085 14.823C155.691 14.547 156.387 14.409 157.173 14.409C158.031 14.409 158.775 14.532 159.405 14.778C160.041 15.018 160.617 15.366 161.133 15.822L160.215 16.839C159.771 16.443 159.294 16.158 158.784 15.984C158.274 15.804 157.755 15.714 157.227 15.714C156.777 15.714 156.363 15.783 155.985 15.921C155.613 16.053 155.313 16.254 155.085 16.524C154.863 16.788 154.752 17.127 154.752 17.541C154.752 17.895 154.848 18.201 155.04 18.459C155.232 18.717 155.556 18.954 156.012 19.17C156.468 19.38 157.089 19.602 157.875 19.836C158.517 20.022 159.111 20.256 159.657 20.538C160.209 20.814 160.653 21.192 160.989 21.672C161.325 22.146 161.493 22.779 161.493 23.571Z" fill="#313131"/>
<rect x="201.75" y="0.75" width="137.5" height="39.5" fill="white"/>
<rect x="201.75" y="0.75" width="137.5" height="39.5" stroke="#313131" stroke-width="1.5"/>
<path d="M225.437 14.607V22.887C225.437 23.403 225.368 23.919 225.23 24.435C225.098 24.945 224.87 25.41 224.546 25.83C224.228 26.244 223.796 26.577 223.25 26.829C222.704 27.081 222.023 27.207 221.207 27.207C220.601 27.207 220.004 27.111 219.416 26.919C218.834 26.727 218.297 26.448 217.805 26.082L218.498 25.047C219.038 25.383 219.53 25.611 219.974 25.731C220.418 25.845 220.823 25.902 221.189 25.902C222.053 25.902 222.716 25.626 223.178 25.074C223.646 24.522 223.88 23.763 223.88 22.797V15.885H220.208V14.607H225.437ZM235.888 24.93C235.888 25.308 235.951 25.584 236.077 25.758C236.203 25.932 236.398 26.061 236.662 26.145L236.293 27.207C235.885 27.153 235.528 27.024 235.222 26.82C234.916 26.61 234.694 26.295 234.556 25.875C234.214 26.313 233.788 26.646 233.278 26.874C232.768 27.096 232.204 27.207 231.586 27.207C230.638 27.207 229.891 26.94 229.345 26.406C228.799 25.872 228.526 25.164 228.526 24.282C228.526 23.304 228.907 22.554 229.669 22.032C230.431 21.51 231.532 21.249 232.972 21.249H234.367V20.457C234.367 19.773 234.166 19.29 233.764 19.008C233.368 18.72 232.816 18.576 232.108 18.576C231.796 18.576 231.43 18.615 231.01 18.693C230.59 18.765 230.134 18.888 229.642 19.062L229.246 17.919C229.828 17.703 230.374 17.55 230.884 17.46C231.394 17.37 231.88 17.325 232.342 17.325C233.524 17.325 234.409 17.601 234.997 18.153C235.591 18.699 235.888 19.443 235.888 20.385V24.93ZM231.973 26.055C232.441 26.055 232.888 25.938 233.314 25.704C233.74 25.464 234.091 25.134 234.367 24.714V22.275H232.999C231.955 22.275 231.217 22.455 230.785 22.815C230.359 23.175 230.146 23.658 230.146 24.264C230.146 24.852 230.296 25.299 230.596 25.605C230.902 25.905 231.361 26.055 231.973 26.055ZM247.797 17.523L244.35 27H242.595L239.175 17.523H240.777L243.522 25.623L246.231 17.523H247.797ZM257.474 24.93C257.474 25.308 257.537 25.584 257.663 25.758C257.789 25.932 257.984 26.061 258.248 26.145L257.879 27.207C257.471 27.153 257.114 27.024 256.808 26.82C256.502 26.61 256.28 26.295 256.142 25.875C255.8 26.313 255.374 26.646 254.864 26.874C254.354 27.096 253.79 27.207 253.172 27.207C252.224 27.207 251.477 26.94 250.931 26.406C250.385 25.872 250.112 25.164 250.112 24.282C250.112 23.304 250.493 22.554 251.255 22.032C252.017 21.51 253.118 21.249 254.558 21.249H255.953V20.457C255.953 19.773 255.752 19.29 255.35 19.008C254.954 18.72 254.402 18.576 253.694 18.576C253.382 18.576 253.016 18.615 252.596 18.693C252.176 18.765 251.72 18.888 251.228 19.062L250.832 17.919C251.414 17.703 251.96 17.55 252.47 17.46C252.98 17.37 253.466 17.325 253.928 17.325C255.11 17.325 255.995 17.601 256.583 18.153C257.177 18.699 257.474 19.443 257.474 20.385V24.93ZM253.559 26.055C254.027 26.055 254.474 25.938 254.9 25.704C255.326 25.464 255.677 25.134 255.953 24.714V22.275H254.585C253.541 22.275 252.803 22.455 252.371 22.815C251.945 23.175 251.732 23.658 251.732 24.264C251.732 24.852 251.882 25.299 252.182 25.605C252.488 25.905 252.947 26.055 253.559 26.055ZM269.329 23.571C269.329 24.279 269.152 24.909 268.798 25.461C268.444 26.007 267.931 26.436 267.259 26.748C266.587 27.054 265.768 27.207 264.802 27.207C263.896 27.207 263.074 27.069 262.336 26.793C261.604 26.517 260.977 26.127 260.455 25.623L261.382 24.579C261.814 24.981 262.309 25.302 262.867 25.542C263.425 25.776 264.079 25.893 264.829 25.893C265.333 25.893 265.804 25.812 266.242 25.65C266.68 25.482 267.034 25.23 267.304 24.894C267.574 24.552 267.709 24.12 267.709 23.598C267.709 23.196 267.631 22.854 267.475 22.572C267.319 22.29 267.043 22.041 266.647 21.825C266.251 21.603 265.699 21.387 264.991 21.177C264.175 20.937 263.467 20.667 262.867 20.367C262.273 20.061 261.811 19.686 261.481 19.242C261.157 18.798 260.995 18.249 260.995 17.595C260.995 16.977 261.166 16.428 261.508 15.948C261.85 15.468 262.321 15.093 262.921 14.823C263.527 14.547 264.223 14.409 265.009 14.409C265.867 14.409 266.611 14.532 267.241 14.778C267.877 15.018 268.453 15.366 268.969 15.822L268.051 16.839C267.607 16.443 267.13 16.158 266.62 15.984C266.11 15.804 265.591 15.714 265.063 15.714C264.613 15.714 264.199 15.783 263.821 15.921C263.449 16.053 263.149 16.254 262.921 16.524C262.699 16.788 262.588 17.127 262.588 17.541C262.588 17.895 262.684 18.201 262.876 18.459C263.068 18.717 263.392 18.954 263.848 19.17C264.304 19.38 264.925 19.602 265.711 19.836C266.353 20.022 266.947 20.256 267.493 20.538C268.045 20.814 268.489 21.192 268.825 21.672C269.161 22.146 269.329 22.779 269.329 23.571ZM276.558 25.902C277.032 25.902 277.473 25.824 277.881 25.668C278.295 25.512 278.676 25.314 279.024 25.074L279.762 26.064C279.348 26.418 278.85 26.697 278.268 26.901C277.686 27.105 277.116 27.207 276.558 27.207C275.616 27.207 274.812 27.006 274.146 26.604C273.486 26.196 272.982 25.626 272.634 24.894C272.286 24.156 272.112 23.292 272.112 22.302C272.112 21.354 272.286 20.505 272.634 19.755C272.988 18.999 273.495 18.405 274.155 17.973C274.821 17.541 275.628 17.325 276.576 17.325C277.182 17.325 277.749 17.418 278.277 17.604C278.811 17.784 279.3 18.057 279.744 18.423L279.006 19.431C278.604 19.149 278.199 18.939 277.791 18.801C277.389 18.657 276.978 18.585 276.558 18.585C275.742 18.585 275.07 18.891 274.542 19.503C274.014 20.115 273.75 21.048 273.75 22.302C273.75 23.142 273.87 23.829 274.11 24.363C274.356 24.891 274.689 25.281 275.109 25.533C275.535 25.779 276.018 25.902 276.558 25.902ZM283.157 27V25.839H284.633V18.684H283.157V17.523H285.785L286.064 19.764C286.43 18.984 286.874 18.381 287.396 17.955C287.918 17.529 288.608 17.316 289.466 17.316C289.73 17.316 289.964 17.337 290.168 17.379C290.378 17.415 290.591 17.463 290.807 17.523L290.366 18.873C290.168 18.819 289.988 18.78 289.826 18.756C289.664 18.726 289.478 18.711 289.268 18.711C288.542 18.711 287.918 18.969 287.396 19.485C286.874 20.001 286.457 20.781 286.145 21.825V25.839H288.071V27H283.157ZM289.349 20.727V18.666L289.502 17.523H290.807L290.591 20.727H289.349ZM298.657 17.523V25.803H301.33V27H294.22V25.803H297.145V18.72H294.31V17.523H298.657ZM297.451 13.086C297.787 13.086 298.054 13.188 298.252 13.392C298.456 13.596 298.558 13.845 298.558 14.139C298.558 14.445 298.456 14.703 298.252 14.913C298.054 15.117 297.787 15.219 297.451 15.219C297.133 15.219 296.872 15.117 296.668 14.913C296.464 14.703 296.362 14.445 296.362 14.139C296.362 13.845 296.464 13.596 296.668 13.392C296.872 13.188 297.133 13.086 297.451 13.086ZM308.892 17.325C309.732 17.325 310.401 17.529 310.899 17.937C311.403 18.345 311.766 18.921 311.988 19.665C312.21 20.403 312.321 21.267 312.321 22.257C312.321 23.211 312.186 24.063 311.916 24.813C311.652 25.557 311.25 26.142 310.71 26.568C310.17 26.994 309.489 27.207 308.667 27.207C307.629 27.207 306.795 26.841 306.165 26.109V30.627L304.653 30.816V17.523H305.94L306.066 18.846C306.414 18.36 306.828 17.985 307.308 17.721C307.794 17.457 308.322 17.325 308.892 17.325ZM308.532 18.54C308.01 18.54 307.548 18.699 307.146 19.017C306.75 19.329 306.423 19.677 306.165 20.061V24.759C306.411 25.125 306.72 25.416 307.092 25.632C307.47 25.842 307.884 25.947 308.334 25.947C309.12 25.947 309.711 25.647 310.107 25.047C310.503 24.447 310.701 23.514 310.701 22.248C310.701 21.42 310.623 20.733 310.467 20.187C310.311 19.635 310.074 19.224 309.756 18.954C309.438 18.678 309.03 18.54 308.532 18.54ZM322.97 26.523C322.646 26.739 322.253 26.907 321.791 27.027C321.329 27.147 320.876 27.207 320.432 27.207C319.412 27.207 318.626 26.94 318.074 26.406C317.522 25.872 317.246 25.185 317.246 24.345V18.693H315.068V17.523H317.246V15.372L318.758 15.192V17.523H322.034L321.854 18.693H318.758V24.327C318.758 24.855 318.896 25.257 319.172 25.533C319.454 25.809 319.919 25.947 320.567 25.947C320.921 25.947 321.248 25.905 321.548 25.821C321.848 25.737 322.127 25.629 322.385 25.497L322.97 26.523Z" fill="#313131"/>
<rect x="0.75" y="49.75" width="338.5" height="318.5" fill="white"/>
<rect x="0.75" y="49.75" width="338.5" height="318.5" stroke="#313131" stroke-width="1.5"/>
<path d="M33.549 79.607L34.251 92H32.748L32.361 85.529C32.343 85.091 32.325 84.647 32.307 84.197C32.289 83.747 32.277 83.315 32.271 82.901C32.265 82.487 32.262 82.118 32.262 81.794C32.262 81.47 32.262 81.218 32.262 81.038L30.174 89.777H28.608L26.367 81.038C26.373 81.212 26.379 81.47 26.385 81.812C26.391 82.148 26.394 82.529 26.394 82.955C26.4 83.381 26.397 83.819 26.385 84.269C26.379 84.713 26.367 85.127 26.349 85.511L26.016 92H24.549L25.251 79.607H27.429L29.436 88.094L31.353 79.607H33.549ZM40.211 82.325C41.105 82.325 41.852 82.529 42.452 82.937C43.058 83.339 43.511 83.909 43.811 84.647C44.117 85.385 44.27 86.255 44.27 87.257C44.27 88.223 44.114 89.078 43.802 89.822C43.49 90.566 43.031 91.151 42.425 91.577C41.825 91.997 41.081 92.207 40.193 92.207C39.305 92.207 38.558 92.003 37.952 91.595C37.346 91.187 36.887 90.614 36.575 89.876C36.269 89.132 36.116 88.265 36.116 87.275C36.116 86.297 36.272 85.436 36.584 84.692C36.896 83.948 37.355 83.369 37.961 82.955C38.573 82.535 39.323 82.325 40.211 82.325ZM40.211 83.558C39.395 83.558 38.777 83.861 38.357 84.467C37.943 85.067 37.736 86.003 37.736 87.275C37.736 88.523 37.94 89.45 38.348 90.056C38.762 90.662 39.377 90.965 40.193 90.965C41.009 90.965 41.621 90.662 42.029 90.056C42.443 89.45 42.65 88.517 42.65 87.257C42.65 85.997 42.446 85.067 42.038 84.467C41.63 83.861 41.021 83.558 40.211 83.558ZM54.5769 82.523V92H53.0649V87.563C53.0649 86.945 53.0829 86.351 53.1189 85.781C53.1549 85.205 53.2029 84.701 53.2629 84.269L49.2309 92H47.3949V82.523H48.9069V86.951C48.9069 87.563 48.8889 88.169 48.8529 88.769C48.8169 89.363 48.7719 89.846 48.7179 90.218L52.7049 82.523H54.5769ZM50.9499 80.363C50.4939 80.363 50.0709 80.285 49.6809 80.129C49.2969 79.973 48.9819 79.745 48.7359 79.445C48.4899 79.145 48.3429 78.773 48.2949 78.329L49.3389 78.104C49.4709 78.494 49.6659 78.773 49.9239 78.941C50.1819 79.103 50.5239 79.184 50.9499 79.184C51.3699 79.184 51.7209 79.103 52.0029 78.941C52.2849 78.773 52.4889 78.494 52.6149 78.104L53.6589 78.329C53.6109 78.773 53.4579 79.145 53.1999 79.445C52.9479 79.745 52.6269 79.973 52.2369 80.129C51.8469 80.285 51.4179 80.363 50.9499 80.363ZM74.6509 92V83.765H70.4929V92H68.9809V82.523H76.1629V92H74.6509ZM80.9618 87.797C80.9918 88.529 81.1328 89.129 81.3848 89.597C81.6368 90.059 81.9698 90.401 82.3838 90.623C82.7978 90.839 83.2478 90.947 83.7338 90.947C84.2198 90.947 84.6578 90.875 85.0478 90.731C85.4438 90.587 85.8488 90.374 86.2628 90.092L86.9738 91.091C86.5298 91.439 86.0228 91.712 85.4528 91.91C84.8888 92.108 84.3098 92.207 83.7158 92.207C82.7978 92.207 82.0148 92 81.3668 91.586C80.7188 91.172 80.2238 90.596 79.8818 89.858C79.5458 89.114 79.3778 88.253 79.3778 87.275C79.3778 86.315 79.5488 85.463 79.8908 84.719C80.2328 83.975 80.7128 83.39 81.3308 82.964C81.9488 82.538 82.6778 82.325 83.5178 82.325C84.3158 82.325 85.0028 82.514 85.5788 82.892C86.1548 83.264 86.5958 83.798 86.9018 84.494C87.2138 85.184 87.3698 86.009 87.3698 86.969C87.3698 87.131 87.3668 87.284 87.3608 87.428C87.3548 87.566 87.3458 87.689 87.3338 87.797H80.9618ZM83.5358 83.567C82.8338 83.567 82.2458 83.816 81.7718 84.314C81.3038 84.812 81.0368 85.583 80.9708 86.627H85.9118C85.8938 85.613 85.6718 84.851 85.2458 84.341C84.8198 83.825 84.2498 83.567 83.5358 83.567ZM94.8058 82.325C95.6458 82.325 96.3148 82.529 96.8128 82.937C97.3168 83.345 97.6798 83.921 97.9018 84.665C98.1238 85.403 98.2348 86.267 98.2348 87.257C98.2348 88.211 98.0998 89.063 97.8298 89.813C97.5658 90.557 97.1638 91.142 96.6238 91.568C96.0838 91.994 95.4028 92.207 94.5808 92.207C93.5428 92.207 92.7088 91.841 92.0788 91.109V95.627L90.5668 95.816V82.523H91.8538L91.9798 83.846C92.3278 83.36 92.7418 82.985 93.2218 82.721C93.7078 82.457 94.2358 82.325 94.8058 82.325ZM94.4458 83.54C93.9238 83.54 93.4618 83.699 93.0598 84.017C92.6638 84.329 92.3368 84.677 92.0788 85.061V89.759C92.3248 90.125 92.6338 90.416 93.0058 90.632C93.3838 90.842 93.7978 90.947 94.2478 90.947C95.0338 90.947 95.6248 90.647 96.0208 90.047C96.4168 89.447 96.6148 88.514 96.6148 87.248C96.6148 86.42 96.5368 85.733 96.3808 85.187C96.2248 84.635 95.9878 84.224 95.6698 83.954C95.3518 83.678 94.9438 83.54 94.4458 83.54ZM104.78 82.325C105.566 82.325 106.247 82.421 106.823 82.613C107.399 82.805 107.843 83.084 108.155 83.45C108.473 83.81 108.632 84.257 108.632 84.791C108.632 85.283 108.497 85.706 108.227 86.06C107.957 86.408 107.456 86.675 106.724 86.861C107.54 86.939 108.146 87.17 108.542 87.554C108.938 87.932 109.136 88.481 109.136 89.201C109.136 89.861 108.953 90.398 108.587 90.812C108.221 91.22 107.735 91.52 107.129 91.712C106.529 91.904 105.866 92 105.14 92H101.558V82.649C102.056 82.559 102.572 82.484 103.106 82.424C103.646 82.358 104.204 82.325 104.78 82.325ZM104.798 83.531C104.438 83.531 104.132 83.54 103.88 83.558C103.628 83.576 103.358 83.603 103.07 83.639V90.776H105.104C105.908 90.776 106.511 90.65 106.913 90.398C107.315 90.146 107.516 89.75 107.516 89.21C107.516 88.748 107.396 88.403 107.156 88.175C106.916 87.941 106.613 87.785 106.247 87.707C105.881 87.623 105.506 87.581 105.122 87.581H102.782V86.393H105.023C105.647 86.393 106.145 86.291 106.517 86.087C106.889 85.877 107.075 85.493 107.075 84.935C107.075 84.419 106.886 84.056 106.508 83.846C106.13 83.636 105.56 83.531 104.798 83.531ZM112.9 82.523V85.601H113.539C114.793 85.601 115.777 85.847 116.491 86.339C117.211 86.825 117.571 87.617 117.571 88.715C117.571 89.483 117.403 90.11 117.067 90.596C116.737 91.076 116.269 91.43 115.663 91.658C115.063 91.886 114.358 92 113.548 92H111.46V82.523H112.9ZM113.611 86.726H112.9V90.821H113.593C114.097 90.821 114.529 90.761 114.889 90.641C115.249 90.515 115.525 90.302 115.717 90.002C115.909 89.696 116.005 89.267 116.005 88.715C116.005 87.995 115.81 87.485 115.42 87.185C115.036 86.879 114.433 86.726 113.611 86.726ZM120.028 82.523V92H118.57V82.523H120.028ZM130.128 82.523V92H128.616V87.563C128.616 86.945 128.634 86.351 128.67 85.781C128.706 85.205 128.754 84.701 128.814 84.269L124.782 92H122.946V82.523H124.458V86.951C124.458 87.563 124.44 88.169 124.404 88.769C124.368 89.363 124.323 89.846 124.269 90.218L128.256 82.523H130.128ZM126.501 80.363C126.045 80.363 125.622 80.285 125.232 80.129C124.848 79.973 124.533 79.745 124.287 79.445C124.041 79.145 123.894 78.773 123.846 78.329L124.89 78.104C125.022 78.494 125.217 78.773 125.475 78.941C125.733 79.103 126.075 79.184 126.501 79.184C126.921 79.184 127.272 79.103 127.554 78.941C127.836 78.773 128.04 78.494 128.166 78.104L129.21 78.329C129.162 78.773 129.009 79.145 128.751 79.445C128.499 79.745 128.178 79.973 127.788 80.129C127.398 80.285 126.969 80.363 126.501 80.363ZM148.816 90.902C149.29 90.902 149.731 90.824 150.139 90.668C150.553 90.512 150.934 90.314 151.282 90.074L152.02 91.064C151.606 91.418 151.108 91.697 150.526 91.901C149.944 92.105 149.374 92.207 148.816 92.207C147.874 92.207 147.07 92.006 146.404 91.604C145.744 91.196 145.24 90.626 144.892 89.894C144.544 89.156 144.37 88.292 144.37 87.302C144.37 86.354 144.544 85.505 144.892 84.755C145.246 83.999 145.753 83.405 146.413 82.973C147.079 82.541 147.886 82.325 148.834 82.325C149.44 82.325 150.007 82.418 150.535 82.604C151.069 82.784 151.558 83.057 152.002 83.423L151.264 84.431C150.862 84.149 150.457 83.939 150.049 83.801C149.647 83.657 149.236 83.585 148.816 83.585C148 83.585 147.328 83.891 146.8 84.503C146.272 85.115 146.008 86.048 146.008 87.302C146.008 88.142 146.128 88.829 146.368 89.363C146.614 89.891 146.947 90.281 147.367 90.533C147.793 90.779 148.276 90.902 148.816 90.902ZM162.111 89.93C162.111 90.308 162.174 90.584 162.3 90.758C162.426 90.932 162.621 91.061 162.885 91.145L162.516 92.207C162.108 92.153 161.751 92.024 161.445 91.82C161.139 91.61 160.917 91.295 160.779 90.875C160.437 91.313 160.011 91.646 159.501 91.874C158.991 92.096 158.427 92.207 157.809 92.207C156.861 92.207 156.114 91.94 155.568 91.406C155.022 90.872 154.749 90.164 154.749 89.282C154.749 88.304 155.13 87.554 155.892 87.032C156.654 86.51 157.755 86.249 159.195 86.249H160.59V85.457C160.59 84.773 160.389 84.29 159.987 84.008C159.591 83.72 159.039 83.576 158.331 83.576C158.019 83.576 157.653 83.615 157.233 83.693C156.813 83.765 156.357 83.888 155.865 84.062L155.469 82.919C156.051 82.703 156.597 82.55 157.107 82.46C157.617 82.37 158.103 82.325 158.565 82.325C159.747 82.325 160.632 82.601 161.22 83.153C161.814 83.699 162.111 84.443 162.111 85.385V89.93ZM158.196 91.055C158.664 91.055 159.111 90.938 159.537 90.704C159.963 90.464 160.314 90.134 160.59 89.714V87.275H159.222C158.178 87.275 157.44 87.455 157.008 87.815C156.582 88.175 156.369 88.658 156.369 89.264C156.369 89.852 156.519 90.299 156.819 90.605C157.125 90.905 157.584 91.055 158.196 91.055ZM173.3 82.523V92H171.788V87.563C171.788 86.945 171.806 86.351 171.842 85.781C171.878 85.205 171.926 84.701 171.986 84.269L167.954 92H166.118V82.523H167.63V86.951C167.63 87.563 167.612 88.169 167.576 88.769C167.54 89.363 167.495 89.846 167.441 90.218L171.428 82.523H173.3ZM169.673 80.363C169.217 80.363 168.794 80.285 168.404 80.129C168.02 79.973 167.705 79.745 167.459 79.445C167.213 79.145 167.066 78.773 167.018 78.329L168.062 78.104C168.194 78.494 168.389 78.773 168.647 78.941C168.905 79.103 169.247 79.184 169.673 79.184C170.093 79.184 170.444 79.103 170.726 78.941C171.008 78.773 171.212 78.494 171.338 78.104L172.382 78.329C172.334 78.773 172.181 79.145 171.923 79.445C171.671 79.745 171.35 79.973 170.96 80.129C170.57 80.285 170.141 80.363 169.673 80.363ZM184.831 82.523L184.651 83.783H181.258V92H179.746V83.783H176.281V82.523H184.831Z" fill="#313131"/>
<path d="M56.2724 291.704C55.6659 291.803 55.3696 291.513 55.3516 290.912C55.3185 289.73 55.3384 288.543 55.334 287.359C55.332 286.797 55.2917 286.561 55.8327 286.305C56.2903 286.266 56.4587 286.362 56.7848 286.667C56.8016 287.746 57.2262 291.254 56.2724 291.704Z" fill="#313131"/>
<path d="M64.4011 294.038C63.8332 294.147 63.2879 293.584 63.6456 292.968C64.0601 292.255 65.503 289.338 66.0757 289.149C67.9396 288.8 66.2985 291.123 66.1018 291.532C65.655 292.19 64.9949 293.749 64.4011 294.038Z" fill="#313131"/>
<path d="M48.0778 293.923C47.2874 293.965 46.9235 292.959 46.5324 292.318C46.0436 291.496 44.2466 289.632 45.6923 289.145C46.457 289.139 46.7172 289.981 47.0779 290.542L48.0381 292.037C48.435 292.66 49.1834 293.552 48.0778 293.923Z" fill="#313131"/>
<path d="M49.9958 326.93C48.6094 325.756 48.8138 324.641 48.5026 323.034C48.0042 320.461 46.3073 318.319 44.712 316.332C37.9495 307.192 44.5159 294.238 55.5835 293.927C67.097 293.52 74.3912 306.85 67.4586 316.25C65.6914 318.646 64.4689 319.725 63.6916 322.964C63.2836 324.758 63.6321 325.547 62.1359 326.93C62.9382 327.922 62.8779 329.001 62.1359 330.004C62.9344 331.098 62.8915 331.982 62.1359 333.07C62.4264 333.642 62.6997 334.065 62.6932 334.738C62.678 336.318 61.4122 336.9 60.0501 336.875C59.6079 338.414 58.1982 339.432 56.6603 339.684C55.1269 339.801 53.7946 339.4 52.7853 338.172C52.4807 337.802 52.1491 337.378 52.1943 336.875C49.7101 337.054 48.8429 335.062 49.9958 333.07C49.2209 332.075 49.3431 331.015 49.9958 330.004C49.3542 328.977 49.2218 327.926 49.9958 326.93ZM55.174 295.353C54.4587 295.441 53.6865 295.524 52.9916 295.712C44.5516 297.988 40.4992 308.012 45.7245 315.293C46.1835 315.932 46.7044 316.524 47.1916 317.143C48.438 318.842 49.3707 320.681 49.9 322.715C50.4555 324.851 49.642 326.121 52.5462 326.114L54.2708 326.111L52.8872 318.66C52.6547 317.335 52.453 315.89 52.1943 314.586C47.1308 312.925 50.3775 309.92 52.064 310.555C53.418 311.064 53.1967 312.415 53.549 313.508C54.6971 313.509 55.6956 313.793 56.9658 313.708C57.514 313.685 58.1172 313.617 58.6546 313.508C58.7908 312.638 58.771 311.474 59.5344 310.912C60.8814 309.922 62.8305 310.892 62.5819 312.632C62.3858 314.005 60.8836 313.985 59.9028 314.586C59.182 318.348 58.4763 322.327 57.8666 326.111C60.8785 326.151 61.6881 326.711 62.1798 323.295C62.619 320.939 63.7134 318.639 65.1748 316.748C65.6053 316.191 66.11 315.72 66.5101 315.14C72.5844 306.665 65.7039 294.743 55.174 295.353ZM51.2923 311.924C50.53 312.449 51.2121 312.716 51.7152 312.911C52.2608 313.112 51.9076 311.879 51.2923 311.924ZM60.6434 311.924C60.1154 312.087 60.211 312.43 60.1939 312.911C60.3413 312.85 60.4997 312.788 60.6434 312.721C61.3189 312.498 61.3837 312.033 60.6434 311.924ZM53.7154 314.972C54.3216 318.663 54.9743 322.438 55.6964 326.111C55.9439 326.108 56.2075 326.101 56.4532 326.111C56.5315 325.559 56.5969 324.885 56.7808 324.372C56.8283 323.678 56.9998 322.917 57.1283 322.225L58.1029 316.807C58.2169 316.166 58.2867 315.588 58.5034 314.972C56.6559 315.138 55.4197 314.943 53.7154 314.972ZM51.9312 327.521C50.4019 327.646 50.7041 329.16 51.5964 329.23C51.9226 329.255 52.2807 329.242 52.6098 329.242L60.3257 329.24C61.5021 329.229 61.6322 327.668 60.553 327.552C60.1656 327.511 59.7918 327.521 59.4043 327.52L51.9312 327.521ZM51.8656 330.631C50.5942 330.73 50.5194 332.194 51.6805 332.356C51.9451 332.393 52.4518 332.366 52.7351 332.365L60.3257 332.362C61.7743 332.167 61.5042 330.61 60.4068 330.645C59.4358 330.618 58.4637 330.63 57.4923 330.63L51.8656 330.631ZM51.8656 333.777C50.5238 333.917 50.5842 335.467 51.7445 335.482C52.3022 335.49 52.8324 335.495 53.3756 335.495L59.0794 335.495C59.3974 335.495 60.0428 335.518 60.3257 335.494C61.6401 335.438 61.4327 333.9 60.4849 333.825C59.4742 333.744 58.4258 333.775 57.4115 333.775L51.8656 333.777ZM53.549 336.875C54.6542 338.354 56.3115 338.851 57.8666 337.691C58.1761 337.405 58.3074 337.255 58.5034 336.875H53.549Z" fill="#313131"/>
<path d="M55.174 295.353C54.4587 295.441 53.6865 295.524 52.9916 295.712C44.5516 297.988 40.4992 308.012 45.7245 315.293C46.1835 315.932 46.7044 316.524 47.1916 317.143C48.438 318.842 49.3707 320.681 49.9 322.715C50.4555 324.851 49.642 326.121 52.5462 326.114L54.2708 326.111L52.8872 318.66C52.6547 317.335 52.453 315.89 52.1943 314.586C47.1308 312.925 50.3775 309.92 52.064 310.555C53.418 311.064 53.1967 312.415 53.549 313.508C54.6971 313.509 55.6956 313.793 56.9658 313.708C57.514 313.685 58.1172 313.617 58.6546 313.508C58.7908 312.638 58.771 311.474 59.5344 310.912C60.8814 309.922 62.8305 310.892 62.5819 312.632C62.3858 314.005 60.8836 313.985 59.9028 314.586C59.182 318.348 58.4763 322.327 57.8666 326.111C60.8785 326.151 61.6881 326.711 62.1798 323.295C62.619 320.939 63.7134 318.639 65.1748 316.748C65.6053 316.191 66.11 315.72 66.5101 315.14C72.5844 306.665 65.7039 294.743 55.174 295.353Z" fill="#DEFFCC"/>
<path d="M53.7154 314.972C54.3216 318.663 54.9743 322.438 55.6964 326.111C55.9439 326.108 56.2075 326.101 56.4532 326.111C56.5315 325.559 56.5969 324.885 56.7808 324.372C56.8283 323.678 56.9998 322.917 57.1283 322.225L58.1029 316.807C58.2169 316.166 58.2867 315.588 58.5034 314.972C56.6559 315.138 55.4197 314.943 53.7154 314.972Z" fill="#DEFFCC"/>
<path d="M51.2923 311.924C50.53 312.449 51.2121 312.716 51.7152 312.911C52.2608 313.112 51.9076 311.879 51.2923 311.924Z" fill="#DEFFCC"/>
<path d="M60.6434 311.924C60.1154 312.087 60.211 312.43 60.1939 312.911C60.3413 312.85 60.4997 312.788 60.6434 312.721C61.3189 312.498 61.3837 312.033 60.6434 311.924Z" fill="#DEFFCC"/>
<path d="M51.9312 327.521C50.4019 327.646 50.7041 329.16 51.5964 329.23C51.9226 329.255 52.2807 329.242 52.6098 329.242L60.3257 329.24C61.5021 329.229 61.6322 327.668 60.553 327.552C60.1656 327.511 59.7918 327.521 59.4043 327.52L51.9312 327.521Z" fill="#DBDBDB"/>
<path d="M51.8656 330.631C50.5942 330.73 50.5194 332.194 51.6805 332.356C51.9451 332.393 52.4518 332.366 52.7351 332.365L60.3257 332.362C61.7743 332.167 61.5042 330.61 60.4068 330.645C59.4358 330.618 58.4637 330.63 57.4923 330.63L51.8656 330.631Z" fill="#DBDBDB"/>
<path d="M51.8656 333.777C50.5238 333.917 50.5842 335.467 51.7445 335.482C52.3022 335.49 52.8324 335.495 53.3756 335.495L59.0794 335.495C59.3974 335.495 60.0428 335.518 60.3257 335.494C61.6401 335.438 61.4327 333.9 60.4849 333.825C59.4742 333.744 58.4258 333.775 57.4115 333.775L51.8656 333.777Z" fill="#DBDBDB"/>
<path d="M53.549 336.875C54.6542 338.354 56.3115 338.851 57.8666 337.691C58.1761 337.405 58.3074 337.255 58.5034 336.875H53.549Z" fill="#DBDBDB"/>
<path d="M41.6 299.972C41.1293 300.028 38.6389 298.464 38.0868 298.178C37.2435 297.741 36.8221 296.964 37.8521 296.584C38.4345 296.51 41.2278 298.251 41.8723 298.648C42.4361 299.024 42.1633 299.74 41.6 299.972Z" fill="#313131"/>
<path d="M70.8127 299.975C70.234 300.059 69.9043 299.534 70.0434 299.021C70.2188 298.61 73.5062 296.762 73.9169 296.587C74.7659 296.505 75.0503 297.486 74.3166 297.954C73.4554 298.504 71.7607 299.617 70.8127 299.975Z" fill="#313131"/>
<path d="M39.2254 308.361L36.6763 308.363C36.2475 308.364 35.8215 308.382 35.3894 308.348C34.4483 308.273 34.3804 306.997 35.4683 306.867L38.0209 306.864C38.8546 306.864 39.7936 306.595 40.0408 307.618C39.9145 308.151 39.7585 308.313 39.2254 308.361Z" fill="#313131"/>
<path d="M76.752 308.366C75.4653 308.273 73.8666 308.537 72.6288 308.23C72.2045 308.124 71.9969 307.162 72.8609 306.872C74.1497 306.906 75.6073 306.778 76.8668 306.959C77.4725 307.047 77.5463 307.981 76.752 308.366Z" fill="#313131"/>
<path d="M46.6554 307.876C45.3287 308.364 45.6113 306.749 45.7472 306.031C46.6812 301.097 50.6547 297.682 55.6357 297.348C57.0238 297.256 57.1603 298.713 55.7052 298.77C51.1062 298.95 47.298 302.758 47.0223 307.343C47.0073 307.59 46.8452 307.749 46.6554 307.876Z" fill="#313131"/>
</svg>
