<svg width="184" height="48" viewBox="0 0 184 48" fill="none" xmlns="http://www.w3.org/2000/svg">
<path d="M156.551 33.2602L165.436 24.8773L156.551 16.4579H160.431L169.28 24.8773L160.431 33.2602H156.551Z" fill="#313131"/>
<path d="M23.5088 33.644L14.6602 25.261L23.5088 16.8417H27.3892L18.5042 25.261L27.3892 33.644H23.5088Z" fill="#313131"/>
<path d="M65.8885 33.9077C64.7463 33.9077 63.705 33.7174 62.7644 33.3367C61.8238 32.956 61.0735 32.3849 60.5137 31.6235C59.9762 30.8396 59.7074 29.8878 59.7074 28.7681C59.7074 27.4692 60.0434 26.439 60.7152 25.6776C61.3871 24.8938 62.2717 24.3339 63.369 23.998C64.4888 23.6396 65.6869 23.4605 66.9634 23.4605H71.4648C71.4648 22.2959 71.2633 21.3777 70.8602 20.7059C70.4794 20.034 69.9756 19.5525 69.3485 19.2614C68.7214 18.9703 68.0272 18.8247 67.2658 18.8247C66.1684 18.8247 65.2166 19.0934 64.4104 19.6309C63.6266 20.146 63.1339 20.9522 62.9323 22.0496H60.0434C60.1553 20.8403 60.5584 19.8213 61.2527 18.9927C61.9469 18.1641 62.8203 17.537 63.8729 17.1115C64.9479 16.6636 66.0788 16.4396 67.2658 16.4396C68.9454 16.4396 70.3003 16.7532 71.3305 17.3802C72.3606 17.9849 73.1109 18.8023 73.5812 19.8325C74.0514 20.8626 74.2866 22.0048 74.2866 23.2589V28.365C74.2866 29.1936 74.3874 29.8207 74.5889 30.2462C74.7905 30.6717 75.3056 30.9292 76.1342 31.0188V33.5046C75.3951 33.5046 74.7233 33.4151 74.1186 33.2359C73.514 33.0343 72.9989 32.7208 72.5734 32.2953C72.1703 31.8474 71.8791 31.2651 71.7 30.5485C71.1401 31.4891 70.3675 32.2841 69.3821 32.9336C68.4191 33.583 67.2546 33.9077 65.8885 33.9077ZM66.3252 31.5227C67.4449 31.5227 68.3855 31.2427 69.1469 30.6829C69.9084 30.1006 70.4794 29.3616 70.8602 28.4658C71.2633 27.57 71.4648 26.6406 71.4648 25.6776V25.644H67.1986C66.4148 25.644 65.6757 25.7336 64.9815 25.9127C64.2872 26.0695 63.7273 26.3718 63.3018 26.8197C62.8763 27.2452 62.6636 27.8499 62.6636 28.6337C62.6636 29.6415 63.0219 30.3805 63.7385 30.8508C64.4552 31.2987 65.3174 31.5227 66.3252 31.5227Z" fill="#313131"/>
<path d="M85.3577 33.9077C83.6557 33.9077 82.1888 33.5158 80.9571 32.732C79.7253 31.9482 78.7736 30.8956 78.1017 29.5743C77.4299 28.253 77.0939 26.7749 77.0939 25.1401C77.0939 23.5277 77.4187 22.0608 78.0681 20.7395C78.74 19.4182 79.6918 18.3768 80.9235 17.6154C82.1552 16.8315 83.6445 16.4396 85.3913 16.4396C86.7574 16.4396 87.9667 16.7196 89.0193 17.2794C90.0718 17.8393 90.8893 18.6231 91.4715 19.6309V9.98987H94.2933V33.5046H91.7403L91.4715 30.75C90.9341 31.5563 90.1614 32.2841 89.1536 32.9336C88.1459 33.583 86.8806 33.9077 85.3577 33.9077ZM85.66 31.4555C86.8918 31.4555 87.9331 31.1756 88.7841 30.6157C89.6351 30.0334 90.2734 29.272 90.6989 28.3314C91.1468 27.3684 91.3708 26.3158 91.3708 25.1737C91.3708 23.9644 91.1468 22.8894 90.6989 21.9488C90.251 21.0082 89.6016 20.2692 88.7505 19.7317C87.8995 19.1718 86.8694 18.8919 85.66 18.8919C84.5851 18.8919 83.6221 19.1494 82.7711 19.6645C81.9201 20.1796 81.237 20.9074 80.7219 21.848C80.2292 22.7662 79.9829 23.8748 79.9829 25.1737C79.9829 26.4726 80.2404 27.5924 80.7555 28.5329C81.2706 29.4735 81.9537 30.2014 82.8047 30.7165C83.6781 31.2091 84.6299 31.4555 85.66 31.4555Z" fill="#313131"/>
<path d="M99.2626 13.1476C98.7028 13.1476 98.2325 12.9684 97.8518 12.6101C97.4934 12.2294 97.3143 11.7591 97.3143 11.1992C97.3143 10.6617 97.4934 10.2138 97.8518 9.8555C98.2325 9.49718 98.7028 9.31802 99.2626 9.31802C99.8001 9.31802 100.259 9.49718 100.64 9.8555C101.021 10.2138 101.211 10.6617 101.211 11.1992C101.211 11.7591 101.021 12.2294 100.64 12.6101C100.259 12.9684 99.8001 13.1476 99.2626 13.1476ZM97.8518 33.5046V16.8427H100.674V33.5046H97.8518Z" fill="#313131"/>
<path d="M109.047 33.5046L102.731 16.8427H105.687L110.693 30.7836L115.732 16.8427H118.621L112.305 33.5046H109.047Z" fill="#313131"/>
<path d="M127.223 33.9077C125.656 33.9077 124.234 33.5494 122.957 32.8328C121.703 32.1161 120.706 31.1084 119.967 29.8095C119.228 28.4882 118.859 26.9429 118.859 25.1737C118.859 23.4493 119.217 21.9376 119.934 20.6387C120.65 19.3174 121.636 18.2872 122.89 17.5482C124.144 16.8092 125.589 16.4396 127.223 16.4396C129.194 16.4396 130.851 16.9547 132.195 17.9849C133.561 19.0151 134.423 20.3924 134.782 22.1168H131.893C131.669 21.0866 131.12 20.2916 130.247 19.7317C129.373 19.1494 128.354 18.8583 127.19 18.8583C126.003 18.8583 125.006 19.1494 124.2 19.7317C123.394 20.314 122.778 21.0866 122.353 22.0496C121.949 23.0126 121.748 24.0539 121.748 25.1737C121.748 26.4054 121.983 27.5028 122.453 28.4658C122.924 29.4287 123.562 30.179 124.368 30.7165C125.197 31.2539 126.137 31.5227 127.19 31.5227C128.354 31.5227 129.373 31.2427 130.247 30.6829C131.12 30.1006 131.669 29.2832 131.893 28.2306H134.782C134.558 29.3504 134.099 30.3357 133.404 31.1868C132.71 32.0378 131.837 32.7096 130.784 33.2023C129.732 33.6726 128.545 33.9077 127.223 33.9077Z" fill="#313131"/>
<path d="M144.42 39.6931L153.592 8.30664H156.624L147.453 39.6931H144.42Z" fill="#313131"/>
<path fill-rule="evenodd" clip-rule="evenodd" d="M38.2721 36.2218C44.2828 36.2218 49.1554 31.3207 49.1554 25.2748C49.1554 19.229 44.2828 14.3279 38.2721 14.3279C32.2614 14.3279 27.3888 19.229 27.3888 25.2748C27.3888 31.3207 32.2614 36.2218 38.2721 36.2218ZM41.0365 22.6413L38.2721 18.3053L35.5078 22.6413L38.2721 26.9899L41.0365 22.6413ZM47.0159 25.2748V25.2777V25.2785V25.2797C47.0132 30.1342 43.0999 34.0689 38.2729 34.0689C33.446 34.0689 29.5326 30.1342 29.53 25.2797V25.2785V25.2777L29.5301 25.2763L29.5301 25.2748C29.5321 25.0448 29.718 24.8588 29.9472 24.8588C30.1764 24.8588 30.3625 25.0448 30.3644 25.2748C30.3644 29.6681 33.9052 33.2296 38.2729 33.2296C42.6407 33.2296 46.1815 29.6681 46.1815 25.2748C46.1835 25.0448 46.3695 24.8588 46.5987 24.8588C46.8279 24.8588 47.0139 25.0448 47.0159 25.2748Z" fill="#313131"/>
</svg>
