<svg width="102" height="40" viewBox="0 0 102 40" fill="none" xmlns="http://www.w3.org/2000/svg">
<g clip-path="url(#clip0_3034_44579)">
<path d="M77.9948 35.3112L94.3281 19.9779L77.9948 4.57791H85.1281L101.395 19.9779L85.1281 35.3112H77.9948Z" fill="#313131"/>
<path d="M16.2667 35.3112L0 19.9779L16.2667 4.57791H23.4L7.06667 19.9779L23.4 35.3112H16.2667Z" fill="#313131"/>
<path fill-rule="evenodd" clip-rule="evenodd" d="M50.6641 40C61.7098 40 70.6641 31.0457 70.6641 20C70.6641 8.9543 61.7098 0 50.6641 0C39.6184 0 30.6641 8.9543 30.6641 20C30.6641 31.0457 39.6184 40 50.6641 40ZM55.7432 15.1887L50.6632 7.26674L45.5832 15.1887L50.6632 23.1334L55.7432 15.1887ZM66.7313 20.0001V20.0054V20.009C66.7265 28.8782 59.5351 36.0667 50.6647 36.0667C41.7943 36.0667 34.6028 28.8782 34.598 20.009V20.0054L34.5981 20.0001C34.6017 19.5798 34.9435 19.2401 35.3647 19.2401C35.7859 19.2401 36.1277 19.5798 36.1313 20.0001C36.1313 28.0266 42.6381 34.5334 50.6647 34.5334C58.6912 34.5334 65.1981 28.0266 65.1981 20.0001C65.2017 19.5798 65.5435 19.2401 65.9647 19.2401C66.3859 19.2401 66.7277 19.5798 66.7313 20.0001Z" fill="#313131"/>
</g>
<defs>
<clipPath id="clip0_3034_44579">
<rect width="101.395" height="40" fill="white"/>
</clipPath>
</defs>
</svg>
