<svg width="208" height="208" viewBox="0 0 208 208" fill="none" xmlns="http://www.w3.org/2000/svg">
<rect x="0.75" y="0.75" width="206.5" height="206.5" fill="#CDCCFF"/>
<rect x="0.75" y="0.75" width="206.5" height="206.5" stroke="#313131" stroke-width="1.5"/>
<path d="M40.488 37.984L41.112 49H39.776L39.432 43.248C39.416 42.8587 39.4 42.464 39.384 42.064C39.368 41.664 39.3573 41.28 39.352 40.912C39.3467 40.544 39.344 40.216 39.344 39.928C39.344 39.64 39.344 39.416 39.344 39.256L37.488 47.024H36.096L34.104 39.256C34.1093 39.4107 34.1147 39.64 34.12 39.944C34.1253 40.2427 34.128 40.5813 34.128 40.96C34.1333 41.3387 34.1307 41.728 34.12 42.128C34.1147 42.5227 34.104 42.8907 34.088 43.232L33.792 49H32.488L33.112 37.984H35.048L36.832 45.528L38.536 37.984H40.488ZM46.4098 40.4C47.2044 40.4 47.8684 40.5813 48.4018 40.944C48.9404 41.3013 49.3431 41.808 49.6098 42.464C49.8818 43.12 50.0178 43.8933 50.0178 44.784C50.0178 45.6427 49.8791 46.4027 49.6018 47.064C49.3244 47.7253 48.9164 48.2453 48.3778 48.624C47.8444 48.9973 47.1831 49.184 46.3938 49.184C45.6044 49.184 44.9404 49.0027 44.4018 48.64C43.8631 48.2773 43.4551 47.768 43.1778 47.112C42.9058 46.4507 42.7697 45.68 42.7697 44.8C42.7697 43.9307 42.9084 43.1653 43.1858 42.504C43.4631 41.8427 43.8711 41.328 44.4098 40.96C44.9538 40.5867 45.6204 40.4 46.4098 40.4ZM46.4098 41.496C45.6844 41.496 45.1351 41.7653 44.7618 42.304C44.3938 42.8373 44.2098 43.6693 44.2098 44.8C44.2098 45.9093 44.3911 46.7333 44.7538 47.272C45.1218 47.8107 45.6684 48.08 46.3938 48.08C47.1191 48.08 47.6631 47.8107 48.0258 47.272C48.3938 46.7333 48.5778 45.904 48.5778 44.784C48.5778 43.664 48.3964 42.8373 48.0338 42.304C47.6711 41.7653 47.1298 41.496 46.4098 41.496ZM59.1315 40.576V47.904L58.4435 49H52.8995L52.1715 47.904C52.4275 47.68 52.6382 47.4053 52.8035 47.08C52.9742 46.7547 53.1155 46.296 53.2275 45.704C53.3395 45.112 53.4302 44.3093 53.4995 43.296L53.6915 40.576H59.1315ZM57.7635 41.672H54.9075L54.8115 43.2C54.7635 43.9733 54.7022 44.624 54.6275 45.152C54.5582 45.6747 54.4675 46.1093 54.3555 46.456C54.2488 46.7973 54.1102 47.08 53.9395 47.304C53.7742 47.5227 53.5688 47.7227 53.3235 47.904H57.7635V41.672ZM51.6035 47.904H53.4755L53.5235 49H52.9555L52.7235 51.352H51.6035V47.904ZM59.7475 47.904V51.352H58.6355L58.3955 49H57.8355L57.8755 47.904H59.7475ZM69.3973 40.576L66.4373 49.056C66.2399 49.6267 65.9893 50.1493 65.6853 50.624C65.3866 51.0987 64.9946 51.4907 64.5093 51.8C64.0293 52.1147 63.4186 52.3093 62.6773 52.384L62.4693 51.312C63.0506 51.216 63.5093 51.0693 63.8453 50.872C64.1813 50.6747 64.4453 50.4213 64.6373 50.112C64.8346 49.8027 65.0079 49.432 65.1573 49H64.7093L61.7653 40.576H63.2053L65.6213 47.976L68.0053 40.576H69.3973ZM78.535 40.576V49H77.191V41.696H74.039L73.847 43.92C73.7777 44.8587 73.6897 45.624 73.583 46.216C73.4817 46.8027 73.3483 47.2773 73.183 47.64C73.0177 48.0027 72.807 48.2987 72.551 48.528C72.3003 48.752 71.9883 48.968 71.615 49.176L71.047 48.312C71.2443 48.1893 71.4203 48.0533 71.575 47.904C71.7297 47.7493 71.8683 47.528 71.991 47.24C72.119 46.952 72.2283 46.5493 72.319 46.032C72.415 45.5147 72.495 44.832 72.559 43.984L72.823 40.576H78.535ZM83.3288 40.576V43.232H84.9848C85.8594 43.232 86.5528 43.352 87.0648 43.592C87.5821 43.8267 87.9501 44.16 88.1688 44.592C88.3928 45.0187 88.5048 45.52 88.5048 46.096C88.5048 46.768 88.3501 47.32 88.0408 47.752C87.7314 48.1787 87.3314 48.4933 86.8408 48.696C86.3501 48.8987 85.8301 49 85.2808 49H81.9848V40.576H83.3288ZM84.9608 44.288H83.3288V47.92H85.1288C85.6941 47.92 86.1581 47.792 86.5208 47.536C86.8834 47.2747 87.0648 46.7973 87.0648 46.104C87.0648 45.5013 86.9154 45.048 86.6168 44.744C86.3234 44.44 85.7714 44.288 84.9608 44.288ZM105.132 37.984V48.68H103.788V39.44L101.26 40.976L100.676 40.016L103.956 37.984H105.132ZM107.436 47.904V49H101.076V47.904H107.436Z" fill="#313131"/>
<path d="M158.758 49.2431L164 44.0005M164 44.0005L169.243 38.7578M164 44.0005L158.758 38.7578M164 44.0005L169.243 49.2431" stroke="#313131" stroke-width="1.5" stroke-linecap="round" stroke-linejoin="round"/>
<path d="M39.5431 149.688C37.2468 147.754 36.6831 144.401 38.1157 141.755C38.5637 140.928 39.423 140.055 40.0424 139.321L47.0855 130.957C48.9311 128.766 49.5849 127.283 52.8166 127.293L84.0545 127.287C85.5013 127.295 86.7662 128.003 88.0194 128.633C88.8059 129.029 90.2286 129.472 88.9816 130.555C88.9671 132.032 89.166 133.645 89.8976 134.92C90.7728 136.446 90.8388 136.202 89.7166 137.53C89.2226 138.115 88.2986 139.116 87.9042 139.76L87.8658 139.823L88.0708 139.819C90.0095 139.769 89.1273 141.457 89.0311 142.315C88.8842 143.625 89.1313 144.764 89.6619 145.967C89.7541 146.286 90.7644 147.219 90.6574 147.515C90.4708 148.03 89.3932 149.216 89.0467 149.642L81.56 158.744C80.2989 160.255 80.5191 160.711 78.576 160.701L76.7299 160.695L41.7841 160.717C40.7992 160.717 39.8063 160.153 39.125 159.465C36.4606 156.774 36.9642 152.298 39.5431 149.688ZM52.2724 128.924C50.4984 128.975 49.8175 130.214 48.7737 131.472L41.7195 139.823H76.7299H79.2498C81.8022 136.48 84.7407 133.389 87.3198 130.099C85.191 129.018 84.8668 128.92 82.6124 128.922L54.0558 128.922C53.5957 128.922 52.6899 128.89 52.2724 128.924ZM87.443 132.488C86.3964 133.717 85.3986 135.006 84.3542 136.237L81.4125 139.757C79.652 141.884 76.9785 144.975 78.9838 147.871L79.2498 147.574L87.5228 137.53C87.9245 137.054 88.2989 136.576 88.7487 136.145C88.0494 135.03 87.5547 132.65 87.443 132.488ZM86.5423 141.336C84.027 144.143 81.6974 147.172 79.2577 150.044C78.841 150.535 78.0332 150.425 77.4669 150.421L44.679 150.417C43.077 150.417 41.4199 150.063 40.2708 151.326C38.5379 153.23 38.5952 157.408 40.9821 158.812C41.9724 159.289 44.7551 159.074 45.964 159.073L78.3613 159.072C78.1678 158.547 77.9414 158.023 77.7822 157.496C76.516 153.304 79.6453 150.89 81.9463 147.995C83.7132 145.771 85.576 143.569 87.3198 141.336H86.5423ZM49.6671 141.46L44.1097 141.459C42.7476 141.46 41.1753 141.178 40.1644 142.179C38.6205 143.68 38.6767 146.545 40.1708 148.057C41.2328 149.132 42.9904 148.798 44.4313 148.798L68.1718 148.797H77.5675C76.1348 146.263 76.5735 143.91 77.9415 141.46H49.6671ZM87.3198 143.825C86.2895 145.629 83.1584 149.065 81.7618 150.782C79.7641 153.238 78.1381 154.843 79.8533 158.237L80.1707 157.841L85.7576 151.037C86.7402 149.843 87.7837 148.652 88.7487 147.453C87.5896 145.747 87.8902 145.037 87.3198 143.825Z" fill="#313131"/>
<path d="M52.2724 128.924C50.4984 128.975 49.8175 130.214 48.7737 131.472L41.7195 139.823H76.7299H79.2498C81.8022 136.48 84.7407 133.389 87.3198 130.099C85.191 129.018 84.8668 128.92 82.6124 128.922L54.0558 128.922C53.5957 128.922 52.6899 128.89 52.2724 128.924Z" fill="#DEFFCC"/>
<path d="M86.5423 141.336C84.027 144.143 81.6974 147.172 79.2577 150.044C78.841 150.535 78.0332 150.425 77.4669 150.421L44.679 150.417C43.077 150.417 41.4199 150.063 40.2708 151.326C38.5379 153.23 38.5952 157.408 40.9821 158.812C41.9724 159.289 44.7551 159.074 45.964 159.073L78.3613 159.072C78.1678 158.547 77.9414 158.023 77.7822 157.496C76.516 153.304 79.6453 150.89 81.9463 147.995C83.7132 145.771 85.576 143.569 87.3198 141.336H86.5423Z" fill="#CDCCFF"/>
<path d="M74.4071 155.506L49.1079 155.507C48.4372 155.507 45.3749 155.652 44.8977 155.343C44.1741 154.875 44.6579 153.994 45.4499 153.891L74.218 153.894C75.9823 154.024 75.3853 155.431 74.4071 155.506Z" fill="#313131"/>
</svg>
