<svg width="64" height="64" viewBox="0 0 64 64" fill="none" xmlns="http://www.w3.org/2000/svg">
<path d="M7.5431 37.6903C5.24684 35.7556 4.68313 32.4028 6.1157 29.7571C6.56369 28.9297 7.423 28.0569 8.04243 27.323L15.0855 18.9592C16.9311 16.7676 17.5849 15.2854 20.8166 15.295L52.0545 15.2891C53.5013 15.2974 54.7662 16.005 56.0194 16.6353C56.8059 17.0307 58.2286 17.4736 56.9816 18.5574C56.9671 20.0338 57.166 21.6471 57.8976 22.9223C58.7728 24.4477 58.8388 24.2038 57.7166 25.532C57.2226 26.1165 56.2986 27.1175 55.9042 27.7617L55.8658 27.8251L56.0708 27.8207C58.0095 27.7708 57.1273 29.4594 57.0311 30.3172C56.8842 31.6273 57.1313 32.7662 57.6619 33.9693C57.7541 34.2879 58.7644 35.2213 58.6574 35.5169C58.4708 36.0324 57.3932 37.2181 57.0467 37.6439L49.56 46.7464C48.2989 48.2571 48.5191 48.713 46.576 48.7031L44.7299 48.6969L9.7841 48.719C8.79922 48.719 7.80627 48.1545 7.12498 47.4665C4.46063 44.7762 4.96424 40.3 7.5431 37.6903ZM20.2724 16.9259C18.4984 16.9772 17.8175 18.2158 16.7737 19.4741L9.71946 27.8251H44.7299H47.2498C49.8022 24.4817 52.7407 21.3912 55.3198 18.1012C53.191 17.0198 52.8668 16.9218 50.6124 16.9238L22.0558 16.9242C21.5957 16.9236 20.6899 16.8919 20.2724 16.9259ZM55.443 20.4904C54.3964 21.7186 53.3986 23.0077 52.3542 24.2393L49.4125 27.7587C47.652 29.8864 44.9785 32.9772 46.9838 35.8725L47.2498 35.5764L55.5228 25.5317C55.9245 25.0556 56.2989 24.5784 56.7487 24.1469C56.0494 23.0323 55.5547 20.6517 55.443 20.4904ZM54.5423 29.3383C52.027 32.1451 49.6974 35.1735 47.2577 38.046C46.841 38.5367 46.0332 38.4265 45.4669 38.4229L12.679 38.4188C11.077 38.4186 9.41989 38.0649 8.27082 39.3276C6.53791 41.2323 6.59523 45.41 8.98209 46.8141C9.97243 47.2909 12.7551 47.0757 13.964 47.0751L46.3613 47.0743C46.1678 46.5491 45.9414 46.0251 45.7822 45.4982C44.516 41.3059 47.6453 38.8924 49.9463 35.9965C51.7132 33.773 53.576 31.5709 55.3198 29.3383H54.5423ZM17.6671 29.4624L12.1097 29.4612C10.7476 29.4615 9.17527 29.1803 8.16436 30.181C6.62054 31.6821 6.6767 34.5469 8.17084 36.0594C9.23278 37.1343 10.9904 36.8003 12.4313 36.8005L36.1718 36.7994H45.5675C44.1348 34.2654 44.5735 31.9123 45.9415 29.4624H17.6671ZM55.3198 31.8266C54.2895 33.6305 51.1584 37.0665 49.7618 38.7836C47.7641 41.24 46.1381 42.8454 47.8533 46.2386L48.1707 45.8432L53.7576 39.0394C54.7402 37.8451 55.7837 36.654 56.7487 35.4552C55.5896 33.7487 55.8902 33.0385 55.3198 31.8266Z" fill="#313131"/>
<path d="M20.2724 16.9259C18.4984 16.9772 17.8175 18.2158 16.7737 19.4741L9.71946 27.8251H44.7299H47.2498C49.8022 24.4817 52.7407 21.3912 55.3198 18.1012C53.191 17.0198 52.8668 16.9218 50.6124 16.9238L22.0558 16.9242C21.5957 16.9236 20.6899 16.8919 20.2724 16.9259Z" fill="#DEFFCC"/>
<path d="M54.5423 29.3383C52.027 32.1451 49.6974 35.1735 47.2577 38.046C46.841 38.5367 46.0332 38.4265 45.4669 38.4229L12.679 38.4188C11.077 38.4186 9.41989 38.0649 8.27082 39.3276C6.53791 41.2323 6.59523 45.41 8.98209 46.8141C9.97243 47.2909 12.7551 47.0757 13.964 47.0751L46.3613 47.0743C46.1678 46.5491 45.9414 46.0251 45.7822 45.4982C44.516 41.3059 47.6453 38.8924 49.9463 35.9965C51.7132 33.773 53.576 31.5709 55.3198 29.3383H54.5423Z" fill="#CDCCFF"/>
<path d="M42.4071 43.506L17.1079 43.5065C16.4372 43.5065 13.3749 43.6516 12.8977 43.3429C12.1741 42.8752 12.6579 41.994 13.4499 41.8906L42.218 41.8941C43.9823 42.0245 43.3853 43.4309 42.4071 43.506Z" fill="#313131"/>
</svg>
