<svg width="423" height="81" viewBox="0 0 423 81" fill="none" xmlns="http://www.w3.org/2000/svg">
<rect x="0.75" y="0.75" width="421.5" height="79.5" fill="#CCE8FF"/>
<rect x="0.75" y="0.75" width="421.5" height="79.5" stroke="#313131" stroke-width="1.5"/>
<path d="M31.74 47V41.123H27.06V47H25.503V34.607H27.06V39.845H31.74V34.607H33.297V47H31.74ZM44.486 37.523L41.156 47.063C40.934 47.705 40.652 48.293 40.31 48.827C39.974 49.361 39.533 49.802 38.987 50.15C38.447 50.504 37.76 50.723 36.926 50.807L36.692 49.601C37.346 49.493 37.862 49.328 38.24 49.106C38.618 48.884 38.915 48.599 39.131 48.251C39.353 47.903 39.548 47.486 39.716 47H39.212L35.9 37.523H37.52L40.238 45.848L42.92 37.523H44.486ZM51.6339 37.325C52.4739 37.325 53.1429 37.529 53.6409 37.937C54.1449 38.345 54.5079 38.921 54.7299 39.665C54.9519 40.403 55.0629 41.267 55.0629 42.257C55.0629 43.211 54.9279 44.063 54.6579 44.813C54.3939 45.557 53.9919 46.142 53.4519 46.568C52.9119 46.994 52.2309 47.207 51.4089 47.207C50.3709 47.207 49.5369 46.841 48.9069 46.109V50.627L47.3949 50.816V37.523H48.6819L48.8079 38.846C49.1559 38.36 49.5699 37.985 50.0499 37.721C50.5359 37.457 51.0639 37.325 51.6339 37.325ZM51.2739 38.54C50.7519 38.54 50.2899 38.699 49.8879 39.017C49.4919 39.329 49.1649 39.677 48.9069 40.061V44.759C49.1529 45.125 49.4619 45.416 49.8339 45.632C50.2119 45.842 50.6259 45.947 51.0759 45.947C51.8619 45.947 52.4529 45.647 52.8489 45.047C53.2449 44.447 53.4429 43.514 53.4429 42.248C53.4429 41.42 53.3649 40.733 53.2089 40.187C53.0529 39.635 52.8159 39.224 52.4979 38.954C52.1799 38.678 51.7719 38.54 51.2739 38.54ZM59.3759 42.797C59.4059 43.529 59.5469 44.129 59.7989 44.597C60.0509 45.059 60.3839 45.401 60.7979 45.623C61.2119 45.839 61.6619 45.947 62.1479 45.947C62.6339 45.947 63.0719 45.875 63.4619 45.731C63.8579 45.587 64.2629 45.374 64.6769 45.092L65.3879 46.091C64.9439 46.439 64.4369 46.712 63.8669 46.91C63.3029 47.108 62.7239 47.207 62.1299 47.207C61.2119 47.207 60.4289 47 59.7809 46.586C59.1329 46.172 58.6379 45.596 58.2959 44.858C57.9599 44.114 57.7919 43.253 57.7919 42.275C57.7919 41.315 57.9629 40.463 58.3049 39.719C58.6469 38.975 59.1269 38.39 59.7449 37.964C60.3629 37.538 61.0919 37.325 61.9319 37.325C62.7299 37.325 63.4169 37.514 63.9929 37.892C64.5689 38.264 65.0099 38.798 65.3159 39.494C65.6279 40.184 65.7839 41.009 65.7839 41.969C65.7839 42.131 65.7809 42.284 65.7749 42.428C65.7689 42.566 65.7599 42.689 65.7479 42.797H59.3759ZM61.9499 38.567C61.2479 38.567 60.6599 38.816 60.1859 39.314C59.7179 39.812 59.4509 40.583 59.3849 41.627H64.3259C64.3079 40.613 64.0859 39.851 63.6599 39.341C63.2339 38.825 62.6639 38.567 61.9499 38.567ZM69.0709 47V45.839H70.5469V38.684H69.0709V37.523H71.6989L71.9779 39.764C72.3439 38.984 72.7879 38.381 73.3099 37.955C73.8319 37.529 74.5219 37.316 75.3799 37.316C75.6439 37.316 75.8779 37.337 76.0819 37.379C76.2919 37.415 76.5049 37.463 76.7209 37.523L76.2799 38.873C76.0819 38.819 75.9019 38.78 75.7399 38.756C75.5779 38.726 75.3919 38.711 75.1819 38.711C74.4559 38.711 73.8319 38.969 73.3099 39.485C72.7879 40.001 72.3709 40.781 72.0589 41.825V45.839H73.9849V47H69.0709ZM75.2629 40.727V38.666L75.4159 37.523H76.7209L76.5049 40.727H75.2629ZM94.9048 35.948V47H93.3478V35.948H89.4778V34.607H98.8288L98.6668 35.948H94.9048ZM102.548 42.797C102.578 43.529 102.719 44.129 102.971 44.597C103.223 45.059 103.556 45.401 103.97 45.623C104.384 45.839 104.834 45.947 105.32 45.947C105.806 45.947 106.244 45.875 106.634 45.731C107.03 45.587 107.435 45.374 107.849 45.092L108.56 46.091C108.116 46.439 107.609 46.712 107.039 46.91C106.475 47.108 105.896 47.207 105.302 47.207C104.384 47.207 103.601 47 102.953 46.586C102.305 46.172 101.81 45.596 101.468 44.858C101.132 44.114 100.964 43.253 100.964 42.275C100.964 41.315 101.135 40.463 101.477 39.719C101.819 38.975 102.299 38.39 102.917 37.964C103.535 37.538 104.264 37.325 105.104 37.325C105.902 37.325 106.589 37.514 107.165 37.892C107.741 38.264 108.182 38.798 108.488 39.494C108.8 40.184 108.956 41.009 108.956 41.969C108.956 42.131 108.953 42.284 108.947 42.428C108.941 42.566 108.932 42.689 108.92 42.797H102.548ZM105.122 38.567C104.42 38.567 103.832 38.816 103.358 39.314C102.89 39.812 102.623 40.583 102.557 41.627H107.498C107.48 40.613 107.258 39.851 106.832 39.341C106.406 38.825 105.836 38.567 105.122 38.567ZM113.071 47H111.343L114.844 41.996L111.775 37.523H113.566L115.762 41.051L117.985 37.523H119.713L116.653 41.933L120.145 47H118.291L115.699 42.932L113.071 47ZM130.47 46.523C130.146 46.739 129.753 46.907 129.291 47.027C128.829 47.147 128.376 47.207 127.932 47.207C126.912 47.207 126.126 46.94 125.574 46.406C125.022 45.872 124.746 45.185 124.746 44.345V38.693H122.568V37.523H124.746V35.372L126.258 35.192V37.523H129.534L129.354 38.693H126.258V44.327C126.258 44.855 126.396 45.257 126.672 45.533C126.954 45.809 127.419 45.947 128.067 45.947C128.421 45.947 128.748 45.905 129.048 45.821C129.348 45.737 129.627 45.629 129.885 45.497L130.47 46.523ZM152.272 34.607L152.974 47H151.471L151.084 40.529C151.066 40.091 151.048 39.647 151.03 39.197C151.012 38.747 151 38.315 150.994 37.901C150.988 37.487 150.985 37.118 150.985 36.794C150.985 36.47 150.985 36.218 150.985 36.038L148.897 44.777H147.331L145.09 36.038C145.096 36.212 145.102 36.47 145.108 36.812C145.114 37.148 145.117 37.529 145.117 37.955C145.123 38.381 145.12 38.819 145.108 39.269C145.102 39.713 145.09 40.127 145.072 40.511L144.739 47H143.272L143.974 34.607H146.152L148.159 43.094L150.076 34.607H152.272ZM162.111 44.93C162.111 45.308 162.174 45.584 162.3 45.758C162.426 45.932 162.621 46.061 162.885 46.145L162.516 47.207C162.108 47.153 161.751 47.024 161.445 46.82C161.139 46.61 160.917 46.295 160.779 45.875C160.437 46.313 160.011 46.646 159.501 46.874C158.991 47.096 158.427 47.207 157.809 47.207C156.861 47.207 156.114 46.94 155.568 46.406C155.022 45.872 154.749 45.164 154.749 44.282C154.749 43.304 155.13 42.554 155.892 42.032C156.654 41.51 157.755 41.249 159.195 41.249H160.59V40.457C160.59 39.773 160.389 39.29 159.987 39.008C159.591 38.72 159.039 38.576 158.331 38.576C158.019 38.576 157.653 38.615 157.233 38.693C156.813 38.765 156.357 38.888 155.865 39.062L155.469 37.919C156.051 37.703 156.597 37.55 157.107 37.46C157.617 37.37 158.103 37.325 158.565 37.325C159.747 37.325 160.632 37.601 161.22 38.153C161.814 38.699 162.111 39.443 162.111 40.385V44.93ZM158.196 46.055C158.664 46.055 159.111 45.938 159.537 45.704C159.963 45.464 160.314 45.134 160.59 44.714V42.275H159.222C158.178 42.275 157.44 42.455 157.008 42.815C156.582 43.175 156.369 43.658 156.369 44.264C156.369 44.852 156.519 45.299 156.819 45.605C157.125 45.905 157.584 46.055 158.196 46.055ZM166.208 47V45.839H167.684V38.684H166.208V37.523H168.836L169.115 39.764C169.481 38.984 169.925 38.381 170.447 37.955C170.969 37.529 171.659 37.316 172.517 37.316C172.781 37.316 173.015 37.337 173.219 37.379C173.429 37.415 173.642 37.463 173.858 37.523L173.417 38.873C173.219 38.819 173.039 38.78 172.877 38.756C172.715 38.726 172.529 38.711 172.319 38.711C171.593 38.711 170.969 38.969 170.447 39.485C169.925 40.001 169.508 40.781 169.196 41.825V45.839H171.122V47H166.208ZM172.4 40.727V38.666L172.553 37.523H173.858L173.642 40.727H172.4ZM184.849 37.523L180.583 41.789L185.344 47H183.355L178.693 41.825L182.887 37.523H184.849ZM178.522 33.518V47H177.01V33.707L178.522 33.518ZM189.216 37.523V44.237C189.216 44.861 189.345 45.311 189.603 45.587C189.861 45.863 190.263 46.001 190.809 46.001C191.331 46.001 191.823 45.854 192.285 45.56C192.753 45.26 193.116 44.906 193.374 44.498V37.523H194.886V47H193.599L193.473 45.722C193.101 46.202 192.642 46.571 192.096 46.829C191.55 47.081 190.998 47.207 190.44 47.207C189.522 47.207 188.835 46.964 188.379 46.478C187.929 45.986 187.704 45.299 187.704 44.417V37.523H189.216ZM202.736 37.325C203.576 37.325 204.245 37.529 204.743 37.937C205.247 38.345 205.61 38.921 205.832 39.665C206.054 40.403 206.165 41.267 206.165 42.257C206.165 43.211 206.03 44.063 205.76 44.813C205.496 45.557 205.094 46.142 204.554 46.568C204.014 46.994 203.333 47.207 202.511 47.207C201.473 47.207 200.639 46.841 200.009 46.109V50.627L198.497 50.816V37.523H199.784L199.91 38.846C200.258 38.36 200.672 37.985 201.152 37.721C201.638 37.457 202.166 37.325 202.736 37.325ZM202.376 38.54C201.854 38.54 201.392 38.699 200.99 39.017C200.594 39.329 200.267 39.677 200.009 40.061V44.759C200.255 45.125 200.564 45.416 200.936 45.632C201.314 45.842 201.728 45.947 202.178 45.947C202.964 45.947 203.555 45.647 203.951 45.047C204.347 44.447 204.545 43.514 204.545 42.248C204.545 41.42 204.467 40.733 204.311 40.187C204.155 39.635 203.918 39.224 203.6 38.954C203.282 38.678 202.874 38.54 202.376 38.54ZM220.712 47V34.607H222.278V45.605H227.93L227.75 47H220.712ZM237.661 44.93C237.661 45.308 237.724 45.584 237.85 45.758C237.976 45.932 238.171 46.061 238.435 46.145L238.066 47.207C237.658 47.153 237.301 47.024 236.995 46.82C236.689 46.61 236.467 46.295 236.329 45.875C235.987 46.313 235.561 46.646 235.051 46.874C234.541 47.096 233.977 47.207 233.359 47.207C232.411 47.207 231.664 46.94 231.118 46.406C230.572 45.872 230.299 45.164 230.299 44.282C230.299 43.304 230.68 42.554 231.442 42.032C232.204 41.51 233.305 41.249 234.745 41.249H236.14V40.457C236.14 39.773 235.939 39.29 235.537 39.008C235.141 38.72 234.589 38.576 233.881 38.576C233.569 38.576 233.203 38.615 232.783 38.693C232.363 38.765 231.907 38.888 231.415 39.062L231.019 37.919C231.601 37.703 232.147 37.55 232.657 37.46C233.167 37.37 233.653 37.325 234.115 37.325C235.297 37.325 236.182 37.601 236.77 38.153C237.364 38.699 237.661 39.443 237.661 40.385V44.93ZM233.746 46.055C234.214 46.055 234.661 45.938 235.087 45.704C235.513 45.464 235.864 45.134 236.14 44.714V42.275H234.772C233.728 42.275 232.99 42.455 232.558 42.815C232.132 43.175 231.919 43.658 231.919 44.264C231.919 44.852 232.069 45.299 232.369 45.605C232.675 45.905 233.134 46.055 233.746 46.055ZM241.668 47V37.523H242.955L243.072 38.837C243.456 38.351 243.936 37.979 244.512 37.721C245.094 37.457 245.658 37.325 246.204 37.325C247.134 37.325 247.809 37.571 248.229 38.063C248.655 38.555 248.868 39.239 248.868 40.115V47H247.356V41.231C247.356 40.583 247.32 40.061 247.248 39.665C247.176 39.263 247.026 38.972 246.798 38.792C246.57 38.606 246.216 38.513 245.736 38.513C245.364 38.513 245.013 38.594 244.683 38.756C244.359 38.918 244.068 39.122 243.81 39.368C243.558 39.608 243.348 39.851 243.18 40.097V47H241.668ZM260.165 36.515L260.633 37.937C260.231 38.063 259.802 38.141 259.346 38.171C258.89 38.201 258.395 38.216 257.861 38.216C258.407 38.468 258.818 38.795 259.094 39.197C259.37 39.593 259.508 40.061 259.508 40.601C259.508 41.225 259.367 41.78 259.085 42.266C258.803 42.752 258.395 43.133 257.861 43.409C257.333 43.685 256.694 43.823 255.944 43.823C255.626 43.823 255.359 43.808 255.143 43.778C254.933 43.748 254.729 43.703 254.531 43.643C254.387 43.739 254.267 43.871 254.171 44.039C254.081 44.207 254.036 44.381 254.036 44.561C254.036 44.789 254.126 44.978 254.306 45.128C254.486 45.278 254.819 45.353 255.305 45.353H257.015C257.651 45.353 258.221 45.467 258.725 45.695C259.235 45.923 259.634 46.229 259.922 46.613C260.216 46.997 260.363 47.435 260.363 47.927C260.363 48.857 259.967 49.571 259.175 50.069C258.389 50.567 257.276 50.816 255.836 50.816C254.828 50.816 254.033 50.711 253.451 50.501C252.869 50.297 252.452 49.982 252.2 49.556C251.954 49.136 251.831 48.605 251.831 47.963H253.199C253.199 48.329 253.271 48.632 253.415 48.872C253.559 49.112 253.82 49.289 254.198 49.403C254.576 49.523 255.119 49.583 255.827 49.583C256.523 49.583 257.09 49.523 257.528 49.403C257.972 49.289 258.299 49.115 258.509 48.881C258.725 48.653 258.833 48.368 258.833 48.026C258.833 47.576 258.629 47.237 258.221 47.009C257.813 46.781 257.303 46.667 256.691 46.667H254.999C254.183 46.667 253.58 46.487 253.19 46.127C252.806 45.767 252.614 45.353 252.614 44.885C252.614 44.579 252.701 44.282 252.875 43.994C253.055 43.706 253.316 43.451 253.658 43.229C253.112 42.941 252.71 42.584 252.452 42.158C252.194 41.732 252.065 41.216 252.065 40.61C252.065 39.968 252.224 39.401 252.542 38.909C252.86 38.411 253.304 38.021 253.874 37.739C254.444 37.457 255.101 37.316 255.845 37.316C256.643 37.31 257.291 37.277 257.789 37.217C258.287 37.151 258.713 37.058 259.067 36.938C259.427 36.818 259.793 36.677 260.165 36.515ZM255.845 38.423C255.083 38.423 254.519 38.63 254.153 39.044C253.793 39.452 253.613 39.974 253.613 40.61C253.613 41.252 253.799 41.78 254.171 42.194C254.543 42.608 255.113 42.815 255.881 42.815C256.553 42.815 257.063 42.62 257.411 42.23C257.765 41.84 257.942 41.297 257.942 40.601C257.942 39.887 257.765 39.347 257.411 38.981C257.063 38.609 256.541 38.423 255.845 38.423ZM264.766 37.523V44.237C264.766 44.861 264.895 45.311 265.153 45.587C265.411 45.863 265.813 46.001 266.359 46.001C266.881 46.001 267.373 45.854 267.835 45.56C268.303 45.26 268.666 44.906 268.924 44.498V37.523H270.436V47H269.149L269.023 45.722C268.651 46.202 268.192 46.571 267.646 46.829C267.1 47.081 266.548 47.207 265.99 47.207C265.072 47.207 264.385 46.964 263.929 46.478C263.479 45.986 263.254 45.299 263.254 44.417V37.523H264.766ZM280.833 44.93C280.833 45.308 280.896 45.584 281.022 45.758C281.148 45.932 281.343 46.061 281.607 46.145L281.238 47.207C280.83 47.153 280.473 47.024 280.167 46.82C279.861 46.61 279.639 46.295 279.501 45.875C279.159 46.313 278.733 46.646 278.223 46.874C277.713 47.096 277.149 47.207 276.531 47.207C275.583 47.207 274.836 46.94 274.29 46.406C273.744 45.872 273.471 45.164 273.471 44.282C273.471 43.304 273.852 42.554 274.614 42.032C275.376 41.51 276.477 41.249 277.917 41.249H279.312V40.457C279.312 39.773 279.111 39.29 278.709 39.008C278.313 38.72 277.761 38.576 277.053 38.576C276.741 38.576 276.375 38.615 275.955 38.693C275.535 38.765 275.079 38.888 274.587 39.062L274.191 37.919C274.773 37.703 275.319 37.55 275.829 37.46C276.339 37.37 276.825 37.325 277.287 37.325C278.469 37.325 279.354 37.601 279.942 38.153C280.536 38.699 280.833 39.443 280.833 40.385V44.93ZM276.918 46.055C277.386 46.055 277.833 45.938 278.259 45.704C278.685 45.464 279.036 45.134 279.312 44.714V42.275H277.944C276.9 42.275 276.162 42.455 275.73 42.815C275.304 43.175 275.091 43.658 275.091 44.264C275.091 44.852 275.241 45.299 275.541 45.605C275.847 45.905 276.306 46.055 276.918 46.055ZM292.544 36.515L293.012 37.937C292.61 38.063 292.181 38.141 291.725 38.171C291.269 38.201 290.774 38.216 290.24 38.216C290.786 38.468 291.197 38.795 291.473 39.197C291.749 39.593 291.887 40.061 291.887 40.601C291.887 41.225 291.746 41.78 291.464 42.266C291.182 42.752 290.774 43.133 290.24 43.409C289.712 43.685 289.073 43.823 288.323 43.823C288.005 43.823 287.738 43.808 287.522 43.778C287.312 43.748 287.108 43.703 286.91 43.643C286.766 43.739 286.646 43.871 286.55 44.039C286.46 44.207 286.415 44.381 286.415 44.561C286.415 44.789 286.505 44.978 286.685 45.128C286.865 45.278 287.198 45.353 287.684 45.353H289.394C290.03 45.353 290.6 45.467 291.104 45.695C291.614 45.923 292.013 46.229 292.301 46.613C292.595 46.997 292.742 47.435 292.742 47.927C292.742 48.857 292.346 49.571 291.554 50.069C290.768 50.567 289.655 50.816 288.215 50.816C287.207 50.816 286.412 50.711 285.83 50.501C285.248 50.297 284.831 49.982 284.579 49.556C284.333 49.136 284.21 48.605 284.21 47.963H285.578C285.578 48.329 285.65 48.632 285.794 48.872C285.938 49.112 286.199 49.289 286.577 49.403C286.955 49.523 287.498 49.583 288.206 49.583C288.902 49.583 289.469 49.523 289.907 49.403C290.351 49.289 290.678 49.115 290.888 48.881C291.104 48.653 291.212 48.368 291.212 48.026C291.212 47.576 291.008 47.237 290.6 47.009C290.192 46.781 289.682 46.667 289.07 46.667H287.378C286.562 46.667 285.959 46.487 285.569 46.127C285.185 45.767 284.993 45.353 284.993 44.885C284.993 44.579 285.08 44.282 285.254 43.994C285.434 43.706 285.695 43.451 286.037 43.229C285.491 42.941 285.089 42.584 284.831 42.158C284.573 41.732 284.444 41.216 284.444 40.61C284.444 39.968 284.603 39.401 284.921 38.909C285.239 38.411 285.683 38.021 286.253 37.739C286.823 37.457 287.48 37.316 288.224 37.316C289.022 37.31 289.67 37.277 290.168 37.217C290.666 37.151 291.092 37.058 291.446 36.938C291.806 36.818 292.172 36.677 292.544 36.515ZM288.224 38.423C287.462 38.423 286.898 38.63 286.532 39.044C286.172 39.452 285.992 39.974 285.992 40.61C285.992 41.252 286.178 41.78 286.55 42.194C286.922 42.608 287.492 42.815 288.26 42.815C288.932 42.815 289.442 42.62 289.79 42.23C290.144 41.84 290.321 41.297 290.321 40.601C290.321 39.887 290.144 39.347 289.79 38.981C289.442 38.609 288.92 38.423 288.224 38.423ZM296.821 42.797C296.851 43.529 296.992 44.129 297.244 44.597C297.496 45.059 297.829 45.401 298.243 45.623C298.657 45.839 299.107 45.947 299.593 45.947C300.079 45.947 300.517 45.875 300.907 45.731C301.303 45.587 301.708 45.374 302.122 45.092L302.833 46.091C302.389 46.439 301.882 46.712 301.312 46.91C300.748 47.108 300.169 47.207 299.575 47.207C298.657 47.207 297.874 47 297.226 46.586C296.578 46.172 296.083 45.596 295.741 44.858C295.405 44.114 295.237 43.253 295.237 42.275C295.237 41.315 295.408 40.463 295.75 39.719C296.092 38.975 296.572 38.39 297.19 37.964C297.808 37.538 298.537 37.325 299.377 37.325C300.175 37.325 300.862 37.514 301.438 37.892C302.014 38.264 302.455 38.798 302.761 39.494C303.073 40.184 303.229 41.009 303.229 41.969C303.229 42.131 303.226 42.284 303.22 42.428C303.214 42.566 303.205 42.689 303.193 42.797H296.821ZM299.395 38.567C298.693 38.567 298.105 38.816 297.631 39.314C297.163 39.812 296.896 40.583 296.83 41.627H301.771C301.753 40.613 301.531 39.851 301.105 39.341C300.679 38.825 300.109 38.567 299.395 38.567Z" fill="#313131"/>
<path fill-rule="evenodd" clip-rule="evenodd" d="M387 29.75C381.063 29.75 376.25 34.5629 376.25 40.5C376.25 46.4371 381.063 51.25 387 51.25C392.937 51.25 397.75 46.4371 397.75 40.5C397.75 34.5629 392.937 29.75 387 29.75ZM382.53 40.4697C382.238 40.1768 381.763 40.1768 381.47 40.4697C381.177 40.7626 381.177 41.2374 381.47 41.5303L384.47 44.5303C384.763 44.8232 385.238 44.8232 385.53 44.5303L392.53 37.5303C392.823 37.2374 392.823 36.7626 392.53 36.4697C392.237 36.1768 391.763 36.1768 391.47 36.4697L385 42.9393L382.53 40.4697Z" fill="#313131"/>
</svg>
