<svg width="64" height="64" viewBox="0 0 64 64" fill="none" xmlns="http://www.w3.org/2000/svg">
<path d="M32.2724 10.7039C31.6659 10.8032 31.3696 10.5131 31.3516 9.91249C31.3185 8.72998 31.3384 7.54261 31.334 6.35929C31.332 5.79654 31.2917 5.56138 31.8327 5.3052C32.2903 5.26602 32.4587 5.36167 32.7848 5.66714C32.8016 6.74625 33.2262 10.2543 32.2724 10.7039Z" fill="#313131"/>
<path d="M40.4011 13.0384C39.8332 13.1469 39.2879 12.5836 39.6456 11.9683C40.0601 11.2553 41.503 8.33813 42.0757 8.1489C43.9396 7.79969 42.2985 10.1231 42.1018 10.5318C41.655 11.1895 40.9949 12.749 40.4011 13.0384Z" fill="#313131"/>
<path d="M24.0778 12.9233C23.2874 12.9651 22.9235 11.9585 22.5324 11.318C22.0436 10.4961 20.2466 8.63229 21.6923 8.14456C22.457 8.13863 22.7172 8.98126 23.0779 9.54188L24.0381 11.037C24.435 11.6604 25.1834 12.5524 24.0778 12.9233Z" fill="#313131"/>
<path d="M25.9958 45.9297C24.6094 44.7561 24.8138 43.6409 24.5026 42.034C24.0042 39.4612 22.3073 37.3186 20.712 35.3315C13.9495 26.1922 20.5159 13.2377 31.5835 12.9271C43.097 12.5197 50.3912 25.85 43.4586 35.2497C41.6914 37.6458 40.4689 38.7251 39.6916 41.9635C39.2836 43.7577 39.6321 44.5475 38.1359 45.9297C38.9382 46.9221 38.8779 48.001 38.1359 49.0041C38.9344 50.0984 38.8915 50.9817 38.1359 52.0701C38.4264 52.6421 38.6997 53.0653 38.6932 53.7377C38.678 55.3175 37.4122 55.9002 36.0501 55.8751C35.6079 57.4137 34.1982 58.4317 32.6603 58.6839C31.1269 58.8015 29.7946 58.4001 28.7853 57.1722C28.4807 56.8017 28.1491 56.3782 28.1943 55.8751C25.7101 56.0536 24.8429 54.062 25.9958 52.0701C25.2209 51.0755 25.3431 50.0151 25.9958 49.0041C25.3542 47.9767 25.2218 46.9258 25.9958 45.9297ZM31.174 14.3535C30.4587 14.4407 29.6865 14.5243 28.9916 14.7118C20.5516 16.988 16.4992 27.0116 21.7245 34.2928C22.1835 34.9322 22.7044 35.5241 23.1916 36.1425C24.438 37.8415 25.3707 39.6805 25.9 41.7154C26.4555 43.8512 25.642 45.1213 28.5462 45.114L30.2708 45.1107L28.8872 37.66C28.6547 36.335 28.453 34.8898 28.1943 33.586C23.1308 31.9251 26.3775 28.9201 28.064 29.5549C29.418 30.0645 29.1967 31.415 29.549 32.5079C30.6971 32.5089 31.6956 32.7933 32.9658 32.7076C33.514 32.6845 34.1172 32.6169 34.6546 32.5079C34.7908 31.6379 34.771 30.4737 35.5344 29.9124C36.8814 28.9221 38.8305 29.8925 38.5819 31.6321C38.3858 33.0049 36.8836 32.985 35.9028 33.586C35.182 37.3485 34.4763 41.3273 33.8666 45.1107C36.8785 45.1508 37.6881 45.7111 38.1798 42.2948C38.619 39.9386 39.7134 37.6388 41.1748 35.7477C41.6053 35.1907 42.11 34.72 42.5101 34.1397C48.5844 25.6648 41.7039 13.743 31.174 14.3535ZM27.2923 30.9242C26.53 31.4491 27.2121 31.7156 27.7152 31.9109C28.2608 32.1119 27.9076 30.8785 27.2923 30.9242ZM36.6434 30.9242C36.1154 31.0865 36.211 31.4302 36.1939 31.9109C36.3413 31.8501 36.4997 31.7882 36.6434 31.721C37.3189 31.4981 37.3837 31.0326 36.6434 30.9242ZM29.7154 33.9719C30.3216 37.6629 30.9743 41.4384 31.6964 45.1107C31.9439 45.1085 32.2075 45.1015 32.4532 45.1107C32.5315 44.5586 32.5969 43.8845 32.7808 43.3719C32.8283 42.6781 32.9998 41.917 33.1283 41.2251L34.1029 35.8071C34.2169 35.1658 34.2867 34.5878 34.5034 33.9719C32.6559 34.1376 31.4197 33.9426 29.7154 33.9719ZM27.9312 46.521C26.4019 46.6456 26.7041 48.1598 27.5964 48.2297C27.9226 48.2553 28.2807 48.2419 28.6098 48.2419L36.3257 48.2402C37.5021 48.2288 37.6322 46.6681 36.553 46.5523C36.1656 46.5108 35.7918 46.5207 35.4043 46.5204L27.9312 46.521ZM27.8656 49.6307C26.5942 49.7299 26.5194 51.1938 27.6805 51.3562C27.9451 51.3932 28.4518 51.3663 28.7351 51.3649L36.3257 51.3617C37.7743 51.1671 37.5042 49.6098 36.4068 49.6446C35.4358 49.6179 34.4637 49.6295 33.4923 49.6297L27.8656 49.6307ZM27.8656 52.7772C26.5238 52.9171 26.5842 54.4672 27.7445 54.4823C28.3022 54.4896 28.8324 54.495 29.3756 54.495L35.0794 54.4954C35.3974 54.4954 36.0428 54.5178 36.3257 54.4942C37.6401 54.4383 37.4327 52.9003 36.4849 52.8247C35.4742 52.744 34.4258 52.7754 33.4115 52.7753L27.8656 52.7772ZM29.549 55.8751C30.6542 57.3544 32.3115 57.851 33.8666 56.6907C34.1761 56.405 34.3074 56.2546 34.5034 55.8751H29.549Z" fill="#313131"/>
<path d="M31.174 14.3535C30.4587 14.4407 29.6865 14.5243 28.9916 14.7118C20.5516 16.988 16.4992 27.0116 21.7245 34.2928C22.1835 34.9322 22.7044 35.5241 23.1916 36.1425C24.438 37.8415 25.3707 39.6805 25.9 41.7154C26.4555 43.8512 25.642 45.1213 28.5462 45.114L30.2708 45.1107L28.8872 37.66C28.6547 36.335 28.453 34.8898 28.1943 33.586C23.1308 31.9251 26.3775 28.9201 28.064 29.5549C29.418 30.0645 29.1967 31.415 29.549 32.5079C30.6971 32.5089 31.6956 32.7933 32.9658 32.7076C33.514 32.6845 34.1172 32.6169 34.6546 32.5079C34.7908 31.6379 34.771 30.4737 35.5344 29.9124C36.8814 28.9221 38.8305 29.8925 38.5819 31.6321C38.3858 33.0049 36.8836 32.985 35.9028 33.586C35.182 37.3485 34.4763 41.3273 33.8666 45.1107C36.8785 45.1508 37.6881 45.7111 38.1798 42.2948C38.619 39.9386 39.7134 37.6388 41.1748 35.7477C41.6053 35.1907 42.11 34.72 42.5101 34.1397C48.5844 25.6648 41.7039 13.743 31.174 14.3535Z" fill="#DEFFCC"/>
<path d="M29.7154 33.9719C30.3216 37.6629 30.9743 41.4384 31.6964 45.1107C31.9439 45.1085 32.2075 45.1015 32.4532 45.1107C32.5315 44.5586 32.5969 43.8845 32.7808 43.3719C32.8283 42.6781 32.9998 41.917 33.1283 41.2251L34.1029 35.8071C34.2169 35.1658 34.2867 34.5878 34.5034 33.9719C32.6559 34.1376 31.4197 33.9426 29.7154 33.9719Z" fill="#DEFFCC"/>
<path d="M27.2923 30.9242C26.53 31.4491 27.2121 31.7156 27.7152 31.9109C28.2608 32.1119 27.9076 30.8785 27.2923 30.9242Z" fill="#DEFFCC"/>
<path d="M36.6434 30.9242C36.1154 31.0865 36.211 31.4302 36.1939 31.9109C36.3413 31.8501 36.4997 31.7882 36.6434 31.721C37.3189 31.4981 37.3837 31.0326 36.6434 30.9242Z" fill="#DEFFCC"/>
<path d="M27.9312 46.521C26.4019 46.6456 26.7041 48.1598 27.5964 48.2297C27.9226 48.2553 28.2807 48.2419 28.6098 48.2419L36.3257 48.2402C37.5021 48.2288 37.6322 46.6681 36.553 46.5523C36.1656 46.5108 35.7918 46.5207 35.4043 46.5204L27.9312 46.521Z" fill="#DBDBDB"/>
<path d="M27.8656 49.6307C26.5942 49.7299 26.5194 51.1938 27.6805 51.3562C27.9451 51.3932 28.4518 51.3663 28.7351 51.3649L36.3257 51.3617C37.7743 51.1671 37.5042 49.6098 36.4068 49.6446C35.4358 49.6179 34.4637 49.6295 33.4923 49.6297L27.8656 49.6307Z" fill="#DBDBDB"/>
<path d="M27.8656 52.7772C26.5238 52.9171 26.5842 54.4672 27.7445 54.4823C28.3022 54.4896 28.8324 54.495 29.3756 54.495L35.0794 54.4954C35.3974 54.4954 36.0428 54.5178 36.3257 54.4942C37.6401 54.4383 37.4327 52.9003 36.4849 52.8247C35.4742 52.744 34.4258 52.7754 33.4115 52.7753L27.8656 52.7772Z" fill="#DBDBDB"/>
<path d="M29.549 55.8751C30.6542 57.3544 32.3115 57.851 33.8666 56.6907C34.1761 56.405 34.3074 56.2546 34.5034 55.8751H29.549Z" fill="#DBDBDB"/>
<path d="M17.6 18.9724C17.1293 19.0282 14.6389 17.4638 14.0868 17.1777C13.2435 16.7407 12.8221 15.9641 13.8521 15.5843C14.4345 15.5102 17.2278 17.2508 17.8723 17.6477C18.4361 18.0244 18.1633 18.7396 17.6 18.9724Z" fill="#313131"/>
<path d="M46.8127 18.975C46.234 19.0585 45.9043 18.5344 46.0434 18.0207C46.2188 17.6095 49.5062 15.7622 49.9169 15.5869C50.7659 15.5048 51.0503 16.486 50.3166 16.9543C49.4554 17.5038 47.7607 18.6169 46.8127 18.975Z" fill="#313131"/>
<path d="M15.2254 27.3607L12.6763 27.3635C12.2475 27.364 11.8215 27.3821 11.3894 27.3479C10.4483 27.2733 10.3804 25.9974 11.4683 25.8673L14.0209 25.8643C14.8546 25.8637 15.7936 25.5951 16.0408 26.6183C15.9145 27.1511 15.7585 27.3131 15.2254 27.3607Z" fill="#313131"/>
<path d="M52.752 27.3656C51.4653 27.2729 49.8666 27.5368 48.6288 27.2297C48.2045 27.1244 47.9969 26.1624 48.8609 25.8722C50.1497 25.9063 51.6073 25.7775 52.8668 25.9592C53.4725 26.0467 53.5463 26.9808 52.752 27.3656Z" fill="#313131"/>
<path d="M22.6554 26.8764C21.3287 27.3645 21.6113 25.7494 21.7472 25.0308C22.6812 20.0969 26.6547 16.6819 31.6357 16.348C33.0238 16.2557 33.1603 17.7132 31.7052 17.7702C27.1062 17.9502 23.298 21.7579 23.0223 26.3426C23.0073 26.5895 22.8452 26.7486 22.6554 26.8764Z" fill="#313131"/>
</svg>
