<svg width="32" height="32" viewBox="0 0 32 32" fill="none" xmlns="http://www.w3.org/2000/svg">
<path d="M18.5715 18.5714C16.4763 20.7333 16.3239 23.4285 16.1429 29.3333C21.6477 29.3333 25.4477 29.3142 27.4096 27.4095C29.3144 25.4476 29.3334 21.4666 29.3334 16.1428C23.4287 16.3333 20.7334 16.4762 18.5715 18.5714ZM2.66675 16.1428C2.66675 21.4666 2.6858 25.4476 4.59056 27.4095C6.55246 29.3142 10.3525 29.3333 15.8572 29.3333C15.6667 23.4285 15.5239 20.7333 13.4287 18.5714C11.2667 16.4762 8.57151 16.3238 2.66675 16.1428ZM15.8572 2.66663C10.362 2.66663 6.55246 2.68567 4.59056 4.59044C2.6858 6.55234 2.66675 10.5333 2.66675 15.8571C8.57151 15.6666 11.2667 15.5238 13.4287 13.4285C15.5239 11.2666 15.6763 8.57139 15.8572 2.66663ZM18.5715 13.4285C16.4763 11.2666 16.3239 8.57139 16.1429 2.66663C21.6477 2.66663 25.4477 2.68567 27.4096 4.59044C29.3144 6.55234 29.3334 10.5333 29.3334 15.8571C23.4287 15.6666 20.7334 15.5238 18.5715 13.4285Z" fill="#313131"/>
<path d="M29.3334 16.1428V15.8571C23.4287 15.6666 20.7334 15.5238 18.5715 13.4285C16.4763 11.2666 16.3239 8.57139 16.1429 2.66663H15.8572C15.6667 8.57139 15.5239 11.2666 13.4287 13.4285C11.2667 15.5238 8.57151 15.6762 2.66675 15.8571V16.1428C8.57151 16.3333 11.2667 16.4762 13.4287 18.5714C15.5239 20.7333 15.6763 23.4285 15.8572 29.3333H16.1429C16.3334 23.4285 16.4763 20.7333 18.5715 18.5714C20.7334 16.4762 23.4287 16.3238 29.3334 16.1428Z" fill="white"/>
</svg>
