<svg width="64" height="64" viewBox="0 0 64 64" fill="none" xmlns="http://www.w3.org/2000/svg">
<path d="M34.0005 45.8211C32.342 46.2919 30.9541 47.1928 30.9627 49.0384C30.9705 50.7117 31.9748 50.8425 32.4909 52.1607C32.7049 52.7072 32.9969 54.5943 32.1782 54.8372C31.2253 55.1199 21.7251 54.4389 20.1 54.1477C19.0661 53.9623 18.2464 53.1239 17.9929 52.114C17.6421 50.7162 18.6224 42.5016 18.8577 41.0153C18.9197 40.6234 19.2953 38.8525 19.2186 38.6132C18.4616 37.9464 16.9807 39.3352 16.3218 39.6509C13.9988 40.7639 11.1966 39.2561 10.1795 37.0487C8.07671 32.5855 12.8523 27.249 17.3137 30.3515C19.9755 32.2027 19.4247 31.767 18.8968 29.0061C18.4725 26.7867 17.739 22.9524 17.8385 20.678C18.1942 17.5465 21.1539 17.9241 23.3322 18.0797L26.9427 18.3385C27.3464 18.3674 30.9727 18.6024 31.11 18.4331C31.6526 17.7635 30.3882 16.3672 30.042 15.653C28.4248 12.3167 31.3227 9.21495 34.6935 9.12897C37.8844 8.53548 41.5891 12.4114 39.5673 15.9094C39.1886 16.5644 37.7023 18.5268 39.2529 18.4737L45.9526 18.1792C47.1223 18.1166 48.3734 17.9942 49.5373 18.0099C51.0923 18.0311 52.4024 19.5222 52.3319 21.0731C52.1834 24.3423 51.827 27.6573 51.1964 30.8728C50.8546 31.9658 51.0398 33.1489 49.3202 32.0714C48.0677 31.2865 46.1467 30.4037 44.6776 30.8772C39.8239 32.4418 41.0605 44.0714 48.6124 40.5792C49.0663 40.3691 49.6257 39.974 50.0937 39.8204L50.1442 39.804C50.4303 39.8776 50.7729 40.0164 50.8438 40.3376C51.6417 43.9566 51.9698 47.7113 52.1203 51.4082C52.2306 52.5942 51.0976 54.0804 49.8967 54.2458C46.4159 54.7247 41.8874 54.9121 38.3546 54.9379C37.4242 54.9283 37.313 54.4912 37.2541 53.7093C37.1483 52.3085 37.4494 51.7613 38.2333 50.6555C39.1648 49.3418 38.7583 47.6565 37.5172 46.6774C36.4303 45.8199 35.3532 45.7012 34.0005 45.8211ZM34.5277 10.5151C33.2726 10.6958 32.0656 11.2327 31.3848 12.3319C29.6656 15.1082 33.922 16.931 32.301 19.2107C31.7181 20.0776 30.9144 19.8715 30.0295 19.8629C27.9003 19.8174 25.7779 19.6544 23.6542 19.4867C22.6878 19.4118 19.2783 18.8572 19.2635 20.5606C19.2374 23.541 19.9026 26.6003 20.3969 29.5303C20.554 30.4617 21.1687 31.285 20.527 32.1858C18.8086 34.5592 16.237 30.3523 14.1676 30.8237C10.8521 31.5787 9.89035 36.0481 12.7493 38.0258C15.9595 40.2467 17.3449 35.6235 19.9767 37.4102C21.0393 38.1316 20.5638 39.2886 20.3818 40.3314C19.8207 43.5473 19.5569 46.8291 19.3588 50.0859C19.3101 50.8862 19.0998 52.5941 20.2994 52.7508C23.462 53.1639 28.2166 53.6589 31.3645 53.5123C31.323 52.5794 30.9896 52.2203 30.3995 51.522C28.1433 48.8527 30.2711 45.2845 33.4731 44.5413C34.4675 44.3717 35.4694 44.2957 36.4463 44.5946C39.5094 45.5328 41.2438 48.6341 39.3048 51.4849C38.7513 52.2987 38.5997 52.6113 38.6103 53.5784C41.8593 53.4832 45.1515 53.2903 48.3938 53.0177C49.7641 52.9024 50.8068 52.7672 50.7179 51.0705C50.5817 48.4676 50.4051 45.8511 50.0092 43.2733C49.9154 42.6637 49.7933 42.2335 49.8221 41.6155C49.3204 41.8106 48.831 42.0246 48.3232 42.1999C39.7014 45.1746 37.8878 32.0115 43.9589 29.6296C46.0983 28.8114 47.9555 29.8045 49.8221 30.7033C50.4476 27.7426 50.9344 23.7801 50.9197 20.808C50.9116 19.1621 48.8377 19.391 47.8254 19.4559L40.6832 19.8357C40.064 19.8678 39.0479 19.9895 38.4686 19.8743C37.497 19.595 37.0448 18.5159 37.2253 17.6248C37.6458 15.5492 39.7958 14.3528 38.2425 12.1517C37.4706 11.058 35.839 10.3135 34.5277 10.5151Z" fill="#313131"/>
<path d="M34.5277 10.5151C33.2726 10.6958 32.0656 11.2327 31.3848 12.3319C29.6656 15.1082 33.922 16.931 32.301 19.2107C31.7181 20.0776 30.9144 19.8715 30.0295 19.8629C27.9003 19.8174 25.7779 19.6544 23.6542 19.4867C22.6878 19.4118 19.2783 18.8572 19.2635 20.5606C19.2374 23.541 19.9026 26.6003 20.3969 29.5303C20.554 30.4617 21.1687 31.285 20.527 32.1858C18.8086 34.5592 16.237 30.3523 14.1676 30.8237C10.8521 31.5787 9.89035 36.0481 12.7493 38.0258C15.9595 40.2467 17.3449 35.6235 19.9767 37.4102C21.0393 38.1316 20.5638 39.2886 20.3818 40.3314C19.8207 43.5473 19.5569 46.8291 19.3588 50.0859C19.3101 50.8862 19.0998 52.5941 20.2994 52.7508C23.462 53.1639 28.2166 53.6589 31.3645 53.5123C31.323 52.5794 30.9896 52.2203 30.3995 51.522C28.1433 48.8527 30.2711 45.2845 33.4731 44.5413C34.4675 44.3717 35.4694 44.2957 36.4463 44.5946C39.5094 45.5328 41.2438 48.6341 39.3048 51.4849C38.7513 52.2987 38.5997 52.6113 38.6103 53.5784C41.8593 53.4832 45.1515 53.2903 48.3938 53.0177C49.7641 52.9024 50.8068 52.7672 50.7179 51.0705C50.5817 48.4676 50.4051 45.8511 50.0092 43.2733C49.9154 42.6637 49.7933 42.2335 49.8221 41.6155C49.3204 41.8106 48.831 42.0246 48.3232 42.1999C39.7014 45.1746 37.8878 32.0115 43.9589 29.6296C46.0983 28.8114 47.9555 29.8045 49.8221 30.7033C50.4476 27.7426 50.9344 23.7801 50.9197 20.808C50.9116 19.1621 48.8377 19.391 47.8254 19.4559L40.6832 19.8357C40.064 19.8678 39.0479 19.9895 38.4686 19.8743C37.497 19.595 37.0448 18.5159 37.2253 17.6248C37.6458 15.5492 39.7958 14.3528 38.2425 12.1517C37.4706 11.058 35.839 10.3135 34.5277 10.5151Z" fill="#DEFFCC"/>
</svg>
