<svg width="268" height="238" viewBox="0 0 268 238" fill="none" xmlns="http://www.w3.org/2000/svg">
<rect x="0.75" y="0.75" width="266.5" height="236.5" fill="white"/>
<rect x="0.75" y="0.75" width="266.5" height="236.5" stroke="#313131" stroke-width="1.5"/>
<path d="M39.74 51V45.123H35.06V51H33.503V38.607H35.06V43.845H39.74V38.607H41.297V51H39.74ZM51.388 48.93C51.388 49.308 51.451 49.584 51.577 49.758C51.703 49.932 51.898 50.061 52.162 50.145L51.793 51.207C51.385 51.153 51.028 51.024 50.722 50.82C50.416 50.61 50.194 50.295 50.056 49.875C49.714 50.313 49.288 50.646 48.778 50.874C48.268 51.096 47.704 51.207 47.086 51.207C46.138 51.207 45.391 50.94 44.845 50.406C44.299 49.872 44.026 49.164 44.026 48.282C44.026 47.304 44.407 46.554 45.169 46.032C45.931 45.51 47.032 45.249 48.472 45.249H49.867V44.457C49.867 43.773 49.666 43.29 49.264 43.008C48.868 42.72 48.316 42.576 47.608 42.576C47.296 42.576 46.93 42.615 46.51 42.693C46.09 42.765 45.634 42.888 45.142 43.062L44.746 41.919C45.328 41.703 45.874 41.55 46.384 41.46C46.894 41.37 47.38 41.325 47.842 41.325C49.024 41.325 49.909 41.601 50.497 42.153C51.091 42.699 51.388 43.443 51.388 44.385V48.93ZM47.473 50.055C47.941 50.055 48.388 49.938 48.814 49.704C49.24 49.464 49.591 49.134 49.867 48.714V46.275H48.499C47.455 46.275 46.717 46.455 46.285 46.815C45.859 47.175 45.646 47.658 45.646 48.264C45.646 48.852 45.796 49.299 46.096 49.605C46.402 49.905 46.861 50.055 47.473 50.055ZM63.5129 41.523V51H54.4589V41.523H55.8809V49.74H58.2839V41.523H59.6879V49.74H62.0909V41.523H63.5129ZM72.9739 48.93C72.9739 49.308 73.0369 49.584 73.1629 49.758C73.2889 49.932 73.4839 50.061 73.7479 50.145L73.3789 51.207C72.9709 51.153 72.6139 51.024 72.3079 50.82C72.0019 50.61 71.7799 50.295 71.6419 49.875C71.2999 50.313 70.8739 50.646 70.3639 50.874C69.8539 51.096 69.2899 51.207 68.6719 51.207C67.7239 51.207 66.9769 50.94 66.4309 50.406C65.8849 49.872 65.6119 49.164 65.6119 48.282C65.6119 47.304 65.9929 46.554 66.7549 46.032C67.5169 45.51 68.6179 45.249 70.0579 45.249H71.4529V44.457C71.4529 43.773 71.2519 43.29 70.8499 43.008C70.4539 42.72 69.9019 42.576 69.1939 42.576C68.8819 42.576 68.5159 42.615 68.0959 42.693C67.6759 42.765 67.2199 42.888 66.7279 43.062L66.3319 41.919C66.9139 41.703 67.4599 41.55 67.9699 41.46C68.4799 41.37 68.9659 41.325 69.4279 41.325C70.6099 41.325 71.4949 41.601 72.0829 42.153C72.6769 42.699 72.9739 43.443 72.9739 44.385V48.93ZM69.0589 50.055C69.5269 50.055 69.9739 49.938 70.3999 49.704C70.8259 49.464 71.1769 49.134 71.4529 48.714V46.275H70.0849C69.0409 46.275 68.3029 46.455 67.8709 46.815C67.4449 47.175 67.2319 47.658 67.2319 48.264C67.2319 48.852 67.3819 49.299 67.6819 49.605C67.9879 49.905 68.4469 50.055 69.0589 50.055ZM94.9558 41.523V51H93.4438V46.563C93.4438 45.945 93.4618 45.351 93.4978 44.781C93.5338 44.205 93.5818 43.701 93.6418 43.269L89.6098 51H87.7738V41.523H89.2858V45.951C89.2858 46.563 89.2678 47.169 89.2318 47.769C89.1958 48.363 89.1508 48.846 89.0968 49.218L93.0838 41.523H94.9558ZM102.851 49.902C103.325 49.902 103.766 49.824 104.174 49.668C104.588 49.512 104.969 49.314 105.317 49.074L106.055 50.064C105.641 50.418 105.143 50.697 104.561 50.901C103.979 51.105 103.409 51.207 102.851 51.207C101.909 51.207 101.105 51.006 100.439 50.604C99.7788 50.196 99.2748 49.626 98.9268 48.894C98.5788 48.156 98.4048 47.292 98.4048 46.302C98.4048 45.354 98.5788 44.505 98.9268 43.755C99.2808 42.999 99.7878 42.405 100.448 41.973C101.114 41.541 101.921 41.325 102.869 41.325C103.475 41.325 104.042 41.418 104.57 41.604C105.104 41.784 105.593 42.057 106.037 42.423L105.299 43.431C104.897 43.149 104.492 42.939 104.084 42.801C103.682 42.657 103.271 42.585 102.851 42.585C102.035 42.585 101.363 42.891 100.835 43.503C100.307 44.115 100.043 45.048 100.043 46.302C100.043 47.142 100.163 47.829 100.403 48.363C100.649 48.891 100.982 49.281 101.402 49.533C101.828 49.779 102.311 49.902 102.851 49.902ZM117.28 41.523L117.1 42.783H113.707V51H112.195V42.783H108.73V41.523H117.28ZM123.762 41.325C124.656 41.325 125.403 41.529 126.003 41.937C126.609 42.339 127.062 42.909 127.362 43.647C127.668 44.385 127.821 45.255 127.821 46.257C127.821 47.223 127.665 48.078 127.353 48.822C127.041 49.566 126.582 50.151 125.976 50.577C125.376 50.997 124.632 51.207 123.744 51.207C122.856 51.207 122.109 51.003 121.503 50.595C120.897 50.187 120.438 49.614 120.126 48.876C119.82 48.132 119.667 47.265 119.667 46.275C119.667 45.297 119.823 44.436 120.135 43.692C120.447 42.948 120.906 42.369 121.512 41.955C122.124 41.535 122.874 41.325 123.762 41.325ZM123.762 42.558C122.946 42.558 122.328 42.861 121.908 43.467C121.494 44.067 121.287 45.003 121.287 46.275C121.287 47.523 121.491 48.45 121.899 49.056C122.313 49.662 122.928 49.965 123.744 49.965C124.56 49.965 125.172 49.662 125.58 49.056C125.994 48.45 126.201 47.517 126.201 46.257C126.201 44.997 125.997 44.067 125.589 43.467C125.181 42.861 124.572 42.558 123.762 42.558ZM135.185 41.325C136.025 41.325 136.694 41.529 137.192 41.937C137.696 42.345 138.059 42.921 138.281 43.665C138.503 44.403 138.614 45.267 138.614 46.257C138.614 47.211 138.479 48.063 138.209 48.813C137.945 49.557 137.543 50.142 137.003 50.568C136.463 50.994 135.782 51.207 134.96 51.207C133.922 51.207 133.088 50.841 132.458 50.109V54.627L130.946 54.816V41.523H132.233L132.359 42.846C132.707 42.36 133.121 41.985 133.601 41.721C134.087 41.457 134.615 41.325 135.185 41.325ZM134.825 42.54C134.303 42.54 133.841 42.699 133.439 43.017C133.043 43.329 132.716 43.677 132.458 44.061V48.759C132.704 49.125 133.013 49.416 133.385 49.632C133.763 49.842 134.177 49.947 134.627 49.947C135.413 49.947 136.004 49.647 136.4 49.047C136.796 48.447 136.994 47.514 136.994 46.248C136.994 45.42 136.916 44.733 136.76 44.187C136.604 43.635 136.367 43.224 136.049 42.954C135.731 42.678 135.323 42.54 134.825 42.54ZM148.921 41.523V51H147.409V46.563C147.409 45.945 147.427 45.351 147.463 44.781C147.499 44.205 147.547 43.701 147.607 43.269L143.575 51H141.739V41.523H143.251V45.951C143.251 46.563 143.233 47.169 143.197 47.769C143.161 48.363 143.116 48.846 143.062 49.218L147.049 41.523H148.921ZM157.95 51V42.738H155.952C155.274 42.738 154.752 42.87 154.386 43.134C154.026 43.392 153.846 43.815 153.846 44.403C153.846 45.009 154.008 45.45 154.332 45.726C154.656 45.996 155.181 46.131 155.907 46.131H158.238V47.328H155.124L154.215 47.103C153.549 46.851 153.054 46.497 152.73 46.041C152.406 45.579 152.244 45.027 152.244 44.385C152.244 43.437 152.577 42.723 153.243 42.243C153.915 41.763 154.83 41.523 155.988 41.523H159.462V51H157.95ZM151.668 51L154.071 46.725L155.556 47.076L153.378 51H151.668Z" fill="#313131"/>
<path d="M39.74 100V94.123H35.06V100H33.503V87.607H35.06V92.845H39.74V87.607H41.297V100H39.74ZM51.388 97.93C51.388 98.308 51.451 98.584 51.577 98.758C51.703 98.932 51.898 99.061 52.162 99.145L51.793 100.207C51.385 100.153 51.028 100.024 50.722 99.82C50.416 99.61 50.194 99.295 50.056 98.875C49.714 99.313 49.288 99.646 48.778 99.874C48.268 100.096 47.704 100.207 47.086 100.207C46.138 100.207 45.391 99.94 44.845 99.406C44.299 98.872 44.026 98.164 44.026 97.282C44.026 96.304 44.407 95.554 45.169 95.032C45.931 94.51 47.032 94.249 48.472 94.249H49.867V93.457C49.867 92.773 49.666 92.29 49.264 92.008C48.868 91.72 48.316 91.576 47.608 91.576C47.296 91.576 46.93 91.615 46.51 91.693C46.09 91.765 45.634 91.888 45.142 92.062L44.746 90.919C45.328 90.703 45.874 90.55 46.384 90.46C46.894 90.37 47.38 90.325 47.842 90.325C49.024 90.325 49.909 90.601 50.497 91.153C51.091 91.699 51.388 92.443 51.388 93.385V97.93ZM47.473 99.055C47.941 99.055 48.388 98.938 48.814 98.704C49.24 98.464 49.591 98.134 49.867 97.714V95.275H48.499C47.455 95.275 46.717 95.455 46.285 95.815C45.859 96.175 45.646 96.658 45.646 97.264C45.646 97.852 45.796 98.299 46.096 98.605C46.402 98.905 46.861 99.055 47.473 99.055ZM63.5129 90.523V100H54.4589V90.523H55.8809V98.74H58.2839V90.523H59.6879V98.74H62.0909V90.523H63.5129ZM73.3699 90.523V100H71.8579V95.563C71.8579 94.945 71.8759 94.351 71.9119 93.781C71.9479 93.205 71.9959 92.701 72.0559 92.269L68.0239 100H66.1879V90.523H67.6999V94.951C67.6999 95.563 67.6819 96.169 67.6459 96.769C67.6099 97.363 67.5649 97.846 67.5109 98.218L71.4979 90.523H73.3699ZM92.0128 90.325C92.8528 90.325 93.5218 90.529 94.0198 90.937C94.5238 91.345 94.8868 91.921 95.1088 92.665C95.3308 93.403 95.4418 94.267 95.4418 95.257C95.4418 96.211 95.3068 97.063 95.0368 97.813C94.7728 98.557 94.3708 99.142 93.8308 99.568C93.2908 99.994 92.6098 100.207 91.7878 100.207C90.7498 100.207 89.9158 99.841 89.2858 99.109V103.627L87.7738 103.816V90.523H89.0608L89.1868 91.846C89.5348 91.36 89.9488 90.985 90.4288 90.721C90.9148 90.457 91.4428 90.325 92.0128 90.325ZM91.6528 91.54C91.1308 91.54 90.6688 91.699 90.2668 92.017C89.8708 92.329 89.5438 92.677 89.2858 93.061V97.759C89.5318 98.125 89.8408 98.416 90.2128 98.632C90.5908 98.842 91.0048 98.947 91.4548 98.947C92.2408 98.947 92.8318 98.647 93.2278 98.047C93.6238 97.447 93.8218 96.514 93.8218 95.248C93.8218 94.42 93.7438 93.733 93.5878 93.187C93.4318 92.635 93.1948 92.224 92.8768 91.954C92.5588 91.678 92.1508 91.54 91.6528 91.54ZM105.353 97.93C105.353 98.308 105.416 98.584 105.542 98.758C105.668 98.932 105.863 99.061 106.127 99.145L105.758 100.207C105.35 100.153 104.993 100.024 104.687 99.82C104.381 99.61 104.159 99.295 104.021 98.875C103.679 99.313 103.253 99.646 102.743 99.874C102.233 100.096 101.669 100.207 101.051 100.207C100.103 100.207 99.3558 99.94 98.8098 99.406C98.2638 98.872 97.9908 98.164 97.9908 97.282C97.9908 96.304 98.3718 95.554 99.1338 95.032C99.8958 94.51 100.997 94.249 102.437 94.249H103.832V93.457C103.832 92.773 103.631 92.29 103.229 92.008C102.833 91.72 102.281 91.576 101.573 91.576C101.261 91.576 100.895 91.615 100.475 91.693C100.055 91.765 99.5988 91.888 99.1068 92.062L98.7108 90.919C99.2928 90.703 99.8388 90.55 100.349 90.46C100.859 90.37 101.345 90.325 101.807 90.325C102.989 90.325 103.874 90.601 104.462 91.153C105.056 91.699 105.353 92.443 105.353 93.385V97.93ZM101.438 99.055C101.906 99.055 102.353 98.938 102.779 98.704C103.205 98.464 103.556 98.134 103.832 97.714V95.275H102.464C101.42 95.275 100.682 95.455 100.25 95.815C99.8238 96.175 99.6108 96.658 99.6108 97.264C99.6108 97.852 99.7608 98.299 100.061 98.605C100.367 98.905 100.826 99.055 101.438 99.055ZM115.336 86.5L116.002 87.679C115.792 87.805 115.552 87.943 115.282 88.093C115.012 88.237 114.7 88.387 114.346 88.543C113.998 88.699 113.59 88.864 113.122 89.038C112.738 89.176 112.396 89.335 112.096 89.515C111.802 89.695 111.544 89.932 111.322 90.226C111.106 90.52 110.929 90.907 110.791 91.387C110.659 91.867 110.563 92.473 110.503 93.205L110.566 93.286V95.401C110.566 96.541 110.779 97.42 111.205 98.038C111.631 98.65 112.207 98.956 112.933 98.956C113.371 98.956 113.767 98.863 114.121 98.677C114.481 98.485 114.769 98.143 114.985 97.651C115.207 97.153 115.318 96.445 115.318 95.527C115.318 94.375 115.129 93.565 114.751 93.097C114.379 92.629 113.89 92.395 113.284 92.395C112.876 92.395 112.474 92.488 112.078 92.674C111.682 92.854 111.319 93.151 110.989 93.565C110.665 93.973 110.398 94.522 110.188 95.212L110.17 93.655C110.434 92.911 110.854 92.308 111.43 91.846C112.012 91.378 112.711 91.144 113.527 91.144C114.217 91.144 114.82 91.318 115.336 91.666C115.852 92.008 116.254 92.503 116.542 93.151C116.83 93.793 116.974 94.567 116.974 95.473C116.974 96.487 116.803 97.348 116.461 98.056C116.119 98.758 115.642 99.292 115.03 99.658C114.424 100.024 113.725 100.207 112.933 100.207C112.171 100.207 111.487 100.021 110.881 99.649C110.275 99.271 109.795 98.683 109.441 97.885C109.087 97.087 108.91 96.061 108.91 94.807C108.91 93.487 109.006 92.374 109.198 91.468C109.396 90.556 109.747 89.809 110.251 89.227C110.755 88.645 111.466 88.195 112.384 87.877C112.846 87.715 113.242 87.568 113.572 87.436C113.908 87.304 114.214 87.166 114.49 87.022C114.766 86.872 115.048 86.698 115.336 86.5ZM123.762 90.325C124.656 90.325 125.403 90.529 126.003 90.937C126.609 91.339 127.062 91.909 127.362 92.647C127.668 93.385 127.821 94.255 127.821 95.257C127.821 96.223 127.665 97.078 127.353 97.822C127.041 98.566 126.582 99.151 125.976 99.577C125.376 99.997 124.632 100.207 123.744 100.207C122.856 100.207 122.109 100.003 121.503 99.595C120.897 99.187 120.438 98.614 120.126 97.876C119.82 97.132 119.667 96.265 119.667 95.275C119.667 94.297 119.823 93.436 120.135 92.692C120.447 91.948 120.906 91.369 121.512 90.955C122.124 90.535 122.874 90.325 123.762 90.325ZM123.762 91.558C122.946 91.558 122.328 91.861 121.908 92.467C121.494 93.067 121.287 94.003 121.287 95.275C121.287 96.523 121.491 97.45 121.899 98.056C122.313 98.662 122.928 98.965 123.744 98.965C124.56 98.965 125.172 98.662 125.58 98.056C125.994 97.45 126.201 96.517 126.201 95.257C126.201 93.997 125.997 93.067 125.589 92.467C125.181 91.861 124.572 91.558 123.762 91.558ZM138.866 90.523L138.686 91.783H135.293V100H133.781V91.783H130.316V90.523H138.866ZM142.486 90.523V93.601H143.125C144.379 93.601 145.363 93.847 146.077 94.339C146.797 94.825 147.157 95.617 147.157 96.715C147.157 97.483 146.989 98.11 146.653 98.596C146.323 99.076 145.855 99.43 145.249 99.658C144.649 99.886 143.944 100 143.134 100H141.046V90.523H142.486ZM143.197 94.726H142.486V98.821H143.179C143.683 98.821 144.115 98.761 144.475 98.641C144.835 98.515 145.111 98.302 145.303 98.002C145.495 97.696 145.591 97.267 145.591 96.715C145.591 95.995 145.396 95.485 145.006 95.185C144.622 94.879 144.019 94.726 143.197 94.726ZM149.614 90.523V100H148.156V90.523H149.614Z" fill="#313131"/>
<path d="M213.012 54.992L220.002 48.0019M220.002 48.0019L226.992 41.0117M220.002 48.0019L213.012 41.0117M220.002 48.0019L226.992 54.992" stroke="#313131" stroke-width="1.5" stroke-linecap="round" stroke-linejoin="round"/>
<rect x="32.75" y="158.75" width="46.5" height="46.5" rx="23.25" stroke="#313131" stroke-width="1.5"/>
<path d="M60.1125 179.291C60.6645 178.739 61.2125 177.451 58.9125 179.015C56.7639 180.494 54.6008 181.951 52.4235 183.387C52.0919 183.537 51.7334 183.619 51.3697 183.626C51.0059 183.634 50.6442 183.569 50.3065 183.433C48.9265 183.019 47.3155 182.467 47.3155 182.467C47.3155 182.467 46.2155 181.776 48.0985 181.04C48.0985 181.04 56.0595 177.773 58.8205 176.622C59.8785 176.162 63.4675 174.69 63.4675 174.69C63.4675 174.69 65.1245 174.045 64.9865 175.61C64.9405 176.254 64.5725 178.51 64.2045 180.948C63.6515 184.399 63.0535 188.173 63.0535 188.173C63.0535 188.173 62.9615 189.231 62.1795 189.415C61.3423 189.401 60.5335 189.11 59.8795 188.587C59.6955 188.449 56.4285 186.378 55.2315 185.366C55.1097 185.284 55.0108 185.172 54.9439 185.041C54.877 184.91 54.8443 184.764 54.8489 184.617C54.8535 184.47 54.8952 184.327 54.9701 184.2C55.0451 184.074 55.1508 183.968 55.2775 183.893C56.9192 182.391 58.5312 180.857 60.1125 179.291Z" fill="#313131"/>
</svg>
