<svg width="64" height="64" viewBox="0 0 64 64" fill="none" xmlns="http://www.w3.org/2000/svg">
<path d="M53.9491 10.6906C54.7381 10.6114 54.7082 11.2164 54.6855 11.8129C54.5831 14.409 53.1992 16.7064 51.9425 18.8997L45.553 29.9977C45.3012 30.4253 45.0236 30.8478 44.7918 31.2854C45.4295 31.4623 46.0272 31.7644 46.6196 31.9989C49.582 33.1714 51.3538 34.6847 50.6187 38.1808C48.9508 46.1127 40.4463 51.9719 32.6986 53.0047C24.5367 54.0927 17.0862 51.4545 12.4414 44.4155C9.83998 40.0289 8.64192 35.0347 9.58616 29.9843C11.8121 18.0783 22.2928 12.5792 33.7802 14.557C36.6687 15.0544 39.9959 15.9923 39.6865 19.7394C39.4086 23.1045 39.1505 23.8014 41.0742 26.5383C41.3983 25.9059 42.7285 23.9207 43.1757 23.4364C43.5716 23.0079 44.0876 22.0975 44.4742 21.5637L47.4702 17.3833C48.939 15.3272 51.4281 11.5768 53.9491 10.6906ZM39.048 29.3244C39.2637 28.7697 39.899 27.9957 40.2977 27.5262C38.3888 25.7358 38.0807 23.225 38.3125 20.7553C38.4726 18.9015 38.5217 17.3225 36.3486 16.4569C34.7585 15.8237 30.6921 15.3404 29.1282 15.4343C23.6076 15.4454 17.6737 17.6443 14.3068 22.2014C9.37706 28.8565 9.29117 38.1222 14.2205 44.8118C20.5531 53.4058 33.6562 54.0843 41.988 48.0114C42.525 47.6199 43.2837 47.1259 43.7215 46.6667C45.9859 44.6339 47.7903 42.4433 48.8916 39.5605C49.5776 37.7649 50.0638 35.4403 48.1812 34.1389C47.6413 33.7657 44.3926 32.2748 43.9995 32.5005C44.0212 32.8173 44.2451 33.2588 44.324 33.5918C44.7562 35.422 44.3836 37.3423 43.3992 38.9325C43.209 39.2399 42.8296 39.5982 42.6523 39.8733C41.721 41.3194 40.7973 42.4094 39.025 41.2468C36.9817 39.9065 34.5135 38.4829 32.5995 37.0667C31.9163 36.5612 31.957 35.053 32.3548 34.3704C33.7366 31.7367 35.9506 29.6678 39.048 29.3244ZM41.1989 28.3582C40.8926 28.9629 40.4427 29.3734 40.1502 29.9573C40.5418 31.0067 41.6775 32.1193 42.8521 31.6245C43.0617 31.5208 43.2532 31.4364 43.4408 31.2968L43.4563 31.2854C43.5792 30.7234 43.7896 30.4457 44.0888 29.9573C42.7008 29.629 42.2242 29.312 41.1989 28.3582ZM42.8521 33.0324C39.5866 32.9648 39.1603 30.5952 39.048 30.5668C36.4441 31.116 34.8522 32.5203 33.5876 34.7717C33.2567 35.3607 32.8802 35.8164 33.6821 36.3179C34.8828 37.0253 36.0546 37.8274 37.2263 38.5857C37.4682 38.7423 38.3747 39.2575 38.5168 39.378C39.1388 39.774 39.9465 40.5788 40.6435 40.4067C40.8542 40.2243 41.0932 39.897 41.2433 39.6562C42.1868 38.1427 43.0397 37.7073 43.2101 35.6754C43.2906 34.6117 43.1526 34.0234 42.8521 33.0324ZM53.2426 12.5598C51.8148 13.6692 50.8878 14.8214 49.8376 16.2844L47.4532 19.6329C47.4411 19.6496 47.4291 19.6664 47.417 19.6831C45.5957 22.2055 43.7678 24.7371 42.0117 27.3052C42.2655 27.6067 42.5175 27.8827 42.8521 28.0979C43.4892 28.5298 44.0365 28.6819 44.7918 28.7922L51.0532 17.8868C51.3775 17.3258 53.6928 12.9747 53.2426 12.5598Z" fill="#313131"/>
<path d="M39.048 29.3244C39.2637 28.7697 39.899 27.9957 40.2977 27.5262C38.3888 25.7358 38.0807 23.225 38.3125 20.7553C38.4726 18.9015 38.5217 17.3225 36.3486 16.4569C34.7585 15.8237 30.6921 15.3404 29.1282 15.4343C23.6076 15.4454 17.6737 17.6443 14.3068 22.2014C9.37706 28.8565 9.29117 38.1222 14.2205 44.8118C20.5531 53.4058 33.6562 54.0843 41.988 48.0114C42.525 47.6199 43.2837 47.1259 43.7215 46.6667C45.9859 44.6339 47.7903 42.4433 48.8916 39.5605C49.5776 37.7649 50.0638 35.4403 48.1812 34.1389C47.6413 33.7657 44.3926 32.2748 43.9995 32.5005C44.0212 32.8173 44.2451 33.2588 44.324 33.5918C44.7562 35.422 44.3836 37.3423 43.3992 38.9325C43.209 39.2399 42.8296 39.5982 42.6523 39.8733C41.721 41.3194 40.7973 42.4094 39.025 41.2468C36.9817 39.9065 34.5135 38.4829 32.5995 37.0667C31.9163 36.5612 31.957 35.053 32.3548 34.3704C33.7366 31.7367 35.9506 29.6678 39.048 29.3244Z" fill="#CCE8FF"/>
<path d="M53.2426 12.5598C51.8148 13.6692 50.8878 14.8214 49.8376 16.2844L47.4532 19.6329L47.417 19.6831C45.5957 22.2055 43.7678 24.7371 42.0117 27.3052C42.2655 27.6067 42.5175 27.8827 42.8521 28.0979C43.4892 28.5298 44.0365 28.6819 44.7918 28.7922L51.0532 17.8868C51.3775 17.3258 53.6928 12.9747 53.2426 12.5598Z" fill="#DBDBDB"/>
<path d="M42.8521 33.0324C39.5866 32.9648 39.1603 30.5952 39.048 30.5668C36.4441 31.116 34.8522 32.5203 33.5876 34.7717C33.2567 35.3607 32.8802 35.8164 33.6821 36.3179C34.8828 37.0253 36.0546 37.8274 37.2263 38.5857C37.4682 38.7423 38.3747 39.2575 38.5168 39.378C39.1388 39.774 39.9465 40.5788 40.6435 40.4067C40.8542 40.2243 41.0932 39.897 41.2433 39.6562C42.1868 38.1427 43.0397 37.7073 43.2101 35.6754C43.2906 34.6117 43.1526 34.0234 42.8521 33.0324Z" fill="#DEFFCC"/>
<path d="M33.7702 39.7837C36.1627 39.5668 38.2772 41.332 38.4912 43.7248C38.7051 46.1174 36.9372 48.2299 34.5443 48.4409C32.1554 48.6515 30.0476 46.8874 29.8339 44.4988C29.6204 42.1103 31.3819 40.0002 33.7702 39.7837ZM34.1714 47.1729C35.8749 47.1638 37.2443 45.7679 37.2207 44.0645C37.1971 42.3613 35.7894 41.0039 34.0864 41.042C32.4039 41.0798 31.0663 42.4668 31.0896 44.1495C31.1129 45.8324 32.4886 47.1818 34.1714 47.1729Z" fill="#313131"/>
<path d="M34.1714 47.1729C35.8749 47.1638 37.2443 45.7679 37.2207 44.0645C37.1971 42.3613 35.7894 41.0039 34.0864 41.042C32.4039 41.0798 31.0663 42.4668 31.0896 44.1495C31.1129 45.8324 32.4886 47.1818 34.1714 47.1729Z" fill="#DEFFCC"/>
<path d="M22.7586 39.7518C25.1353 39.5396 27.2352 41.2919 27.452 43.6683C27.6687 46.0446 25.9205 48.1478 23.5446 48.3691C21.1621 48.591 19.052 46.837 18.8346 44.4541C18.6172 42.0714 20.3753 39.9645 22.7586 39.7518ZM23.45 47.1103C25.1322 46.9381 26.3563 45.4344 26.1835 43.7521C26.0107 42.0699 24.5065 40.8464 22.8243 41.0199C21.1431 41.1933 19.9205 42.6964 20.0932 44.3778C20.2658 46.0591 21.7686 47.2823 23.45 47.1103Z" fill="#313131"/>
<path d="M23.45 47.1103C25.1322 46.9381 26.3563 45.4344 26.1835 43.7521C26.0107 42.0699 24.5065 40.8464 22.8243 41.0199C21.1431 41.1933 19.9205 42.6964 20.0932 44.3778C20.2658 46.0591 21.7686 47.2823 23.45 47.1103Z" fill="#FFD7CC"/>
<path d="M17.1478 29.2236C19.5282 29.0734 21.5802 30.8801 21.7329 33.2602C21.8856 35.6404 20.0814 37.6944 17.7013 37.8498C15.3176 38.0054 13.2597 36.1978 13.1067 33.8138C12.9537 31.4298 14.7637 29.3739 17.1478 29.2236ZM17.7022 36.5978C19.3969 36.4427 20.6423 34.9388 20.4787 33.2449C20.3152 31.5509 18.8051 30.3132 17.1119 30.4852C15.4307 30.6559 14.2036 32.1532 14.3659 33.8352C14.5284 35.5172 16.0194 36.7519 17.7022 36.5978Z" fill="#313131"/>
<path d="M17.7022 36.5978C19.3969 36.4427 20.6423 34.9388 20.4787 33.2449C20.3152 31.5509 18.8051 30.3132 17.1119 30.4852C15.4307 30.6559 14.2036 32.1532 14.3659 33.8352C14.5284 35.5172 16.0194 36.7519 17.7022 36.5978Z" fill="#B6A4FF"/>
<path d="M23.0792 19.2506C25.4456 19.0227 27.5477 20.7583 27.7718 23.1251C27.996 25.4917 26.2571 27.5911 23.89 27.8116C21.5282 28.0314 19.4345 26.2973 19.2109 23.9358C18.9872 21.5744 20.7182 19.4779 23.0792 19.2506ZM23.7656 26.5509C24.8456 26.4583 25.7922 25.7914 26.243 24.8056C26.6937 23.8197 26.5788 22.6674 25.9421 21.7899C25.3055 20.9126 24.2458 20.4458 23.1687 20.5686C21.5352 20.7546 20.3542 22.2182 20.5173 23.8541C20.6806 25.4898 22.1276 26.6913 23.7656 26.5509Z" fill="#313131"/>
<path d="M23.7656 26.5509C24.8456 26.4583 25.7922 25.7914 26.243 24.8056C26.6937 23.8197 26.5788 22.6674 25.9421 21.7899C25.3055 20.9126 24.2458 20.4458 23.1687 20.5686C21.5352 20.7546 20.3542 22.2182 20.5173 23.8541C20.6806 25.4898 22.1276 26.6913 23.7656 26.5509Z" fill="#CDCCFF"/>
</svg>
