<svg width="184" height="48" viewBox="0 0 184 48" fill="none" xmlns="http://www.w3.org/2000/svg">
<path d="M156.582 33.2621L165.467 24.8792L156.582 16.4598H160.462L169.311 24.8792L160.462 33.2621H156.582Z" fill="#313131"/>
<path d="M23.5401 33.6459L14.6914 25.263L23.5401 16.8436H27.4204L18.5355 25.263L27.4204 33.6459H23.5401Z" fill="#313131"/>
<path d="M65.9197 33.9097C64.7776 33.9097 63.7362 33.7193 62.7956 33.3386C61.855 32.9579 61.1048 32.3868 60.5449 31.6254C60.0074 30.8416 59.7387 29.8898 59.7387 28.77C59.7387 27.4711 60.0746 26.441 60.7465 25.6795C61.4183 24.8957 62.3029 24.3358 63.4003 23.9999C64.52 23.6416 65.7182 23.4624 66.9947 23.4624H71.4961C71.4961 22.2979 71.2945 21.3797 70.8914 20.7078C70.5107 20.036 70.0068 19.5545 69.3797 19.2634C68.7527 18.9722 68.0584 18.8267 67.297 18.8267C66.1997 18.8267 65.2479 19.0954 64.4416 19.6329C63.6578 20.148 63.1651 20.9542 62.9636 22.0515H60.0746C60.1866 20.8422 60.5897 19.8232 61.2839 18.9946C61.9782 18.166 62.8516 17.5389 63.9042 17.1134C64.9791 16.6655 66.1101 16.4416 67.297 16.4416C68.9766 16.4416 70.3315 16.7551 71.3617 17.3822C72.3919 17.9868 73.1421 18.8043 73.6124 19.8344C74.0827 20.8646 74.3178 22.0067 74.3178 23.2609V28.3669C74.3178 29.1955 74.4186 29.8226 74.6202 30.2481C74.8217 30.6736 75.3368 30.9312 76.1654 31.0207V33.5066C75.4264 33.5066 74.7546 33.417 74.1499 33.2378C73.5452 33.0363 73.0301 32.7228 72.6046 32.2973C72.2015 31.8494 71.9104 31.2671 71.7312 30.5504C71.1713 31.491 70.3987 32.2861 69.4133 32.9355C68.4504 33.585 67.2858 33.9097 65.9197 33.9097ZM66.3564 31.5246C67.4762 31.5246 68.4168 31.2447 69.1782 30.6848C69.9396 30.1025 70.5107 29.3635 70.8914 28.4677C71.2945 27.5719 71.4961 26.6425 71.4961 25.6795V25.6459H67.2298C66.446 25.6459 65.707 25.7355 65.0127 25.9147C64.3185 26.0714 63.7586 26.3738 63.3331 26.8217C62.9076 27.2472 62.6948 27.8518 62.6948 28.6357C62.6948 29.6434 63.0532 30.3825 63.7698 30.8528C64.4864 31.3007 65.3486 31.5246 66.3564 31.5246Z" fill="#313131"/>
<path d="M85.3889 33.9097C83.6869 33.9097 82.2201 33.5178 80.9883 32.734C79.7566 31.9501 78.8048 30.8976 78.133 29.5763C77.4611 28.255 77.1252 26.7769 77.1252 25.1421C77.1252 23.5296 77.4499 22.0627 78.0994 20.7414C78.7712 19.4201 79.723 18.3788 80.9547 17.6173C82.1865 16.8335 83.6757 16.4416 85.4225 16.4416C86.7886 16.4416 87.998 16.7215 89.0505 17.2814C90.1031 17.8413 90.9205 18.6251 91.5028 19.6329V9.99182H94.3246V33.5066H91.7715L91.5028 30.752C90.9653 31.5582 90.1927 32.2861 89.1849 32.9355C88.1771 33.585 86.9118 33.9097 85.3889 33.9097ZM85.6913 31.4574C86.923 31.4574 87.9644 31.1775 88.8154 30.6176C89.6664 30.0354 90.3047 29.2739 90.7302 28.3333C91.1781 27.3704 91.402 26.3178 91.402 25.1756C91.402 23.9663 91.1781 22.8914 90.7302 21.9508C90.2823 21.0102 89.6328 20.2711 88.7818 19.7337C87.9308 19.1738 86.9006 18.8938 85.6913 18.8938C84.6163 18.8938 83.6533 19.1514 82.8023 19.6665C81.9513 20.1816 81.2683 20.9094 80.7532 21.85C80.2605 22.7682 80.0141 23.8767 80.0141 25.1756C80.0141 26.4746 80.2717 27.5943 80.7868 28.5349C81.3019 29.4755 81.9849 30.2033 82.8359 30.7184C83.7093 31.2111 84.6611 31.4574 85.6913 31.4574Z" fill="#313131"/>
<path d="M99.2939 13.1495C98.734 13.1495 98.2637 12.9704 97.883 12.612C97.5247 12.2313 97.3455 11.761 97.3455 11.2012C97.3455 10.6637 97.5247 10.2158 97.883 9.85745C98.2637 9.49913 98.734 9.31997 99.2939 9.31997C99.8314 9.31997 100.29 9.49913 100.671 9.85745C101.052 10.2158 101.242 10.6637 101.242 11.2012C101.242 11.761 101.052 12.2313 100.671 12.612C100.29 12.9704 99.8314 13.1495 99.2939 13.1495ZM97.883 33.5066V16.8447H100.705V33.5066H97.883Z" fill="#313131"/>
<path d="M109.078 33.5066L102.763 16.8447H105.719L110.724 30.7856L115.763 16.8447H118.652L112.336 33.5066H109.078Z" fill="#313131"/>
<path d="M127.255 33.9097C125.687 33.9097 124.265 33.5514 122.988 32.8347C121.734 32.1181 120.738 31.1103 119.999 29.8114C119.26 28.4901 118.89 26.9448 118.89 25.1756C118.89 23.4512 119.248 21.9396 119.965 20.6407C120.682 19.3193 121.667 18.2892 122.921 17.5501C124.175 16.8111 125.62 16.4416 127.255 16.4416C129.225 16.4416 130.883 16.9567 132.226 17.9868C133.592 19.017 134.455 20.3943 134.813 22.1187H131.924C131.7 21.0886 131.151 20.2935 130.278 19.7337C129.405 19.1514 128.386 18.8602 127.221 18.8602C126.034 18.8602 125.038 19.1514 124.231 19.7337C123.425 20.3159 122.809 21.0886 122.384 22.0515C121.981 23.0145 121.779 24.0559 121.779 25.1756C121.779 26.4074 122.014 27.5047 122.485 28.4677C122.955 29.4307 123.593 30.1809 124.399 30.7184C125.228 31.2559 126.169 31.5246 127.221 31.5246C128.386 31.5246 129.405 31.2447 130.278 30.6848C131.151 30.1025 131.7 29.2851 131.924 28.2326H134.813C134.589 29.3523 134.13 30.3377 133.436 31.1887C132.741 32.0397 131.868 32.7116 130.815 33.2043C129.763 33.6746 128.576 33.9097 127.255 33.9097Z" fill="#313131"/>
<path d="M144.452 39.695L153.623 8.30859H156.655L147.484 39.695H144.452Z" fill="#313131"/>
<path fill-rule="evenodd" clip-rule="evenodd" d="M38.3033 36.2237C44.314 36.2237 49.1866 31.3226 49.1866 25.2768C49.1866 19.231 44.314 14.3299 38.3033 14.3299C32.2927 14.3299 27.42 19.231 27.42 25.2768C27.42 31.3226 32.2927 36.2237 38.3033 36.2237ZM41.0677 22.6433L38.3034 18.3073L35.539 22.6433L38.3034 26.9918L41.0677 22.6433ZM47.0471 25.2768V25.2797V25.2804V25.2817C47.0445 30.1362 43.1312 34.0708 38.3042 34.0708C33.4772 34.0708 29.5639 30.1362 29.5613 25.2817V25.2804V25.2797L29.5613 25.2782L29.5613 25.2768C29.5633 25.0467 29.7493 24.8608 29.9785 24.8608C30.2077 24.8608 30.3937 25.0467 30.3957 25.2768C30.3957 29.6701 33.9364 33.2315 38.3042 33.2315C42.672 33.2315 46.2128 29.6701 46.2128 25.2768C46.2148 25.0467 46.4007 24.8608 46.6299 24.8608C46.8591 24.8608 47.0452 25.0467 47.0471 25.2768Z" fill="#313131"/>
</svg>
