<svg width="640" height="500" viewBox="0 0 640 500" fill="none" xmlns="http://www.w3.org/2000/svg">
<g clip-path="url(#clip0_3034_40131)">
<line y1="-1" x2="2000" y2="-1" transform="matrix(0.707107 -0.707107 0.860934 0.508716 -1370.5 1630.6)" stroke="#A7A6FF" stroke-width="2"/>
<line y1="-1" x2="2000" y2="-1" transform="matrix(0.707107 -0.707107 0.860934 0.508716 -1348.5 1630.6)" stroke="#A7A6FF" stroke-width="2"/>
<line y1="-1" x2="2000" y2="-1" transform="matrix(0.707107 -0.707107 0.860934 0.508716 -1326.5 1630.6)" stroke="#A7A6FF" stroke-width="2"/>
<line y1="-1" x2="2000" y2="-1" transform="matrix(0.707107 -0.707107 0.860934 0.508716 -1304.5 1630.6)" stroke="#A7A6FF" stroke-width="2"/>
<line y1="-1" x2="2000" y2="-1" transform="matrix(0.707107 -0.707107 0.860934 0.508716 -1282.5 1630.6)" stroke="#A7A6FF" stroke-width="2"/>
<line y1="-1" x2="2000" y2="-1" transform="matrix(0.707107 -0.707107 0.860934 0.508716 -1260.5 1630.6)" stroke="#A7A6FF" stroke-width="2"/>
<line y1="-1" x2="2000" y2="-1" transform="matrix(0.707107 -0.707107 0.860934 0.508716 -1238.5 1630.6)" stroke="#A7A6FF" stroke-width="2"/>
<line y1="-1" x2="2000" y2="-1" transform="matrix(0.707107 -0.707107 0.860934 0.508716 -1216.5 1630.6)" stroke="#A7A6FF" stroke-width="2"/>
<line y1="-1" x2="2000" y2="-1" transform="matrix(0.707107 -0.707107 0.860934 0.508716 -1194.5 1630.6)" stroke="#A7A6FF" stroke-width="2"/>
<line y1="-1" x2="2000" y2="-1" transform="matrix(0.707107 -0.707107 0.860934 0.508716 -1172.5 1630.6)" stroke="#A7A6FF" stroke-width="2"/>
<line y1="-1" x2="2000" y2="-1" transform="matrix(0.707107 -0.707107 0.860934 0.508716 -1150.5 1630.6)" stroke="#A7A6FF" stroke-width="2"/>
<line y1="-1" x2="2000" y2="-1" transform="matrix(0.707107 -0.707107 0.860934 0.508716 -1128.5 1630.6)" stroke="#A7A6FF" stroke-width="2"/>
<line y1="-1" x2="2000" y2="-1" transform="matrix(0.707107 -0.707107 0.860934 0.508716 -1106.5 1630.6)" stroke="#A7A6FF" stroke-width="2"/>
<line y1="-1" x2="2000" y2="-1" transform="matrix(0.707107 -0.707107 0.860934 0.508716 -1084.5 1630.6)" stroke="#A7A6FF" stroke-width="2"/>
<line y1="-1" x2="2000" y2="-1" transform="matrix(0.707107 -0.707107 0.860934 0.508716 -1062.5 1630.6)" stroke="#A7A6FF" stroke-width="2"/>
<line y1="-1" x2="2000" y2="-1" transform="matrix(0.707107 -0.707107 0.860934 0.508716 -1040.5 1630.6)" stroke="#A7A6FF" stroke-width="2"/>
<line y1="-1" x2="2000" y2="-1" transform="matrix(0.707107 -0.707107 0.860934 0.508716 -1018.5 1630.6)" stroke="#A7A6FF" stroke-width="2"/>
<line y1="-1" x2="2000" y2="-1" transform="matrix(0.707107 -0.707107 0.860934 0.508716 -996.5 1630.6)" stroke="#A7A6FF" stroke-width="2"/>
<line y1="-1" x2="2000" y2="-1" transform="matrix(0.707107 -0.707107 0.860934 0.508716 -974.5 1630.6)" stroke="#A7A6FF" stroke-width="2"/>
<line y1="-1" x2="2000" y2="-1" transform="matrix(0.707107 -0.707107 0.860934 0.508716 -952.5 1630.6)" stroke="#A7A6FF" stroke-width="2"/>
<line y1="-1" x2="2000" y2="-1" transform="matrix(0.707107 -0.707107 0.860934 0.508716 -930.5 1630.6)" stroke="#A7A6FF" stroke-width="2"/>
<line y1="-1" x2="2000" y2="-1" transform="matrix(0.707107 -0.707107 0.860934 0.508716 -908.5 1630.6)" stroke="#A7A6FF" stroke-width="2"/>
<line y1="-1" x2="2000" y2="-1" transform="matrix(0.707107 -0.707107 0.860934 0.508716 -886.5 1630.6)" stroke="#A7A6FF" stroke-width="2"/>
<line y1="-1" x2="2000" y2="-1" transform="matrix(0.707107 -0.707107 0.860934 0.508716 -864.5 1630.6)" stroke="#A7A6FF" stroke-width="2"/>
<line y1="-1" x2="2000" y2="-1" transform="matrix(0.707107 -0.707107 0.860934 0.508716 -842.5 1630.6)" stroke="#A7A6FF" stroke-width="2"/>
<line y1="-1" x2="2000" y2="-1" transform="matrix(0.707107 -0.707107 0.860934 0.508716 -820.5 1630.6)" stroke="#A7A6FF" stroke-width="2"/>
<line y1="-1" x2="2000" y2="-1" transform="matrix(0.707107 -0.707107 0.860934 0.508716 -798.5 1630.6)" stroke="#A7A6FF" stroke-width="2"/>
<line y1="-1" x2="2000" y2="-1" transform="matrix(0.707107 -0.707107 0.860934 0.508716 -776.5 1630.6)" stroke="#A7A6FF" stroke-width="2"/>
<line y1="-1" x2="2000" y2="-1" transform="matrix(0.707107 -0.707107 0.860934 0.508716 -754.5 1630.6)" stroke="#A7A6FF" stroke-width="2"/>
<line y1="-1" x2="2000" y2="-1" transform="matrix(0.707107 -0.707107 0.860934 0.508716 -732.5 1630.6)" stroke="#A7A6FF" stroke-width="2"/>
<line y1="-1" x2="2000" y2="-1" transform="matrix(0.707107 -0.707107 0.860934 0.508716 -710.5 1630.6)" stroke="#A7A6FF" stroke-width="2"/>
<line y1="-1" x2="2000" y2="-1" transform="matrix(0.707107 -0.707107 0.860934 0.508716 -688.5 1630.6)" stroke="#A7A6FF" stroke-width="2"/>
<line y1="-1" x2="2000" y2="-1" transform="matrix(0.707107 -0.707107 0.860934 0.508716 -666.5 1630.6)" stroke="#A7A6FF" stroke-width="2"/>
<line y1="-1" x2="2000" y2="-1" transform="matrix(0.707107 -0.707107 0.860934 0.508716 -644.5 1630.6)" stroke="#A7A6FF" stroke-width="2"/>
<line y1="-1" x2="2000" y2="-1" transform="matrix(0.707107 -0.707107 0.860934 0.508716 -622.5 1630.6)" stroke="#A7A6FF" stroke-width="2"/>
<line y1="-1" x2="2000" y2="-1" transform="matrix(0.707107 -0.707107 0.860934 0.508716 -600.5 1630.6)" stroke="#A7A6FF" stroke-width="2"/>
<line y1="-1" x2="2000" y2="-1" transform="matrix(0.707107 -0.707107 0.860934 0.508716 -578.5 1630.6)" stroke="#A7A6FF" stroke-width="2"/>
<line y1="-1" x2="2000" y2="-1" transform="matrix(0.707107 -0.707107 0.860934 0.508716 -556.5 1630.6)" stroke="#A7A6FF" stroke-width="2"/>
<line y1="-1" x2="2000" y2="-1" transform="matrix(0.707107 -0.707107 0.860934 0.508716 -534.5 1630.6)" stroke="#A7A6FF" stroke-width="2"/>
<line y1="-1" x2="2000" y2="-1" transform="matrix(0.707107 -0.707107 0.860934 0.508716 -512.5 1630.6)" stroke="#A7A6FF" stroke-width="2"/>
<line y1="-1" x2="2000" y2="-1" transform="matrix(0.707107 -0.707107 0.860934 0.508716 -490.5 1630.6)" stroke="#A7A6FF" stroke-width="2"/>
<line y1="-1" x2="2000" y2="-1" transform="matrix(0.707107 -0.707107 0.860934 0.508716 -468.5 1630.6)" stroke="#A7A6FF" stroke-width="2"/>
<line y1="-1" x2="2000" y2="-1" transform="matrix(0.707107 -0.707107 0.860934 0.508716 -446.5 1630.6)" stroke="#A7A6FF" stroke-width="2"/>
<line y1="-1" x2="2000" y2="-1" transform="matrix(0.707107 -0.707107 0.860934 0.508716 -424.5 1630.6)" stroke="#A7A6FF" stroke-width="2"/>
<line y1="-1" x2="2000" y2="-1" transform="matrix(0.707107 -0.707107 0.860934 0.508716 -402.5 1630.6)" stroke="#A7A6FF" stroke-width="2"/>
<line y1="-1" x2="2000" y2="-1" transform="matrix(0.707107 -0.707107 0.860934 0.508716 -380.5 1630.6)" stroke="#A7A6FF" stroke-width="2"/>
<line y1="-1" x2="2000" y2="-1" transform="matrix(0.707107 -0.707107 0.860934 0.508716 -358.5 1630.6)" stroke="#A7A6FF" stroke-width="2"/>
<line y1="-1" x2="2000" y2="-1" transform="matrix(0.707107 -0.707107 0.860934 0.508716 -336.5 1630.6)" stroke="#A7A6FF" stroke-width="2"/>
<line y1="-1" x2="2000" y2="-1" transform="matrix(0.707107 -0.707107 0.860934 0.508716 -314.5 1630.6)" stroke="#A7A6FF" stroke-width="2"/>
<line y1="-1" x2="2000" y2="-1" transform="matrix(0.707107 -0.707107 0.860934 0.508716 -292.5 1630.6)" stroke="#A7A6FF" stroke-width="2"/>
<line y1="-1" x2="2000" y2="-1" transform="matrix(0.707107 -0.707107 0.860934 0.508716 -270.5 1630.6)" stroke="#A7A6FF" stroke-width="2"/>
<line y1="-1" x2="2000" y2="-1" transform="matrix(0.707107 -0.707107 0.860934 0.508716 -248.5 1630.6)" stroke="#A7A6FF" stroke-width="2"/>
<line y1="-1" x2="2000" y2="-1" transform="matrix(0.707107 -0.707107 0.860934 0.508716 -226.5 1630.6)" stroke="#A7A6FF" stroke-width="2"/>
<line y1="-1" x2="2000" y2="-1" transform="matrix(0.707107 -0.707107 0.860934 0.508716 -204.5 1630.6)" stroke="#A7A6FF" stroke-width="2"/>
<line y1="-1" x2="2000" y2="-1" transform="matrix(0.707107 -0.707107 0.860934 0.508716 -182.5 1630.6)" stroke="#A7A6FF" stroke-width="2"/>
<line y1="-1" x2="2000" y2="-1" transform="matrix(0.707107 -0.707107 0.860934 0.508716 -160.5 1630.6)" stroke="#A7A6FF" stroke-width="2"/>
<line y1="-1" x2="2000" y2="-1" transform="matrix(0.707107 -0.707107 0.860934 0.508716 -138.5 1630.6)" stroke="#A7A6FF" stroke-width="2"/>
<line y1="-1" x2="2000" y2="-1" transform="matrix(0.707107 -0.707107 0.860934 0.508716 -116.5 1630.6)" stroke="#A7A6FF" stroke-width="2"/>
<line y1="-1" x2="2000" y2="-1" transform="matrix(0.707107 -0.707107 0.860934 0.508716 -94.5 1630.6)" stroke="#A7A6FF" stroke-width="2"/>
<line y1="-1" x2="2000" y2="-1" transform="matrix(0.707107 -0.707107 0.860934 0.508716 -72.5 1630.6)" stroke="#A7A6FF" stroke-width="2"/>
<line y1="-1" x2="2000" y2="-1" transform="matrix(0.707107 -0.707107 0.860934 0.508716 -50.5 1630.6)" stroke="#A7A6FF" stroke-width="2"/>
<line y1="-1" x2="2000" y2="-1" transform="matrix(0.707107 -0.707107 0.860934 0.508716 -28.5 1630.6)" stroke="#A7A6FF" stroke-width="2"/>
<line y1="-1" x2="2000" y2="-1" transform="matrix(0.707107 -0.707107 0.860934 0.508716 -6.5 1630.6)" stroke="#A7A6FF" stroke-width="2"/>
<line y1="-1" x2="2000" y2="-1" transform="matrix(0.707107 -0.707107 0.860934 0.508716 15.5 1630.6)" stroke="#A7A6FF" stroke-width="2"/>
<line y1="-1" x2="2000" y2="-1" transform="matrix(0.707107 -0.707107 0.860934 0.508716 37.5 1630.6)" stroke="#A7A6FF" stroke-width="2"/>
<line y1="-1" x2="2000" y2="-1" transform="matrix(0.707107 -0.707107 0.860934 0.508716 59.5 1630.6)" stroke="#A7A6FF" stroke-width="2"/>
<line y1="-1" x2="2000" y2="-1" transform="matrix(0.707107 -0.707107 0.860934 0.508716 81.5 1630.6)" stroke="#A7A6FF" stroke-width="2"/>
<line y1="-1" x2="2000" y2="-1" transform="matrix(0.707107 -0.707107 0.860934 0.508716 103.5 1630.6)" stroke="#A7A6FF" stroke-width="2"/>
<line y1="-1" x2="2000" y2="-1" transform="matrix(0.707107 -0.707107 0.860934 0.508716 125.5 1630.6)" stroke="#A7A6FF" stroke-width="2"/>
<line y1="-1" x2="2000" y2="-1" transform="matrix(0.707107 -0.707107 0.860934 0.508716 147.5 1630.6)" stroke="#A7A6FF" stroke-width="2"/>
<line y1="-1" x2="2000" y2="-1" transform="matrix(0.707107 -0.707107 0.860934 0.508716 169.5 1630.6)" stroke="#A7A6FF" stroke-width="2"/>
<line y1="-1" x2="2000" y2="-1" transform="matrix(0.707107 -0.707107 0.860934 0.508716 191.5 1630.6)" stroke="#A7A6FF" stroke-width="2"/>
<line y1="-1" x2="2000" y2="-1" transform="matrix(0.707107 -0.707107 0.860934 0.508716 213.5 1630.6)" stroke="#A7A6FF" stroke-width="2"/>
<line y1="-1" x2="2000" y2="-1" transform="matrix(0.707107 -0.707107 0.860934 0.508716 235.5 1630.6)" stroke="#A7A6FF" stroke-width="2"/>
<line y1="-1" x2="2000" y2="-1" transform="matrix(0.707107 -0.707107 0.860934 0.508716 257.5 1630.6)" stroke="#A7A6FF" stroke-width="2"/>
<line y1="-1" x2="2000" y2="-1" transform="matrix(0.707107 -0.707107 0.860934 0.508716 279.5 1630.6)" stroke="#A7A6FF" stroke-width="2"/>
<line y1="-1" x2="2000" y2="-1" transform="matrix(0.707107 -0.707107 0.860934 0.508716 301.5 1630.6)" stroke="#A7A6FF" stroke-width="2"/>
<line y1="-1" x2="2000" y2="-1" transform="matrix(0.707107 -0.707107 0.860934 0.508716 323.5 1630.6)" stroke="#A7A6FF" stroke-width="2"/>
<line y1="-1" x2="2000" y2="-1" transform="matrix(0.707107 -0.707107 0.860934 0.508716 345.5 1630.6)" stroke="#A7A6FF" stroke-width="2"/>
<line y1="-1" x2="2000" y2="-1" transform="matrix(0.707107 -0.707107 0.860934 0.508716 367.5 1630.6)" stroke="#A7A6FF" stroke-width="2"/>
<line y1="-1" x2="2000" y2="-1" transform="matrix(0.707107 -0.707107 0.860934 0.508716 389.5 1630.6)" stroke="#A7A6FF" stroke-width="2"/>
<line y1="-1" x2="2000" y2="-1" transform="matrix(0.707107 -0.707107 0.860934 0.508716 411.5 1630.6)" stroke="#A7A6FF" stroke-width="2"/>
<line y1="-1" x2="2000" y2="-1" transform="matrix(0.707107 -0.707107 0.860934 0.508716 433.5 1630.6)" stroke="#A7A6FF" stroke-width="2"/>
<line y1="-1" x2="2000" y2="-1" transform="matrix(0.707107 -0.707107 0.860934 0.508716 455.5 1630.6)" stroke="#A7A6FF" stroke-width="2"/>
<line y1="-1" x2="2000" y2="-1" transform="matrix(0.707107 -0.707107 0.860934 0.508716 477.5 1630.6)" stroke="#A7A6FF" stroke-width="2"/>
<line y1="-1" x2="2000" y2="-1" transform="matrix(0.707107 -0.707107 0.860934 0.508716 499.5 1630.6)" stroke="#A7A6FF" stroke-width="2"/>
<line y1="-1" x2="2000" y2="-1" transform="matrix(0.707107 -0.707107 0.860934 0.508716 521.5 1630.6)" stroke="#A7A6FF" stroke-width="2"/>
<line y1="-1" x2="2000" y2="-1" transform="matrix(0.707107 -0.707107 0.860934 0.508716 543.5 1630.6)" stroke="#A7A6FF" stroke-width="2"/>
<line y1="-1" x2="2000" y2="-1" transform="matrix(0.707107 -0.707107 0.860934 0.508716 565.5 1630.6)" stroke="#A7A6FF" stroke-width="2"/>
<line y1="-1" x2="2000" y2="-1" transform="matrix(0.707107 -0.707107 0.860934 0.508716 587.5 1630.6)" stroke="#A7A6FF" stroke-width="2"/>
<line y1="-1" x2="2000" y2="-1" transform="matrix(0.707107 -0.707107 0.860934 0.508716 609.5 1630.6)" stroke="#A7A6FF" stroke-width="2"/>
</g>
<rect x="111.902" y="153.137" width="193.273" height="263.4" fill="#52B1FF" fill-opacity="0.2" stroke="#A7A6FF" stroke-width="2" stroke-dasharray="4 4"/>
<path d="M94.027 432.294L78.8633 427.939L122.902 410.355L104.996 454.233L100.963 439.715L87.0902 452.782L80.3149 446.168L94.027 432.294Z" fill="#313131"/>
<rect x="128.215" y="186.762" width="62.7188" height="62.7188" fill="#FFD7CC"/>
<rect x="110.902" y="152.137" width="17.3125" height="17.3125" fill="#A7A6FF"/>
<rect x="128.215" y="232.168" width="17.3125" height="17.3125" fill="#DEFFCC"/>
<rect x="128.215" y="169.449" width="8.95982" height="17.3125" fill="#DEFFCC"/>
<rect x="146.133" y="169.449" width="8.95982" height="17.3125" fill="#DEFFCC"/>
<rect x="164.055" y="169.449" width="8.95982" height="17.3125" fill="#DEFFCC"/>
<rect x="181.973" y="169.449" width="8.95982" height="17.3125" fill="#DEFFCC"/>
<rect x="199.891" y="169.449" width="8.95982" height="17.3125" fill="#DEFFCC"/>
<rect width="143" height="41" transform="translate(215.219 84.3789)" fill="#FFD7CC"/>
<path d="M235.724 100.687L236.453 101.848L230.099 105.745L236.453 109.678L235.643 110.785L228.803 106.51V104.962L235.724 100.687ZM245.491 97.8969L247.003 98.0859V111.379H245.68L245.536 110.128C245.182 110.632 244.774 111.001 244.312 111.235C243.856 111.469 243.367 111.586 242.845 111.586C242.023 111.586 241.345 111.379 240.811 110.965C240.277 110.551 239.881 109.975 239.623 109.237C239.365 108.493 239.236 107.632 239.236 106.654C239.236 105.706 239.383 104.86 239.677 104.116C239.971 103.366 240.394 102.778 240.946 102.352C241.504 101.92 242.173 101.704 242.953 101.704C243.499 101.704 243.979 101.8 244.393 101.992C244.807 102.178 245.173 102.454 245.491 102.82V97.8969ZM243.349 102.919C242.557 102.919 241.948 103.228 241.522 103.846C241.096 104.464 240.883 105.4 240.883 106.654C240.883 107.47 240.97 108.154 241.144 108.706C241.318 109.258 241.573 109.672 241.909 109.948C242.251 110.224 242.668 110.362 243.16 110.362C243.7 110.362 244.159 110.209 244.537 109.903C244.921 109.597 245.239 109.252 245.491 108.868V104.134C245.233 103.75 244.921 103.453 244.555 103.243C244.189 103.027 243.787 102.919 243.349 102.919ZM255.411 101.902V110.182H258.084V111.379H250.974V110.182H253.899V103.099H251.064V101.902H255.411ZM254.205 97.4649C254.541 97.4649 254.808 97.5669 255.006 97.7709C255.21 97.9749 255.312 98.2239 255.312 98.5179C255.312 98.8239 255.21 99.0819 255.006 99.2919C254.808 99.4959 254.541 99.5979 254.205 99.5979C253.887 99.5979 253.626 99.4959 253.422 99.2919C253.218 99.0819 253.116 98.8239 253.116 98.5179C253.116 98.2239 253.218 97.9749 253.422 97.7709C253.626 97.5669 253.887 97.4649 254.205 97.4649ZM269.309 101.902L265.862 111.379H264.107L260.687 101.902H262.289L265.034 110.002L267.743 101.902H269.309ZM272.704 100.687L279.625 104.962V106.51L272.794 110.785L271.975 109.669L278.329 105.745L271.975 101.83L272.704 100.687ZM289.682 100.687L290.411 101.848L284.057 105.745L292.76 111.118L291.95 112.225L282.761 106.51V104.962L289.682 100.687ZM291.95 114.052L290.726 113.503L298.826 96.8079L300.032 97.4019L291.95 114.052ZM310.249 97.8969L311.761 98.0859V111.379H310.438L310.294 110.128C309.94 110.632 309.532 111.001 309.07 111.235C308.614 111.469 308.125 111.586 307.603 111.586C306.781 111.586 306.103 111.379 305.569 110.965C305.035 110.551 304.639 109.975 304.381 109.237C304.123 108.493 303.994 107.632 303.994 106.654C303.994 105.706 304.141 104.86 304.435 104.116C304.729 103.366 305.152 102.778 305.704 102.352C306.262 101.92 306.931 101.704 307.711 101.704C308.257 101.704 308.737 101.8 309.151 101.992C309.565 102.178 309.931 102.454 310.249 102.82V97.8969ZM308.107 102.919C307.315 102.919 306.706 103.228 306.28 103.846C305.854 104.464 305.641 105.4 305.641 106.654C305.641 107.47 305.728 108.154 305.902 108.706C306.076 109.258 306.331 109.672 306.667 109.948C307.009 110.224 307.426 110.362 307.918 110.362C308.458 110.362 308.917 110.209 309.295 109.903C309.679 109.597 309.997 109.252 310.249 108.868V104.134C309.991 103.75 309.679 103.453 309.313 103.243C308.947 103.027 308.545 102.919 308.107 102.919ZM320.169 101.902V110.182H322.842V111.379H315.732V110.182H318.657V103.099H315.822V101.902H320.169ZM318.963 97.4649C319.299 97.4649 319.566 97.5669 319.764 97.7709C319.968 97.9749 320.07 98.2239 320.07 98.5179C320.07 98.8239 319.968 99.0819 319.764 99.2919C319.566 99.4959 319.299 99.5979 318.963 99.5979C318.645 99.5979 318.384 99.4959 318.18 99.2919C317.976 99.0819 317.874 98.8239 317.874 98.5179C317.874 98.2239 317.976 97.9749 318.18 97.7709C318.384 97.5669 318.645 97.4649 318.963 97.4649ZM334.066 101.902L330.619 111.379H328.864L325.444 101.902H327.046L329.791 110.002L332.5 101.902H334.066ZM337.461 100.687L344.382 104.962V106.51L337.551 110.785L336.732 109.669L343.086 105.745L336.732 101.83L337.461 100.687Z" fill="#313131"/>
<rect width="111" height="41" transform="translate(297.531 138.754)" fill="#A7A6FF"/>
<path d="M318.036 155.062L318.765 156.223L312.411 160.12L318.765 164.053L317.955 165.16L311.115 160.885V159.337L318.036 155.062ZM323.645 152.317V157.573C324.017 157.075 324.473 156.703 325.013 156.457C325.559 156.205 326.111 156.079 326.669 156.079C327.593 156.079 328.268 156.325 328.694 156.817C329.12 157.309 329.333 157.993 329.333 158.869V165.754H327.821V158.905C327.821 158.335 327.689 157.921 327.425 157.663C327.161 157.399 326.747 157.267 326.183 157.267C325.823 157.267 325.481 157.348 325.157 157.51C324.833 157.672 324.542 157.873 324.284 158.113C324.026 158.353 323.813 158.599 323.645 158.851V165.754H322.133V152.479L323.645 152.317ZM337.84 153.361V165.394H336.328V154.999L333.484 156.727L332.827 155.647L336.517 153.361H337.84ZM340.432 164.521V165.754H333.277V164.521H340.432ZM344.223 155.062L351.144 159.337V160.885L344.313 165.16L343.494 164.044L349.848 160.12L343.494 156.205L344.223 155.062ZM361.201 155.062L361.93 156.223L355.576 160.12L364.279 165.493L363.469 166.6L354.28 160.885V159.337L361.201 155.062ZM363.469 168.427L362.245 167.878L370.345 151.183L371.551 151.777L363.469 168.427ZM377.61 152.317V157.573C377.982 157.075 378.438 156.703 378.978 156.457C379.524 156.205 380.076 156.079 380.634 156.079C381.558 156.079 382.233 156.325 382.659 156.817C383.085 157.309 383.298 157.993 383.298 158.869V165.754H381.786V158.905C381.786 158.335 381.654 157.921 381.39 157.663C381.126 157.399 380.712 157.267 380.148 157.267C379.788 157.267 379.446 157.348 379.122 157.51C378.798 157.672 378.507 157.873 378.249 158.113C377.991 158.353 377.778 158.599 377.61 158.851V165.754H376.098V152.479L377.61 152.317ZM391.805 153.361V165.394H390.293V154.999L387.449 156.727L386.792 155.647L390.482 153.361H391.805ZM394.397 164.521V165.754H387.242V164.521H394.397Z" fill="white"/>
<rect width="165" height="41" transform="translate(110.902 30)" fill="#A7A6FF"/>
<path d="M131.407 46.308L132.136 47.469L125.782 51.366L132.136 55.299L131.326 56.406L124.486 52.131V50.583L131.407 46.308ZM141.75 47.325C142.056 47.325 142.347 47.391 142.623 47.523C142.905 47.655 143.136 47.91 143.316 48.288C143.496 48.666 143.586 49.218 143.586 49.944V57H142.182V50.187C142.182 49.593 142.146 49.164 142.074 48.9C142.002 48.636 141.795 48.504 141.453 48.504C141.171 48.504 140.889 48.594 140.607 48.774C140.331 48.948 140.061 49.236 139.797 49.638V57H138.384V50.187C138.384 49.593 138.348 49.164 138.276 48.9C138.204 48.636 137.997 48.504 137.655 48.504C137.361 48.504 137.076 48.594 136.8 48.774C136.53 48.948 136.263 49.236 135.999 49.638V57H134.604V47.523H135.792L135.882 48.621C136.14 48.255 136.428 47.949 136.746 47.703C137.07 47.451 137.469 47.325 137.943 47.325C138.303 47.325 138.642 47.412 138.96 47.586C139.278 47.754 139.512 48.084 139.662 48.576C139.92 48.204 140.211 47.904 140.535 47.676C140.859 47.442 141.264 47.325 141.75 47.325ZM153.083 54.93C153.083 55.308 153.146 55.584 153.272 55.758C153.398 55.932 153.593 56.061 153.857 56.145L153.488 57.207C153.08 57.153 152.723 57.024 152.417 56.82C152.111 56.61 151.889 56.295 151.751 55.875C151.409 56.313 150.983 56.646 150.473 56.874C149.963 57.096 149.399 57.207 148.781 57.207C147.833 57.207 147.086 56.94 146.54 56.406C145.994 55.872 145.721 55.164 145.721 54.282C145.721 53.304 146.102 52.554 146.864 52.032C147.626 51.51 148.727 51.249 150.167 51.249H151.562V50.457C151.562 49.773 151.361 49.29 150.959 49.008C150.563 48.72 150.011 48.576 149.303 48.576C148.991 48.576 148.625 48.615 148.205 48.693C147.785 48.765 147.329 48.888 146.837 49.062L146.441 47.919C147.023 47.703 147.569 47.55 148.079 47.46C148.589 47.37 149.075 47.325 149.537 47.325C150.719 47.325 151.604 47.601 152.192 48.153C152.786 48.699 153.083 49.443 153.083 50.385V54.93ZM149.168 56.055C149.636 56.055 150.083 55.938 150.509 55.704C150.935 55.464 151.286 55.134 151.562 54.714V52.275H150.194C149.15 52.275 148.412 52.455 147.98 52.815C147.554 53.175 147.341 53.658 147.341 54.264C147.341 54.852 147.491 55.299 147.791 55.605C148.097 55.905 148.556 56.055 149.168 56.055ZM161.887 47.523V55.803H164.56V57H157.45V55.803H160.375V48.72H157.54V47.523H161.887ZM160.681 43.086C161.017 43.086 161.284 43.188 161.482 43.392C161.686 43.596 161.788 43.845 161.788 44.139C161.788 44.445 161.686 44.703 161.482 44.913C161.284 45.117 161.017 45.219 160.681 45.219C160.363 45.219 160.102 45.117 159.898 44.913C159.694 44.703 159.592 44.445 159.592 44.139C159.592 43.845 159.694 43.596 159.898 43.392C160.102 43.188 160.363 43.086 160.681 43.086ZM167.883 57V47.523H169.17L169.287 48.837C169.671 48.351 170.151 47.979 170.727 47.721C171.309 47.457 171.873 47.325 172.419 47.325C173.349 47.325 174.024 47.571 174.444 48.063C174.87 48.555 175.083 49.239 175.083 50.115V57H173.571V51.231C173.571 50.583 173.535 50.061 173.463 49.665C173.391 49.263 173.241 48.972 173.013 48.792C172.785 48.606 172.431 48.513 171.951 48.513C171.579 48.513 171.228 48.594 170.898 48.756C170.574 48.918 170.283 49.122 170.025 49.368C169.773 49.608 169.563 49.851 169.395 50.097V57H167.883ZM179.18 46.308L186.101 50.583V52.131L179.27 56.406L178.451 55.29L184.805 51.366L178.451 47.451L179.18 46.308ZM196.158 46.308L196.887 47.469L190.533 51.366L199.236 56.739L198.426 57.846L189.237 52.131V50.583L196.158 46.308ZM198.426 59.673L197.202 59.124L205.302 42.429L206.508 43.023L198.426 59.673ZM217.301 47.325C217.607 47.325 217.898 47.391 218.174 47.523C218.456 47.655 218.687 47.91 218.867 48.288C219.047 48.666 219.137 49.218 219.137 49.944V57H217.733V50.187C217.733 49.593 217.697 49.164 217.625 48.9C217.553 48.636 217.346 48.504 217.004 48.504C216.722 48.504 216.44 48.594 216.158 48.774C215.882 48.948 215.612 49.236 215.348 49.638V57H213.935V50.187C213.935 49.593 213.899 49.164 213.827 48.9C213.755 48.636 213.548 48.504 213.206 48.504C212.912 48.504 212.627 48.594 212.351 48.774C212.081 48.948 211.814 49.236 211.55 49.638V57H210.155V47.523H211.343L211.433 48.621C211.691 48.255 211.979 47.949 212.297 47.703C212.621 47.451 213.02 47.325 213.494 47.325C213.854 47.325 214.193 47.412 214.511 47.586C214.829 47.754 215.063 48.084 215.213 48.576C215.471 48.204 215.762 47.904 216.086 47.676C216.41 47.442 216.815 47.325 217.301 47.325ZM228.634 54.93C228.634 55.308 228.697 55.584 228.823 55.758C228.949 55.932 229.144 56.061 229.408 56.145L229.039 57.207C228.631 57.153 228.274 57.024 227.968 56.82C227.662 56.61 227.44 56.295 227.302 55.875C226.96 56.313 226.534 56.646 226.024 56.874C225.514 57.096 224.95 57.207 224.332 57.207C223.384 57.207 222.637 56.94 222.091 56.406C221.545 55.872 221.272 55.164 221.272 54.282C221.272 53.304 221.653 52.554 222.415 52.032C223.177 51.51 224.278 51.249 225.718 51.249H227.113V50.457C227.113 49.773 226.912 49.29 226.51 49.008C226.114 48.72 225.562 48.576 224.854 48.576C224.542 48.576 224.176 48.615 223.756 48.693C223.336 48.765 222.88 48.888 222.388 49.062L221.992 47.919C222.574 47.703 223.12 47.55 223.63 47.46C224.14 47.37 224.626 47.325 225.088 47.325C226.27 47.325 227.155 47.601 227.743 48.153C228.337 48.699 228.634 49.443 228.634 50.385V54.93ZM224.719 56.055C225.187 56.055 225.634 55.938 226.06 55.704C226.486 55.464 226.837 55.134 227.113 54.714V52.275H225.745C224.701 52.275 223.963 52.455 223.531 52.815C223.105 53.175 222.892 53.658 222.892 54.264C222.892 54.852 223.042 55.299 223.342 55.605C223.648 55.905 224.107 56.055 224.719 56.055ZM237.438 47.523V55.803H240.111V57H233.001V55.803H235.926V48.72H233.091V47.523H237.438ZM236.232 43.086C236.568 43.086 236.835 43.188 237.033 43.392C237.237 43.596 237.339 43.845 237.339 44.139C237.339 44.445 237.237 44.703 237.033 44.913C236.835 45.117 236.568 45.219 236.232 45.219C235.914 45.219 235.653 45.117 235.449 44.913C235.245 44.703 235.143 44.445 235.143 44.139C235.143 43.845 235.245 43.596 235.449 43.392C235.653 43.188 235.914 43.086 236.232 43.086ZM243.434 57V47.523H244.721L244.838 48.837C245.222 48.351 245.702 47.979 246.278 47.721C246.86 47.457 247.424 47.325 247.97 47.325C248.9 47.325 249.575 47.571 249.995 48.063C250.421 48.555 250.634 49.239 250.634 50.115V57H249.122V51.231C249.122 50.583 249.086 50.061 249.014 49.665C248.942 49.263 248.792 48.972 248.564 48.792C248.336 48.606 247.982 48.513 247.502 48.513C247.13 48.513 246.779 48.594 246.449 48.756C246.125 48.918 245.834 49.122 245.576 49.368C245.324 49.608 245.114 49.851 244.946 50.097V57H243.434ZM254.731 46.308L261.652 50.583V52.131L254.821 56.406L254.002 55.29L260.356 51.366L254.002 47.451L254.731 46.308Z" fill="white"/>
<rect width="78" height="41" transform="translate(347.848 193.133)" fill="#FFD7CC"/>
<path d="M368.353 209.441L369.082 210.602L362.728 214.499L369.082 218.432L368.272 219.539L361.432 215.264V213.716L368.353 209.441ZM377.247 210.656V218.936H379.92V220.133H372.81V218.936H375.735V211.853H372.9V210.656H377.247ZM376.041 206.219C376.377 206.219 376.644 206.321 376.842 206.525C377.046 206.729 377.148 206.978 377.148 207.272C377.148 207.578 377.046 207.836 376.842 208.046C376.644 208.25 376.377 208.352 376.041 208.352C375.723 208.352 375.462 208.25 375.258 208.046C375.054 207.836 374.952 207.578 374.952 207.272C374.952 206.978 375.054 206.729 375.258 206.525C375.462 206.321 375.723 206.219 376.041 206.219ZM389.489 210.458C389.795 210.458 390.086 210.524 390.362 210.656C390.644 210.788 390.875 211.043 391.055 211.421C391.235 211.799 391.325 212.351 391.325 213.077V220.133H389.921V213.32C389.921 212.726 389.885 212.297 389.813 212.033C389.741 211.769 389.534 211.637 389.192 211.637C388.91 211.637 388.628 211.727 388.346 211.907C388.07 212.081 387.8 212.369 387.536 212.771V220.133H386.123V213.32C386.123 212.726 386.087 212.297 386.015 212.033C385.943 211.769 385.736 211.637 385.394 211.637C385.1 211.637 384.815 211.727 384.539 211.907C384.269 212.081 384.002 212.369 383.738 212.771V220.133H382.343V210.656H383.531L383.621 211.754C383.879 211.388 384.167 211.082 384.485 210.836C384.809 210.584 385.208 210.458 385.682 210.458C386.042 210.458 386.381 210.545 386.699 210.719C387.017 210.887 387.251 211.217 387.401 211.709C387.659 211.337 387.95 211.037 388.274 210.809C388.598 210.575 389.003 210.458 389.489 210.458ZM401.74 209.648L402.208 211.07C401.806 211.196 401.377 211.274 400.921 211.304C400.465 211.334 399.97 211.349 399.436 211.349C399.982 211.601 400.393 211.928 400.669 212.33C400.945 212.726 401.083 213.194 401.083 213.734C401.083 214.358 400.942 214.913 400.66 215.399C400.378 215.885 399.97 216.266 399.436 216.542C398.908 216.818 398.269 216.956 397.519 216.956C397.201 216.956 396.934 216.941 396.718 216.911C396.508 216.881 396.304 216.836 396.106 216.776C395.962 216.872 395.842 217.004 395.746 217.172C395.656 217.34 395.611 217.514 395.611 217.694C395.611 217.922 395.701 218.111 395.881 218.261C396.061 218.411 396.394 218.486 396.88 218.486H398.59C399.226 218.486 399.796 218.6 400.3 218.828C400.81 219.056 401.209 219.362 401.497 219.746C401.791 220.13 401.938 220.568 401.938 221.06C401.938 221.99 401.542 222.704 400.75 223.202C399.964 223.7 398.851 223.949 397.411 223.949C396.403 223.949 395.608 223.844 395.026 223.634C394.444 223.43 394.027 223.115 393.775 222.689C393.529 222.269 393.406 221.738 393.406 221.096H394.774C394.774 221.462 394.846 221.765 394.99 222.005C395.134 222.245 395.395 222.422 395.773 222.536C396.151 222.656 396.694 222.716 397.402 222.716C398.098 222.716 398.665 222.656 399.103 222.536C399.547 222.422 399.874 222.248 400.084 222.014C400.3 221.786 400.408 221.501 400.408 221.159C400.408 220.709 400.204 220.37 399.796 220.142C399.388 219.914 398.878 219.8 398.266 219.8H396.574C395.758 219.8 395.155 219.62 394.765 219.26C394.381 218.9 394.189 218.486 394.189 218.018C394.189 217.712 394.276 217.415 394.45 217.127C394.63 216.839 394.891 216.584 395.233 216.362C394.687 216.074 394.285 215.717 394.027 215.291C393.769 214.865 393.64 214.349 393.64 213.743C393.64 213.101 393.799 212.534 394.117 212.042C394.435 211.544 394.879 211.154 395.449 210.872C396.019 210.59 396.676 210.449 397.42 210.449C398.218 210.443 398.866 210.41 399.364 210.35C399.862 210.284 400.288 210.191 400.642 210.071C401.002 209.951 401.368 209.81 401.74 209.648ZM397.42 211.556C396.658 211.556 396.094 211.763 395.728 212.177C395.368 212.585 395.188 213.107 395.188 213.743C395.188 214.385 395.374 214.913 395.746 215.327C396.118 215.741 396.688 215.948 397.456 215.948C398.128 215.948 398.638 215.753 398.986 215.363C399.34 214.973 399.517 214.43 399.517 213.734C399.517 213.02 399.34 212.48 398.986 212.114C398.638 211.742 398.116 211.556 397.42 211.556ZM405.333 209.441L412.254 213.716V215.264L405.423 219.539L404.604 218.423L410.958 214.499L404.604 210.584L405.333 209.441Z" fill="#313131"/>
<defs>
<clipPath id="clip0_3034_40131">
<rect width="592" height="60" fill="white" transform="translate(24 217)"/>
</clipPath>
</defs>
</svg>
