<svg width="40" height="40" viewBox="0 0 40 40" fill="none" xmlns="http://www.w3.org/2000/svg">
<path fill-rule="evenodd" clip-rule="evenodd" d="M28.56 17.2074C32.3951 20.1132 31.9111 26.6176 27.4325 29.0376C27.6565 29.8019 28.2093 31.6621 28.2876 32.4038C27.9512 33.1898 27.2657 32.4679 26.7966 32.1607L25.0288 31.013C24.7809 30.8527 23.1928 29.8125 23.1188 29.8096C20.4212 29.704 18.562 30.1905 16.1164 28.5892C14.4521 27.4851 13.6834 26.1266 12.9867 24.3517C11.1237 24.3552 11.0913 24.029 9.58136 25.0096L7.15715 26.5615C6.73105 26.835 5.87777 27.6668 5.47594 27.1036C5.30739 26.8404 6.13223 24.1109 6.23178 23.6762C1.44841 21.0061 1.12598 14.4644 6.06359 11.8893C7.85472 10.9551 9.41166 11.1952 11.3487 11.1662C12.7299 11.1456 14.0783 11.1653 15.4613 11.2184L16.3244 11.48C18.2514 12.1586 19.7653 13.5041 20.4376 15.4804H23.6486C25.2729 15.4845 26.192 15.7531 27.6279 16.5007L28.56 17.2074ZM6.07741 22.5169C1.38227 19.4767 3.26332 12.3564 9.04951 12.0792L12.6191 12.0785C13.4992 12.0784 14.788 12.0079 15.6006 12.2105C21.6849 13.728 21.0951 22.6392 14.9802 23.392C14.4992 23.4504 13.9703 23.4322 13.4883 23.4324L11.5836 23.4314C11.0103 23.4356 10.4746 23.3236 9.97443 23.6409C8.87698 24.3376 7.8037 25.0797 6.67773 25.7295C6.8337 25.2118 6.95247 24.6344 7.08585 24.1316C7.38699 22.9961 6.84663 23.0151 6.07741 22.5169ZM20.8348 17.6772C20.8288 17.3393 20.786 17.0446 20.7412 16.7353C20.7249 16.6234 20.7084 16.5096 20.6933 16.3911C22.9329 16.2963 25.4441 16.1996 27.3586 17.4515C31.0648 19.875 31.2628 25.4013 27.524 27.8998C27.4411 27.9552 27.3432 28.0083 27.2419 28.0633C27.0064 28.191 26.7527 28.3287 26.6275 28.5277C26.4016 28.8867 26.7272 30.0498 26.9335 30.787C26.981 30.9566 27.0222 31.1037 27.0489 31.2132C26.6944 30.9563 26.2578 30.6848 25.8326 30.4205C25.5885 30.2687 25.3482 30.1193 25.1292 29.9762C24.7879 29.761 24.542 29.5881 24.3442 29.449C23.6953 28.9926 23.5644 28.9006 22.2819 28.8736C21.9027 28.8656 21.5377 28.8707 21.1822 28.8756C19.8491 28.8942 18.6483 28.9109 17.3193 28.2294C15.7354 27.4172 14.5431 26.0343 13.9916 24.3517C14.0955 24.3479 14.201 24.3453 14.3072 24.3426C14.6325 24.3344 14.9643 24.326 15.2774 24.2837C18.5039 23.8471 20.8925 20.8997 20.8348 17.6772Z" fill="#313131"/>
<path d="M20.8348 17.6772C20.8925 20.8997 18.5039 23.8471 15.2774 24.2837C14.9643 24.326 14.6325 24.3344 14.3072 24.3426C14.201 24.3453 14.0955 24.3479 13.9916 24.3517C14.5431 26.0343 15.7354 27.4172 17.3193 28.2294C18.6483 28.9109 19.8491 28.8942 21.1822 28.8756C21.5377 28.8707 21.9027 28.8656 22.2819 28.8736C23.5644 28.9006 23.6953 28.9926 24.3442 29.449C24.542 29.5881 24.7879 29.761 25.1292 29.9762C25.3482 30.1193 25.5885 30.2687 25.8326 30.4205C26.2578 30.6848 26.6944 30.9563 27.0489 31.2132C27.0222 31.1037 26.981 30.9566 26.9335 30.787C26.7272 30.0498 26.4016 28.8867 26.6275 28.5277C26.7527 28.3287 27.0064 28.191 27.2419 28.0633C27.3432 28.0083 27.4411 27.9552 27.524 27.8998C31.2628 25.4013 31.0648 19.875 27.3586 17.4515C25.4441 16.1996 22.9329 16.2963 20.6933 16.3911C20.7084 16.5096 20.7249 16.6234 20.7412 16.7353C20.786 17.0446 20.8288 17.3393 20.8348 17.6772Z" fill="#DEFFCC"/>
<path d="M9.04951 12.0792C3.26332 12.3564 1.38227 19.4767 6.07741 22.5169C6.84663 23.0151 7.38699 22.9961 7.08585 24.1316C6.95247 24.6344 6.8337 25.2118 6.67773 25.7295C7.8037 25.0797 8.87698 24.3376 9.97443 23.6409C10.4746 23.3236 11.0103 23.4356 11.5836 23.4314L13.4883 23.4324C13.9703 23.4322 14.4992 23.4504 14.9802 23.392C21.0951 22.6392 21.6849 13.728 15.6006 12.2105C14.788 12.0079 13.4992 12.0784 12.6191 12.0785L9.04951 12.0792Z" fill="#DEFFCC"/>
<path d="M11.7395 19.1099C10.9634 19.1581 10.2941 18.5702 10.2416 17.7943C10.189 17.0184 10.7731 16.3458 11.5487 16.289C12.3304 16.2317 13.0094 16.8214 13.0623 17.6034C13.1153 18.3854 12.5219 19.0613 11.7395 19.1099ZM11.5905 16.923C11.1644 16.9544 10.8437 17.3238 10.8724 17.75C10.9012 18.1762 11.2688 18.4993 11.6951 18.473C12.1251 18.4466 12.4514 18.0752 12.4224 17.6453C12.3933 17.2155 12.0201 16.8914 11.5905 16.923Z" fill="#313131"/>
<path d="M11.5905 16.923C11.1644 16.9544 10.8437 17.3238 10.8724 17.75C10.9012 18.1762 11.2688 18.4993 11.6951 18.473C12.1251 18.4466 12.4514 18.0752 12.4224 17.6453C12.3933 17.2155 12.0201 16.8914 11.5905 16.923Z" fill="#DBDBDB"/>
<path d="M15.4826 19.0979C14.7045 19.1395 14.0399 18.5424 13.9981 17.7642C13.9565 16.9859 14.5536 16.3212 15.3317 16.2794C16.11 16.2377 16.7748 16.8348 16.8164 17.6131C16.8581 18.3915 16.261 19.0563 15.4826 19.0979ZM15.3023 16.9186C14.882 16.9789 14.5883 17.3659 14.6435 17.787C14.6985 18.208 15.082 18.5064 15.5036 18.4564C15.781 18.4236 16.0193 18.2441 16.1273 17.9866C16.2355 17.729 16.1968 17.4332 16.026 17.2122C15.8553 16.9911 15.5787 16.879 15.3023 16.9186Z" fill="#313131"/>
<path d="M15.3023 16.9186C14.882 16.9789 14.5883 17.3659 14.6435 17.787C14.6985 18.208 15.082 18.5064 15.5036 18.4564C15.781 18.4236 16.0193 18.2441 16.1273 17.9866C16.2355 17.729 16.1968 17.4332 16.026 17.2122C15.8553 16.9911 15.5787 16.879 15.3023 16.9186Z" fill="#DBDBDB"/>
<path d="M8.18032 19.0705C7.41978 19.2037 6.69458 18.6972 6.55766 17.9373C6.42064 17.1774 6.92345 16.4497 7.68257 16.3089C8.44718 16.1672 9.18115 16.6743 9.31905 17.4395C9.45695 18.2048 8.94618 18.9364 8.18032 19.0705ZM7.87547 16.9205C7.45202 16.9583 7.14062 17.3342 7.18224 17.7574C7.22387 18.1805 7.6025 18.4885 8.02524 18.4431C8.44258 18.3983 8.74592 18.0255 8.70483 17.6077C8.66373 17.1899 8.2936 16.8832 7.87547 16.9205Z" fill="#313131"/>
<path d="M7.87547 16.9205C7.45202 16.9583 7.14062 17.3342 7.18224 17.7574C7.22387 18.1805 7.6025 18.4885 8.02524 18.4431C8.44258 18.3983 8.74592 18.0255 8.70483 17.6077C8.66373 17.1899 8.2936 16.8832 7.87547 16.9205Z" fill="#DBDBDB"/>
<path d="M25.5574 11.9825C25.2896 11.973 24.8936 11.8704 24.8578 11.5484C24.7419 10.504 24.7896 8.87154 24.831 7.77451C24.8547 7.43825 25.1202 7.29634 25.4119 7.23828C25.6833 7.2645 25.9306 7.38293 26.0282 7.65684C26.0997 7.85713 26.081 10.8681 26.0597 11.2283C26.0383 11.5898 25.9502 11.8723 25.5574 11.9825Z" fill="#313131"/>
<path d="M31.3535 14.3735C29.0542 14.1063 32.9864 11.0135 33.3901 10.8081C33.4657 10.8016 33.6468 10.7855 33.7089 10.81C35.1589 11.3825 32.5696 13.0615 32.232 13.5834C32.1018 13.7845 31.396 14.3531 31.3535 14.3735Z" fill="#313131"/>
<path d="M36.7354 19.9091C36.5442 19.9657 33.9297 19.9155 33.456 19.9309C32.9539 19.9472 32.3382 18.8843 33.7656 18.6331C34.2055 18.8091 36.671 18.3475 37.2779 18.8869C37.7159 19.2763 37.4774 19.9617 36.7354 19.9091Z" fill="#313131"/>
</svg>
