<svg width="64" height="64" viewBox="0 0 64 64" fill="none" xmlns="http://www.w3.org/2000/svg">
<path d="M35.7003 18.961L50.0494 18.9599C51.4262 18.9591 52.814 18.7829 53.806 19.9346C54.9379 21.2489 54.6427 22.9501 54.6424 24.6077L54.6417 40.5842C54.6403 44.2016 53.8775 44.93 50.1964 44.9301L14.589 44.9282C10.9405 44.9232 9.35139 44.8246 9.35394 40.6277L9.35265 36.3261C9.35007 35.9641 9.33294 35.5971 9.35551 35.2299C9.38946 34.6776 10.3922 34.2 10.3795 35.7581C10.3502 37.7194 10.3913 39.6864 10.3733 41.647C10.3495 44.2271 12.5797 43.9206 14.3042 43.9192L33.7647 43.9197L49.8338 43.9205C52.8515 43.9214 53.6659 43.9732 53.6568 40.6965L53.6574 23.0436C53.6582 22.6285 53.6567 22.235 53.6347 21.8176C53.5122 19.4951 50.5173 19.9626 48.948 19.963L13.8482 19.9621C10.3975 19.9581 10.3664 20.4682 10.3709 23.552L10.3752 27.0655C10.3757 27.6439 10.3884 28.2267 10.3588 28.8032C10.3329 29.3091 9.35402 29.6106 9.35419 28.3639C9.35436 26.9154 9.35345 25.471 9.35479 24.0229C9.3645 22.5287 9.08989 21.0259 10.2175 19.8566C11.3232 18.7102 12.9129 18.9601 14.3854 18.9614L35.7003 18.961Z" fill="#313131"/>
<path d="M29.687 23.8156L32.8974 23.8136C35.4031 23.8134 36.0351 23.6789 36.0206 26.4392C36.0116 28.1607 36.6431 30.8489 34.4926 31.1537L30.9219 31.1559C28.8135 31.1564 28.0544 31.419 28.0586 29.0277L28.0594 25.9625C28.0606 24.7917 28.228 23.922 29.687 23.8156ZM31.6354 30.1915L33.3751 30.1919C35.3681 30.1892 35.0224 30.0175 35.021 28.2956C35.0206 27.8677 35.1435 25.1959 34.878 24.9459C34.5977 24.6819 33.0251 24.7976 32.5857 24.7974C32.0467 24.7967 29.4781 24.6917 29.1721 24.943C28.9229 25.1477 29.0041 29.9034 29.152 30.1115C29.4919 30.2484 31.1817 30.193 31.6354 30.1915Z" fill="#313131"/>
<path d="M31.6354 30.1915L33.3751 30.1919C35.3681 30.1892 35.0224 30.0175 35.021 28.2956C35.0206 27.8677 35.1435 25.1959 34.878 24.9459C34.5977 24.6819 33.0251 24.7976 32.5857 24.7974C32.0467 24.7967 29.4781 24.6917 29.1721 24.943C28.9229 25.1477 29.0041 29.9034 29.152 30.1115C29.4919 30.2484 31.1817 30.193 31.6354 30.1915Z" fill="#CCE8FF"/>
<path d="M30.3242 25.4627C30.6964 25.4552 32.3764 25.3756 32.5694 25.5818C33.1641 26.2177 32.2771 26.4423 31.752 26.4305H31.1019C31.1374 27.3503 30.3869 27.2966 30.2455 27.0142C30.1004 26.7245 30.0016 25.6855 30.3242 25.4627Z" fill="#313131"/>
<path d="M19.6976 23.8208L22.8176 23.8186C24.174 23.819 25.8893 23.5734 25.9115 25.4904C25.9256 26.7029 25.9207 27.9223 25.9208 29.1349C25.921 30.1701 25.7953 31.1338 24.5383 31.1589L21.2281 31.1608C20.2102 31.1638 18.3167 31.3819 18.2405 29.8186C18.1642 28.5443 18.2471 27.2441 18.2133 25.9699C18.1852 24.9058 18.4642 23.9526 19.6976 23.8208ZM19.1793 29.8345C19.8152 30.5155 23.2898 30.1976 24.3762 30.1966C24.7438 30.1905 24.8863 30.1548 24.913 29.7703C24.9622 29.0605 25.0921 25.0244 24.639 24.8383C24.401 24.7406 20.3778 24.8028 19.8157 24.8025C18.901 24.893 19.1773 26.2328 19.1776 26.9726L19.1793 29.8345Z" fill="#313131"/>
<path d="M19.1793 29.8345C19.8152 30.5155 23.2898 30.1976 24.3762 30.1966C24.7438 30.1905 24.8863 30.1548 24.913 29.7703C24.9622 29.0605 25.0921 25.0244 24.639 24.8383C24.401 24.7406 20.3778 24.8028 19.8157 24.8025C18.901 24.893 19.1773 26.2328 19.1776 26.9726L19.1793 29.8345Z" fill="#CCE8FF"/>
<path d="M20.3169 25.4646C20.566 25.4635 23.7879 25.211 22.79 26.2695C22.5963 26.475 22.2668 26.4317 22.0111 26.4324H21.179C21.1138 27.0624 20.9111 27.5032 20.2231 27.0711C20.182 27.0452 20.0859 25.6379 20.3169 25.4646Z" fill="#313131"/>
<path d="M39.5404 23.8188C40.4433 23.7785 41.4329 23.8076 42.3627 23.8162C43.6632 23.8283 45.5874 23.4553 45.7457 25.301C45.84 26.403 45.7437 27.4887 45.7814 28.5781C45.822 29.7525 45.7587 30.9822 44.2953 31.157C43.9762 31.2117 43.5254 31.1632 43.1893 31.1605L40.869 31.1532C40.4025 31.1533 39.887 31.2167 39.4334 31.1752C37.5639 31.0043 38.1168 27.7603 38.0959 26.4376C38.0867 25.2818 38.0798 23.9848 39.5404 23.8188ZM39.0635 29.8326C39.187 29.9778 39.4205 30.2226 39.6223 30.2212L43.27 30.1972C43.5648 30.1995 44.0189 30.2316 44.2953 30.1947C45.0933 29.9376 44.7992 28.3908 44.7973 27.7188C44.7954 27.0548 45.0702 25.0883 44.3563 24.8408C44.0683 24.741 40.2689 24.798 39.65 24.8006C38.7905 24.9185 39.0602 26.0856 39.0603 26.7972L39.0635 29.8326Z" fill="#313131"/>
<path d="M39.0635 29.8326C39.187 29.9778 39.4205 30.2226 39.6223 30.2212L43.27 30.1972C43.5648 30.1995 44.0189 30.2316 44.2953 30.1947C45.0933 29.9376 44.7992 28.3908 44.7973 27.7188C44.7954 27.0548 45.0702 25.0883 44.3563 24.8408C44.0683 24.741 40.2689 24.798 39.65 24.8006C38.7905 24.9185 39.0602 26.0856 39.0603 26.7972L39.0635 29.8326Z" fill="#CCE8FF"/>
<path d="M40.4292 25.4668C40.994 25.4154 41.5779 25.4984 42.1445 25.4356C42.6422 25.3805 43.3923 26.4639 41.618 26.4345H41.0577C41.0605 26.8544 40.9179 27.4863 40.3358 27.1409C39.9813 26.9305 39.9417 25.5593 40.4292 25.4668Z" fill="#313131"/>
<path d="M48.2686 33.656C49.5668 33.6139 50.841 33.6725 50.845 35.3623C50.8478 36.5305 50.8524 37.6958 50.8441 38.8638C50.711 40.768 49.4623 40.5846 47.9225 40.5834L45.2378 40.5809C44.2446 40.5946 42.7224 40.5794 42.7299 39.1589C42.7353 38.1418 42.5846 35.5901 42.7998 34.699C43.0948 33.4769 44.6189 33.6533 45.558 33.6535L48.2686 33.656ZM43.694 39.3385C43.7716 39.4129 43.9521 39.5705 44.0666 39.574C45.7428 39.6248 47.792 39.6713 49.4531 39.594C50.2159 39.2938 49.8629 36.2719 49.867 35.3941C49.8691 34.9314 49.6844 34.6234 49.1824 34.6324C47.767 34.6578 45.4654 34.4924 44.1543 34.6448C44.001 34.6993 43.8262 34.7666 43.7515 34.9239C43.6259 35.1881 43.6933 38.734 43.694 39.3385Z" fill="#313131"/>
<path d="M43.694 39.3385C43.7716 39.4129 43.9521 39.5705 44.0666 39.574C45.7428 39.6248 47.792 39.6713 49.4531 39.594C50.2159 39.2938 49.8629 36.2719 49.867 35.3941C49.8691 34.9314 49.6844 34.6234 49.1824 34.6324C47.767 34.6578 45.4654 34.4924 44.1543 34.6448C44.001 34.6993 43.8262 34.7666 43.7515 34.9239C43.6259 35.1881 43.6933 38.734 43.694 39.3385Z" fill="#CCE8FF"/>
<path d="M14.6476 33.6558L18.1411 33.6538C19.5617 33.6538 21.1877 33.3741 21.1692 35.3922C21.1576 36.6547 21.2155 38.0322 21.1545 39.3041C21.1181 40.0626 20.5176 40.4758 19.8147 40.5807L16.3616 40.5818C15.3787 40.5819 13.3295 40.8151 13.2355 39.3501C13.1551 38.0957 13.213 36.8156 13.1946 35.5583C13.1802 34.5741 13.5956 33.7888 14.6476 33.6558ZM14.44 39.5938C15.0192 39.6146 15.689 39.5946 16.2764 39.5942L19.8147 39.5938C20.025 39.5527 20.1954 39.4817 20.1982 39.2296C20.2076 38.3923 20.4587 35.1059 19.9142 34.6863C18.3312 34.5137 16.2769 34.6731 14.6476 34.6446C14.3504 34.7172 14.2084 34.8417 14.1964 35.1681C14.1499 36.4258 14.1266 38.0992 14.1886 39.3383C14.2699 39.4219 14.3557 39.5147 14.44 39.5938Z" fill="#313131"/>
<path d="M14.44 39.5938C15.0192 39.6146 15.689 39.5946 16.2764 39.5942L19.8147 39.5938C20.025 39.5527 20.1954 39.4817 20.1982 39.2296C20.2076 38.3923 20.4587 35.1059 19.9142 34.6863C18.3312 34.5137 16.2769 34.6731 14.6476 34.6446C14.3504 34.7172 14.2084 34.8417 14.1964 35.1681C14.1499 36.4258 14.1266 38.0992 14.1886 39.3383C14.2699 39.4219 14.3557 39.5147 14.44 39.5938Z" fill="#CCE8FF"/>
<path d="M16.0959 35.2662C16.5378 35.2631 16.9786 35.2579 17.4203 35.2662C18.6846 36.2994 16.0994 36.2494 16.0953 36.2527L16.0959 36.3381C16.0981 36.6886 16.0303 36.9262 15.6496 37.0597C14.9498 37.3052 15.0755 35.5717 15.23 35.3467C15.3801 35.2356 15.8879 35.2666 16.0959 35.2662Z" fill="#313131"/>
<path d="M24.3742 33.6575C25.5217 33.7565 29.3828 33.4478 30.1634 33.851C31.3604 34.469 30.9516 36.6381 30.9503 37.7987C30.9489 39.0023 31.1681 40.193 29.6817 40.5823C27.9649 40.622 26.0314 40.6401 24.3393 40.5522C23.3766 40.4836 23.0638 39.6027 23.0787 38.7895C23.1069 37.2428 22.4346 33.9567 24.3742 33.6575ZM29.6817 39.5955C30.0691 39.3007 29.9936 38.752 29.9857 38.3163C29.9741 37.6727 30.0861 35.3145 29.9169 34.8731C29.5316 34.5481 25.0251 34.6766 24.3742 34.688C23.8112 34.935 24.0666 36.4031 24.0538 36.9845C23.9936 39.7211 23.6271 39.5972 25.9708 39.5978L29.6817 39.5955Z" fill="#313131"/>
<path d="M29.6817 39.5955C30.0691 39.3007 29.9936 38.752 29.9857 38.3163C29.9741 37.6727 30.0861 35.3145 29.9169 34.8731C29.5316 34.5481 25.0251 34.6766 24.3742 34.688C23.8112 34.935 24.0666 36.4031 24.0538 36.9845C23.9936 39.7211 23.6271 39.5972 25.9708 39.5978L29.6817 39.5955Z" fill="#CCE8FF"/>
<path d="M34.4931 33.6543C35.7422 33.5775 37.1188 33.7044 38.3782 33.6526C39.5537 33.6044 40.8334 33.6348 40.8619 35.1784C40.8843 36.3933 40.8603 37.6411 40.8706 38.8594C40.8867 39.7771 40.5309 40.4368 39.5444 40.5791L36.1132 40.5809C35.0094 40.5809 33.6312 40.8319 33.1686 39.5993C32.9671 39.0623 33.0592 35.5921 33.0978 34.9624C33.1428 34.2281 33.8149 33.7706 34.4931 33.6543ZM34.3253 39.5923C35.8514 39.641 38.0242 39.703 39.5444 39.5923C40.1427 39.3314 39.9008 38.2271 39.9046 37.7073C39.9079 37.2174 40.1389 34.9248 39.6332 34.7013C39.3448 34.5739 35.1462 34.6385 34.4931 34.643C34.0199 34.8989 34.0376 35.0049 34.0396 35.5483C34.0427 36.3784 33.8051 39.1065 34.3253 39.5923Z" fill="#313131"/>
<path d="M34.3253 39.5923C35.8514 39.641 38.0242 39.703 39.5444 39.5923C40.1427 39.3314 39.9008 38.2271 39.9046 37.7073C39.9079 37.2174 40.1389 34.9248 39.6332 34.7013C39.3448 34.5739 35.1462 34.6385 34.4931 34.643C34.0199 34.8989 34.0376 35.0049 34.0396 35.5483C34.0427 36.3784 33.8051 39.1065 34.3253 39.5923Z" fill="#CCE8FF"/>
</svg>
