<svg width="64" height="64" viewBox="0 0 64 64" fill="none" xmlns="http://www.w3.org/2000/svg">
<path d="M41.7692 14.266C41.8 13.5545 41.527 12.5711 42.3139 12.2062C43.3592 12.0991 43.3444 12.8 43.337 13.5966L43.3368 24.0464C49.2007 25.2303 49.1103 33.6187 43.3368 34.6096L43.3388 44.8518C43.3386 45.4761 43.5504 46.9202 42.5895 46.9206C41.5609 46.921 41.7523 45.7976 41.7692 45.0954C35.3004 40.4645 30.1603 38.2043 22.2437 36.4627C22.0467 38.5035 21.2785 39.8373 19.3054 40.6107C19.328 41.3687 19.6057 42.7375 19.7486 43.5436L20.683 48.6747C21.134 51.8699 19.6444 51.7015 17.149 51.7861C14.7736 51.8665 14.1668 51.4419 13.7268 49.1494L11.8044 38.4864C11.6867 37.8287 11.5088 37.0252 11.5071 36.372C9.25678 36.3228 7.21196 35.2896 6.80222 32.8454C6.64349 31.5427 6.60884 27.7115 6.78946 26.4651C7.33567 22.6959 10.8648 22.903 13.6821 22.9033L20.2364 22.907C26.9735 22.9092 36.4447 18.1872 41.7692 14.266ZM41.7692 16.1794C35.6246 20.1933 30.2001 22.9601 22.7675 24.2772V34.9845C24.8566 35.3491 27.2128 36.0128 29.2175 36.6899C34.2807 38.3998 37.4478 40.3085 41.7692 43.1302L41.7723 17.0191C41.7731 16.8217 41.7879 16.3402 41.7692 16.1794ZM10.8921 24.4665C8.64688 24.6313 8.28739 26.2202 8.29052 28.1294L8.29412 30.0968C8.2946 31.794 8.07271 34.4471 10.4898 34.7462C11.3712 34.8552 12.3897 34.8136 13.2914 34.8135L18.5659 34.8124H21.2117V24.4665H10.8921ZM43.3368 25.6258C43.2961 26.2756 43.3365 27.3575 43.3368 28.0526V33.1079C44.093 32.7822 44.539 32.5836 45.1381 31.9958C47.1007 29.8359 46.1753 26.3984 43.3368 25.6258ZM12.9974 36.372C13.1109 37.1463 13.2758 37.9324 13.4149 38.7045L14.3993 44.1436C14.5675 45.1056 15.1429 49.7226 15.823 50.2282C16.3553 50.2625 18.8086 50.3114 19.1188 50.1128C19.4089 49.6346 19.1662 49.0586 19.0713 48.537L17.5529 40.0196C17.34 38.8467 17.0918 37.5452 16.9163 36.372H12.9974ZM19.3054 36.372H18.5659C18.5421 37.0029 18.8296 38.3844 18.9686 39.0442C19.2117 38.9571 19.3823 38.8651 19.5926 38.7111C20.4187 38.0557 20.5427 37.3747 20.683 36.372H19.3054Z" fill="#313131"/>
<path d="M41.7692 16.1794C35.6246 20.1933 30.2001 22.9601 22.7675 24.2772V34.9845C24.8566 35.3491 27.2128 36.0128 29.2175 36.6899C34.2807 38.3998 37.4478 40.3085 41.7692 43.1302L41.7723 17.0191C41.7731 16.8217 41.7879 16.3402 41.7692 16.1794Z" fill="#CDCCFF"/>
<path d="M10.8921 24.4665C8.64688 24.6313 8.28739 26.2202 8.29052 28.1294L8.29412 30.0968C8.2946 31.794 8.07271 34.4471 10.4898 34.7462C11.3712 34.8552 12.3897 34.8136 13.2914 34.8135L18.5659 34.8124H21.2117V24.4665H10.8921Z" fill="#CDCCFF"/>
<path d="M12.9974 36.372C13.1109 37.1463 13.2758 37.9324 13.4149 38.7045L14.3993 44.1436C14.5675 45.1056 15.1429 49.7226 15.823 50.2282C16.3553 50.2625 18.8086 50.3114 19.1188 50.1128C19.4089 49.6346 19.1662 49.0586 19.0713 48.537L17.5529 40.0196C17.34 38.8467 17.0918 37.5452 16.9163 36.372H12.9974Z" fill="#CDCCFF"/>
<path d="M50.8847 24.6482C50.3139 24.6049 49.8434 24.0435 50.1697 23.5326C50.4544 23.0868 51.0963 22.5463 51.497 22.1557L53.3342 20.3482C53.8912 19.8045 54.6265 18.8233 55.3998 18.6484C55.9458 18.7055 56.4674 19.3007 56.0804 19.7524C55.6061 20.3059 55.0229 20.8355 54.5087 21.3519L52.525 23.3253C52.0638 23.7847 51.5499 24.5128 50.8847 24.6482Z" fill="#313131"/>
<path d="M10.8919 33.109C10.1937 33.224 9.94822 32.613 9.94071 32.0512C9.91844 30.3345 9.92784 28.6147 9.9273 26.8978C9.92717 26.4863 10.1627 26.2912 10.5185 26.1626C10.8594 26.1449 11.2781 26.2183 11.4233 26.5755C11.6527 27.1394 11.5259 32.5375 11.4439 32.7054C11.3381 32.9219 11.1041 33.0288 10.8919 33.109Z" fill="#313131"/>
<path d="M56.6326 30.3094L52.7583 30.311C52.0851 30.3108 51.4263 30.3241 50.7404 30.294C49.8512 30.2549 49.5877 28.9374 50.7478 28.7528L54.4525 28.75C55.1329 28.75 55.7847 28.7499 56.4918 28.7604C57.5723 28.7762 57.608 30.0838 56.6326 30.3094Z" fill="#313131"/>
<path d="M55.5911 40.1641C54.7545 40.2026 51.2151 36.4509 50.4674 35.6673C49.8781 35.0496 49.9355 34.5051 50.7464 34.1961C51.5287 34.1343 55.0621 37.9513 55.8735 38.7109C56.4419 39.2429 56.3611 39.9275 55.5911 40.1641Z" fill="#313131"/>
</svg>
