<svg width="64" height="64" viewBox="0 0 64 64" fill="none" xmlns="http://www.w3.org/2000/svg">
<path d="M9.58669 43.0329L9.58634 19.9165C9.58518 18.1411 9.05294 15.624 11.3685 15.2446C11.3857 15.2434 11.4031 15.2421 11.4203 15.2409L50.7529 15.243C53.2682 15.2424 54.5446 15.054 54.5315 17.8901L54.5274 43.0329L56.2912 43.0282C56.9734 43.0272 57.8003 42.8391 57.7962 43.7419C57.7786 47.5302 56.318 48.7275 52.6168 48.7255L11.6559 48.7275C11.1137 48.7316 10.5477 48.7703 10.0091 48.7023C8.20367 48.4745 6.29624 47.033 6.24506 45.0935C6.17216 42.3306 6.64791 43.0277 9.58669 43.0329ZM11.3685 16.4678C10.7266 16.7958 10.796 17.2863 10.7939 17.9193L10.7998 43.0329H52.8735H53.3069L53.3072 20.2273C53.307 19.2706 53.3146 18.294 53.2974 17.3388C53.2752 16.0984 51.8107 16.4663 50.822 16.4663L11.3685 16.4678ZM25.229 44.2589H7.45542C7.43056 46.3188 8.59181 47.5142 10.7051 47.5121L41.0169 47.4987L52.2906 47.5001C54.7895 47.5002 56.5725 47.2031 56.5595 44.2589L38.9651 44.2586C38.3074 44.2585 37.4382 44.2285 36.8045 44.2589C36.7979 46.8093 36.9779 46.4347 34.3807 46.4365L29.0484 46.4363C26.7784 46.4345 27.1593 46.504 27.1649 44.2589H25.229ZM28.4055 44.2589C28.4028 44.5831 28.4014 44.9027 28.4055 45.2272H35.5952V44.2589C33.2283 44.2587 30.7634 44.221 28.4055 44.2589Z" fill="#313131"/>
<path d="M11.3685 16.4678C10.7266 16.7958 10.796 17.2863 10.7939 17.9193L10.7998 43.0329H52.8735H53.3069L53.3072 20.2273C53.307 19.2706 53.3146 18.294 53.2974 17.3388C53.2752 16.0984 51.8107 16.4663 50.822 16.4663L11.3685 16.4678Z" fill="#CCE8FF"/>
<path d="M25.229 44.2589H7.45542C7.43056 46.3188 8.59181 47.5142 10.7051 47.5121L41.0169 47.4987L52.2906 47.5001C54.7895 47.5002 56.5725 47.2031 56.5595 44.2589L38.9651 44.2586C38.3074 44.2585 37.4382 44.2285 36.8045 44.2589C36.7979 46.8093 36.9779 46.4347 34.3807 46.4365L29.0484 46.4363C26.7784 46.4345 27.1593 46.504 27.1649 44.2589H25.229Z" fill="#DBDBDB"/>
<path d="M28.4055 44.2589C28.4028 44.5831 28.4014 44.9027 28.4055 45.2272H35.5952V44.2589C33.2283 44.2587 30.7634 44.221 28.4055 44.2589Z" fill="#CDCCFF"/>
<path d="M31.1036 37.7243L17.4685 37.7256C14.6495 37.7263 14.963 38.0517 14.9639 35.4323L14.9686 21.7114C14.9735 21.1627 15.2093 21.0441 15.7169 21.0106L29.4923 21.0085C32.294 20.9991 31.7984 20.8988 31.7977 23.6395L31.7964 34.0167C31.7972 35.0426 31.8065 36.0689 31.7956 37.0945C31.7899 37.6205 31.5617 37.693 31.1036 37.7243ZM16.1747 22.2327C16.1792 22.553 16.188 22.8771 16.1747 23.1969H30.576C30.5748 22.8788 30.5692 22.5498 30.576 22.2327H16.1747ZM16.1747 24.4362L16.1192 24.4767C16.234 25.6017 16.1751 27.5571 16.175 28.7433L16.1747 36.5077H30.459L30.5466 36.4881C30.646 36.1012 30.5755 33.7233 30.5748 33.1941L30.576 24.4362H16.1747Z" fill="#313131"/>
<path d="M16.1747 24.4362L16.1192 24.4767C16.234 25.6017 16.1751 27.5571 16.175 28.7433L16.1747 36.5077H30.459L30.5466 36.4881C30.646 36.1012 30.5755 33.7233 30.5748 33.1941L30.576 24.4362H16.1747Z" fill="#DEFFCC"/>
<path d="M36.7068 22.5502C36.0469 22.5559 34.2464 22.7259 34.9821 21.5507C35.0876 21.3825 35.2755 21.3455 35.4807 21.32C35.8378 21.3104 36.7065 21.2529 36.9666 21.4206C37.489 21.7574 37.2898 22.3978 36.7068 22.5502Z" fill="#313131"/>
<path d="M47.2332 22.5486L42.0625 22.549C41.1836 22.549 40.2868 22.559 39.4074 22.5401C38.5482 22.5217 38.3381 21.4323 39.4729 21.3184C40.9986 21.2697 42.8047 21.3189 44.3521 21.3189L46.3148 21.3162C46.6979 21.3133 47.1504 21.2898 47.5233 21.3184C48.0319 21.7627 47.9809 22.4723 47.2332 22.5486Z" fill="#313131"/>
<path d="M36.7031 27.0211C35.9999 27.0497 34.1869 27.2006 35.0116 25.9895C35.1052 25.8521 35.3047 25.836 35.477 25.822C35.9174 25.7986 36.4598 25.7941 36.8987 25.822C37.4426 26.2383 37.4149 26.8538 36.7031 27.0211Z" fill="#313131"/>
<path d="M43.4784 27.0228C42.8363 27.0236 39.3631 27.1147 39.0363 26.9399C38.4427 26.6223 38.704 25.9426 39.2717 25.8236C40.4578 25.7215 42.1938 25.8091 43.3952 25.8367C44.2063 25.8552 44.3187 26.9132 43.4784 27.0228Z" fill="#313131"/>
<path d="M20.9171 28.9079C20.3331 29.3836 18.0317 31.8486 17.4557 31.6869C15.782 31.2173 20.4364 27.6222 20.7806 27.4385C21.3959 27.4048 21.9707 28.2259 22.3796 28.6295L25.0524 31.2982C25.8837 30.4679 26.5288 29.2454 27.5021 30.2262C28.151 30.8802 28.8301 31.5058 29.4391 32.1972C29.9066 32.7277 29.2789 33.4192 28.7184 33.1083C28.0491 32.5482 27.4759 31.8557 26.803 31.2982C26.5269 31.5219 26.2103 31.8498 25.9516 32.1035C25.5634 32.5 25.1206 33.102 24.5833 32.5427C23.3896 31.3002 22.1391 30.1206 20.9171 28.9079Z" fill="#313131"/>
<path d="M47.3932 37.7234L36.5707 37.7258C35.7253 37.7259 34.8135 37.9981 34.8034 36.9866C34.7931 35.9461 34.4268 30.8797 35.1936 30.4982C36.0127 30.4686 37.0354 30.4969 37.8685 30.4973L46.0591 30.496C46.7988 30.4957 47.8138 30.2222 47.8284 31.2528C47.8524 32.9276 47.8096 34.6021 47.8411 36.2767C47.8517 36.8436 47.954 37.4013 47.3932 37.7234ZM36.0236 31.7337C36.0007 33.3045 36.0239 34.9301 36.0236 36.5067H40.7691V31.7337H36.0236ZM41.9793 31.7337C42.0023 32.2907 41.9805 32.8437 41.9793 33.4012V36.5067H46.6276C46.6754 35.0114 46.6272 33.253 46.6276 31.7337H41.9793Z" fill="#313131"/>
<path d="M41.9793 31.7337C42.0023 32.2907 41.9805 32.8437 41.9793 33.4012V36.5067H46.6276C46.6754 35.0114 46.6272 33.253 46.6276 31.7337H41.9793Z" fill="#DEFFCC"/>
<path d="M36.0236 31.7337C36.0007 33.3045 36.0239 34.9301 36.0236 36.5067H40.7691V31.7337H36.0236Z" fill="#DEFFCC"/>
</svg>
