<svg width="305" height="308" viewBox="0 0 305 308" fill="none" xmlns="http://www.w3.org/2000/svg">
<rect x="0.75" y="0.75" width="278.5" height="278.5" fill="#CDCCFF"/>
<rect x="0.75" y="0.75" width="278.5" height="278.5" stroke="#313131" stroke-width="1.5"/>
<path d="M41.549 38.607L42.251 51H40.748L40.361 44.529C40.343 44.091 40.325 43.647 40.307 43.197C40.289 42.747 40.277 42.315 40.271 41.901C40.265 41.487 40.262 41.118 40.262 40.794C40.262 40.47 40.262 40.218 40.262 40.038L38.174 48.777H36.608L34.367 40.038C34.373 40.212 34.379 40.47 34.385 40.812C34.391 41.148 34.394 41.529 34.394 41.955C34.4 42.381 34.397 42.819 34.385 43.269C34.379 43.713 34.367 44.127 34.349 44.511L34.016 51H32.549L33.251 38.607H35.429L37.436 47.094L39.353 38.607H41.549ZM48.211 41.325C49.105 41.325 49.852 41.529 50.452 41.937C51.058 42.339 51.511 42.909 51.811 43.647C52.117 44.385 52.27 45.255 52.27 46.257C52.27 47.223 52.114 48.078 51.802 48.822C51.49 49.566 51.031 50.151 50.425 50.577C49.825 50.997 49.081 51.207 48.193 51.207C47.305 51.207 46.558 51.003 45.952 50.595C45.346 50.187 44.887 49.614 44.575 48.876C44.269 48.132 44.116 47.265 44.116 46.275C44.116 45.297 44.272 44.436 44.584 43.692C44.896 42.948 45.355 42.369 45.961 41.955C46.573 41.535 47.323 41.325 48.211 41.325ZM48.211 42.558C47.395 42.558 46.777 42.861 46.357 43.467C45.943 44.067 45.736 45.003 45.736 46.275C45.736 47.523 45.94 48.45 46.348 49.056C46.762 49.662 47.377 49.965 48.193 49.965C49.009 49.965 49.621 49.662 50.029 49.056C50.443 48.45 50.65 47.517 50.65 46.257C50.65 44.997 50.446 44.067 50.038 43.467C49.63 42.861 49.021 42.558 48.211 42.558ZM62.5229 41.523V49.767L61.7489 51H55.5119L54.6929 49.767C54.9809 49.515 55.2179 49.206 55.4039 48.84C55.5959 48.474 55.7549 47.958 55.8809 47.292C56.0069 46.626 56.1089 45.723 56.1869 44.583L56.4029 41.523H62.5229ZM60.9839 42.756H57.7709L57.6629 44.475C57.6089 45.345 57.5399 46.077 57.4559 46.671C57.3779 47.259 57.2759 47.748 57.1499 48.138C57.0299 48.522 56.8739 48.84 56.6819 49.092C56.4959 49.338 56.2649 49.563 55.9889 49.767H60.9839V42.756ZM54.0539 49.767H56.1599L56.2139 51H55.5749L55.3139 53.646H54.0539V49.767ZM63.2159 49.767V53.646H61.9649L61.6949 51H61.0649L61.1099 49.767H63.2159ZM74.0719 41.523L70.7419 51.063C70.5199 51.705 70.2379 52.293 69.8959 52.827C69.5599 53.361 69.1189 53.802 68.5729 54.15C68.0329 54.504 67.3459 54.723 66.5119 54.807L66.2779 53.601C66.9319 53.493 67.4479 53.328 67.8259 53.106C68.2039 52.884 68.5009 52.599 68.7169 52.251C68.9389 51.903 69.1339 51.486 69.3019 51H68.7979L65.4859 41.523H67.1059L69.8239 49.848L72.5059 41.523H74.0719ZM84.3519 41.523V51H82.8399V42.783H79.2939L79.0779 45.285C78.9999 46.341 78.9009 47.202 78.7809 47.868C78.6669 48.528 78.5169 49.062 78.3309 49.47C78.1449 49.878 77.9079 50.211 77.6199 50.469C77.3379 50.721 76.9869 50.964 76.5669 51.198L75.9279 50.226C76.1499 50.088 76.3479 49.935 76.5219 49.767C76.6959 49.593 76.8519 49.344 76.9899 49.02C77.1339 48.696 77.2569 48.243 77.3589 47.661C77.4669 47.079 77.5569 46.311 77.6289 45.357L77.9259 41.523H84.3519ZM89.7448 41.523V44.511H91.6078C92.5918 44.511 93.3718 44.646 93.9478 44.916C94.5298 45.18 94.9438 45.555 95.1898 46.041C95.4418 46.521 95.5678 47.085 95.5678 47.733C95.5678 48.489 95.3938 49.11 95.0458 49.596C94.6978 50.076 94.2478 50.43 93.6958 50.658C93.1438 50.886 92.5588 51 91.9408 51H88.2328V41.523H89.7448ZM91.5808 45.699H89.7448V49.785H91.7698C92.4058 49.785 92.9278 49.641 93.3358 49.353C93.7438 49.059 93.9478 48.522 93.9478 47.742C93.9478 47.064 93.7798 46.554 93.4438 46.212C93.1138 45.87 92.4928 45.699 91.5808 45.699ZM114.274 38.607V50.64H112.762V40.245L109.918 41.973L109.261 40.893L112.951 38.607H114.274ZM116.866 49.767V51H109.711V49.767H116.866Z" fill="#313131"/>
<path d="M230.758 49.7431L236 44.5005M236 44.5005L241.243 39.2578M236 44.5005L230.758 39.2578M236 44.5005L241.243 49.7431" stroke="#313131" stroke-width="1.5" stroke-linecap="round" stroke-linejoin="round"/>
<path d="M39.5431 221.69C37.2468 219.756 36.6831 216.403 38.1157 213.757C38.5637 212.93 39.423 212.057 40.0424 211.323L47.0855 202.959C48.9311 200.768 49.5849 199.285 52.8166 199.295L84.0545 199.289C85.5013 199.297 86.7662 200.005 88.0194 200.635C88.8059 201.031 90.2286 201.474 88.9816 202.557C88.9671 204.034 89.166 205.647 89.8976 206.922C90.7728 208.448 90.8388 208.204 89.7166 209.532C89.2226 210.117 88.2986 211.118 87.9042 211.762L87.8658 211.825L88.0708 211.821C90.0095 211.771 89.1273 213.459 89.0311 214.317C88.8842 215.627 89.1313 216.766 89.6619 217.969C89.7541 218.288 90.7644 219.221 90.6574 219.517C90.4708 220.032 89.3932 221.218 89.0467 221.644L81.56 230.746C80.2989 232.257 80.5191 232.713 78.576 232.703L76.7299 232.697L41.7841 232.719C40.7992 232.719 39.8063 232.155 39.125 231.466C36.4606 228.776 36.9642 224.3 39.5431 221.69ZM52.2724 200.926C50.4984 200.977 49.8175 202.216 48.7737 203.474L41.7195 211.825H76.7299H79.2498C81.8022 208.482 84.7407 205.391 87.3198 202.101C85.191 201.02 84.8668 200.922 82.6124 200.924L54.0558 200.924C53.5957 200.924 52.6899 200.892 52.2724 200.926ZM87.443 204.49C86.3964 205.719 85.3986 207.008 84.3542 208.239L81.4125 211.759C79.652 213.886 76.9785 216.977 78.9838 219.872L79.2498 219.576L87.5228 209.532C87.9245 209.056 88.2989 208.578 88.7487 208.147C88.0494 207.032 87.5547 204.652 87.443 204.49ZM86.5423 213.338C84.027 216.145 81.6974 219.174 79.2577 222.046C78.841 222.537 78.0332 222.426 77.4669 222.423L44.679 222.419C43.077 222.419 41.4199 222.065 40.2708 223.328C38.5379 225.232 38.5952 229.41 40.9821 230.814C41.9724 231.291 44.7551 231.076 45.964 231.075L78.3613 231.074C78.1678 230.549 77.9414 230.025 77.7822 229.498C76.516 225.306 79.6453 222.892 81.9463 219.996C83.7132 217.773 85.576 215.571 87.3198 213.338H86.5423ZM49.6671 213.462L44.1097 213.461C42.7476 213.461 41.1753 213.18 40.1644 214.181C38.6205 215.682 38.6767 218.547 40.1708 220.059C41.2328 221.134 42.9904 220.8 44.4313 220.8L68.1718 220.799H77.5675C76.1348 218.265 76.5735 215.912 77.9415 213.462H49.6671ZM87.3198 215.827C86.2895 217.63 83.1584 221.066 81.7618 222.784C79.7641 225.24 78.1381 226.845 79.8533 230.239L80.1707 229.843L85.7576 223.039C86.7402 221.845 87.7837 220.654 88.7487 219.455C87.5896 217.749 87.8902 217.038 87.3198 215.827Z" fill="#313131"/>
<path d="M52.2724 200.926C50.4984 200.977 49.8175 202.216 48.7737 203.474L41.7195 211.825H76.7299H79.2498C81.8022 208.482 84.7407 205.391 87.3198 202.101C85.191 201.02 84.8668 200.922 82.6124 200.924L54.0558 200.924C53.5957 200.924 52.6899 200.892 52.2724 200.926Z" fill="#DEFFCC"/>
<path d="M86.5423 213.338C84.027 216.145 81.6974 219.174 79.2577 222.046C78.841 222.537 78.0332 222.426 77.4669 222.423L44.679 222.419C43.077 222.419 41.4199 222.065 40.2708 223.328C38.5379 225.232 38.5952 229.41 40.9821 230.814C41.9724 231.291 44.7551 231.076 45.964 231.075L78.3613 231.074C78.1678 230.549 77.9414 230.025 77.7822 229.498C76.516 225.306 79.6453 222.892 81.9463 219.996C83.7132 217.773 85.576 215.571 87.3198 213.338H86.5423Z" fill="#CDCCFF"/>
<path d="M74.4071 227.506L49.1079 227.507C48.4372 227.507 45.3749 227.652 44.8977 227.343C44.1741 226.875 44.6579 225.994 45.4499 225.891L74.218 225.894C75.9823 226.024 75.3853 227.431 74.4071 227.506Z" fill="#313131"/>
<path d="M282.65 292.071L278.295 307.234L260.711 263.195L304.589 281.101L290.07 285.134L303.137 299.007L296.523 305.783L282.65 292.071Z" fill="#313131"/>
</svg>
