<svg width="64" height="64" viewBox="0 0 64 64" fill="none" xmlns="http://www.w3.org/2000/svg">
<path d="M33.1895 54.6354C20.6967 55.2927 10.0337 45.7042 9.36501 33.2122C8.69636 20.72 18.275 10.0482 30.7665 9.36811C43.2742 8.68711 53.9628 18.2808 54.6324 30.7892C55.3019 43.2975 45.6983 53.9774 33.1895 54.6354ZM31.3041 10.8534C29.4456 10.935 28.4391 11.0765 26.6202 11.5083C26.9334 12.2384 26.5965 13.2749 26.3207 13.9902C25.3544 16.4968 21.6888 16.2202 20.2303 18.3247C19.5182 19.3524 19.0298 20.6197 17.4521 20.0085C16.2268 19.5188 16.6227 18.3834 16.7178 17.4507C13.2807 20.9658 10.8769 26.2412 10.8315 31.2223C14.2651 31.8143 13.355 33.3716 14.895 34.7599C16.344 36.066 19.2387 36.3538 18.7342 39.0835C18.5277 40.2005 17.8339 41.0644 17.4749 42.1205C16.8801 43.8907 17.9023 43.8852 15.5807 45.4036C18.9585 49.7436 24.2099 52.3678 29.621 53.0995C39.5941 54.4479 50.046 47.3885 52.4769 37.5559C52.7623 36.467 52.8772 35.2092 53.1729 34.2095C52.5329 33.7513 52.0497 33.3815 51.5482 32.7577C50.6017 31.5803 50.5813 30.1922 48.915 29.8614C48.5729 31.5194 47.19 32.8466 45.7771 33.6834C47.9848 35.8679 43.7292 38.2134 42.836 39.9543C42.4185 40.768 42.7555 41.5708 42.6742 42.4327C42.4452 44.7324 40.9717 46.8287 39.3794 48.4334C38.0641 49.759 35.5687 50.9189 34.5738 48.6626C34.1551 47.4706 33.0288 44.4004 33.0347 43.4963C33.0389 42.8644 33.3742 42.3361 33.3515 41.7475C33.3117 40.7218 32.596 39.826 32.2965 38.8548C32.1219 38.2892 32.1396 37.7815 32.0132 37.2557L31.972 37.2286C31.1877 36.7226 30.343 37.0016 29.4712 36.9118C25.1251 36.4645 24.3233 31.4647 26.3296 28.2852C26.934 27.3275 27.8058 26.8188 28.622 26.1044C25.9549 24.1233 28.927 20.4321 31.22 20.2252C31.5967 20.1913 32.0815 20.0313 32.3809 19.8378C30.7542 18.6877 31.0243 17.9507 32.2141 16.3264C34.4033 13.3379 37.8638 13.9659 40.8062 15.0428C41.5594 14.6942 42.2357 14.2703 42.971 13.8928C39.3343 11.8899 35.5487 10.5975 31.3041 10.8534ZM25.3255 11.9412C22.4407 12.7639 19.9192 14.4886 17.6573 16.408C18.331 17.0618 18.1762 17.4918 18.0206 18.3357C17.8507 19.1537 18.5745 18.2474 18.7164 17.9712C20.5677 14.3666 24.7804 16.1345 25.3511 11.9648L25.3255 11.9412ZM44.3805 14.8279C43.7593 15.1633 41.6331 16.3779 41.1107 16.5003C40.4396 16.6576 39.6582 16.1327 39.0464 15.9236C36.5482 15.0702 33.7707 15.7684 32.7106 18.3357C33.1597 18.5595 33.6186 18.8769 33.7421 19.374C34.1784 21.1303 32.421 21.4968 31.1584 21.7015C30.2668 21.846 27.8037 24.071 29.8166 25.0912C30.4702 24.306 31.5614 23.7258 32.581 23.6314C34.94 23.4129 36.0499 25.7734 38.1183 26.1987C38.886 26.3771 40.2947 25.8998 40.764 26.2772C41.01 26.4752 41.05 27.0083 40.797 27.2251C39.698 28.1677 37.0564 27.5591 35.9251 26.8528C34.6747 26.0721 33.5703 24.4466 31.9113 25.3015C31.4525 25.5379 28.8455 27.7022 28.3109 28.1966C26.759 29.6326 25.9772 32.8953 27.6154 34.565C29.3256 36.308 31.4339 34.781 33.0054 36.2476C33.6556 36.8546 33.3522 37.6482 33.6224 38.3758C34.0822 39.6141 34.8002 40.4851 34.7712 41.8867C34.757 42.5797 34.4874 43.1123 34.4958 43.7606C34.5103 44.8747 35.4682 46.4672 35.7714 47.7752C36.5622 50.6143 41.2151 44.8148 41.2257 42.3245C41.2311 41.0198 40.9569 40.6281 41.4941 39.3929C42.1825 37.8099 44.6012 36.424 44.9495 34.9456C44.2681 34.987 43.6438 35.068 43.0899 34.5723C42.333 33.8952 40.4017 30.5148 40.3787 29.5356C40.3638 28.9102 41.2808 28.6048 41.657 29.1052C41.787 29.2783 42.0377 30.1495 42.1844 30.4507C42.6848 31.4774 43.3015 32.4977 43.9552 33.4345C45.0558 32.4074 46.7509 31.4705 47.3635 30.1303C46.0647 29.9735 44.0528 29.1129 44.1102 27.5672C44.131 27.0058 45.0663 26.8818 45.2415 27.1771C46.139 28.689 46.969 28.8318 48.6493 28.5126C51.1612 28.0354 51.8208 31.0314 53.1729 32.3534C53.228 26.5594 51.0778 21.1188 47.0093 16.9847C46.6686 16.6385 44.7222 14.8057 44.3805 14.8279ZM10.8315 32.6908C10.7893 36.2768 12.4281 41.4298 14.7228 44.1968C15.2135 43.9175 15.9208 43.472 15.9703 42.852C15.9187 41.412 16.6022 40.7024 17.1235 39.4297C17.9891 37.3163 15.4164 37.1363 14.0841 35.9884C12.6748 34.8323 12.9271 33.0157 10.8315 32.6908Z" fill="#313131"/>
<path d="M31.3041 10.8534C29.4456 10.935 28.4391 11.0765 26.6202 11.5083C26.9334 12.2384 26.5965 13.2749 26.3207 13.9902C25.3544 16.4968 21.6888 16.2202 20.2303 18.3247C19.5182 19.3524 19.0298 20.6197 17.4521 20.0085C16.2268 19.5188 16.6227 18.3834 16.7178 17.4507C13.2807 20.9658 10.8769 26.2412 10.8315 31.2223C14.2651 31.8143 13.355 33.3716 14.895 34.7599C16.344 36.066 19.2387 36.3538 18.7342 39.0835C18.5277 40.2005 17.8339 41.0644 17.4749 42.1205C16.8801 43.8907 17.9023 43.8852 15.5807 45.4036C18.9585 49.7436 24.2099 52.3678 29.621 53.0995C39.5941 54.4479 50.046 47.3885 52.4769 37.5559C52.7623 36.467 52.8772 35.2092 53.1729 34.2095C52.5329 33.7513 52.0497 33.3815 51.5482 32.7577C50.6017 31.5803 50.5813 30.1922 48.915 29.8614C48.5729 31.5194 47.19 32.8466 45.7771 33.6834C47.9848 35.8679 43.7292 38.2134 42.836 39.9543C42.4185 40.768 42.7555 41.5708 42.6742 42.4327C42.4452 44.7324 40.9717 46.8287 39.3794 48.4334C38.0641 49.759 35.5687 50.9189 34.5738 48.6626C34.1551 47.4706 33.0288 44.4004 33.0347 43.4963C33.0389 42.8644 33.3742 42.3361 33.3515 41.7475C33.3117 40.7218 32.596 39.826 32.2965 38.8548C32.1219 38.2892 32.1396 37.7815 32.0132 37.2557L31.972 37.2286C31.1877 36.7226 30.343 37.0016 29.4712 36.9118C25.1251 36.4645 24.3233 31.4647 26.3296 28.2852C26.934 27.3275 27.8058 26.8188 28.622 26.1044C25.9549 24.1233 28.927 20.4321 31.22 20.2252C31.5967 20.1913 32.0815 20.0313 32.3809 19.8378C30.7542 18.6877 31.0243 17.9507 32.2141 16.3264C34.4033 13.3379 37.8638 13.9659 40.8062 15.0428C41.5594 14.6942 42.2357 14.2703 42.971 13.8928C39.3343 11.8899 35.5487 10.5975 31.3041 10.8534Z" fill="#CCE8FF"/>
<path d="M44.3805 14.8279C43.7593 15.1633 41.6331 16.3779 41.1107 16.5003C40.4396 16.6576 39.6582 16.1327 39.0464 15.9236C36.5482 15.0702 33.7707 15.7684 32.7106 18.3357C33.1597 18.5595 33.6186 18.8769 33.7421 19.374C34.1784 21.1303 32.421 21.4968 31.1584 21.7015C30.2668 21.846 27.8037 24.071 29.8166 25.0912C30.4702 24.306 31.5614 23.7258 32.581 23.6314C34.94 23.4129 36.0499 25.7734 38.1183 26.1987C38.886 26.3771 40.2947 25.8998 40.764 26.2772C41.01 26.4752 41.05 27.0083 40.797 27.2251C39.698 28.1677 37.0564 27.5591 35.9251 26.8528C34.6747 26.0721 33.5703 24.4466 31.9113 25.3015C31.4525 25.5379 28.8455 27.7022 28.3109 28.1966C26.759 29.6326 25.9772 32.8953 27.6154 34.565C29.3256 36.308 31.4339 34.781 33.0054 36.2476C33.6556 36.8546 33.3522 37.6482 33.6224 38.3758C34.0822 39.6141 34.8002 40.4851 34.7712 41.8867C34.757 42.5797 34.4874 43.1123 34.4958 43.7606C34.5103 44.8747 35.4682 46.4672 35.7714 47.7752C36.5622 50.6143 41.2151 44.8148 41.2257 42.3245C41.2311 41.0198 40.9569 40.6281 41.4941 39.3929C42.1825 37.8099 44.6012 36.424 44.9495 34.9456C44.2681 34.987 43.6438 35.068 43.0899 34.5723C42.333 33.8952 40.4017 30.5148 40.3787 29.5356C40.3638 28.9102 41.2808 28.6048 41.657 29.1052C41.787 29.2783 42.0377 30.1495 42.1844 30.4507C42.6848 31.4774 43.3015 32.4977 43.9552 33.4345C45.0558 32.4074 46.7509 31.4705 47.3635 30.1303C46.0647 29.9735 44.0528 29.1129 44.1102 27.5672C44.131 27.0058 45.0663 26.8818 45.2415 27.1771C46.139 28.689 46.969 28.8318 48.6493 28.5126C51.1612 28.0354 51.8208 31.0314 53.1729 32.3534C53.228 26.5594 51.0778 21.1188 47.0093 16.9847C46.6686 16.6385 44.7222 14.8057 44.3805 14.8279Z" fill="#DEFFCC"/>
<path d="M10.8315 32.6908C10.7893 36.2768 12.4281 41.4298 14.7228 44.1968C15.2135 43.9175 15.9208 43.472 15.9703 42.852C15.9187 41.412 16.6022 40.7024 17.1235 39.4297C17.9891 37.3163 15.4164 37.1363 14.0841 35.9884C12.6748 34.8323 12.9271 33.0157 10.8315 32.6908Z" fill="#DEFFCC"/>
<path d="M25.3255 11.9412C22.4407 12.7639 19.9192 14.4886 17.6573 16.408C18.331 17.0618 18.1762 17.4918 18.0206 18.3357C17.8507 19.1537 18.5745 18.2474 18.7164 17.9712C20.5677 14.3666 24.7804 16.1345 25.3511 11.9648L25.3255 11.9412Z" fill="#DEFFCC"/>
</svg>
