<svg width="83" height="84" viewBox="0 0 83 84" fill="none" xmlns="http://www.w3.org/2000/svg">
<rect x="0.75" y="0.75" width="78.5" height="78.5" rx="39.25" fill="#F4F4F4"/>
<rect x="0.75" y="0.75" width="78.5" height="78.5" rx="39.25" stroke="#313131" stroke-width="1.5"/>
<path d="M46 36.4C46 34.7026 45.3679 33.0748 44.2426 31.8745C43.1174 30.6743 41.5913 30 40 30C38.4087 30 36.8826 30.6743 35.7574 31.8745C34.6321 33.0748 34 34.7026 34 36.4C34 43.8667 31 46 31 46H49C49 46 46 43.8667 46 36.4Z" stroke="#313131" stroke-width="1.5" stroke-linecap="round" stroke-linejoin="round"/>
<path d="M41.7295 49C41.5537 49.3031 41.3014 49.5547 40.9977 49.7295C40.6941 49.9044 40.3499 49.9965 39.9995 49.9965C39.6491 49.9965 39.3049 49.9044 39.0013 49.7295C38.6977 49.5547 38.4453 49.3031 38.2695 49" stroke="#313131" stroke-width="1.5" stroke-linecap="round" stroke-linejoin="round"/>
<rect x="51" y="51.7148" width="32" height="32" rx="16" fill="#FFD7CC"/>
<path d="M62.723 61.8218V73.8548H61.211V63.4598L58.367 65.1878L57.71 64.1078L61.4 61.8218H62.723ZM65.315 72.9818V74.2148H58.16V72.9818H65.315ZM75.559 61.8218L75.334 63.0278H70.438V66.9338C70.816 66.7298 71.173 66.5918 71.509 66.5198C71.851 66.4418 72.208 66.4028 72.58 66.4028C73.252 66.4028 73.843 66.5558 74.353 66.8618C74.863 67.1618 75.259 67.6028 75.541 68.1848C75.823 68.7668 75.964 69.4688 75.964 70.2908C75.964 71.1128 75.79 71.8358 75.442 72.4598C75.1 73.0838 74.617 73.5668 73.993 73.9088C73.369 74.2508 72.628 74.4218 71.77 74.4218C71.026 74.4218 70.36 74.2898 69.772 74.0258C69.19 73.7618 68.659 73.3958 68.179 72.9278L69.115 72.0278C69.493 72.4118 69.898 72.6998 70.33 72.8918C70.768 73.0778 71.254 73.1708 71.788 73.1708C72.604 73.1708 73.24 72.9248 73.696 72.4328C74.152 71.9348 74.38 71.2058 74.38 70.2458C74.38 69.5798 74.281 69.0548 74.083 68.6708C73.885 68.2868 73.615 68.0138 73.273 67.8518C72.937 67.6838 72.562 67.5998 72.148 67.5998C71.782 67.5998 71.458 67.6358 71.176 67.7078C70.894 67.7738 70.573 67.8758 70.213 68.0138H68.998V61.8218H75.559Z" fill="#E76B49"/>
</svg>
