<svg width="640" height="500" viewBox="0 0 640 500" fill="none" xmlns="http://www.w3.org/2000/svg">
<g clip-path="url(#clip0_3050_58071)">
<line y1="-1" x2="2000" y2="-1" transform="matrix(0.707107 -0.707107 0.860934 0.508716 -1370.5 1630.6)" stroke="#A7A6FF" stroke-width="2"/>
<line y1="-1" x2="2000" y2="-1" transform="matrix(0.707107 -0.707107 0.860934 0.508716 -1348.5 1630.6)" stroke="#A7A6FF" stroke-width="2"/>
<line y1="-1" x2="2000" y2="-1" transform="matrix(0.707107 -0.707107 0.860934 0.508716 -1326.5 1630.6)" stroke="#A7A6FF" stroke-width="2"/>
<line y1="-1" x2="2000" y2="-1" transform="matrix(0.707107 -0.707107 0.860934 0.508716 -1304.5 1630.6)" stroke="#A7A6FF" stroke-width="2"/>
<line y1="-1" x2="2000" y2="-1" transform="matrix(0.707107 -0.707107 0.860934 0.508716 -1282.5 1630.6)" stroke="#A7A6FF" stroke-width="2"/>
<line y1="-1" x2="2000" y2="-1" transform="matrix(0.707107 -0.707107 0.860934 0.508716 -1260.5 1630.6)" stroke="#A7A6FF" stroke-width="2"/>
<line y1="-1" x2="2000" y2="-1" transform="matrix(0.707107 -0.707107 0.860934 0.508716 -1238.5 1630.6)" stroke="#A7A6FF" stroke-width="2"/>
<line y1="-1" x2="2000" y2="-1" transform="matrix(0.707107 -0.707107 0.860934 0.508716 -1216.5 1630.6)" stroke="#A7A6FF" stroke-width="2"/>
<line y1="-1" x2="2000" y2="-1" transform="matrix(0.707107 -0.707107 0.860934 0.508716 -1194.5 1630.6)" stroke="#A7A6FF" stroke-width="2"/>
<line y1="-1" x2="2000" y2="-1" transform="matrix(0.707107 -0.707107 0.860934 0.508716 -1172.5 1630.6)" stroke="#A7A6FF" stroke-width="2"/>
<line y1="-1" x2="2000" y2="-1" transform="matrix(0.707107 -0.707107 0.860934 0.508716 -1150.5 1630.6)" stroke="#A7A6FF" stroke-width="2"/>
<line y1="-1" x2="2000" y2="-1" transform="matrix(0.707107 -0.707107 0.860934 0.508716 -1128.5 1630.6)" stroke="#A7A6FF" stroke-width="2"/>
<line y1="-1" x2="2000" y2="-1" transform="matrix(0.707107 -0.707107 0.860934 0.508716 -1106.5 1630.6)" stroke="#A7A6FF" stroke-width="2"/>
<line y1="-1" x2="2000" y2="-1" transform="matrix(0.707107 -0.707107 0.860934 0.508716 -1084.5 1630.6)" stroke="#A7A6FF" stroke-width="2"/>
<line y1="-1" x2="2000" y2="-1" transform="matrix(0.707107 -0.707107 0.860934 0.508716 -1062.5 1630.6)" stroke="#A7A6FF" stroke-width="2"/>
<line y1="-1" x2="2000" y2="-1" transform="matrix(0.707107 -0.707107 0.860934 0.508716 -1040.5 1630.6)" stroke="#A7A6FF" stroke-width="2"/>
<line y1="-1" x2="2000" y2="-1" transform="matrix(0.707107 -0.707107 0.860934 0.508716 -1018.5 1630.6)" stroke="#A7A6FF" stroke-width="2"/>
<line y1="-1" x2="2000" y2="-1" transform="matrix(0.707107 -0.707107 0.860934 0.508716 -996.5 1630.6)" stroke="#A7A6FF" stroke-width="2"/>
<line y1="-1" x2="2000" y2="-1" transform="matrix(0.707107 -0.707107 0.860934 0.508716 -974.5 1630.6)" stroke="#A7A6FF" stroke-width="2"/>
<line y1="-1" x2="2000" y2="-1" transform="matrix(0.707107 -0.707107 0.860934 0.508716 -952.5 1630.6)" stroke="#A7A6FF" stroke-width="2"/>
<line y1="-1" x2="2000" y2="-1" transform="matrix(0.707107 -0.707107 0.860934 0.508716 -930.5 1630.6)" stroke="#A7A6FF" stroke-width="2"/>
<line y1="-1" x2="2000" y2="-1" transform="matrix(0.707107 -0.707107 0.860934 0.508716 -908.5 1630.6)" stroke="#A7A6FF" stroke-width="2"/>
<line y1="-1" x2="2000" y2="-1" transform="matrix(0.707107 -0.707107 0.860934 0.508716 -886.5 1630.6)" stroke="#A7A6FF" stroke-width="2"/>
<line y1="-1" x2="2000" y2="-1" transform="matrix(0.707107 -0.707107 0.860934 0.508716 -864.5 1630.6)" stroke="#A7A6FF" stroke-width="2"/>
<line y1="-1" x2="2000" y2="-1" transform="matrix(0.707107 -0.707107 0.860934 0.508716 -842.5 1630.6)" stroke="#A7A6FF" stroke-width="2"/>
<line y1="-1" x2="2000" y2="-1" transform="matrix(0.707107 -0.707107 0.860934 0.508716 -820.5 1630.6)" stroke="#A7A6FF" stroke-width="2"/>
<line y1="-1" x2="2000" y2="-1" transform="matrix(0.707107 -0.707107 0.860934 0.508716 -798.5 1630.6)" stroke="#A7A6FF" stroke-width="2"/>
<line y1="-1" x2="2000" y2="-1" transform="matrix(0.707107 -0.707107 0.860934 0.508716 -776.5 1630.6)" stroke="#A7A6FF" stroke-width="2"/>
<line y1="-1" x2="2000" y2="-1" transform="matrix(0.707107 -0.707107 0.860934 0.508716 -754.5 1630.6)" stroke="#A7A6FF" stroke-width="2"/>
<line y1="-1" x2="2000" y2="-1" transform="matrix(0.707107 -0.707107 0.860934 0.508716 -732.5 1630.6)" stroke="#A7A6FF" stroke-width="2"/>
<line y1="-1" x2="2000" y2="-1" transform="matrix(0.707107 -0.707107 0.860934 0.508716 -710.5 1630.6)" stroke="#A7A6FF" stroke-width="2"/>
<line y1="-1" x2="2000" y2="-1" transform="matrix(0.707107 -0.707107 0.860934 0.508716 -688.5 1630.6)" stroke="#A7A6FF" stroke-width="2"/>
<line y1="-1" x2="2000" y2="-1" transform="matrix(0.707107 -0.707107 0.860934 0.508716 -666.5 1630.6)" stroke="#A7A6FF" stroke-width="2"/>
<line y1="-1" x2="2000" y2="-1" transform="matrix(0.707107 -0.707107 0.860934 0.508716 -644.5 1630.6)" stroke="#A7A6FF" stroke-width="2"/>
<line y1="-1" x2="2000" y2="-1" transform="matrix(0.707107 -0.707107 0.860934 0.508716 -622.5 1630.6)" stroke="#A7A6FF" stroke-width="2"/>
<line y1="-1" x2="2000" y2="-1" transform="matrix(0.707107 -0.707107 0.860934 0.508716 -600.5 1630.6)" stroke="#A7A6FF" stroke-width="2"/>
<line y1="-1" x2="2000" y2="-1" transform="matrix(0.707107 -0.707107 0.860934 0.508716 -578.5 1630.6)" stroke="#A7A6FF" stroke-width="2"/>
<line y1="-1" x2="2000" y2="-1" transform="matrix(0.707107 -0.707107 0.860934 0.508716 -556.5 1630.6)" stroke="#A7A6FF" stroke-width="2"/>
<line y1="-1" x2="2000" y2="-1" transform="matrix(0.707107 -0.707107 0.860934 0.508716 -534.5 1630.6)" stroke="#A7A6FF" stroke-width="2"/>
<line y1="-1" x2="2000" y2="-1" transform="matrix(0.707107 -0.707107 0.860934 0.508716 -512.5 1630.6)" stroke="#A7A6FF" stroke-width="2"/>
<line y1="-1" x2="2000" y2="-1" transform="matrix(0.707107 -0.707107 0.860934 0.508716 -490.5 1630.6)" stroke="#A7A6FF" stroke-width="2"/>
<line y1="-1" x2="2000" y2="-1" transform="matrix(0.707107 -0.707107 0.860934 0.508716 -468.5 1630.6)" stroke="#A7A6FF" stroke-width="2"/>
<line y1="-1" x2="2000" y2="-1" transform="matrix(0.707107 -0.707107 0.860934 0.508716 -446.5 1630.6)" stroke="#A7A6FF" stroke-width="2"/>
<line y1="-1" x2="2000" y2="-1" transform="matrix(0.707107 -0.707107 0.860934 0.508716 -424.5 1630.6)" stroke="#A7A6FF" stroke-width="2"/>
<line y1="-1" x2="2000" y2="-1" transform="matrix(0.707107 -0.707107 0.860934 0.508716 -402.5 1630.6)" stroke="#A7A6FF" stroke-width="2"/>
<line y1="-1" x2="2000" y2="-1" transform="matrix(0.707107 -0.707107 0.860934 0.508716 -380.5 1630.6)" stroke="#A7A6FF" stroke-width="2"/>
<line y1="-1" x2="2000" y2="-1" transform="matrix(0.707107 -0.707107 0.860934 0.508716 -358.5 1630.6)" stroke="#A7A6FF" stroke-width="2"/>
<line y1="-1" x2="2000" y2="-1" transform="matrix(0.707107 -0.707107 0.860934 0.508716 -336.5 1630.6)" stroke="#A7A6FF" stroke-width="2"/>
<line y1="-1" x2="2000" y2="-1" transform="matrix(0.707107 -0.707107 0.860934 0.508716 -314.5 1630.6)" stroke="#A7A6FF" stroke-width="2"/>
<line y1="-1" x2="2000" y2="-1" transform="matrix(0.707107 -0.707107 0.860934 0.508716 -292.5 1630.6)" stroke="#A7A6FF" stroke-width="2"/>
<line y1="-1" x2="2000" y2="-1" transform="matrix(0.707107 -0.707107 0.860934 0.508716 -270.5 1630.6)" stroke="#A7A6FF" stroke-width="2"/>
<line y1="-1" x2="2000" y2="-1" transform="matrix(0.707107 -0.707107 0.860934 0.508716 -248.5 1630.6)" stroke="#A7A6FF" stroke-width="2"/>
<line y1="-1" x2="2000" y2="-1" transform="matrix(0.707107 -0.707107 0.860934 0.508716 -226.5 1630.6)" stroke="#A7A6FF" stroke-width="2"/>
<line y1="-1" x2="2000" y2="-1" transform="matrix(0.707107 -0.707107 0.860934 0.508716 -204.5 1630.6)" stroke="#A7A6FF" stroke-width="2"/>
<line y1="-1" x2="2000" y2="-1" transform="matrix(0.707107 -0.707107 0.860934 0.508716 -182.5 1630.6)" stroke="#A7A6FF" stroke-width="2"/>
<line y1="-1" x2="2000" y2="-1" transform="matrix(0.707107 -0.707107 0.860934 0.508716 -160.5 1630.6)" stroke="#A7A6FF" stroke-width="2"/>
<line y1="-1" x2="2000" y2="-1" transform="matrix(0.707107 -0.707107 0.860934 0.508716 -138.5 1630.6)" stroke="#A7A6FF" stroke-width="2"/>
<line y1="-1" x2="2000" y2="-1" transform="matrix(0.707107 -0.707107 0.860934 0.508716 -116.5 1630.6)" stroke="#A7A6FF" stroke-width="2"/>
<line y1="-1" x2="2000" y2="-1" transform="matrix(0.707107 -0.707107 0.860934 0.508716 -94.5 1630.6)" stroke="#A7A6FF" stroke-width="2"/>
<line y1="-1" x2="2000" y2="-1" transform="matrix(0.707107 -0.707107 0.860934 0.508716 -72.5 1630.6)" stroke="#A7A6FF" stroke-width="2"/>
<line y1="-1" x2="2000" y2="-1" transform="matrix(0.707107 -0.707107 0.860934 0.508716 -50.5 1630.6)" stroke="#A7A6FF" stroke-width="2"/>
<line y1="-1" x2="2000" y2="-1" transform="matrix(0.707107 -0.707107 0.860934 0.508716 -28.5 1630.6)" stroke="#A7A6FF" stroke-width="2"/>
<line y1="-1" x2="2000" y2="-1" transform="matrix(0.707107 -0.707107 0.860934 0.508716 -6.5 1630.6)" stroke="#A7A6FF" stroke-width="2"/>
<line y1="-1" x2="2000" y2="-1" transform="matrix(0.707107 -0.707107 0.860934 0.508716 15.5 1630.6)" stroke="#A7A6FF" stroke-width="2"/>
<line y1="-1" x2="2000" y2="-1" transform="matrix(0.707107 -0.707107 0.860934 0.508716 37.5 1630.6)" stroke="#A7A6FF" stroke-width="2"/>
<line y1="-1" x2="2000" y2="-1" transform="matrix(0.707107 -0.707107 0.860934 0.508716 59.5 1630.6)" stroke="#A7A6FF" stroke-width="2"/>
<line y1="-1" x2="2000" y2="-1" transform="matrix(0.707107 -0.707107 0.860934 0.508716 81.5 1630.6)" stroke="#A7A6FF" stroke-width="2"/>
<line y1="-1" x2="2000" y2="-1" transform="matrix(0.707107 -0.707107 0.860934 0.508716 103.5 1630.6)" stroke="#A7A6FF" stroke-width="2"/>
<line y1="-1" x2="2000" y2="-1" transform="matrix(0.707107 -0.707107 0.860934 0.508716 125.5 1630.6)" stroke="#A7A6FF" stroke-width="2"/>
<line y1="-1" x2="2000" y2="-1" transform="matrix(0.707107 -0.707107 0.860934 0.508716 147.5 1630.6)" stroke="#A7A6FF" stroke-width="2"/>
<line y1="-1" x2="2000" y2="-1" transform="matrix(0.707107 -0.707107 0.860934 0.508716 169.5 1630.6)" stroke="#A7A6FF" stroke-width="2"/>
<line y1="-1" x2="2000" y2="-1" transform="matrix(0.707107 -0.707107 0.860934 0.508716 191.5 1630.6)" stroke="#A7A6FF" stroke-width="2"/>
<line y1="-1" x2="2000" y2="-1" transform="matrix(0.707107 -0.707107 0.860934 0.508716 213.5 1630.6)" stroke="#A7A6FF" stroke-width="2"/>
<line y1="-1" x2="2000" y2="-1" transform="matrix(0.707107 -0.707107 0.860934 0.508716 235.5 1630.6)" stroke="#A7A6FF" stroke-width="2"/>
<line y1="-1" x2="2000" y2="-1" transform="matrix(0.707107 -0.707107 0.860934 0.508716 257.5 1630.6)" stroke="#A7A6FF" stroke-width="2"/>
<line y1="-1" x2="2000" y2="-1" transform="matrix(0.707107 -0.707107 0.860934 0.508716 279.5 1630.6)" stroke="#A7A6FF" stroke-width="2"/>
<line y1="-1" x2="2000" y2="-1" transform="matrix(0.707107 -0.707107 0.860934 0.508716 301.5 1630.6)" stroke="#A7A6FF" stroke-width="2"/>
<line y1="-1" x2="2000" y2="-1" transform="matrix(0.707107 -0.707107 0.860934 0.508716 323.5 1630.6)" stroke="#A7A6FF" stroke-width="2"/>
<line y1="-1" x2="2000" y2="-1" transform="matrix(0.707107 -0.707107 0.860934 0.508716 345.5 1630.6)" stroke="#A7A6FF" stroke-width="2"/>
<line y1="-1" x2="2000" y2="-1" transform="matrix(0.707107 -0.707107 0.860934 0.508716 367.5 1630.6)" stroke="#A7A6FF" stroke-width="2"/>
<line y1="-1" x2="2000" y2="-1" transform="matrix(0.707107 -0.707107 0.860934 0.508716 389.5 1630.6)" stroke="#A7A6FF" stroke-width="2"/>
<line y1="-1" x2="2000" y2="-1" transform="matrix(0.707107 -0.707107 0.860934 0.508716 411.5 1630.6)" stroke="#A7A6FF" stroke-width="2"/>
<line y1="-1" x2="2000" y2="-1" transform="matrix(0.707107 -0.707107 0.860934 0.508716 433.5 1630.6)" stroke="#A7A6FF" stroke-width="2"/>
<line y1="-1" x2="2000" y2="-1" transform="matrix(0.707107 -0.707107 0.860934 0.508716 455.5 1630.6)" stroke="#A7A6FF" stroke-width="2"/>
<line y1="-1" x2="2000" y2="-1" transform="matrix(0.707107 -0.707107 0.860934 0.508716 477.5 1630.6)" stroke="#A7A6FF" stroke-width="2"/>
<line y1="-1" x2="2000" y2="-1" transform="matrix(0.707107 -0.707107 0.860934 0.508716 499.5 1630.6)" stroke="#A7A6FF" stroke-width="2"/>
<line y1="-1" x2="2000" y2="-1" transform="matrix(0.707107 -0.707107 0.860934 0.508716 521.5 1630.6)" stroke="#A7A6FF" stroke-width="2"/>
<line y1="-1" x2="2000" y2="-1" transform="matrix(0.707107 -0.707107 0.860934 0.508716 543.5 1630.6)" stroke="#A7A6FF" stroke-width="2"/>
<line y1="-1" x2="2000" y2="-1" transform="matrix(0.707107 -0.707107 0.860934 0.508716 565.5 1630.6)" stroke="#A7A6FF" stroke-width="2"/>
<line y1="-1" x2="2000" y2="-1" transform="matrix(0.707107 -0.707107 0.860934 0.508716 587.5 1630.6)" stroke="#A7A6FF" stroke-width="2"/>
<line y1="-1" x2="2000" y2="-1" transform="matrix(0.707107 -0.707107 0.860934 0.508716 609.5 1630.6)" stroke="#A7A6FF" stroke-width="2"/>
</g>
<rect x="111.902" y="153.137" width="193.273" height="263.4" fill="#52B1FF" fill-opacity="0.2" stroke="#A7A6FF" stroke-width="2" stroke-dasharray="4 4"/>
<path d="M94.027 432.292L78.8633 427.937L122.902 410.354L104.996 454.232L100.963 439.713L87.0902 452.78L80.3149 446.166L94.027 432.292Z" fill="#313131"/>
<rect x="128.215" y="186.762" width="62.7188" height="62.7188" fill="#FFD7CC"/>
<rect x="110.902" y="152.137" width="17.3125" height="17.3125" fill="#A7A6FF"/>
<rect x="128.215" y="232.168" width="17.3125" height="17.3125" fill="#DEFFCC"/>
<rect x="128.215" y="169.449" width="8.95982" height="17.3125" fill="#DEFFCC"/>
<rect x="146.133" y="169.449" width="8.95982" height="17.3125" fill="#DEFFCC"/>
<rect x="164.055" y="169.449" width="8.95982" height="17.3125" fill="#DEFFCC"/>
<rect x="181.973" y="169.449" width="8.95982" height="17.3125" fill="#DEFFCC"/>
<rect x="199.891" y="169.449" width="8.95982" height="17.3125" fill="#DEFFCC"/>
<rect width="143" height="41" transform="translate(215.219 84.377)" fill="#DEFFCC"/>
<path d="M235.724 100.685L236.453 101.846L230.099 105.743L236.453 109.676L235.643 110.783L228.803 106.508V104.96L235.724 100.685ZM245.491 97.895L247.003 98.084V111.377H245.68L245.536 110.126C245.182 110.63 244.774 110.999 244.312 111.233C243.856 111.467 243.367 111.584 242.845 111.584C242.023 111.584 241.345 111.377 240.811 110.963C240.277 110.549 239.881 109.973 239.623 109.235C239.365 108.491 239.236 107.63 239.236 106.652C239.236 105.704 239.383 104.858 239.677 104.114C239.971 103.364 240.394 102.776 240.946 102.35C241.504 101.918 242.173 101.702 242.953 101.702C243.499 101.702 243.979 101.798 244.393 101.99C244.807 102.176 245.173 102.452 245.491 102.818V97.895ZM243.349 102.917C242.557 102.917 241.948 103.226 241.522 103.844C241.096 104.462 240.883 105.398 240.883 106.652C240.883 107.468 240.97 108.152 241.144 108.704C241.318 109.256 241.573 109.67 241.909 109.946C242.251 110.222 242.668 110.36 243.16 110.36C243.7 110.36 244.159 110.207 244.537 109.901C244.921 109.595 245.239 109.25 245.491 108.866V104.132C245.233 103.748 244.921 103.451 244.555 103.241C244.189 103.025 243.787 102.917 243.349 102.917ZM255.411 101.9V110.18H258.084V111.377H250.974V110.18H253.899V103.097H251.064V101.9H255.411ZM254.205 97.463C254.541 97.463 254.808 97.565 255.006 97.769C255.21 97.973 255.312 98.222 255.312 98.516C255.312 98.822 255.21 99.08 255.006 99.29C254.808 99.494 254.541 99.596 254.205 99.596C253.887 99.596 253.626 99.494 253.422 99.29C253.218 99.08 253.116 98.822 253.116 98.516C253.116 98.222 253.218 97.973 253.422 97.769C253.626 97.565 253.887 97.463 254.205 97.463ZM269.309 101.9L265.862 111.377H264.107L260.687 101.9H262.289L265.034 110L267.743 101.9H269.309ZM272.704 100.685L279.625 104.96V106.508L272.794 110.783L271.975 109.667L278.329 105.743L271.975 101.828L272.704 100.685ZM289.682 100.685L290.411 101.846L284.057 105.743L292.76 111.116L291.95 112.223L282.761 106.508V104.96L289.682 100.685ZM291.95 114.05L290.726 113.501L298.826 96.806L300.032 97.4L291.95 114.05ZM310.249 97.895L311.761 98.084V111.377H310.438L310.294 110.126C309.94 110.63 309.532 110.999 309.07 111.233C308.614 111.467 308.125 111.584 307.603 111.584C306.781 111.584 306.103 111.377 305.569 110.963C305.035 110.549 304.639 109.973 304.381 109.235C304.123 108.491 303.994 107.63 303.994 106.652C303.994 105.704 304.141 104.858 304.435 104.114C304.729 103.364 305.152 102.776 305.704 102.35C306.262 101.918 306.931 101.702 307.711 101.702C308.257 101.702 308.737 101.798 309.151 101.99C309.565 102.176 309.931 102.452 310.249 102.818V97.895ZM308.107 102.917C307.315 102.917 306.706 103.226 306.28 103.844C305.854 104.462 305.641 105.398 305.641 106.652C305.641 107.468 305.728 108.152 305.902 108.704C306.076 109.256 306.331 109.67 306.667 109.946C307.009 110.222 307.426 110.36 307.918 110.36C308.458 110.36 308.917 110.207 309.295 109.901C309.679 109.595 309.997 109.25 310.249 108.866V104.132C309.991 103.748 309.679 103.451 309.313 103.241C308.947 103.025 308.545 102.917 308.107 102.917ZM320.169 101.9V110.18H322.842V111.377H315.732V110.18H318.657V103.097H315.822V101.9H320.169ZM318.963 97.463C319.299 97.463 319.566 97.565 319.764 97.769C319.968 97.973 320.07 98.222 320.07 98.516C320.07 98.822 319.968 99.08 319.764 99.29C319.566 99.494 319.299 99.596 318.963 99.596C318.645 99.596 318.384 99.494 318.18 99.29C317.976 99.08 317.874 98.822 317.874 98.516C317.874 98.222 317.976 97.973 318.18 97.769C318.384 97.565 318.645 97.463 318.963 97.463ZM334.066 101.9L330.619 111.377H328.864L325.444 101.9H327.046L329.791 110L332.5 101.9H334.066ZM337.461 100.685L344.382 104.96V106.508L337.551 110.783L336.732 109.667L343.086 105.743L336.732 101.828L337.461 100.685Z" fill="#313131"/>
<rect width="111" height="41" transform="translate(297.531 138.754)" fill="#A7A6FF"/>
<path d="M318.036 155.062L318.765 156.223L312.411 160.12L318.765 164.053L317.955 165.16L311.115 160.885V159.337L318.036 155.062ZM323.645 152.317V157.573C324.017 157.075 324.473 156.703 325.013 156.457C325.559 156.205 326.111 156.079 326.669 156.079C327.593 156.079 328.268 156.325 328.694 156.817C329.12 157.309 329.333 157.993 329.333 158.869V165.754H327.821V158.905C327.821 158.335 327.689 157.921 327.425 157.663C327.161 157.399 326.747 157.267 326.183 157.267C325.823 157.267 325.481 157.348 325.157 157.51C324.833 157.672 324.542 157.873 324.284 158.113C324.026 158.353 323.813 158.599 323.645 158.851V165.754H322.133V152.479L323.645 152.317ZM337.84 153.361V165.394H336.328V154.999L333.484 156.727L332.827 155.647L336.517 153.361H337.84ZM340.432 164.521V165.754H333.277V164.521H340.432ZM344.223 155.062L351.144 159.337V160.885L344.313 165.16L343.494 164.044L349.848 160.12L343.494 156.205L344.223 155.062ZM361.201 155.062L361.93 156.223L355.576 160.12L364.279 165.493L363.469 166.6L354.28 160.885V159.337L361.201 155.062ZM363.469 168.427L362.245 167.878L370.345 151.183L371.551 151.777L363.469 168.427ZM377.61 152.317V157.573C377.982 157.075 378.438 156.703 378.978 156.457C379.524 156.205 380.076 156.079 380.634 156.079C381.558 156.079 382.233 156.325 382.659 156.817C383.085 157.309 383.298 157.993 383.298 158.869V165.754H381.786V158.905C381.786 158.335 381.654 157.921 381.39 157.663C381.126 157.399 380.712 157.267 380.148 157.267C379.788 157.267 379.446 157.348 379.122 157.51C378.798 157.672 378.507 157.873 378.249 158.113C377.991 158.353 377.778 158.599 377.61 158.851V165.754H376.098V152.479L377.61 152.317ZM391.805 153.361V165.394H390.293V154.999L387.449 156.727L386.792 155.647L390.482 153.361H391.805ZM394.397 164.521V165.754H387.242V164.521H394.397Z" fill="white"/>
<rect width="165" height="41" transform="translate(110.902 30)" fill="#A7A6FF"/>
<path d="M131.407 46.308L132.136 47.469L125.782 51.366L132.136 55.299L131.326 56.406L124.486 52.131V50.583L131.407 46.308ZM141.75 47.325C142.056 47.325 142.347 47.391 142.623 47.523C142.905 47.655 143.136 47.91 143.316 48.288C143.496 48.666 143.586 49.218 143.586 49.944V57H142.182V50.187C142.182 49.593 142.146 49.164 142.074 48.9C142.002 48.636 141.795 48.504 141.453 48.504C141.171 48.504 140.889 48.594 140.607 48.774C140.331 48.948 140.061 49.236 139.797 49.638V57H138.384V50.187C138.384 49.593 138.348 49.164 138.276 48.9C138.204 48.636 137.997 48.504 137.655 48.504C137.361 48.504 137.076 48.594 136.8 48.774C136.53 48.948 136.263 49.236 135.999 49.638V57H134.604V47.523H135.792L135.882 48.621C136.14 48.255 136.428 47.949 136.746 47.703C137.07 47.451 137.469 47.325 137.943 47.325C138.303 47.325 138.642 47.412 138.96 47.586C139.278 47.754 139.512 48.084 139.662 48.576C139.92 48.204 140.211 47.904 140.535 47.676C140.859 47.442 141.264 47.325 141.75 47.325ZM153.083 54.93C153.083 55.308 153.146 55.584 153.272 55.758C153.398 55.932 153.593 56.061 153.857 56.145L153.488 57.207C153.08 57.153 152.723 57.024 152.417 56.82C152.111 56.61 151.889 56.295 151.751 55.875C151.409 56.313 150.983 56.646 150.473 56.874C149.963 57.096 149.399 57.207 148.781 57.207C147.833 57.207 147.086 56.94 146.54 56.406C145.994 55.872 145.721 55.164 145.721 54.282C145.721 53.304 146.102 52.554 146.864 52.032C147.626 51.51 148.727 51.249 150.167 51.249H151.562V50.457C151.562 49.773 151.361 49.29 150.959 49.008C150.563 48.72 150.011 48.576 149.303 48.576C148.991 48.576 148.625 48.615 148.205 48.693C147.785 48.765 147.329 48.888 146.837 49.062L146.441 47.919C147.023 47.703 147.569 47.55 148.079 47.46C148.589 47.37 149.075 47.325 149.537 47.325C150.719 47.325 151.604 47.601 152.192 48.153C152.786 48.699 153.083 49.443 153.083 50.385V54.93ZM149.168 56.055C149.636 56.055 150.083 55.938 150.509 55.704C150.935 55.464 151.286 55.134 151.562 54.714V52.275H150.194C149.15 52.275 148.412 52.455 147.98 52.815C147.554 53.175 147.341 53.658 147.341 54.264C147.341 54.852 147.491 55.299 147.791 55.605C148.097 55.905 148.556 56.055 149.168 56.055ZM161.887 47.523V55.803H164.56V57H157.45V55.803H160.375V48.72H157.54V47.523H161.887ZM160.681 43.086C161.017 43.086 161.284 43.188 161.482 43.392C161.686 43.596 161.788 43.845 161.788 44.139C161.788 44.445 161.686 44.703 161.482 44.913C161.284 45.117 161.017 45.219 160.681 45.219C160.363 45.219 160.102 45.117 159.898 44.913C159.694 44.703 159.592 44.445 159.592 44.139C159.592 43.845 159.694 43.596 159.898 43.392C160.102 43.188 160.363 43.086 160.681 43.086ZM167.883 57V47.523H169.17L169.287 48.837C169.671 48.351 170.151 47.979 170.727 47.721C171.309 47.457 171.873 47.325 172.419 47.325C173.349 47.325 174.024 47.571 174.444 48.063C174.87 48.555 175.083 49.239 175.083 50.115V57H173.571V51.231C173.571 50.583 173.535 50.061 173.463 49.665C173.391 49.263 173.241 48.972 173.013 48.792C172.785 48.606 172.431 48.513 171.951 48.513C171.579 48.513 171.228 48.594 170.898 48.756C170.574 48.918 170.283 49.122 170.025 49.368C169.773 49.608 169.563 49.851 169.395 50.097V57H167.883ZM179.18 46.308L186.101 50.583V52.131L179.27 56.406L178.451 55.29L184.805 51.366L178.451 47.451L179.18 46.308ZM196.158 46.308L196.887 47.469L190.533 51.366L199.236 56.739L198.426 57.846L189.237 52.131V50.583L196.158 46.308ZM198.426 59.673L197.202 59.124L205.302 42.429L206.508 43.023L198.426 59.673ZM217.301 47.325C217.607 47.325 217.898 47.391 218.174 47.523C218.456 47.655 218.687 47.91 218.867 48.288C219.047 48.666 219.137 49.218 219.137 49.944V57H217.733V50.187C217.733 49.593 217.697 49.164 217.625 48.9C217.553 48.636 217.346 48.504 217.004 48.504C216.722 48.504 216.44 48.594 216.158 48.774C215.882 48.948 215.612 49.236 215.348 49.638V57H213.935V50.187C213.935 49.593 213.899 49.164 213.827 48.9C213.755 48.636 213.548 48.504 213.206 48.504C212.912 48.504 212.627 48.594 212.351 48.774C212.081 48.948 211.814 49.236 211.55 49.638V57H210.155V47.523H211.343L211.433 48.621C211.691 48.255 211.979 47.949 212.297 47.703C212.621 47.451 213.02 47.325 213.494 47.325C213.854 47.325 214.193 47.412 214.511 47.586C214.829 47.754 215.063 48.084 215.213 48.576C215.471 48.204 215.762 47.904 216.086 47.676C216.41 47.442 216.815 47.325 217.301 47.325ZM228.634 54.93C228.634 55.308 228.697 55.584 228.823 55.758C228.949 55.932 229.144 56.061 229.408 56.145L229.039 57.207C228.631 57.153 228.274 57.024 227.968 56.82C227.662 56.61 227.44 56.295 227.302 55.875C226.96 56.313 226.534 56.646 226.024 56.874C225.514 57.096 224.95 57.207 224.332 57.207C223.384 57.207 222.637 56.94 222.091 56.406C221.545 55.872 221.272 55.164 221.272 54.282C221.272 53.304 221.653 52.554 222.415 52.032C223.177 51.51 224.278 51.249 225.718 51.249H227.113V50.457C227.113 49.773 226.912 49.29 226.51 49.008C226.114 48.72 225.562 48.576 224.854 48.576C224.542 48.576 224.176 48.615 223.756 48.693C223.336 48.765 222.88 48.888 222.388 49.062L221.992 47.919C222.574 47.703 223.12 47.55 223.63 47.46C224.14 47.37 224.626 47.325 225.088 47.325C226.27 47.325 227.155 47.601 227.743 48.153C228.337 48.699 228.634 49.443 228.634 50.385V54.93ZM224.719 56.055C225.187 56.055 225.634 55.938 226.06 55.704C226.486 55.464 226.837 55.134 227.113 54.714V52.275H225.745C224.701 52.275 223.963 52.455 223.531 52.815C223.105 53.175 222.892 53.658 222.892 54.264C222.892 54.852 223.042 55.299 223.342 55.605C223.648 55.905 224.107 56.055 224.719 56.055ZM237.438 47.523V55.803H240.111V57H233.001V55.803H235.926V48.72H233.091V47.523H237.438ZM236.232 43.086C236.568 43.086 236.835 43.188 237.033 43.392C237.237 43.596 237.339 43.845 237.339 44.139C237.339 44.445 237.237 44.703 237.033 44.913C236.835 45.117 236.568 45.219 236.232 45.219C235.914 45.219 235.653 45.117 235.449 44.913C235.245 44.703 235.143 44.445 235.143 44.139C235.143 43.845 235.245 43.596 235.449 43.392C235.653 43.188 235.914 43.086 236.232 43.086ZM243.434 57V47.523H244.721L244.838 48.837C245.222 48.351 245.702 47.979 246.278 47.721C246.86 47.457 247.424 47.325 247.97 47.325C248.9 47.325 249.575 47.571 249.995 48.063C250.421 48.555 250.634 49.239 250.634 50.115V57H249.122V51.231C249.122 50.583 249.086 50.061 249.014 49.665C248.942 49.263 248.792 48.972 248.564 48.792C248.336 48.606 247.982 48.513 247.502 48.513C247.13 48.513 246.779 48.594 246.449 48.756C246.125 48.918 245.834 49.122 245.576 49.368C245.324 49.608 245.114 49.851 244.946 50.097V57H243.434ZM254.731 46.308L261.652 50.583V52.131L254.821 56.406L254.002 55.29L260.356 51.366L254.002 47.451L254.731 46.308Z" fill="white"/>
<rect width="78" height="41" transform="translate(347.848 193.131)" fill="#DEFFCC"/>
<path d="M368.353 209.439L369.082 210.6L362.728 214.497L369.082 218.43L368.272 219.537L361.432 215.262V213.714L368.353 209.439ZM377.247 210.654V218.934H379.92V220.131H372.81V218.934H375.735V211.851H372.9V210.654H377.247ZM376.041 206.217C376.377 206.217 376.644 206.319 376.842 206.523C377.046 206.727 377.148 206.976 377.148 207.27C377.148 207.576 377.046 207.834 376.842 208.044C376.644 208.248 376.377 208.35 376.041 208.35C375.723 208.35 375.462 208.248 375.258 208.044C375.054 207.834 374.952 207.576 374.952 207.27C374.952 206.976 375.054 206.727 375.258 206.523C375.462 206.319 375.723 206.217 376.041 206.217ZM389.489 210.456C389.795 210.456 390.086 210.522 390.362 210.654C390.644 210.786 390.875 211.041 391.055 211.419C391.235 211.797 391.325 212.349 391.325 213.075V220.131H389.921V213.318C389.921 212.724 389.885 212.295 389.813 212.031C389.741 211.767 389.534 211.635 389.192 211.635C388.91 211.635 388.628 211.725 388.346 211.905C388.07 212.079 387.8 212.367 387.536 212.769V220.131H386.123V213.318C386.123 212.724 386.087 212.295 386.015 212.031C385.943 211.767 385.736 211.635 385.394 211.635C385.1 211.635 384.815 211.725 384.539 211.905C384.269 212.079 384.002 212.367 383.738 212.769V220.131H382.343V210.654H383.531L383.621 211.752C383.879 211.386 384.167 211.08 384.485 210.834C384.809 210.582 385.208 210.456 385.682 210.456C386.042 210.456 386.381 210.543 386.699 210.717C387.017 210.885 387.251 211.215 387.401 211.707C387.659 211.335 387.95 211.035 388.274 210.807C388.598 210.573 389.003 210.456 389.489 210.456ZM401.74 209.646L402.208 211.068C401.806 211.194 401.377 211.272 400.921 211.302C400.465 211.332 399.97 211.347 399.436 211.347C399.982 211.599 400.393 211.926 400.669 212.328C400.945 212.724 401.083 213.192 401.083 213.732C401.083 214.356 400.942 214.911 400.66 215.397C400.378 215.883 399.97 216.264 399.436 216.54C398.908 216.816 398.269 216.954 397.519 216.954C397.201 216.954 396.934 216.939 396.718 216.909C396.508 216.879 396.304 216.834 396.106 216.774C395.962 216.87 395.842 217.002 395.746 217.17C395.656 217.338 395.611 217.512 395.611 217.692C395.611 217.92 395.701 218.109 395.881 218.259C396.061 218.409 396.394 218.484 396.88 218.484H398.59C399.226 218.484 399.796 218.598 400.3 218.826C400.81 219.054 401.209 219.36 401.497 219.744C401.791 220.128 401.938 220.566 401.938 221.058C401.938 221.988 401.542 222.702 400.75 223.2C399.964 223.698 398.851 223.947 397.411 223.947C396.403 223.947 395.608 223.842 395.026 223.632C394.444 223.428 394.027 223.113 393.775 222.687C393.529 222.267 393.406 221.736 393.406 221.094H394.774C394.774 221.46 394.846 221.763 394.99 222.003C395.134 222.243 395.395 222.42 395.773 222.534C396.151 222.654 396.694 222.714 397.402 222.714C398.098 222.714 398.665 222.654 399.103 222.534C399.547 222.42 399.874 222.246 400.084 222.012C400.3 221.784 400.408 221.499 400.408 221.157C400.408 220.707 400.204 220.368 399.796 220.14C399.388 219.912 398.878 219.798 398.266 219.798H396.574C395.758 219.798 395.155 219.618 394.765 219.258C394.381 218.898 394.189 218.484 394.189 218.016C394.189 217.71 394.276 217.413 394.45 217.125C394.63 216.837 394.891 216.582 395.233 216.36C394.687 216.072 394.285 215.715 394.027 215.289C393.769 214.863 393.64 214.347 393.64 213.741C393.64 213.099 393.799 212.532 394.117 212.04C394.435 211.542 394.879 211.152 395.449 210.87C396.019 210.588 396.676 210.447 397.42 210.447C398.218 210.441 398.866 210.408 399.364 210.348C399.862 210.282 400.288 210.189 400.642 210.069C401.002 209.949 401.368 209.808 401.74 209.646ZM397.42 211.554C396.658 211.554 396.094 211.761 395.728 212.175C395.368 212.583 395.188 213.105 395.188 213.741C395.188 214.383 395.374 214.911 395.746 215.325C396.118 215.739 396.688 215.946 397.456 215.946C398.128 215.946 398.638 215.751 398.986 215.361C399.34 214.971 399.517 214.428 399.517 213.732C399.517 213.018 399.34 212.478 398.986 212.112C398.638 211.74 398.116 211.554 397.42 211.554ZM405.333 209.439L412.254 213.714V215.262L405.423 219.537L404.604 218.421L410.958 214.497L404.604 210.582L405.333 209.439Z" fill="#313131"/>
<rect x="273.867" y="250" width="341.836" height="234.459" fill="#DEFFCC" stroke="#313131" stroke-width="1.5"/>
<circle cx="287.106" cy="263.282" r="4.30158" fill="#E76B49"/>
<circle cx="300.583" cy="263.282" r="4.30158" fill="#FFD7CC"/>
<circle cx="314.059" cy="263.282" r="4.30158" fill="#6EA150"/>
<path d="M358.285 320.982L364.741 303.582H367.573L374.125 320.982H371.485L370.117 317.214H362.125L360.781 320.982H358.285ZM366.085 306.054L362.869 315.126H369.349L366.085 306.054ZM386.969 312.27C386.969 306.366 383.489 305.646 379.913 305.646H377.681V318.918H379.913C383.489 318.918 386.969 318.198 386.969 312.27ZM375.233 303.582H379.985C385.481 303.582 389.465 305.67 389.465 312.27C389.465 318.894 385.481 320.982 379.985 320.982H375.233V303.582ZM404.255 315.438H406.631C405.863 319.278 402.863 321.294 399.095 321.294C394.103 321.294 391.199 317.526 391.199 312.246C391.199 306.87 394.391 303.27 399.287 303.27C402.887 303.27 405.767 305.406 406.535 309.126H404.159C403.655 306.942 401.927 305.334 399.167 305.334C396.095 305.334 393.695 307.734 393.695 312.246C393.695 316.662 395.999 319.23 399.239 319.23C402.023 319.23 403.703 317.67 404.255 315.438ZM425.444 315.438H427.82C427.052 319.278 424.052 321.294 420.284 321.294C415.292 321.294 412.388 317.526 412.388 312.246C412.388 306.87 415.58 303.27 420.476 303.27C424.076 303.27 426.956 305.406 427.724 309.126H425.348C424.844 306.942 423.116 305.334 420.356 305.334C417.284 305.334 414.884 307.734 414.884 312.246C414.884 316.662 417.188 319.23 420.428 319.23C423.212 319.23 424.892 317.67 425.444 315.438ZM431.068 314.574C431.068 318.03 432.94 319.374 434.932 319.374C436.924 319.374 438.796 317.886 438.796 314.574C438.796 311.118 436.924 309.774 434.932 309.774C432.94 309.774 431.068 311.046 431.068 314.574ZM434.932 307.854C437.932 307.854 441.124 309.894 441.124 314.574C441.124 319.254 437.932 321.294 434.932 321.294C431.932 321.294 428.74 319.254 428.74 314.574C428.74 309.894 431.932 307.854 434.932 307.854ZM444.961 313.974V320.982H442.777V308.07H444.961V310.014C445.705 308.79 446.905 307.854 448.849 307.854C450.841 307.854 451.993 308.694 452.569 310.134C453.601 308.526 455.089 307.854 456.913 307.854C459.913 307.854 461.089 309.87 461.089 312.822V320.982H458.905V313.47C458.905 311.478 458.521 309.75 456.145 309.75C454.249 309.75 453.025 311.19 453.025 313.974V320.982H450.841V313.47C450.841 311.478 450.457 309.75 448.081 309.75C446.185 309.75 444.961 311.19 444.961 313.974ZM465.587 313.974V320.982H463.403V308.07H465.587V310.014C466.331 308.79 467.531 307.854 469.475 307.854C471.467 307.854 472.619 308.694 473.195 310.134C474.227 308.526 475.715 307.854 477.539 307.854C480.539 307.854 481.715 309.87 481.715 312.822V320.982H479.531V313.47C479.531 311.478 479.147 309.75 476.771 309.75C474.875 309.75 473.651 311.19 473.651 313.974V320.982H471.467V313.47C471.467 311.478 471.083 309.75 468.707 309.75C466.811 309.75 465.587 311.19 465.587 313.974ZM492.02 320.982V319.134C491.276 320.358 490.1 321.294 487.964 321.294C484.988 321.294 483.836 319.278 483.836 316.326V308.07H486.02V315.678C486.02 317.67 486.332 319.398 488.732 319.398C490.82 319.398 492.02 317.958 492.02 315.174V308.07H494.204V320.982H492.02ZM498.893 308.07V310.014C499.637 308.79 500.885 307.854 503.069 307.854C506.189 307.854 507.317 309.87 507.317 312.822V320.982H505.133V313.47C505.133 311.478 504.797 309.75 502.301 309.75C500.189 309.75 498.893 311.19 498.893 313.974V320.982H496.709V308.07H498.893ZM509.624 308.07H511.808V320.982H509.624V308.07ZM509.624 303.582H511.808V306.222H509.624V303.582ZM514.937 308.07V304.83H517.121V308.07H519.569V309.822H517.121V317.478C517.121 318.822 517.217 319.158 518.465 319.158H519.569V320.982H517.985C515.513 320.982 514.937 320.43 514.937 317.742V309.822H512.897V308.07H514.937ZM528.333 308.07H530.613L526.005 321.534C525.045 324.318 524.421 325.182 521.517 325.182H520.389V323.358H521.277C522.717 323.358 523.413 323.262 523.989 321.246L524.085 320.982L519.429 308.07H521.853L525.141 318.03L528.333 308.07Z" fill="#313131"/>
<defs>
<clipPath id="clip0_3050_58071">
<rect width="592" height="60" fill="white" transform="translate(24 217)"/>
</clipPath>
</defs>
</svg>
