<svg width="32" height="32" viewBox="0 0 32 32" fill="none" xmlns="http://www.w3.org/2000/svg">
<path d="M21.4846 12.3884C22.2206 11.6524 22.9512 9.93503 19.8846 12.0204C17.0199 13.9919 14.1357 15.9351 11.2326 17.8497C10.7905 18.0496 10.3126 18.1581 9.8275 18.1686C9.34244 18.1792 8.86025 18.0915 8.40991 17.911C6.56991 17.359 4.42191 16.623 4.42191 16.623C4.42191 16.623 2.95524 15.7017 5.46591 14.7204C5.46591 14.7204 16.0806 10.3644 19.7619 8.8297C21.1726 8.21637 25.9579 6.2537 25.9579 6.2537C25.9579 6.2537 28.1672 5.3937 27.9832 7.48037C27.9219 8.33903 27.4312 11.347 26.9406 14.5977C26.2032 19.199 25.4059 24.231 25.4059 24.231C25.4059 24.231 25.2832 25.6417 24.2406 25.887C23.1244 25.8681 22.046 25.4799 21.1739 24.783C20.9286 24.599 16.5726 21.8377 14.9766 20.4884C14.8142 20.3784 14.6823 20.2291 14.5932 20.0545C14.504 19.8798 14.4604 19.6855 14.4666 19.4895C14.4727 19.2935 14.5283 19.1022 14.6282 18.9335C14.7281 18.7647 14.869 18.624 15.0379 18.5244C17.2269 16.5216 19.3762 14.4759 21.4846 12.3884Z" fill="#313131"/>
</svg>
