<svg width="142" height="36" viewBox="0 0 142 36" fill="none" xmlns="http://www.w3.org/2000/svg">
<g clip-path="url(#clip0_4001_42416)">
<path d="M124.95 31.7256L136.724 20.6174L124.95 9.46099H130.092L141.818 20.6174L130.092 31.7256H124.95Z" fill="#313131"/>
<path d="M11.7253 32.2341L0 21.126L11.7253 9.96954H16.8671L5.09378 21.126L16.8671 32.2341H11.7253Z" fill="#313131"/>
<path d="M64.1598 32.5837C61.9045 32.5837 59.9607 32.0644 58.3286 31.0257C56.6964 29.9871 55.4352 28.5923 54.5449 26.8415C53.6547 25.0906 53.2095 23.1321 53.2095 20.9657C53.2095 18.8291 53.6398 16.8854 54.5004 15.1345C55.3907 13.3837 56.6519 12.0037 58.2841 10.9948C59.9162 9.95613 61.8896 9.43681 64.2043 9.43681C66.0145 9.43681 67.617 9.80775 69.0117 10.5496C70.4065 11.2915 71.4897 12.3302 72.2612 13.6656V0.890264H76.0003V32.0495H72.6173L72.2612 28.3995C71.549 29.4678 70.5252 30.4322 69.1898 31.2928C67.8544 32.1534 66.1777 32.5837 64.1598 32.5837ZM64.5604 29.3342C66.1926 29.3342 67.5725 28.9633 68.7001 28.2214C69.8278 27.4498 70.6736 26.4409 71.2374 25.1945C71.8309 23.9185 72.1277 22.5237 72.1277 21.0103C72.1277 19.4078 71.8309 17.9834 71.2374 16.737C70.6439 15.4906 69.7833 14.5113 68.6556 13.7991C67.528 13.0572 66.1629 12.6863 64.5604 12.6863C63.136 12.6863 61.86 13.0275 60.7323 13.7101C59.6046 14.3926 58.6995 15.3571 58.017 16.6034C57.3641 17.8201 57.0377 19.2891 57.0377 21.0103C57.0377 22.7314 57.3789 24.2152 58.0615 25.4616C58.744 26.708 59.6491 27.6724 60.7768 28.3549C61.9341 29.0078 63.1953 29.3342 64.5604 29.3342Z" fill="#313131"/>
<path d="M82.5852 5.07451C81.8433 5.07451 81.2201 4.83711 80.7156 4.3623C80.2408 3.85781 80.0034 3.23463 80.0034 2.49274C80.0034 1.78053 80.2408 1.18702 80.7156 0.712211C81.2201 0.237404 81.8433 0 82.5852 0C83.2974 0 83.9057 0.237404 84.4102 0.712211C84.9147 1.18702 85.1669 1.78053 85.1669 2.49274C85.1669 3.23463 84.9147 3.85781 84.4102 4.3623C83.9057 4.83711 83.2974 5.07451 82.5852 5.07451ZM80.7156 32.0495V9.97097H84.4547V32.0495H80.7156Z" fill="#313131"/>
<path d="M95.55 32.0495L87.1815 9.97097H91.0987L97.7311 28.444L104.408 9.97097H108.236L99.8678 32.0495H95.55Z" fill="#313131"/>
<path d="M110.015 36L120.412 0.963241H124.488L114.034 36H110.015Z" fill="#313131"/>
<path fill-rule="evenodd" clip-rule="evenodd" d="M31.288 35.65C39.2527 35.65 45.7094 29.1556 45.7094 21.1443C45.7094 13.133 39.2527 6.63856 31.288 6.63856C23.3233 6.63856 16.8666 13.133 16.8666 21.1443C16.8666 29.1556 23.3233 35.65 31.288 35.65ZM34.9511 17.6547L31.2881 11.909L27.6251 17.6547L31.2881 23.4169L34.9511 17.6547ZM42.8743 21.1443V21.1481V21.1491V21.1507C42.8709 27.5834 37.6853 32.7972 31.2892 32.7972C24.893 32.7972 19.7074 27.5834 19.704 21.1507V21.1491V21.1481L19.704 21.1462L19.7041 21.1443C19.7067 20.8394 19.9531 20.593 20.2568 20.593C20.5605 20.593 20.807 20.8394 20.8096 21.1443C20.8096 26.9658 25.5015 31.6851 31.2892 31.6851C37.0769 31.6851 41.7688 26.9658 41.7688 21.1443C41.7714 20.8394 42.0178 20.593 42.3215 20.593C42.6252 20.593 42.8717 20.8394 42.8743 21.1443Z" fill="#313131"/>
</g>
<defs>
<clipPath id="clip0_4001_42416">
<rect width="141.818" height="36" fill="white"/>
</clipPath>
</defs>
</svg>
