<svg width="625" height="110" viewBox="0 0 625 110" fill="none" xmlns="http://www.w3.org/2000/svg">
<g clip-path="url(#clip0_2025_143010)">
<path d="M572.857 96.6621L608.728 62.8176L572.857 28.8259H588.523L624.248 62.8176L588.523 96.6621H572.857Z" fill="#313131"/>
<path d="M35.7248 98.2116L0 64.3671L35.7248 30.3754H51.3911L15.5198 64.3671L51.3911 98.2116H35.7248Z" fill="#313131"/>
<path d="M206.825 99.2766C202.214 99.2766 198.01 98.508 194.212 96.971C190.415 95.4339 187.386 93.1283 185.125 90.0542C182.955 86.8896 181.87 83.0469 181.87 78.5262C181.87 73.282 183.227 69.1229 185.939 66.0488C188.651 62.8842 192.223 60.6238 196.653 59.2676C201.174 57.8209 206.011 57.0976 211.165 57.0976H229.339C229.339 52.396 228.525 48.6889 226.897 45.9765C225.36 43.264 223.326 41.32 220.794 40.1446C218.263 38.9692 215.46 38.3815 212.386 38.3815C207.955 38.3815 204.113 39.4665 200.858 41.6365C197.693 43.7161 195.704 46.971 194.89 51.4014H183.227C183.679 46.519 185.306 42.405 188.109 39.0596C190.912 35.7143 194.438 33.1826 198.688 31.4647C203.028 29.6564 207.594 28.7522 212.386 28.7522C219.167 28.7522 224.637 30.0181 228.796 32.5497C232.955 34.9909 235.984 38.2911 237.883 42.4502C239.782 46.6094 240.731 51.2206 240.731 56.2839V76.8987C240.731 80.2441 241.138 82.7757 241.952 84.4936C242.765 86.2115 244.845 87.2513 248.19 87.6129V97.6491C245.207 97.6491 242.494 97.2874 240.053 96.5641C237.612 95.7504 235.532 94.4846 233.814 92.7666C232.187 90.9583 231.011 88.6075 230.288 85.7142C228.028 89.5117 224.908 92.7214 220.93 95.3435C217.042 97.9656 212.34 99.2766 206.825 99.2766ZM208.588 89.6473C213.109 89.6473 216.906 88.5171 219.981 86.2567C223.055 83.9059 225.36 80.9222 226.897 77.3055C228.525 73.6889 229.339 69.9366 229.339 66.0488V65.9131H212.114C208.95 65.9131 205.966 66.2748 203.163 66.9981C200.36 67.631 198.1 68.8517 196.382 70.66C194.664 72.3779 193.805 74.8191 193.805 77.9837C193.805 82.0524 195.252 85.0361 198.145 86.9348C201.038 88.7431 204.519 89.6473 208.588 89.6473Z" fill="#313131"/>
<path d="M285.429 99.2766C278.557 99.2766 272.635 97.6943 267.662 94.5297C262.689 91.3652 258.846 87.1157 256.134 81.7811C253.421 76.4466 252.065 70.4791 252.065 63.8788C252.065 57.3688 253.376 51.4466 255.998 46.1121C258.711 40.7775 262.553 36.5732 267.526 33.4991C272.499 30.3345 278.512 28.7522 285.564 28.7522C291.08 28.7522 295.962 29.8824 300.212 32.1428C304.461 34.4032 307.761 37.5678 310.112 41.6365V2.71247H321.504V97.6491H311.197L310.112 86.528C307.942 89.7829 304.823 92.7214 300.754 95.3435C296.685 97.9656 291.577 99.2766 285.429 99.2766ZM286.649 89.3761C291.622 89.3761 295.826 88.2458 299.262 85.9855C302.698 83.6346 305.275 80.5605 306.993 76.763C308.801 72.8752 309.705 68.6256 309.705 64.0144C309.705 59.132 308.801 54.792 306.993 50.9945C305.184 47.1971 302.562 44.2133 299.127 42.0434C295.691 39.783 291.532 38.6528 286.649 38.6528C282.309 38.6528 278.421 39.6926 274.986 41.7721C271.55 43.8517 268.792 46.7902 266.712 50.5877C264.723 54.2947 263.729 58.7703 263.729 64.0144C263.729 69.2585 264.769 73.7793 266.848 77.5768C268.928 81.3743 271.685 84.3128 275.121 86.3923C278.647 88.3815 282.49 89.3761 286.649 89.3761Z" fill="#313131"/>
<path d="M341.567 15.4611C339.307 15.4611 337.408 14.7378 335.871 13.2911C334.424 11.7541 333.701 9.85532 333.701 7.59493C333.701 5.42495 334.424 3.61663 335.871 2.16998C337.408 0.723325 339.307 0 341.567 0C343.737 0 345.591 0.723325 347.128 2.16998C348.665 3.61663 349.433 5.42495 349.433 7.59493C349.433 9.85532 348.665 11.7541 347.128 13.2911C345.591 14.7378 343.737 15.4611 341.567 15.4611ZM335.871 97.6491V30.3797H347.263V97.6491H335.871Z" fill="#313131"/>
<path d="M381.069 97.6491L355.571 30.3797H367.506L387.714 86.6636L408.058 30.3797H419.722L394.224 97.6491H381.069Z" fill="#313131"/>
<path d="M454.454 99.2766C448.125 99.2766 442.383 97.8299 437.23 94.9366C432.166 92.0433 428.143 87.9746 425.159 82.7305C422.175 77.396 420.684 71.1573 420.684 64.0144C420.684 57.0524 422.13 50.9493 425.024 45.7052C427.917 40.3707 431.895 36.2115 436.958 33.2278C442.022 30.2441 447.854 28.7522 454.454 28.7522C462.41 28.7522 469.101 30.8318 474.526 34.9909C480.042 39.1501 483.523 44.7106 484.969 51.6727H473.306C472.401 47.5135 470.186 44.3038 466.66 42.0434C463.134 39.6926 459.02 38.5171 454.318 38.5171C449.526 38.5171 445.503 39.6926 442.248 42.0434C438.993 44.3942 436.506 47.5135 434.788 51.4014C433.161 55.2893 432.347 59.4936 432.347 64.0144C432.347 68.9873 433.297 73.4177 435.195 77.3055C437.094 81.1934 439.671 84.2224 442.926 86.3923C446.271 88.5623 450.069 89.6473 454.318 89.6473C459.02 89.6473 463.134 88.5171 466.66 86.2567C470.186 83.9059 472.401 80.6057 473.306 76.3562H484.969C484.065 80.877 482.212 84.8553 479.409 88.2911C476.606 91.7269 473.08 94.4393 468.83 96.4285C464.58 98.3272 459.788 99.2766 454.454 99.2766Z" fill="#313131"/>
<path d="M527.353 109.685L559.03 2.93482H571.447L539.597 109.685H527.353Z" fill="#313131"/>
<path fill-rule="evenodd" clip-rule="evenodd" d="M95.3289 108.619C119.596 108.619 139.268 88.8318 139.268 64.4228C139.268 40.0139 119.596 20.2265 95.3289 20.2265C71.0619 20.2265 51.3896 40.0139 51.3896 64.4228C51.3896 88.8318 71.0619 108.619 95.3289 108.619ZM106.49 53.7905L95.3291 36.2845L84.1685 53.7905L95.3291 71.347L106.49 53.7905ZM130.63 64.4227V64.4344V64.4374V64.4424C130.62 84.0417 114.82 99.927 95.3324 99.927C75.8444 99.927 60.0449 84.0417 60.0344 64.4424V64.4374V64.4344L60.0345 64.4286L60.0347 64.4227C60.0426 63.494 60.7934 62.7432 61.7187 62.7432C62.6441 62.7432 63.3952 63.494 63.4031 64.4227C63.4031 82.1598 77.6983 96.5387 95.3324 96.5387C112.966 96.5387 127.262 82.1598 127.262 64.4227C127.27 63.494 128.021 62.7432 128.946 62.7432C129.871 62.7432 130.622 63.494 130.63 64.4227Z" fill="#313131"/>
</g>
<defs>
<clipPath id="clip0_2025_143010">
<rect width="624.248" height="109.685" fill="white"/>
</clipPath>
</defs>
</svg>
