<svg width="64" height="64" viewBox="0 0 64 64" fill="none" xmlns="http://www.w3.org/2000/svg">
<path fill-rule="evenodd" clip-rule="evenodd" d="M45.6959 27.5342C51.8321 32.1835 51.0578 42.5905 43.892 46.4625C44.2503 47.6854 45.1349 50.6618 45.2602 51.8484C44.722 53.106 43.6251 51.951 42.8746 51.4595L40.0461 49.6231C39.6494 49.3667 37.1084 47.7023 36.9901 47.6977C32.6739 47.5288 29.6991 48.3071 25.7862 45.745C23.1234 43.9785 21.8935 41.8048 20.7786 38.9651C17.7979 38.9706 17.7461 38.4488 15.3302 40.0176L11.4514 42.5007C10.7697 42.9383 9.40444 44.2693 8.7615 43.3681C8.49183 42.9469 9.81157 38.5798 9.97085 37.8842C2.31746 33.6121 1.80157 23.1453 9.70175 19.0252C12.5675 17.5305 15.0587 17.9147 18.1579 17.8683C20.3678 17.8353 22.5252 17.8669 24.738 17.9518L26.119 18.3703C29.2023 19.4561 31.6246 21.609 32.7001 24.771H37.8378C40.4366 24.7776 41.9072 25.2073 44.2046 26.4034L45.6959 27.5342ZM9.72385 36.0294C2.21163 31.1651 5.2213 19.7726 14.4792 19.329L20.1906 19.328C21.5987 19.3277 23.6609 19.2149 24.9609 19.5392C34.6958 21.9672 33.7522 36.225 23.9683 37.4296C23.1988 37.523 22.3525 37.4939 21.5813 37.4942L18.5338 37.4925C17.6165 37.4993 16.7593 37.32 15.9591 37.8278C14.2032 38.9424 12.4859 40.1299 10.6844 41.1695C10.9339 40.3412 11.1239 39.4175 11.3374 38.6129C11.8192 36.7961 10.9546 36.8264 9.72385 36.0294ZM33.3357 28.2858C33.326 27.7452 33.2577 27.2738 33.1859 26.7788C33.1599 26.5998 33.1335 26.4177 33.1093 26.2281C36.6927 26.0765 40.7106 25.9217 43.7738 27.9247C49.7036 31.8023 50.0205 40.6445 44.0383 44.642C43.9058 44.7307 43.7491 44.8157 43.587 44.9036C43.2103 45.108 42.8044 45.3282 42.604 45.6467C42.2426 46.2211 42.7635 48.082 43.0937 49.2616C43.1696 49.5329 43.2355 49.7683 43.2782 49.9435C42.711 49.5324 42.0125 49.0981 41.3321 48.6751C40.9416 48.4323 40.5571 48.1932 40.2068 47.9643C39.6607 47.6199 39.2673 47.3433 38.9508 47.1207C37.9125 46.3906 37.703 46.2433 35.6511 46.2001C35.0443 46.1873 34.4604 46.1954 33.8915 46.2033C31.7586 46.233 29.8372 46.2597 27.711 45.1694C25.1766 43.8698 23.2689 41.6572 22.3865 38.9651C22.5528 38.959 22.7216 38.9547 22.8914 38.9505C23.412 38.9374 23.943 38.924 24.4438 38.8563C29.6062 38.1577 33.428 33.4418 33.3357 28.2858Z" fill="#313131"/>
<path d="M33.3357 28.2858C33.428 33.4418 29.6062 38.1577 24.4438 38.8563C23.943 38.924 23.412 38.9374 22.8914 38.9505C22.7216 38.9547 22.5528 38.959 22.3865 38.9651C23.2689 41.6572 25.1766 43.8698 27.711 45.1694C29.8372 46.2597 31.7586 46.233 33.8915 46.2033C34.4604 46.1954 35.0443 46.1873 35.6511 46.2001C37.703 46.2433 37.9125 46.3906 38.9508 47.1207C39.2673 47.3433 39.6607 47.6199 40.2068 47.9643C40.5571 48.1932 40.9416 48.4323 41.3321 48.6751C42.0125 49.0981 42.711 49.5324 43.2782 49.9435C43.2355 49.7683 43.1696 49.5329 43.0937 49.2616C42.7635 48.082 42.2426 46.2211 42.604 45.6467C42.8044 45.3282 43.2103 45.108 43.587 44.9036C43.7491 44.8157 43.9058 44.7307 44.0383 44.642C50.0205 40.6445 49.7036 31.8023 43.7738 27.9247C40.7106 25.9217 36.6927 26.0765 33.1093 26.2281C33.1335 26.4177 33.1599 26.5998 33.1859 26.7788C33.2577 27.2738 33.326 27.7452 33.3357 28.2858Z" fill="#DEFFCC"/>
<path d="M14.4792 19.329C5.2213 19.7726 2.21163 31.1651 9.72385 36.0294C10.9546 36.8264 11.8192 36.7961 11.3374 38.6129C11.1239 39.4175 10.9339 40.3412 10.6844 41.1695C12.4859 40.1299 14.2032 38.9424 15.9591 37.8278C16.7593 37.32 17.6165 37.4993 18.5338 37.4925L21.5813 37.4942C22.3525 37.4939 23.1988 37.523 23.9683 37.4296C33.7522 36.225 34.6958 21.9672 24.9609 19.5392C23.6609 19.2149 21.5987 19.3277 20.1906 19.328L14.4792 19.329Z" fill="#DEFFCC"/>
<path d="M18.7809 30.5762C17.5391 30.6533 16.4682 29.7127 16.3842 28.4713C16.3001 27.2298 17.2346 26.1536 18.4755 26.0628C19.7262 25.9711 20.8127 26.9147 20.8973 28.1659C20.9821 29.4171 20.0326 30.4984 18.7809 30.5762ZM18.5424 27.0772C17.8608 27.1274 17.3475 27.7185 17.3936 28.4004C17.4396 29.0824 18.0277 29.5992 18.7098 29.5573C19.3978 29.5149 19.92 28.9207 19.8735 28.2329C19.827 27.5452 19.2298 27.0266 18.5424 27.0772Z" fill="#313131"/>
<path d="M18.5424 27.0772C17.8608 27.1274 17.3475 27.7185 17.3936 28.4004C17.4396 29.0824 18.0277 29.5992 18.7098 29.5573C19.3978 29.5149 19.92 28.9207 19.8735 28.2329C19.827 27.5452 19.2298 27.0266 18.5424 27.0772Z" fill="#DBDBDB"/>
<path d="M24.773 30.5598C23.5279 30.6264 22.4646 29.6709 22.3978 28.4258C22.3312 27.1805 23.2865 26.1171 24.5315 26.0502C25.7767 25.9834 26.8404 26.9389 26.907 28.1842C26.9738 29.4296 26.0184 30.4932 24.773 30.5598ZM24.4845 27.0729C23.8119 27.1693 23.342 27.7886 23.4303 28.4623C23.5185 29.1359 24.1319 29.6134 24.8066 29.5334C25.2504 29.4809 25.6316 29.1936 25.8045 28.7816C25.9775 28.3695 25.9156 27.8962 25.6424 27.5426C25.3692 27.1889 24.9268 27.0095 24.4845 27.0729Z" fill="#313131"/>
<path d="M24.4845 27.0729C23.8119 27.1693 23.342 27.7886 23.4303 28.4623C23.5185 29.1359 24.1319 29.6134 24.8066 29.5334C25.2504 29.4809 25.6316 29.1936 25.8045 28.7816C25.9775 28.3695 25.9156 27.8962 25.6424 27.5426C25.3692 27.1889 24.9268 27.0095 24.4845 27.0729Z" fill="#DBDBDB"/>
<path d="M13.0854 30.5151C11.8685 30.7282 10.7082 29.9179 10.4891 28.7021C10.2699 27.4861 11.0744 26.3218 12.289 26.0966C13.5124 25.8698 14.6867 26.6812 14.9074 27.9056C15.128 29.1301 14.3108 30.3005 13.0854 30.5151ZM12.5976 27.0752C11.9201 27.1357 11.4219 27.7371 11.4885 28.4141C11.5551 29.0911 12.1609 29.584 12.8373 29.5113C13.505 29.4396 13.9904 28.8431 13.9246 28.1746C13.8588 27.5061 13.2666 27.0155 12.5976 27.0752Z" fill="#313131"/>
<path d="M12.5976 27.0752C11.9201 27.1357 11.4219 27.7371 11.4885 28.4141C11.5551 29.0911 12.1609 29.584 12.8373 29.5113C13.505 29.4396 13.9904 28.8431 13.9246 28.1746C13.8588 27.5061 13.2666 27.0155 12.5976 27.0752Z" fill="#DBDBDB"/>
<path d="M40.8918 19.1747C40.4633 19.1596 39.8298 18.9954 39.7726 18.4802C39.587 16.8092 39.6633 14.1972 39.7296 12.442C39.7676 11.9039 40.1923 11.6769 40.659 11.584C41.0932 11.6259 41.4889 11.8154 41.6451 12.2537C41.7596 12.5741 41.7296 17.3917 41.6955 17.968C41.6613 18.5465 41.5204 18.9984 40.8918 19.1747Z" fill="#313131"/>
<path d="M50.1664 22.998C46.4875 22.5705 52.7791 17.622 53.4249 17.2934C53.546 17.2829 53.8357 17.2573 53.935 17.2963C56.2551 18.2123 52.1122 20.8988 51.5719 21.7338C51.3636 22.0556 50.2344 22.9654 50.1664 22.998Z" fill="#313131"/>
<path d="M58.7774 31.8573C58.4716 31.9479 54.2883 31.8676 53.5303 31.8921C52.727 31.9183 51.742 30.2176 54.0258 29.8156C54.7295 30.0973 58.6743 29.3587 59.6454 30.2219C60.3462 30.8447 59.9646 31.9415 58.7774 31.8573Z" fill="#313131"/>
</svg>
