<svg width="32" height="32" viewBox="0 0 32 32" fill="none" xmlns="http://www.w3.org/2000/svg">
<path d="M17.3039 25.1501C7.28197 25.1501 1.56768 18.293 1.33325 6.86438H6.37355C6.53472 15.2453 10.227 18.7911 13.1574 19.5237V6.86438H17.89V14.0878C20.7765 13.7801 23.8241 10.4834 24.8497 6.84973H29.5677C29.183 8.73071 28.4145 10.5121 27.3103 12.0827C26.2061 13.6533 24.7899 14.9794 23.1501 15.9779C24.98 16.8887 26.5961 18.1771 27.8917 19.7581C29.1874 21.3392 30.1331 23.1769 30.6666 25.1501H25.4651C24.3516 21.6776 21.5677 18.9816 17.89 18.6153V25.1501H17.3186H17.3039Z" fill="#313131"/>
</svg>
