<svg width="220" height="220" viewBox="0 0 220 220" fill="none" xmlns="http://www.w3.org/2000/svg">
<path d="M108.883 32.1353C117.473 31.5503 117.481 38.6824 117.487 45.0749L117.49 62.0381C117.489 67.0985 117.641 71.4126 111.59 73.1532C103.474 74.3198 102.594 68.1697 102.594 62.3363L102.598 44.3848C102.595 38.8375 102.038 33.548 108.883 32.1353ZM111.046 69.1657C114.7 67.343 113.27 58.5834 113.27 54.6341L113.267 45.5312C113.264 42.1 114.419 35.9727 109.188 36.418C106.095 37.4984 106.868 41.1944 106.867 43.809V60.1161C106.869 63.4608 105.668 69.9808 111.046 69.1657Z" fill="#313131"/>
<path d="M111.046 69.1657C114.7 67.343 113.27 58.5834 113.27 54.6341L113.267 45.5312C113.264 42.1 114.419 35.9727 109.188 36.418C106.095 37.4984 106.868 41.1944 106.867 43.809V60.1161C106.869 63.4608 105.668 69.9808 111.046 69.1657Z" fill="#CDCCFF"/>
<path d="M153.179 103.29C153.771 103.21 156.16 103.274 156.888 103.278L175.679 103.286C179.007 103.274 181.94 102.739 184.773 104.795C190.068 108.636 188.108 117.362 181.566 118.057C180.425 118.158 178.074 118.066 176.814 118.063L157.758 118.067C156.487 118.069 153.985 118.197 152.799 117.968C144.393 116.348 144.198 104.407 153.179 103.29ZM181.075 113.895C184.336 113.122 184.323 109.328 181.883 108.01C180.547 107.288 175.994 107.526 174.217 107.525L156.664 107.523C155.811 107.523 153.946 107.459 153.179 107.528C149.331 108.851 150.147 113.62 154.454 113.784C158.376 113.933 162.215 113.9 166.142 113.9L181.075 113.895Z" fill="#313131"/>
<path d="M181.075 113.895C184.336 113.122 184.323 109.328 181.883 108.01C180.547 107.288 175.994 107.526 174.217 107.525L156.664 107.523C155.811 107.523 153.946 107.459 153.179 107.528C149.331 108.851 150.147 113.62 154.454 113.784C158.376 113.933 162.215 113.9 166.142 113.9L181.075 113.895Z" fill="#CDCCFF"/>
<path d="M108.895 146.226C117.641 145.253 117.492 153.615 117.498 159.713L117.499 176.46C117.495 181.359 117.509 185.728 111.602 187.205C103.767 187.777 102.618 183.022 102.61 176.212L102.608 159.61C102.603 154.221 101.954 147.466 108.895 146.226ZM110.69 183.136C114.296 181.942 113.279 178.077 113.281 174.808L113.283 165.786C113.282 162.103 115.321 149.79 109.655 150.42C105.964 151.069 106.878 155.461 106.882 158.205L106.882 176.231C106.883 178.809 106.534 184.065 110.69 183.136Z" fill="#313131"/>
<path d="M110.69 183.136C114.296 181.942 113.279 178.077 113.281 174.808L113.283 165.786C113.282 162.103 115.321 149.79 109.655 150.42C105.964 151.069 106.878 155.461 106.882 158.205L106.882 176.231C106.883 178.809 106.534 184.065 110.69 183.136Z" fill="#CDCCFF"/>
<path d="M58.8988 52.6878C64.1857 51.5767 71.8848 61.4947 75.8487 65.4667L81.374 70.9882C84.5584 74.186 88.0793 77.2939 85.4814 82.2826C84.3492 84.4559 82.4306 85.4738 80.1593 86.194C72.8336 85.2345 70.7702 80.7275 65.5383 75.5081L58.1885 68.1635C57.0941 67.0643 54.7897 64.9958 54.0115 63.7445C51.0738 59.0223 53.4542 53.5506 58.8988 52.6878ZM79.7584 82.0187C82.6042 80.7512 82.9325 78.6216 80.8236 76.4018C74.716 69.9729 68.2295 63.9224 62.063 57.5519C61.2483 56.7106 60.5763 56.6096 59.426 56.8567C57.5569 57.1892 56.658 58.517 57.0155 60.3844C57.3386 62.0752 61.4232 65.5918 62.6525 66.8134L74.5227 78.6818C76.0588 80.211 77.414 82.115 79.7584 82.0187Z" fill="#313131"/>
<path d="M79.7584 82.0187C82.6042 80.7512 82.9325 78.6216 80.8236 76.4018C74.716 69.9729 68.2295 63.9224 62.063 57.5519C61.2483 56.7106 60.5763 56.6096 59.426 56.8567C57.5569 57.1892 56.658 58.517 57.0155 60.3844C57.3386 62.0752 61.4232 65.5918 62.6525 66.8134L74.5227 78.6818C76.0588 80.211 77.414 82.115 79.7584 82.0187Z" fill="#CDCCFF"/>
<path d="M159.847 52.6787C166.243 52.4149 169.679 59.8528 165.474 64.5046C162.754 67.5137 159.623 70.3195 156.765 73.2079L149.127 80.8808C146.416 83.5904 144.955 85.8978 140.885 86.1849C134.743 86.4049 131.259 79.3537 135.186 74.6456C136.62 72.9273 138.502 71.2352 140.096 69.6316L149.77 59.9542C152.864 56.9111 155.279 53.129 159.847 52.6787ZM140.885 82.0096C143.044 81.7999 144.741 79.3834 146.19 77.9452L159.283 64.8646C160.985 63.1674 163.269 61.7271 163.175 59.1429C162.327 57.5883 161.679 56.9348 159.847 56.8475C157.38 57.2841 142.066 73.5319 139.228 76.4069C136.785 78.8819 137.319 82.0401 140.885 82.0096Z" fill="#313131"/>
<path d="M140.885 82.0096C143.044 81.7999 144.741 79.3834 146.19 77.9452L159.283 64.8646C160.985 63.1674 163.269 61.7271 163.175 59.1429C162.327 57.5883 161.679 56.9348 159.847 56.8475C157.38 57.2841 142.066 73.5319 139.228 76.4069C136.785 78.8819 137.319 82.0401 140.885 82.0096Z" fill="#CDCCFF"/>
<path d="M39.1043 103.29C47.3849 103.414 59.063 102.508 67.0096 103.52C74.9343 104.927 74.8476 117.287 66.2297 118.057C64.9299 118.171 62.9306 118.067 61.5431 118.063L43.5556 118.062C42.2393 118.064 39.4702 118.198 38.3227 117.955C29.7237 116.132 29.9396 104.556 39.1043 103.29ZM66.2297 113.895C69.0657 113.077 69.6586 109.48 67.0655 107.935C65.7721 107.164 56.71 107.523 54.8916 107.523L39.1043 107.528C37.4194 107.941 35.8292 109.599 36.27 111.34C37.1194 114.695 41.6343 113.898 44.2203 113.898H61.8774C63.1085 113.899 65.0765 113.977 66.2297 113.895Z" fill="#313131"/>
<path d="M66.2297 113.895C69.0657 113.077 69.6586 109.48 67.0655 107.935C65.7721 107.164 56.71 107.523 54.8916 107.523L39.1043 107.528C37.4194 107.941 35.8292 109.599 36.27 111.34C37.1194 114.695 41.6343 113.898 44.2203 113.898H61.8774C63.1085 113.899 65.0765 113.977 66.2297 113.895Z" fill="#CDCCFF"/>
<path d="M78.0593 134.097C83.5159 133.456 87.9636 138.586 85.7443 143.969C84.7805 146.307 73.5515 156.722 71.3626 158.84C68.4528 161.656 64.9594 166.4 60.9328 167.253C54.4016 166.888 49.9444 161.241 53.9311 156.016C55.0362 154.568 56.4173 153.342 57.7042 152.069L71.3987 138.564C73.4836 136.507 75.0124 134.534 78.0593 134.097ZM56.8749 159.324C56.8577 161.525 57.8056 163.057 60.1779 163.07C62.6507 162.5 69.1695 155.226 71.2526 153.122C73.0844 151.272 82.8611 142.937 82.0846 140.445C81.6287 138.981 80.3977 138.247 78.9166 138.179C76.4987 138.525 71.8366 144.107 69.854 146.053L62.0333 153.789C60.7485 155.045 57.5697 157.845 56.8749 159.324Z" fill="#313131"/>
<path d="M56.8749 159.324C56.8577 161.525 57.8056 163.057 60.1779 163.07C62.6507 162.5 69.1695 155.226 71.2526 153.122C73.0844 151.272 82.8611 142.937 82.0846 140.445C81.6287 138.981 80.3977 138.247 78.9166 138.179C76.4987 138.525 71.8366 144.107 69.854 146.053L62.0333 153.789C60.7485 155.045 57.5697 157.845 56.8749 159.324Z" fill="#CDCCFF"/>
<path d="M140.346 134.105C144.361 133.559 146.64 136.736 149.221 139.292L162.412 152.28C163.998 153.854 166.461 155.968 166.919 158.196C167.852 162.728 165.41 166.257 160.946 167.261C155.757 167.487 154.624 164.974 151.207 161.559L141.145 151.35C139.031 149.192 136.534 147.057 134.667 144.705C131.945 140.173 134.989 134.436 140.346 134.105ZM160.538 163.078C165.569 160.817 161.408 157.228 159.143 154.966C153.832 149.675 148.441 144.073 142.95 139.005C142.171 138.285 141.393 138.037 140.346 138.187C138.099 139.025 136.855 141.149 138.712 143.061C144.553 149.076 150.582 154.914 156.482 160.872C157.856 162.255 158.376 163.139 160.538 163.078Z" fill="#313131"/>
<path d="M160.538 163.078C165.569 160.817 161.408 157.228 159.143 154.966C153.832 149.675 148.441 144.073 142.95 139.005C142.171 138.285 141.393 138.037 140.346 138.187C138.099 139.025 136.855 141.149 138.712 143.061C144.553 149.076 150.582 154.914 156.482 160.872C157.856 162.255 158.376 163.139 160.538 163.078Z" fill="#CDCCFF"/>
<path d="M68.2006 126.448C69.6332 126.374 70.0135 126.666 70.7848 127.863C70.8007 128.342 70.7873 128.861 70.7848 129.343C69.7711 130.638 67.847 131.219 66.3577 131.889L59.062 135.131C53.5809 137.542 47.8665 140.217 42.3176 142.391C40.5594 142.705 39.9728 141.731 39.6406 140.201C40.2527 138.102 42.6946 137.662 44.683 136.783L61.9835 129.115C63.887 128.269 66.2748 127.143 68.2006 126.448Z" fill="#313131"/>
<path d="M126.906 148.998C129.753 148.755 131.64 156.122 132.636 158.492L139.502 174.539C140.165 176.094 140.887 177.244 140.887 178.947C140.484 179.814 140.167 180.144 139.355 180.64C136.796 180.914 136.224 177.706 135.356 175.676L127.582 157.206C126.461 154.559 123.639 150.549 126.906 148.998Z" fill="#313131"/>
<path d="M79.7573 40.2829C82.2229 40.2028 82.7943 43.1176 83.6159 44.9618L86.7711 52.0344L91.5535 62.2855C92.9401 65.2357 96.2668 69.3796 92.9053 71.2161C91.5299 71.2393 91.0031 71.0739 90.362 69.7999C87.5948 64.3016 85.1903 58.6198 82.6556 53.012L79.6091 46.2564C78.6122 44.0294 76.783 41.6308 79.7573 40.2829Z" fill="#313131"/>
<path d="M92.9099 149.426C93.9893 149.686 95.5391 150.537 95.1395 151.725C94.0387 155.001 92.2585 158.751 90.853 161.852L86.8302 170.838C85.6946 173.362 83.8452 179.922 81.417 180.649C80.103 180.686 79.4134 180.121 78.918 178.956C79.2548 177.453 79.9346 176.126 80.5538 174.714L82.8341 169.53C84.3509 166.097 90.3472 150.344 92.9099 149.426Z" fill="#313131"/>
<path d="M40.6255 80.2422C41.8912 80.2667 48.937 83.4606 50.575 84.1489L62.4631 89.1324C65.4748 90.4116 69.9603 90.9337 69.4649 94.4442C69.0348 95.0694 68.8728 95.3878 68.2072 95.7204C66.5168 95.7612 63.4127 94.1688 61.7799 93.4693L44.9663 86.4112C43.2634 85.7207 41.5554 85.1041 39.9172 84.2477C37.7863 83.1336 38.7542 80.9048 40.6255 80.2422Z" fill="#313131"/>
<path d="M176.009 78.4504C178.405 78.2218 179.574 81.0844 177.384 82.285C172.721 84.8412 166.614 87.3544 161.724 89.5531L153.986 93.0809C153 93.5226 151.957 94.0756 150.96 94.4498C149.052 94.6896 147.868 92.93 148.683 91.195C149.115 90.2767 162.29 84.6629 164.024 83.8516L171.507 80.3703C172.715 79.8134 174.809 78.786 176.009 78.4504Z" fill="#313131"/>
<path d="M150.947 125.364C152.433 125.264 155.424 126.757 156.919 127.382L173.916 134.328C175.517 134.999 183.12 137.915 177.596 140.186C176.61 140.353 153.538 130.653 150.923 129.535C148.803 128.455 148.658 126.552 150.947 125.364Z" fill="#313131"/>
<path d="M137.711 39.5508C139.013 39.5474 140.892 40.4387 140.273 41.9486C138.744 45.6749 130.03 68.2511 127.704 69.181C126.411 69.257 124.727 68.2748 125.187 66.9066C127.827 59.0597 132.228 50.5218 135.392 42.7385C135.96 41.3688 136.28 40.148 137.711 39.5508Z" fill="#313131"/>
</svg>
