<svg width="64" height="64" viewBox="0 0 64 64" fill="none" xmlns="http://www.w3.org/2000/svg">
<path d="M24.8775 9.34476C29.1023 9.30695 32.5031 10.3285 35.867 12.9599C42.5355 18.1763 44.0456 28.4059 38.7133 35.1239C39.5108 35.844 40.4598 36.8588 41.2438 37.636C41.5351 37.3699 41.8286 37.0839 42.1155 36.8111C42.3458 37.1276 42.884 37.647 43.1684 37.932L52.3025 47.0619C52.9183 47.7563 53.8599 48.4304 54.2449 49.2921C55.3515 51.7693 53.5673 54.6278 50.8383 54.5984C48.9473 54.578 48.2379 53.5826 47.0235 52.3783L44.2935 49.6495L36.7846 42.2063C36.9306 42.0098 37.4703 41.5181 37.6839 41.2989C36.835 40.4545 35.8344 39.4359 34.9653 38.6474C34.6803 38.9031 34.2208 39.1739 33.8826 39.3676C28.0303 42.7231 20.9045 42.1801 15.5896 38.0276C4.50482 29.367 9.27796 12.0755 22.6831 9.59657C23.4379 9.45703 24.1278 9.43958 24.8775 9.34476ZM26.453 40.2703C34.6364 39.8379 40.9214 32.8559 40.4938 24.6723C40.066 16.4886 33.0876 10.1998 24.9038 10.6228C16.7134 11.0461 10.4183 18.0314 10.8463 26.2216C11.2743 34.4118 18.2631 40.7029 26.453 40.2703ZM50.0286 46.5918C49.3789 46.0271 48.8676 45.4861 48.2651 44.888L43.0861 39.7051C42.7745 39.3894 42.41 39.062 42.1155 38.7423C41.019 39.7608 39.6131 41.0973 38.6174 42.2063C38.9846 42.5171 39.3571 42.9033 39.7028 43.2444L46.5236 50.0026C47.6811 48.9578 48.8493 47.5366 50.0286 46.5918ZM47.5269 51.0024C48.3345 51.6706 49.1355 52.7663 50.0286 53.1621C52.5213 53.7143 54.0243 51.2746 52.9504 49.698C52.663 49.3259 51.1983 47.7863 50.9029 47.5856C49.9008 48.5666 48.4291 49.9585 47.5269 51.0024ZM36.0745 37.8419C36.7324 38.3636 38.0221 40.0315 38.6174 40.3503C38.9831 39.9078 39.8935 38.9775 40.3638 38.6474C39.8666 38.0384 38.4818 36.6233 37.8506 36.1249C37.2796 36.7191 36.6331 37.2439 36.0745 37.8419Z" fill="#313131"/>
<path d="M50.0286 46.5918C49.3789 46.0271 48.8676 45.4861 48.2651 44.888L43.0861 39.7051C42.7745 39.3894 42.41 39.062 42.1155 38.7423C41.019 39.7608 39.6131 41.0973 38.6174 42.2063C38.9846 42.5171 39.3571 42.9033 39.7028 43.2444L46.5236 50.0026C47.6811 48.9578 48.8493 47.5366 50.0286 46.5918Z" fill="#DEFFCC"/>
<path d="M47.5269 51.0024C48.3345 51.6706 49.1355 52.7663 50.0286 53.1621C52.5213 53.7143 54.0243 51.2746 52.9504 49.698C52.663 49.3259 51.1983 47.7863 50.9029 47.5856C49.9008 48.5666 48.4291 49.9585 47.5269 51.0024Z" fill="#DBDBDB"/>
<path d="M26.453 40.2703C34.6364 39.8379 40.9214 32.8559 40.4938 24.6723C40.066 16.4886 33.0876 10.1998 24.9038 10.6228C16.7134 11.0461 10.4183 18.0314 10.8463 26.2216C11.2743 34.4118 18.2631 40.7029 26.453 40.2703Z" fill="#DEFFCC"/>
<path d="M24.9186 12.7744C31.9274 12.3434 37.9594 17.6742 38.3933 24.6829C38.8272 31.6917 33.4988 37.7257 26.4903 38.1624C19.4777 38.5994 13.4393 33.2673 13.0052 26.2545C12.5711 19.2418 17.9057 13.2057 24.9186 12.7744ZM26.5526 36.8278C32.8254 36.3542 37.5251 30.8828 37.0469 24.6103C36.5687 18.3379 31.0939 13.6422 24.8218 14.1249C18.5562 14.6072 13.8663 20.075 14.3439 26.3412C14.8217 32.6072 20.2862 37.3009 26.5526 36.8278Z" fill="#313131"/>
<path d="M26.5526 36.8278C32.8254 36.3542 37.5251 30.8828 37.0469 24.6103C36.5687 18.3379 31.0939 13.6422 24.8218 14.1249C18.5562 14.6072 13.8663 20.075 14.3439 26.3412C14.8217 32.6072 20.2862 37.3009 26.5526 36.8278Z" fill="#CCE8FF"/>
</svg>
