<svg width="64" height="64" viewBox="0 0 64 64" fill="none" xmlns="http://www.w3.org/2000/svg">
<path d="M11.7056 46.1888C13.89 46.1595 16.1422 46.1888 18.3334 46.1888L38.3532 46.1881C39.5812 46.1873 40.865 46.1503 42.084 46.2313C44.4899 46.3913 43.9642 50.1567 43.9703 51.7447C43.9755 53.1503 43.3907 54.3732 41.8204 54.5691C39.4758 54.5441 37.0814 54.569 34.7323 54.569L12.8547 54.5716C12.4306 54.5758 12.014 54.597 11.5807 54.5552C9.04316 54.3632 9.56366 51.292 9.54202 49.5748C9.52097 47.9051 9.72241 46.41 11.7056 46.1888ZM37.8594 53.5332L40.2558 53.5357C41.4729 53.536 42.9347 53.6826 42.9077 51.9772C42.8905 50.8916 43.3869 47.4093 41.9512 47.2872C40.8868 47.1966 39.7827 47.2297 38.7112 47.2296L15.6397 47.2305L13.2157 47.2291C10.9595 47.2296 10.5947 47.094 10.5911 49.6595L10.5921 52.0201C10.6069 53.5982 11.5792 53.5351 12.776 53.535L37.8594 53.5332Z" fill="#313131"/>
<path d="M37.8594 53.5332L40.2558 53.5357C41.4729 53.536 42.9347 53.6826 42.9077 51.9772C42.8905 50.8916 43.3869 47.4093 41.9512 47.2872C40.8868 47.1966 39.7827 47.2297 38.7112 47.2296L15.6397 47.2305L13.2157 47.2291C10.9595 47.2296 10.5947 47.094 10.5911 49.6595L10.5921 52.0201C10.6069 53.5982 11.5792 53.5351 12.776 53.535L37.8594 53.5332Z" fill="#DEFFCC"/>
<path d="M11.7056 48.0062C11.9087 47.9857 12.4418 48.0025 12.6682 48.0033L41.3403 48.0017C42.0597 48.0066 42.131 48.2255 42.1298 48.896C42.1283 49.7308 42.3687 52.1725 41.8204 52.701C41.4027 52.735 40.4155 52.7014 39.9457 52.7012L13.0493 52.7029C12.6432 52.7044 11.9211 52.7264 11.546 52.6601C11.2429 52.2202 11.3059 48.5396 11.411 48.2744C11.4676 48.1311 11.5695 48.0647 11.7056 48.0062ZM12.4133 51.6566H40.9767L41.0544 51.6444C41.1387 51.4423 41.0708 49.4469 41.0889 49.0658H12.5762L12.4533 49.0785C12.3809 49.1692 12.4071 51.3406 12.4133 51.6566Z" fill="#313131"/>
<path d="M12.4133 51.6566H40.9767L41.0544 51.6444C41.1387 51.4423 41.0708 49.4469 41.0889 49.0658H12.5762L12.4533 49.0785C12.3809 49.1692 12.4071 51.3406 12.4133 51.6566Z" fill="#CCE8FF"/>
<path d="M45.4897 40.9092C45.8852 40.8909 46.2399 40.9611 46.6294 41.0204L47.9979 41.2199C48.6154 41.3045 52.6537 41.513 52.4742 42.2826C52.3681 42.7377 51.5074 43.4317 51.1842 43.7334C56.5447 46.2112 54.7749 55.3202 47.8806 54.4725C47.0182 54.3155 43.3408 52.6764 45.3738 52.0957C45.5759 52.1381 45.9112 52.2654 46.1212 52.3402C48.4021 53.1536 50.8792 51.6926 50.4772 49.1104C50.2918 47.92 48.9424 46.8555 47.9613 46.189C47.4704 46.53 46.5759 47.3732 46.1306 47.5261C45.8352 47.4175 45.6826 47.3322 45.6499 47C45.4894 45.3622 45.1533 42.7916 45.2024 41.1777C45.3062 41.0341 45.3389 40.9987 45.4897 40.9092ZM46.5773 45.8957C46.9912 45.5952 47.5422 45.0519 47.9613 44.8779C48.5312 45.0869 50.2738 46.7345 50.7706 47.2649C52.2972 49.0356 51.5649 52.2007 49.4312 53.1407C49.1101 53.2787 48.6907 53.4147 48.3484 53.5334C48.8618 53.4904 49.5308 53.452 50.0149 53.3265C53.4383 52.2316 54.4271 47.9471 51.9124 45.5062C50.1908 43.8351 48.6749 44.9022 50.8012 42.6807L47.6439 42.219C47.2347 42.1591 46.6868 42.0995 46.2917 42.0215C46.3687 43.2716 46.6102 44.6572 46.5773 45.8957Z" fill="#313131"/>
<path d="M46.5773 45.8957C46.9912 45.5952 47.5422 45.0519 47.9613 44.8779C48.5312 45.0869 50.2738 46.7345 50.7706 47.2649C52.2972 49.0356 51.5649 52.2007 49.4312 53.1407C49.1101 53.2787 48.6907 53.4147 48.3484 53.5334C48.8618 53.4904 49.5308 53.452 50.0149 53.3265C53.4383 52.2316 54.4271 47.9471 51.9124 45.5062C50.1908 43.8351 48.6749 44.9022 50.8012 42.6807L47.6439 42.219C47.2347 42.1591 46.6868 42.0995 46.2917 42.0215C46.3687 43.2716 46.6102 44.6572 46.5773 45.8957Z" fill="#DEFFCC"/>
<path d="M31.7072 35.328C33.8055 35.1292 34.3537 36.4794 34.3357 38.3214L34.3293 40.1435C34.3302 42.0027 34.8727 44.4392 32.379 44.8802C29.1012 45.033 29.7481 41.9525 29.6837 39.8685C29.6298 38.1237 29.343 35.6024 31.7072 35.328ZM32.199 43.8463C33.6428 43.5079 33.2812 42.1815 33.2795 41.0528V38.8052C33.279 37.7082 33.5125 36.2509 31.8688 36.3547C30.3092 36.6779 30.7383 38.6463 30.7136 39.9182C30.7251 41.3118 30.2138 43.9034 32.199 43.8463Z" fill="#313131"/>
<path d="M32.199 43.8463C33.6428 43.5079 33.2812 42.1815 33.2795 41.0528V38.8052C33.279 37.7082 33.5125 36.2509 31.8688 36.3547C30.3092 36.6779 30.7383 38.6463 30.7136 39.9182C30.7251 41.3118 30.2138 43.9034 32.199 43.8463Z" fill="#CCE8FF"/>
<path d="M39.3448 32.1625C41.0393 32.067 43.0685 34.9141 44.3341 36.1154C46.0728 37.7655 45.6365 40.2194 43.261 40.4231C42.0135 40.4613 41.7653 40.0185 40.9569 39.2071L38.9531 37.181C37.1634 35.3884 36.1415 34.7564 38.4301 32.6251C38.7239 32.3516 38.9593 32.2539 39.3448 32.1625ZM43.1078 39.3741C43.5296 39.3398 43.8289 39.2569 44.1063 38.9055C44.9369 37.8529 43.7763 37.0219 43.104 36.3556L41.1914 34.4791C40.7403 34.0355 40.1203 33.1624 39.4801 33.1844C39.115 33.3459 37.8996 34.4453 38.2255 34.8955C38.7276 35.5893 39.5146 36.279 40.1336 36.9074L41.5773 38.3553C42.1039 38.8763 42.3309 39.2723 43.1078 39.3741Z" fill="#313131"/>
<path d="M43.1078 39.3741C43.5296 39.3398 43.8289 39.2569 44.1063 38.9055C44.9369 37.8529 43.7763 37.0219 43.104 36.3556L41.1914 34.4791C40.7403 34.0355 40.1203 33.1624 39.4801 33.1844C39.115 33.3459 37.8996 34.4453 38.2255 34.8955C38.7276 35.5893 39.5146 36.279 40.1336 36.9074L41.5773 38.3553C42.1039 38.8763 42.3309 39.2723 43.1078 39.3741Z" fill="#CCE8FF"/>
<path d="M24.1521 32.2931C25.2749 32.1769 26.3734 32.9282 26.6797 34.017C27.2674 35.7841 24.8461 37.3601 23.7299 38.5383C22.9249 39.3881 22.3777 40.1425 21.2041 40.4258C19.2595 40.459 17.839 38.6587 18.8512 37.0359C19.117 36.6099 19.5039 36.2623 19.8551 35.9112L22.3441 33.4226C23.0166 32.747 23.1712 32.4416 24.1521 32.2931ZM21.2041 39.3768C22.082 39.0142 24.3174 36.2758 25.185 35.5878C26.1596 34.8149 25.652 33.2586 24.1521 33.3477C23.5366 33.5503 20.6664 36.5505 20.0535 37.1786C19.0154 38.2426 19.9476 39.4168 21.2041 39.3768Z" fill="#313131"/>
<path d="M21.2041 39.3768C22.082 39.0142 24.3174 36.2758 25.185 35.5878C26.1596 34.8149 25.652 33.2586 24.1521 33.3477C23.5366 33.5503 20.6664 36.5505 20.0535 37.1786C19.0154 38.2426 19.9476 39.4168 21.2041 39.3768Z" fill="#CCE8FF"/>
<path d="M42.9047 14.0775C45.0551 13.8776 46.2618 16.4276 44.8142 17.9845C44.2218 18.6216 43.5951 19.2077 42.9775 19.8191L41.8255 20.9645C41.1536 21.6316 40.8011 22.0372 39.8027 22.1082C37.7518 22.159 36.4912 19.7682 37.768 18.4257C38.7318 17.4122 41.5523 14.2131 42.9047 14.0775ZM39.8027 21.0914C40.6562 20.9214 41.2913 20.0236 41.9018 19.3992C42.6693 18.6044 43.5588 17.8869 44.2391 17.015C44.7532 16.356 44.0755 15.0134 43.1056 15.0975C41.9421 15.3267 40.6236 17.107 39.6918 17.9931C39.0852 18.5965 38.0406 19.2277 38.4412 20.1896C38.6962 20.8017 39.0882 21.1045 39.8027 21.0914Z" fill="#313131"/>
<path d="M39.8027 21.0914C40.6562 20.9214 41.2913 20.0236 41.9018 19.3992C42.6693 18.6044 43.5588 17.8869 44.2391 17.015C44.7532 16.356 44.0755 15.0134 43.1056 15.0975C41.9421 15.3267 40.6236 17.107 39.6918 17.9931C39.0852 18.5965 38.0406 19.2277 38.4412 20.1896C38.6962 20.8017 39.0882 21.1045 39.8027 21.0914Z" fill="#CCE8FF"/>
<path d="M20.7318 14.0801C22.1788 13.8896 23.6809 15.7403 24.5824 16.7342C25.6224 17.8808 27.4071 18.8317 26.5761 20.6336C26.173 21.5076 25.6081 21.7903 24.7726 22.1108C23.1946 22.2253 22.863 21.5254 21.854 20.5388L20.0225 18.7233C19.3749 18.0749 18.7424 17.6289 18.6518 16.657C18.5298 15.3488 19.4214 14.2223 20.7318 14.0801ZM24.6479 21.0939C25.1895 20.8064 26.0786 19.8956 25.5879 19.2803C24.8336 18.3344 23.8728 17.5136 23.0236 16.6523C22.3773 15.9967 21.6975 15.0341 20.7318 15.1001C19.4201 15.5681 19.3489 16.5538 20.3226 17.5043C21.2986 18.457 23.3793 21.1941 24.6479 21.0939Z" fill="#313131"/>
<path d="M24.6479 21.0939C25.1895 20.8064 26.0786 19.8956 25.5879 19.2803C24.8336 18.3344 23.8728 17.5136 23.0236 16.6523C22.3773 15.9967 21.6975 15.0341 20.7318 15.1001C19.4201 15.5681 19.3489 16.5538 20.3226 17.5043C21.2986 18.457 23.3793 21.1941 24.6479 21.0939Z" fill="#CCE8FF"/>
<path d="M42.6516 25.0658C44.0085 25.0228 46.7224 24.9498 48.0144 25.1128C50.5132 25.428 50.7631 29.0601 47.9621 29.7443C46.4696 29.787 43.8627 29.8689 42.4002 29.7126C40.1545 29.4726 39.7564 25.4741 42.6516 25.0658ZM47.8814 28.6965C49.0915 28.4163 49.32 26.7699 48.2537 26.2479C47.836 26.0433 46.4865 26.1078 45.9845 26.1079L42.777 26.1094C41.4944 26.2676 41.3309 27.7579 42.1186 28.5044C42.4147 28.7849 43.9245 28.6988 44.3881 28.6986L47.8814 28.6965Z" fill="#313131"/>
<path d="M47.8814 28.6965C49.0915 28.4163 49.32 26.7699 48.2537 26.2479C47.836 26.0433 46.4865 26.1078 45.9845 26.1079L42.777 26.1094C41.4944 26.2676 41.3309 27.7579 42.1186 28.5044C42.4147 28.7849 43.9245 28.6988 44.3881 28.6986L47.8814 28.6965Z" fill="#CCE8FF"/>
<path d="M31.7111 9.32134C35.0877 8.95754 34.3469 13.5145 34.3383 15.7075C34.3326 17.1682 34.1784 18.5103 32.3828 18.5715C30.1171 18.5954 29.6879 17.9599 29.6871 15.7023L29.6873 13.6179C29.6876 11.8282 29.2688 9.67281 31.7111 9.32134ZM32.3828 17.5378C32.8119 17.5149 33.2391 17.2375 33.2553 16.776C33.3159 15.063 33.2821 13.3352 33.2714 11.6201C33.2657 10.7008 32.5689 10.2888 31.7111 10.3476C31.1159 10.5319 30.7736 10.956 30.7277 11.5663C30.6858 12.1222 30.6767 16.6502 30.7682 16.925C31.0079 17.6464 31.7681 17.5423 32.3828 17.5378Z" fill="#313131"/>
<path d="M32.3828 17.5378C32.8119 17.5149 33.2391 17.2375 33.2553 16.776C33.3159 15.063 33.2821 13.3352 33.2714 11.6201C33.2657 10.7008 32.5689 10.2888 31.7111 10.3476C31.1159 10.5319 30.7736 10.956 30.7277 11.5663C30.6858 12.1222 30.6767 16.6502 30.7682 16.925C31.0079 17.6464 31.7681 17.5423 32.3828 17.5378Z" fill="#CCE8FF"/>
<path d="M16.6588 25.0667C18.2388 25.0676 19.8255 25.0796 21.4041 25.0472C23.3938 24.9169 24.1121 27.8408 22.8785 29.0481C22.2836 29.6303 21.6374 29.6018 20.8595 29.5963C19.3556 29.5963 17.8505 29.5993 16.347 29.5966C13.4076 29.6231 13.0489 24.9596 16.6588 25.0667ZM21.3148 28.5481C22.4433 28.5277 22.4024 27.8621 22.3803 26.9314C22.3536 25.8069 20.4851 26.1074 19.7211 26.1092L16.1606 26.1103C14.7658 26.3141 14.7908 28.3069 15.9889 28.5183C16.3829 28.5877 17.3848 28.5488 17.8265 28.5488L21.3148 28.5481Z" fill="#313131"/>
<path d="M21.3148 28.5481C22.4433 28.5277 22.4024 27.8621 22.3803 26.9314C22.3536 25.8069 20.4851 26.1074 19.7211 26.1092L16.1606 26.1103C14.7658 26.3141 14.7908 28.3069 15.9889 28.5183C16.3829 28.5877 17.3848 28.5488 17.8265 28.5488L21.3148 28.5481Z" fill="#CCE8FF"/>
</svg>
