<svg width="64" height="64" viewBox="0 0 64 64" fill="none" xmlns="http://www.w3.org/2000/svg">
<path d="M45.0437 18.5428C44.2682 18.9445 39.6368 21.9041 38.9745 21.5901C38.4686 21.3504 38.3533 20.9679 38.5012 20.449L40.3327 14.2256C40.5547 13.4647 40.6242 12.3221 41.3986 12.1256C43.053 12.0813 41.8125 14.5732 41.5455 15.4796C41.165 16.7716 40.8257 18.084 40.4222 19.3681C41.8361 18.7351 43.4092 17.6773 44.7917 16.9231C45.2283 16.7078 45.6867 16.3602 46.1385 16.1851C46.6684 15.9798 47.1851 16.51 47.0589 17.057C46.1377 20.7744 44.9005 24.5249 43.9097 28.2555C44.1871 28.1632 44.4819 28.0788 44.7667 28.0123L55.6903 25.4357C56.3815 25.2785 57.1205 25.0162 57.3323 25.961C57.455 26.3281 50.1992 35.3742 49.3823 36.4565C50.7296 36.6837 55.1686 37.3326 56.2188 37.7813C57.9284 38.5118 54.1641 40.2167 53.7892 40.4251L49.6593 42.7579C49.2706 42.9623 48.7356 43.2511 48.3552 43.464C47.5061 44.022 46.7355 42.6552 47.4659 42.2426C49.4917 41.0982 51.5378 39.9142 53.5851 38.8086C51.7782 38.5215 49.949 38.0591 48.1463 37.7287C47.5192 37.6585 47.1218 36.9578 47.5272 36.4216C49.8566 33.3416 52.2054 30.2668 54.5891 27.2263L47.0787 29.0365C45.9516 29.3168 43.854 29.9658 42.742 30.0153C41.5117 29.4929 42.5612 27.4477 42.8372 26.3954C43.526 23.7695 44.3744 21.1724 45.0437 18.5428Z" fill="#313131"/>
<path d="M30.594 54.3569L16.5604 54.3587C15.9 54.3589 15.208 54.387 14.5559 54.3076C12.5423 54.0657 11.4532 51.7691 12.2767 49.9863C12.5972 49.2927 13.01 48.6065 13.3825 47.9357L26.9847 23.5882C27.7484 22.2301 28.196 21.2122 29.9105 20.995C32.0241 20.7487 32.7105 22.2808 33.5483 23.7638L46.7405 47.6882C47.7134 49.4903 49.4435 51.5149 47.4927 53.4517C46.4391 54.4976 45.3271 54.3582 43.9771 54.358L30.594 54.3569ZM29.9105 22.5122C29.0171 22.702 28.7197 23.6037 28.305 24.3461L13.6754 50.5337C13.2753 51.2638 13.5517 52.2854 14.2543 52.643C14.8841 52.9634 16.3197 52.8658 17.0377 52.8652L30.4544 52.8633L43.8986 52.8652C45.082 52.8659 46.7664 53.1031 46.8369 51.2901C46.8608 50.6765 44.1038 46.0537 43.6408 45.2004L34.2227 28.1448C33.6225 27.0807 33.0753 25.9473 32.4495 24.901C31.7843 23.7888 31.489 22.3398 29.9105 22.5122Z" fill="#313131"/>
<path d="M29.9105 22.5122C29.0171 22.702 28.7197 23.6037 28.305 24.3461L13.6754 50.5337C13.2753 51.2638 13.5517 52.2854 14.2543 52.643C14.8841 52.9634 16.3197 52.8658 17.0377 52.8652L30.4544 52.8633L43.8986 52.8652C45.082 52.8659 46.7664 53.1031 46.8369 51.2901C46.8608 50.6765 44.1038 46.0537 43.6408 45.2004L34.2227 28.1448C33.6225 27.0807 33.0753 25.9473 32.4495 24.901C31.7843 23.7888 31.489 22.3398 29.9105 22.5122Z" fill="#FFD7CC"/>
<path d="M31.2786 44.1496C28.8995 45.1617 28.0056 43.2848 27.8068 41.3426L26.8213 32.0037C26.6466 30.3581 26.9299 29.0428 28.8252 28.8789C29.8445 28.8772 31.086 28.8094 32.0796 28.9703C34.0074 29.2824 33.5128 31.7268 33.3921 33.026L32.6709 40.7722C32.5407 42.2207 32.6929 43.3517 31.2786 44.1496ZM28.8943 30.3749C27.9354 30.4358 28.2487 31.4118 28.3261 32.1328L29.2447 40.5099C29.2972 41.0003 29.3242 42.394 29.7024 42.7272C30.0452 43.0292 30.66 42.8488 30.9359 42.4508L30.9587 42.4171C31.126 41.8596 31.1996 40.2108 31.2653 39.5525L31.8382 33.4306C31.8924 32.8263 32.082 31.3299 32.0559 30.7884C31.5755 30.0797 29.7776 30.3768 28.8943 30.3749Z" fill="#313131"/>
<path d="M30.5886 51.0494C29.0147 51.2548 27.5696 50.1523 27.3519 48.58C27.1341 47.0077 28.2252 45.5541 29.7957 45.3239C31.3838 45.0911 32.8574 46.197 33.0777 47.7871C33.2979 49.377 32.1803 50.8418 30.5886 51.0494ZM30.0703 46.7954C29.3005 46.8746 28.7394 47.5612 28.8152 48.3315C28.891 49.1017 29.5751 49.6659 30.3457 49.5936C31.1212 49.5207 31.6897 48.8312 31.6134 48.0562C31.5371 47.2811 30.8451 46.7157 30.0703 46.7954Z" fill="#313131"/>
</svg>
