<svg width="24" height="24" viewBox="0 0 24 24" fill="none" xmlns="http://www.w3.org/2000/svg">
<path d="M16.9991 12.9999L12.9991 21.9999C12.2034 21.9999 11.4403 21.6838 10.8777 21.1212C10.3151 20.5586 9.99905 19.7955 9.99905 18.9999V14.9999H4.33905C4.04915 15.0032 3.76199 14.9434 3.49748 14.8247C3.23297 14.7059 2.99744 14.5311 2.8072 14.3124C2.61695 14.0936 2.47655 13.8361 2.39571 13.5576C2.31488 13.2792 2.29555 12.9865 2.33905 12.6999L3.71905 3.69987C3.79138 3.22297 4.03362 2.78827 4.40115 2.47587C4.76868 2.16347 5.23673 1.99442 5.71905 1.99987H16.9991M16.9991 12.9999V1.99987M16.9991 12.9999H19.6691C20.235 13.0099 20.785 12.8117 21.2145 12.4431C21.644 12.0744 21.9232 11.5608 21.9991 10.9999V3.99987C21.9232 3.43893 21.644 2.92538 21.2145 2.55669C20.785 2.18801 20.235 1.98986 19.6691 1.99987H16.9991" stroke="#313131" stroke-width="1.5" stroke-linecap="round" stroke-linejoin="round"/>
</svg>
