<svg width="252" height="160" viewBox="0 0 252 160" fill="none" xmlns="http://www.w3.org/2000/svg">
<rect width="63" height="38" fill="#313131"/>
<path d="M18.88 24V18.776H14.72V24H13.336V12.984H14.72V17.64H18.88V12.984H20.264V24H18.88ZM27.0578 14.176V24H25.6738V14.176H22.2338V12.984H30.5458L30.4018 14.176H27.0578ZM39.6755 12.984L40.2995 24H38.9635L38.6195 18.248C38.6035 17.8587 38.5875 17.464 38.5715 17.064C38.5555 16.664 38.5448 16.28 38.5395 15.912C38.5342 15.544 38.5315 15.216 38.5315 14.928C38.5315 14.64 38.5315 14.416 38.5315 14.256L36.6755 22.024H35.2835L33.2915 14.256C33.2968 14.4107 33.3022 14.64 33.3075 14.944C33.3128 15.2427 33.3155 15.5813 33.3155 15.96C33.3208 16.3387 33.3182 16.728 33.3075 17.128C33.3022 17.5227 33.2915 17.8907 33.2755 18.232L32.9795 24H31.6755L32.2995 12.984H34.2355L36.0195 20.528L37.7235 12.984H39.6755ZM42.9493 24V12.984H44.3413V22.76H49.3653L49.2053 24H42.9493Z" fill="white"/>
<rect x="71.75" y="0.75" width="51.5" height="36.5" fill="white"/>
<rect x="71.75" y="0.75" width="51.5" height="36.5" stroke="#313131" stroke-width="1.5"/>
<path d="M88.728 12.808C89.448 12.808 90.0507 12.8987 90.536 13.08C91.0213 13.2613 91.4827 13.528 91.92 13.88L91.144 14.784C90.7973 14.4907 90.4293 14.2827 90.04 14.16C89.656 14.032 89.2533 13.968 88.832 13.968C88.2293 13.968 87.672 14.112 87.16 14.4C86.648 14.6827 86.2347 15.1547 85.92 15.816C85.6107 16.472 85.456 17.3627 85.456 18.488C85.456 19.5813 85.6027 20.4587 85.896 21.12C86.1947 21.7813 86.5973 22.2587 87.104 22.552C87.6107 22.8453 88.176 22.992 88.8 22.992C89.4187 22.992 89.9253 22.8987 90.32 22.712C90.72 22.5253 91.0667 22.312 91.36 22.072L92.08 22.984C91.744 23.3093 91.3067 23.592 90.768 23.832C90.2293 24.0667 89.568 24.184 88.784 24.184C87.8933 24.184 87.0853 23.9653 86.36 23.528C85.64 23.0907 85.0693 22.4507 84.648 21.608C84.2267 20.76 84.016 19.72 84.016 18.488C84.016 17.2507 84.2293 16.2107 84.656 15.368C85.088 14.5253 85.6613 13.888 86.376 13.456C87.096 13.024 87.88 12.808 88.728 12.808ZM101.178 20.952C101.178 21.5813 101.02 22.1413 100.706 22.632C100.391 23.1173 99.9351 23.4987 99.3378 23.776C98.7404 24.048 98.0124 24.184 97.1538 24.184C96.3484 24.184 95.6178 24.0613 94.9618 23.816C94.3111 23.5707 93.7538 23.224 93.2898 22.776L94.1138 21.848C94.4978 22.2053 94.9378 22.4907 95.4338 22.704C95.9298 22.912 96.5111 23.016 97.1778 23.016C97.6258 23.016 98.0444 22.944 98.4338 22.8C98.8231 22.6507 99.1378 22.4267 99.3778 22.128C99.6178 21.824 99.7378 21.44 99.7378 20.976C99.7378 20.6187 99.6684 20.3147 99.5298 20.064C99.3911 19.8133 99.1458 19.592 98.7938 19.4C98.4418 19.2027 97.9511 19.0107 97.3218 18.824C96.5964 18.6107 95.9671 18.3707 95.4338 18.104C94.9058 17.832 94.4951 17.4987 94.2018 17.104C93.9138 16.7093 93.7697 16.2213 93.7697 15.64C93.7697 15.0907 93.9218 14.6027 94.2258 14.176C94.5298 13.7493 94.9484 13.416 95.4818 13.176C96.0204 12.9307 96.6391 12.808 97.3378 12.808C98.1004 12.808 98.7618 12.9173 99.3218 13.136C99.8871 13.3493 100.399 13.6587 100.858 14.064L100.042 14.968C99.6471 14.616 99.2231 14.3627 98.7698 14.208C98.3164 14.048 97.8551 13.968 97.3858 13.968C96.9858 13.968 96.6178 14.0293 96.2818 14.152C95.9511 14.2693 95.6844 14.448 95.4818 14.688C95.2844 14.9227 95.1858 15.224 95.1858 15.592C95.1858 15.9067 95.2711 16.1787 95.4418 16.408C95.6124 16.6373 95.9004 16.848 96.3058 17.04C96.7111 17.2267 97.2631 17.424 97.9618 17.632C98.5324 17.7973 99.0604 18.0053 99.5458 18.256C100.036 18.5013 100.431 18.8373 100.73 19.264C101.028 19.6853 101.178 20.248 101.178 20.952ZM110.772 20.952C110.772 21.5813 110.614 22.1413 110.3 22.632C109.985 23.1173 109.529 23.4987 108.932 23.776C108.334 24.048 107.606 24.184 106.748 24.184C105.942 24.184 105.212 24.0613 104.556 23.816C103.905 23.5707 103.348 23.224 102.884 22.776L103.708 21.848C104.092 22.2053 104.532 22.4907 105.028 22.704C105.524 22.912 106.105 23.016 106.772 23.016C107.22 23.016 107.638 22.944 108.028 22.8C108.417 22.6507 108.732 22.4267 108.972 22.128C109.212 21.824 109.332 21.44 109.332 20.976C109.332 20.6187 109.262 20.3147 109.124 20.064C108.985 19.8133 108.74 19.592 108.388 19.4C108.036 19.2027 107.545 19.0107 106.916 18.824C106.19 18.6107 105.561 18.3707 105.028 18.104C104.5 17.832 104.089 17.4987 103.796 17.104C103.508 16.7093 103.363 16.2213 103.363 15.64C103.363 15.0907 103.516 14.6027 103.82 14.176C104.124 13.7493 104.542 13.416 105.076 13.176C105.614 12.9307 106.233 12.808 106.932 12.808C107.694 12.808 108.356 12.9173 108.916 13.136C109.481 13.3493 109.993 13.6587 110.451 14.064L109.636 14.968C109.241 14.616 108.817 14.3627 108.364 14.208C107.91 14.048 107.449 13.968 106.98 13.968C106.58 13.968 106.212 14.0293 105.876 14.152C105.545 14.2693 105.278 14.448 105.076 14.688C104.878 14.9227 104.78 15.224 104.78 15.592C104.78 15.9067 104.865 16.1787 105.036 16.408C105.206 16.6373 105.494 16.848 105.9 17.04C106.305 17.2267 106.857 17.424 107.556 17.632C108.126 17.7973 108.654 18.0053 109.14 18.256C109.63 18.5013 110.025 18.8373 110.324 19.264C110.622 19.6853 110.772 20.248 110.772 20.952Z" fill="#313131"/>
<rect x="132.75" y="0.75" width="118.5" height="36.5" fill="white"/>
<rect x="132.75" y="0.75" width="118.5" height="36.5" stroke="#313131" stroke-width="1.5"/>
<path d="M151.944 12.984V20.344C151.944 20.8027 151.883 21.2613 151.76 21.72C151.643 22.1733 151.44 22.5867 151.152 22.96C150.869 23.328 150.485 23.624 150 23.848C149.515 24.072 148.909 24.184 148.184 24.184C147.645 24.184 147.115 24.0987 146.592 23.928C146.075 23.7573 145.597 23.5093 145.16 23.184L145.776 22.264C146.256 22.5627 146.693 22.7653 147.088 22.872C147.483 22.9733 147.843 23.024 148.168 23.024C148.936 23.024 149.525 22.7787 149.936 22.288C150.352 21.7973 150.56 21.1227 150.56 20.264V14.12H147.296V12.984H151.944ZM161.234 22.16C161.234 22.496 161.29 22.7413 161.402 22.896C161.514 23.0507 161.687 23.1653 161.922 23.24L161.594 24.184C161.231 24.136 160.914 24.0213 160.642 23.84C160.37 23.6533 160.172 23.3733 160.05 23C159.746 23.3893 159.367 23.6853 158.914 23.888C158.46 24.0853 157.959 24.184 157.41 24.184C156.567 24.184 155.903 23.9467 155.418 23.472C154.932 22.9973 154.69 22.368 154.69 21.584C154.69 20.7147 155.028 20.048 155.706 19.584C156.383 19.12 157.362 18.888 158.642 18.888H159.882V18.184C159.882 17.576 159.703 17.1467 159.346 16.896C158.994 16.64 158.503 16.512 157.874 16.512C157.596 16.512 157.271 16.5467 156.898 16.616C156.524 16.68 156.119 16.7893 155.682 16.944L155.33 15.928C155.847 15.736 156.332 15.6 156.786 15.52C157.239 15.44 157.671 15.4 158.082 15.4C159.132 15.4 159.919 15.6453 160.442 16.136C160.97 16.6213 161.234 17.2827 161.234 18.12V22.16ZM157.754 23.16C158.17 23.16 158.567 23.056 158.946 22.848C159.324 22.6347 159.636 22.3413 159.882 21.968V19.8H158.666C157.738 19.8 157.082 19.96 156.698 20.28C156.319 20.6 156.13 21.0293 156.13 21.568C156.13 22.0907 156.263 22.488 156.53 22.76C156.802 23.0267 157.21 23.16 157.754 23.16ZM171.819 15.576L168.756 24H167.196L164.156 15.576H165.58L168.02 22.776L170.428 15.576H171.819ZM180.421 22.16C180.421 22.496 180.477 22.7413 180.589 22.896C180.701 23.0507 180.875 23.1653 181.109 23.24L180.781 24.184C180.419 24.136 180.101 24.0213 179.829 23.84C179.557 23.6533 179.36 23.3733 179.237 23C178.933 23.3893 178.555 23.6853 178.101 23.888C177.648 24.0853 177.147 24.184 176.597 24.184C175.755 24.184 175.091 23.9467 174.605 23.472C174.12 22.9973 173.877 22.368 173.877 21.584C173.877 20.7147 174.216 20.048 174.893 19.584C175.571 19.12 176.549 18.888 177.829 18.888H179.069V18.184C179.069 17.576 178.891 17.1467 178.533 16.896C178.181 16.64 177.691 16.512 177.061 16.512C176.784 16.512 176.459 16.5467 176.085 16.616C175.712 16.68 175.307 16.7893 174.869 16.944L174.517 15.928C175.035 15.736 175.52 15.6 175.973 15.52C176.427 15.44 176.859 15.4 177.269 15.4C178.32 15.4 179.107 15.6453 179.629 16.136C180.157 16.6213 180.421 17.2827 180.421 18.12V22.16ZM176.941 23.16C177.357 23.16 177.755 23.056 178.133 22.848C178.512 22.6347 178.824 22.3413 179.069 21.968V19.8H177.853C176.925 19.8 176.269 19.96 175.885 20.28C175.507 20.6 175.317 21.0293 175.317 21.568C175.317 22.0907 175.451 22.488 175.717 22.76C175.989 23.0267 176.397 23.16 176.941 23.16ZM190.959 20.952C190.959 21.5813 190.802 22.1413 190.487 22.632C190.172 23.1173 189.716 23.4987 189.119 23.776C188.522 24.048 187.794 24.184 186.935 24.184C186.13 24.184 185.399 24.0613 184.743 23.816C184.092 23.5707 183.535 23.224 183.071 22.776L183.895 21.848C184.279 22.2053 184.719 22.4907 185.215 22.704C185.711 22.912 186.292 23.016 186.959 23.016C187.407 23.016 187.826 22.944 188.215 22.8C188.604 22.6507 188.919 22.4267 189.159 22.128C189.399 21.824 189.519 21.44 189.519 20.976C189.519 20.6187 189.45 20.3147 189.311 20.064C189.172 19.8133 188.927 19.592 188.575 19.4C188.223 19.2027 187.732 19.0107 187.103 18.824C186.378 18.6107 185.748 18.3707 185.215 18.104C184.687 17.832 184.276 17.4987 183.983 17.104C183.695 16.7093 183.551 16.2213 183.551 15.64C183.551 15.0907 183.703 14.6027 184.007 14.176C184.311 13.7493 184.73 13.416 185.263 13.176C185.802 12.9307 186.42 12.808 187.119 12.808C187.882 12.808 188.543 12.9173 189.103 13.136C189.668 13.3493 190.18 13.6587 190.639 14.064L189.823 14.968C189.428 14.616 189.004 14.3627 188.551 14.208C188.098 14.048 187.636 13.968 187.167 13.968C186.767 13.968 186.399 14.0293 186.063 14.152C185.732 14.2693 185.466 14.448 185.263 14.688C185.066 14.9227 184.967 15.224 184.967 15.592C184.967 15.9067 185.052 16.1787 185.223 16.408C185.394 16.6373 185.682 16.848 186.087 17.04C186.492 17.2267 187.044 17.424 187.743 17.632C188.314 17.7973 188.842 18.0053 189.327 18.256C189.818 18.5013 190.212 18.8373 190.511 19.264C190.81 19.6853 190.959 20.248 190.959 20.952ZM197.385 23.024C197.806 23.024 198.198 22.9547 198.561 22.816C198.929 22.6773 199.267 22.5013 199.577 22.288L200.233 23.168C199.865 23.4827 199.422 23.7307 198.905 23.912C198.387 24.0933 197.881 24.184 197.385 24.184C196.547 24.184 195.833 24.0053 195.241 23.648C194.654 23.2853 194.206 22.7787 193.897 22.128C193.587 21.472 193.433 20.704 193.433 19.824C193.433 18.9813 193.587 18.2267 193.897 17.56C194.211 16.888 194.662 16.36 195.249 15.976C195.841 15.592 196.558 15.4 197.401 15.4C197.939 15.4 198.443 15.4827 198.913 15.648C199.387 15.808 199.822 16.0507 200.217 16.376L199.561 17.272C199.203 17.0213 198.843 16.8347 198.481 16.712C198.123 16.584 197.758 16.52 197.385 16.52C196.659 16.52 196.062 16.792 195.593 17.336C195.123 17.88 194.889 18.7093 194.889 19.824C194.889 20.5707 194.995 21.1813 195.209 21.656C195.427 22.1253 195.723 22.472 196.097 22.696C196.475 22.9147 196.905 23.024 197.385 23.024ZM203.251 24V22.968H204.563V16.608H203.251V15.576H205.587L205.835 17.568C206.16 16.8747 206.555 16.3387 207.019 15.96C207.483 15.5813 208.096 15.392 208.859 15.392C209.093 15.392 209.301 15.4107 209.483 15.448C209.669 15.48 209.859 15.5227 210.051 15.576L209.659 16.776C209.483 16.728 209.323 16.6933 209.179 16.672C209.035 16.6453 208.869 16.632 208.683 16.632C208.037 16.632 207.483 16.8613 207.019 17.32C206.555 17.7787 206.184 18.472 205.907 19.4V22.968H207.619V24H203.251ZM208.755 18.424V16.592L208.891 15.576H210.051L209.859 18.424H208.755ZM217.028 15.576V22.936H219.404V24H213.084V22.936H215.684V16.64H213.164V15.576H217.028ZM215.956 11.632C216.255 11.632 216.492 11.7227 216.668 11.904C216.85 12.0853 216.94 12.3067 216.94 12.568C216.94 12.84 216.85 13.0693 216.668 13.256C216.492 13.4373 216.255 13.528 215.956 13.528C215.674 13.528 215.442 13.4373 215.26 13.256C215.079 13.0693 214.988 12.84 214.988 12.568C214.988 12.3067 215.079 12.0853 215.26 11.904C215.442 11.7227 215.674 11.632 215.956 11.632ZM226.126 15.4C226.873 15.4 227.467 15.5813 227.91 15.944C228.358 16.3067 228.681 16.8187 228.878 17.48C229.075 18.136 229.174 18.904 229.174 19.784C229.174 20.632 229.054 21.3893 228.814 22.056C228.579 22.7173 228.222 23.2373 227.742 23.616C227.262 23.9947 226.657 24.184 225.926 24.184C225.003 24.184 224.262 23.8587 223.702 23.208V27.224L222.358 27.392V15.576H223.502L223.614 16.752C223.923 16.32 224.291 15.9867 224.718 15.752C225.15 15.5173 225.619 15.4 226.126 15.4ZM225.806 16.48C225.342 16.48 224.931 16.6213 224.574 16.904C224.222 17.1813 223.931 17.4907 223.702 17.832V22.008C223.921 22.3333 224.195 22.592 224.526 22.784C224.862 22.9707 225.23 23.064 225.63 23.064C226.329 23.064 226.854 22.7973 227.206 22.264C227.558 21.7307 227.734 20.9013 227.734 19.776C227.734 19.04 227.665 18.4293 227.526 17.944C227.387 17.4533 227.177 17.088 226.894 16.848C226.611 16.6027 226.249 16.48 225.806 16.48ZM238.64 23.576C238.352 23.768 238.002 23.9173 237.592 24.024C237.181 24.1307 236.778 24.184 236.384 24.184C235.477 24.184 234.778 23.9467 234.288 23.472C233.797 22.9973 233.552 22.3867 233.552 21.64V16.616H231.616V15.576H233.552V13.664L234.896 13.504V15.576H237.808L237.648 16.616H234.896V21.624C234.896 22.0933 235.018 22.4507 235.264 22.696C235.514 22.9413 235.928 23.064 236.504 23.064C236.818 23.064 237.109 23.0267 237.376 22.952C237.642 22.8773 237.89 22.7813 238.12 22.664L238.64 23.576Z" fill="#313131"/>
<rect x="0.6" y="46.6" width="250.8" height="112.8" fill="white"/>
<rect x="0.6" y="46.6" width="250.8" height="112.8" stroke="#313131" stroke-width="1.2"/>
<path d="M20.488 62.984L21.112 74H19.776L19.432 68.248C19.416 67.8587 19.4 67.464 19.384 67.064C19.368 66.664 19.3573 66.28 19.352 65.912C19.3467 65.544 19.344 65.216 19.344 64.928C19.344 64.64 19.344 64.416 19.344 64.256L17.488 72.024H16.096L14.104 64.256C14.1093 64.4107 14.1147 64.64 14.12 64.944C14.1253 65.2427 14.128 65.5813 14.128 65.96C14.1333 66.3387 14.1307 66.728 14.12 67.128C14.1147 67.5227 14.104 67.8907 14.088 68.232L13.792 74H12.488L13.112 62.984H15.048L16.832 70.528L18.536 62.984H20.488ZM26.4098 65.4C27.2044 65.4 27.8684 65.5813 28.4018 65.944C28.9404 66.3013 29.3431 66.808 29.6098 67.464C29.8818 68.12 30.0178 68.8933 30.0178 69.784C30.0178 70.6427 29.8791 71.4027 29.6018 72.064C29.3244 72.7253 28.9164 73.2453 28.3778 73.624C27.8444 73.9973 27.1831 74.184 26.3938 74.184C25.6044 74.184 24.9404 74.0027 24.4018 73.64C23.8631 73.2773 23.4551 72.768 23.1778 72.112C22.9058 71.4507 22.7697 70.68 22.7697 69.8C22.7697 68.9307 22.9084 68.1653 23.1858 67.504C23.4631 66.8427 23.8711 66.328 24.4098 65.96C24.9538 65.5867 25.6204 65.4 26.4098 65.4ZM26.4098 66.496C25.6844 66.496 25.1351 66.7653 24.7618 67.304C24.3938 67.8373 24.2098 68.6693 24.2098 69.8C24.2098 70.9093 24.3911 71.7333 24.7538 72.272C25.1218 72.8107 25.6684 73.08 26.3938 73.08C27.1191 73.08 27.6631 72.8107 28.0258 72.272C28.3938 71.7333 28.5778 70.904 28.5778 69.784C28.5778 68.664 28.3964 67.8373 28.0338 67.304C27.6711 66.7653 27.1298 66.496 26.4098 66.496ZM39.1795 65.576V74H37.8355V70.056C37.8355 69.5067 37.8515 68.9787 37.8835 68.472C37.9155 67.96 37.9582 67.512 38.0115 67.128L34.4275 74H32.7955V65.576H34.1395V69.512C34.1395 70.056 34.1235 70.5947 34.0915 71.128C34.0595 71.656 34.0195 72.0853 33.9715 72.416L37.5155 65.576H39.1795ZM35.9555 63.656C35.5502 63.656 35.1742 63.5867 34.8275 63.448C34.4862 63.3093 34.2062 63.1067 33.9875 62.84C33.7688 62.5733 33.6382 62.2427 33.5955 61.848L34.5235 61.648C34.6408 61.9947 34.8142 62.2427 35.0435 62.392C35.2728 62.536 35.5768 62.608 35.9555 62.608C36.3288 62.608 36.6408 62.536 36.8915 62.392C37.1422 62.2427 37.3235 61.9947 37.4355 61.648L38.3635 61.848C38.3208 62.2427 38.1848 62.5733 37.9555 62.84C37.7315 63.1067 37.4462 63.3093 37.0995 63.448C36.7528 63.5867 36.3715 63.656 35.9555 63.656ZM57.023 74V66.68H53.327V74H51.983V65.576H58.367V74H57.023ZM62.6328 70.264C62.6594 70.9147 62.7848 71.448 63.0088 71.864C63.2328 72.2747 63.5288 72.5787 63.8968 72.776C64.2648 72.968 64.6648 73.064 65.0968 73.064C65.5288 73.064 65.9181 73 66.2648 72.872C66.6168 72.744 66.9768 72.5547 67.3448 72.304L67.9768 73.192C67.5821 73.5013 67.1314 73.744 66.6248 73.92C66.1234 74.096 65.6088 74.184 65.0808 74.184C64.2648 74.184 63.5688 74 62.9928 73.632C62.4168 73.264 61.9768 72.752 61.6728 72.096C61.3741 71.4347 61.2248 70.6693 61.2248 69.8C61.2248 68.9467 61.3768 68.1893 61.6808 67.528C61.9848 66.8667 62.4114 66.3467 62.9608 65.968C63.5101 65.5893 64.1581 65.4 64.9048 65.4C65.6141 65.4 66.2248 65.568 66.7368 65.904C67.2488 66.2347 67.6408 66.7093 67.9128 67.328C68.1901 67.9413 68.3288 68.6747 68.3288 69.528C68.3288 69.672 68.3261 69.808 68.3208 69.936C68.3154 70.0587 68.3074 70.168 68.2968 70.264H62.6328ZM64.9208 66.504C64.2968 66.504 63.7741 66.7253 63.3528 67.168C62.9368 67.6107 62.6994 68.296 62.6408 69.224H67.0328C67.0168 68.3227 66.8194 67.6453 66.4408 67.192C66.0621 66.7333 65.5554 66.504 64.9208 66.504ZM74.9385 65.4C75.6852 65.4 76.2798 65.5813 76.7225 65.944C77.1705 66.3067 77.4932 66.8187 77.6905 67.48C77.8878 68.136 77.9865 68.904 77.9865 69.784C77.9865 70.632 77.8665 71.3893 77.6265 72.056C77.3918 72.7173 77.0345 73.2373 76.5545 73.616C76.0745 73.9947 75.4692 74.184 74.7385 74.184C73.8158 74.184 73.0745 73.8587 72.5145 73.208V77.224L71.1705 77.392V65.576H72.3145L72.4265 66.752C72.7358 66.32 73.1038 65.9867 73.5305 65.752C73.9625 65.5173 74.4318 65.4 74.9385 65.4ZM74.6185 66.48C74.1545 66.48 73.7438 66.6213 73.3865 66.904C73.0345 67.1813 72.7438 67.4907 72.5145 67.832V72.008C72.7332 72.3333 73.0078 72.592 73.3385 72.784C73.6745 72.9707 74.0425 73.064 74.4425 73.064C75.1412 73.064 75.6665 72.7973 76.0185 72.264C76.3705 71.7307 76.5465 70.9013 76.5465 69.776C76.5465 69.04 76.4772 68.4293 76.3385 67.944C76.1998 67.4533 75.9892 67.088 75.7065 66.848C75.4238 66.6027 75.0612 66.48 74.6185 66.48ZM83.8043 65.4C84.5029 65.4 85.1083 65.4853 85.6203 65.656C86.1323 65.8267 86.5269 66.0747 86.8043 66.4C87.0869 66.72 87.2283 67.1173 87.2283 67.592C87.2283 68.0293 87.1083 68.4053 86.8683 68.72C86.6283 69.0293 86.1829 69.2667 85.5323 69.432C86.2576 69.5013 86.7963 69.7067 87.1483 70.048C87.5003 70.384 87.6763 70.872 87.6763 71.512C87.6763 72.0987 87.5136 72.576 87.1883 72.944C86.8629 73.3067 86.4309 73.5733 85.8923 73.744C85.3589 73.9147 84.7696 74 84.1243 74H80.9403V65.688C81.3829 65.608 81.8416 65.5413 82.3163 65.488C82.7963 65.4293 83.2923 65.4 83.8043 65.4ZM83.8203 66.472C83.5003 66.472 83.2283 66.48 83.0043 66.496C82.7803 66.512 82.5403 66.536 82.2843 66.568V72.912H84.0923C84.8069 72.912 85.3429 72.8 85.7003 72.576C86.0576 72.352 86.2363 72 86.2363 71.52C86.2363 71.1093 86.1296 70.8027 85.9163 70.6C85.7029 70.392 85.4336 70.2533 85.1083 70.184C84.7829 70.1093 84.4496 70.072 84.1083 70.072H82.0283V69.016H84.0203C84.5749 69.016 85.0176 68.9253 85.3483 68.744C85.6789 68.5573 85.8443 68.216 85.8443 67.72C85.8443 67.2613 85.6763 66.9387 85.3403 66.752C85.0043 66.5653 84.4976 66.472 83.8203 66.472ZM91.022 65.576V68.312H91.59C92.7047 68.312 93.5793 68.5307 94.214 68.968C94.854 69.4 95.174 70.104 95.174 71.08C95.174 71.7627 95.0247 72.32 94.726 72.752C94.4327 73.1787 94.0167 73.4933 93.478 73.696C92.9447 73.8987 92.318 74 91.598 74H89.742V65.576H91.022ZM91.654 69.312H91.022V72.952H91.638C92.086 72.952 92.47 72.8987 92.79 72.792C93.11 72.68 93.3553 72.4907 93.526 72.224C93.6967 71.952 93.782 71.5707 93.782 71.08C93.782 70.44 93.6087 69.9867 93.262 69.72C92.9207 69.448 92.3847 69.312 91.654 69.312ZM97.358 65.576V74H96.062V65.576H97.358ZM106.336 65.576V74H104.992V70.056C104.992 69.5067 105.008 68.9787 105.04 68.472C105.072 67.96 105.114 67.512 105.168 67.128L101.584 74H99.9518V65.576H101.296V69.512C101.296 70.056 101.28 70.5947 101.248 71.128C101.216 71.656 101.176 72.0853 101.128 72.416L104.672 65.576H106.336ZM103.112 63.656C102.706 63.656 102.33 63.5867 101.984 63.448C101.642 63.3093 101.362 63.1067 101.144 62.84C100.925 62.5733 100.794 62.2427 100.752 61.848L101.68 61.648C101.797 61.9947 101.97 62.2427 102.2 62.392C102.429 62.536 102.733 62.608 103.112 62.608C103.485 62.608 103.797 62.536 104.048 62.392C104.298 62.2427 104.48 61.9947 104.592 61.648L105.52 61.848C105.477 62.2427 105.341 62.5733 105.112 62.84C104.888 63.1067 104.602 63.3093 104.256 63.448C103.909 63.5867 103.528 63.656 103.112 63.656ZM122.947 73.024C123.369 73.024 123.761 72.9547 124.123 72.816C124.491 72.6773 124.83 72.5013 125.139 72.288L125.795 73.168C125.427 73.4827 124.985 73.7307 124.467 73.912C123.95 74.0933 123.443 74.184 122.947 74.184C122.11 74.184 121.395 74.0053 120.803 73.648C120.217 73.2853 119.769 72.7787 119.459 72.128C119.15 71.472 118.995 70.704 118.995 69.824C118.995 68.9813 119.15 68.2267 119.459 67.56C119.774 66.888 120.225 66.36 120.811 65.976C121.403 65.592 122.121 65.4 122.963 65.4C123.502 65.4 124.006 65.4827 124.475 65.648C124.95 65.808 125.385 66.0507 125.779 66.376L125.123 67.272C124.766 67.0213 124.406 66.8347 124.043 66.712C123.686 66.584 123.321 66.52 122.947 66.52C122.222 66.52 121.625 66.792 121.155 67.336C120.686 67.88 120.451 68.7093 120.451 69.824C120.451 70.5707 120.558 71.1813 120.771 71.656C120.99 72.1253 121.286 72.472 121.659 72.696C122.038 72.9147 122.467 73.024 122.947 73.024ZM134.765 72.16C134.765 72.496 134.821 72.7413 134.933 72.896C135.045 73.0507 135.218 73.1653 135.453 73.24L135.125 74.184C134.762 74.136 134.445 74.0213 134.173 73.84C133.901 73.6533 133.704 73.3733 133.581 73C133.277 73.3893 132.898 73.6853 132.445 73.888C131.992 74.0853 131.49 74.184 130.941 74.184C130.098 74.184 129.434 73.9467 128.949 73.472C128.464 72.9973 128.221 72.368 128.221 71.584C128.221 70.7147 128.56 70.048 129.237 69.584C129.914 69.12 130.893 68.888 132.173 68.888H133.413V68.184C133.413 67.576 133.234 67.1467 132.877 66.896C132.525 66.64 132.034 66.512 131.405 66.512C131.128 66.512 130.802 66.5467 130.429 66.616C130.056 66.68 129.65 66.7893 129.213 66.944L128.861 65.928C129.378 65.736 129.864 65.6 130.317 65.52C130.77 65.44 131.202 65.4 131.613 65.4C132.664 65.4 133.45 65.6453 133.973 66.136C134.501 66.6213 134.765 67.2827 134.765 68.12V72.16ZM131.285 73.16C131.701 73.16 132.098 73.056 132.477 72.848C132.856 72.6347 133.168 72.3413 133.413 71.968V69.8H132.197C131.269 69.8 130.613 69.96 130.229 70.28C129.85 70.6 129.661 71.0293 129.661 71.568C129.661 72.0907 129.794 72.488 130.061 72.76C130.333 73.0267 130.741 73.16 131.285 73.16ZM144.711 65.576V74H143.367V70.056C143.367 69.5067 143.383 68.9787 143.415 68.472C143.447 67.96 143.489 67.512 143.543 67.128L139.959 74H138.327V65.576H139.671V69.512C139.671 70.056 139.655 70.5947 139.623 71.128C139.591 71.656 139.551 72.0853 139.503 72.416L143.047 65.576H144.711ZM141.487 63.656C141.081 63.656 140.705 63.5867 140.359 63.448C140.017 63.3093 139.737 63.1067 139.519 62.84C139.3 62.5733 139.169 62.2427 139.127 61.848L140.055 61.648C140.172 61.9947 140.345 62.2427 140.575 62.392C140.804 62.536 141.108 62.608 141.487 62.608C141.86 62.608 142.172 62.536 142.423 62.392C142.673 62.2427 142.855 61.9947 142.967 61.648L143.895 61.848C143.852 62.2427 143.716 62.5733 143.487 62.84C143.263 63.1067 142.977 63.3093 142.631 63.448C142.284 63.5867 141.903 63.656 141.487 63.656ZM154.961 65.576L154.801 66.696H151.785V74H150.441V66.696H147.361V65.576H154.961Z" fill="#313131"/>
<path d="M44.2724 94.7039C43.6659 94.8032 43.3696 94.5131 43.3516 93.9125C43.3185 92.73 43.3384 91.5426 43.334 90.3593C43.332 89.7965 43.2917 89.5614 43.8327 89.3052C44.2903 89.266 44.4587 89.3617 44.7848 89.6671C44.8016 90.7462 45.2262 94.2543 44.2724 94.7039Z" fill="#313131"/>
<path d="M52.4011 97.0384C51.8332 97.1469 51.2879 96.5836 51.6456 95.9683C52.0601 95.2553 53.503 92.3381 54.0757 92.1489C55.9396 91.7997 54.2985 94.1231 54.1018 94.5318C53.655 95.1895 52.9949 96.749 52.4011 97.0384Z" fill="#313131"/>
<path d="M36.0778 96.9233C35.2874 96.9651 34.9235 95.9585 34.5324 95.318C34.0436 94.4961 32.2466 92.6323 33.6923 92.1446C34.457 92.1386 34.7172 92.9813 35.0779 93.5419L36.0381 95.037C36.435 95.6604 37.1834 96.5524 36.0778 96.9233Z" fill="#313131"/>
<path d="M37.9958 129.93C36.6094 128.756 36.8138 127.641 36.5026 126.034C36.0042 123.461 34.3073 121.319 32.712 119.332C25.9495 110.192 32.5159 97.2377 43.5835 96.9271C55.097 96.5197 62.3912 109.85 55.4586 119.25C53.6914 121.646 52.4689 122.725 51.6916 125.964C51.2836 127.758 51.6321 128.547 50.1359 129.93C50.9382 130.922 50.8779 132.001 50.1359 133.004C50.9344 134.098 50.8915 134.982 50.1359 136.07C50.4264 136.642 50.6997 137.065 50.6932 137.738C50.678 139.318 49.4122 139.9 48.0501 139.875C47.6079 141.414 46.1982 142.432 44.6603 142.684C43.1269 142.801 41.7946 142.4 40.7853 141.172C40.4807 140.802 40.1491 140.378 40.1943 139.875C37.7101 140.054 36.8429 138.062 37.9958 136.07C37.2209 135.075 37.3431 134.015 37.9958 133.004C37.3542 131.977 37.2218 130.926 37.9958 129.93ZM43.174 98.3535C42.4587 98.4407 41.6865 98.5243 40.9916 98.7118C32.5516 100.988 28.4992 111.012 33.7245 118.293C34.1835 118.932 34.7044 119.524 35.1916 120.143C36.438 121.842 37.3707 123.681 37.9 125.715C38.4555 127.851 37.642 129.121 40.5462 129.114L42.2708 129.111L40.8872 121.66C40.6547 120.335 40.453 118.89 40.1943 117.586C35.1308 115.925 38.3775 112.92 40.064 113.555C41.418 114.064 41.1967 115.415 41.549 116.508C42.6971 116.509 43.6956 116.793 44.9658 116.708C45.514 116.685 46.1172 116.617 46.6546 116.508C46.7908 115.638 46.771 114.474 47.5344 113.912C48.8814 112.922 50.8305 113.892 50.5819 115.632C50.3858 117.005 48.8836 116.985 47.9028 117.586C47.182 121.348 46.4763 125.327 45.8666 129.111C48.8785 129.151 49.6881 129.711 50.1798 126.295C50.619 123.939 51.7134 121.639 53.1748 119.748C53.6053 119.191 54.11 118.72 54.5101 118.14C60.5844 109.665 53.7039 97.743 43.174 98.3535ZM39.2923 114.924C38.53 115.449 39.2121 115.716 39.7152 115.911C40.2608 116.112 39.9076 114.879 39.2923 114.924ZM48.6434 114.924C48.1154 115.087 48.211 115.43 48.1939 115.911C48.3413 115.85 48.4997 115.788 48.6434 115.721C49.3189 115.498 49.3837 115.033 48.6434 114.924ZM41.7154 117.972C42.3216 121.663 42.9743 125.438 43.6964 129.111C43.9439 129.108 44.2075 129.101 44.4532 129.111C44.5315 128.559 44.5969 127.885 44.7808 127.372C44.8283 126.678 44.9998 125.917 45.1283 125.225L46.1029 119.807C46.2169 119.166 46.2867 118.588 46.5034 117.972C44.6559 118.138 43.4197 117.943 41.7154 117.972ZM39.9312 130.521C38.4019 130.646 38.7041 132.16 39.5964 132.23C39.9226 132.255 40.2807 132.242 40.6098 132.242L48.3257 132.24C49.5021 132.229 49.6322 130.668 48.553 130.552C48.1656 130.511 47.7918 130.521 47.4043 130.52L39.9312 130.521ZM39.8656 133.631C38.5942 133.73 38.5194 135.194 39.6805 135.356C39.9451 135.393 40.4518 135.366 40.7351 135.365L48.3257 135.362C49.7743 135.167 49.5042 133.61 48.4068 133.645C47.4358 133.618 46.4637 133.63 45.4923 133.63L39.8656 133.631ZM39.8656 136.777C38.5238 136.917 38.5842 138.467 39.7445 138.482C40.3022 138.49 40.8324 138.495 41.3756 138.495L47.0794 138.495C47.3974 138.495 48.0428 138.518 48.3257 138.494C49.6401 138.438 49.4327 136.9 48.4849 136.825C47.4742 136.744 46.4258 136.775 45.4115 136.775L39.8656 136.777ZM41.549 139.875C42.6542 141.354 44.3115 141.851 45.8666 140.691C46.1761 140.405 46.3074 140.255 46.5034 139.875H41.549Z" fill="#313131"/>
<path d="M43.174 98.3535C42.4587 98.4407 41.6865 98.5243 40.9916 98.7118C32.5516 100.988 28.4992 111.012 33.7245 118.293C34.1835 118.932 34.7044 119.524 35.1916 120.143C36.438 121.842 37.3707 123.681 37.9 125.715C38.4555 127.851 37.642 129.121 40.5462 129.114L42.2708 129.111L40.8872 121.66C40.6547 120.335 40.453 118.89 40.1943 117.586C35.1308 115.925 38.3775 112.92 40.064 113.555C41.418 114.064 41.1967 115.415 41.549 116.508C42.6971 116.509 43.6956 116.793 44.9658 116.708C45.514 116.685 46.1172 116.617 46.6546 116.508C46.7908 115.638 46.771 114.474 47.5344 113.912C48.8814 112.922 50.8305 113.892 50.5819 115.632C50.3858 117.005 48.8836 116.985 47.9028 117.586C47.182 121.348 46.4763 125.327 45.8666 129.111C48.8785 129.151 49.6881 129.711 50.1798 126.295C50.619 123.939 51.7134 121.639 53.1748 119.748C53.6053 119.191 54.11 118.72 54.5101 118.14C60.5844 109.665 53.7039 97.743 43.174 98.3535Z" fill="#DEFFCC"/>
<path d="M41.7154 117.972C42.3216 121.663 42.9743 125.438 43.6964 129.111C43.9439 129.108 44.2075 129.101 44.4532 129.111C44.5315 128.559 44.5969 127.885 44.7808 127.372C44.8283 126.678 44.9998 125.917 45.1283 125.225L46.1029 119.807C46.2169 119.166 46.2867 118.588 46.5034 117.972C44.6559 118.138 43.4197 117.943 41.7154 117.972Z" fill="#DEFFCC"/>
<path d="M39.2923 114.924C38.53 115.449 39.2121 115.716 39.7152 115.911C40.2608 116.112 39.9076 114.879 39.2923 114.924Z" fill="#DEFFCC"/>
<path d="M48.6434 114.924C48.1154 115.087 48.211 115.43 48.1939 115.911C48.3413 115.85 48.4997 115.788 48.6434 115.721C49.3189 115.498 49.3837 115.033 48.6434 114.924Z" fill="#DEFFCC"/>
<path d="M39.9312 130.521C38.4019 130.646 38.7041 132.16 39.5964 132.23C39.9226 132.255 40.2807 132.242 40.6098 132.242L48.3257 132.24C49.5021 132.229 49.6322 130.668 48.553 130.552C48.1656 130.511 47.7918 130.521 47.4043 130.52L39.9312 130.521Z" fill="#DBDBDB"/>
<path d="M39.8656 133.631C38.5942 133.73 38.5194 135.194 39.6805 135.356C39.9451 135.393 40.4518 135.366 40.7351 135.365L48.3257 135.362C49.7743 135.167 49.5042 133.61 48.4068 133.645C47.4358 133.618 46.4637 133.63 45.4923 133.63L39.8656 133.631Z" fill="#DBDBDB"/>
<path d="M39.8656 136.777C38.5238 136.917 38.5842 138.467 39.7445 138.482C40.3022 138.49 40.8324 138.495 41.3756 138.495L47.0794 138.495C47.3974 138.495 48.0428 138.518 48.3257 138.494C49.6401 138.438 49.4327 136.9 48.4849 136.825C47.4742 136.744 46.4258 136.775 45.4115 136.775L39.8656 136.777Z" fill="#DBDBDB"/>
<path d="M41.549 139.875C42.6542 141.354 44.3115 141.851 45.8666 140.691C46.1761 140.405 46.3074 140.255 46.5034 139.875H41.549Z" fill="#DBDBDB"/>
<path d="M29.6 102.972C29.1293 103.028 26.6389 101.464 26.0868 101.178C25.2435 100.741 24.8221 99.9641 25.8521 99.5843C26.4345 99.5102 29.2278 101.251 29.8723 101.648C30.4361 102.024 30.1633 102.74 29.6 102.972Z" fill="#313131"/>
<path d="M58.8127 102.975C58.234 103.059 57.9043 102.534 58.0434 102.021C58.2188 101.61 61.5062 99.7622 61.9169 99.5869C62.7659 99.5048 63.0503 100.486 62.3166 100.954C61.4554 101.504 59.7607 102.617 58.8127 102.975Z" fill="#313131"/>
<path d="M27.2254 111.361L24.6763 111.363C24.2475 111.364 23.8215 111.382 23.3894 111.348C22.4483 111.273 22.3804 109.997 23.4683 109.867L26.0209 109.864C26.8546 109.864 27.7936 109.595 28.0408 110.618C27.9145 111.151 27.7585 111.313 27.2254 111.361Z" fill="#313131"/>
<path d="M64.752 111.366C63.4653 111.273 61.8666 111.537 60.6288 111.23C60.2045 111.124 59.9969 110.162 60.8609 109.872C62.1497 109.906 63.6073 109.778 64.8668 109.959C65.4725 110.047 65.5463 110.981 64.752 111.366Z" fill="#313131"/>
<path d="M34.6554 110.876C33.3287 111.364 33.6113 109.749 33.7472 109.031C34.6812 104.097 38.6547 100.682 43.6357 100.348C45.0238 100.256 45.1603 101.713 43.7052 101.77C39.1062 101.95 35.298 105.758 35.0223 110.343C35.0073 110.59 34.8452 110.749 34.6554 110.876Z" fill="#313131"/>
</svg>
