<svg width="64" height="64" viewBox="0 0 64 64" fill="none" xmlns="http://www.w3.org/2000/svg">
<path d="M18.9691 20.1102C19.4243 20.0696 20.598 20.1091 21.1227 20.1099L39.5082 20.1096C40.2633 20.1096 43.8572 20.0444 44.1791 20.151C44.8463 20.3721 44.5953 22.4185 44.5955 23.0415L44.5952 41.8594C44.5955 42.6964 44.8865 43.5492 44.0413 43.8937C42.9322 43.9265 41.6818 43.8937 40.5591 43.8931L19.1086 43.897C18.799 43.8976 18.6417 43.7471 18.4337 43.5315C18.3845 43.1712 18.4272 42.1172 18.4303 41.6954L18.4202 20.7186C18.4228 20.3276 18.6031 20.1899 18.9691 20.1102ZM19.6515 40.5944L19.698 40.5582C20.0796 40.2589 20.5933 39.702 20.9513 39.3389L28.5425 31.7175C28.857 31.4036 29.3847 30.6917 29.8996 30.7824C30.219 30.8386 31.9335 32.6732 32.2138 33.0216C32.9331 32.336 35.7335 29.0161 36.5406 29.227C36.8918 29.4857 37.8326 30.516 38.1996 30.8815L41.4875 34.1036C42.0506 34.6651 42.8006 35.5006 43.3602 36.0001V21.3582L22.283 21.3575C21.4345 21.3574 20.4882 21.3345 19.6515 21.3582L19.6518 38.6295C19.6522 39.1941 19.691 40.0762 19.6515 40.5944ZM36.3178 30.715C35.2956 31.7085 34.1365 32.8087 33.1758 33.8531C33.804 34.5564 34.6447 35.3634 35.3195 36.0387L39.1046 39.8207C39.7368 40.4539 40.5285 41.1712 41.0955 41.8435C41.4345 42.1221 41.6691 42.3776 41.9873 42.655H43.3602V37.6881C42.7592 37.151 42.2842 36.6591 41.7113 36.0974L37.4158 31.837C37.0605 31.48 36.6482 31.0844 36.3178 30.715ZM40.1645 42.655C39.3413 41.7277 29.8185 32.2939 29.7345 32.2696C29.2465 32.6872 28.5738 33.4026 28.1043 33.8751L21.7028 40.3414C21.3467 40.7044 19.8268 42.2185 19.6895 42.5345L19.6917 42.6072C19.9312 42.6827 22.3647 42.6554 22.7755 42.6554L30.108 42.655H40.1645Z" fill="#313131"/>
<path d="M19.6515 40.5944L19.698 40.5582C20.0796 40.2589 20.5933 39.702 20.9513 39.3389L28.5425 31.7175C28.857 31.4036 29.3847 30.6917 29.8996 30.7824C30.219 30.8386 31.9335 32.6732 32.2138 33.0216C32.9331 32.336 35.7335 29.0161 36.5406 29.227C36.8918 29.4857 37.8326 30.516 38.1996 30.8815L41.4875 34.1036C42.0506 34.6651 42.8006 35.5006 43.3602 36.0001V21.3582L22.283 21.3575C21.4345 21.3574 20.4882 21.3345 19.6515 21.3582L19.6518 38.6295C19.6522 39.1941 19.691 40.0762 19.6515 40.5944Z" fill="#CCE8FF"/>
<path d="M40.1645 42.655C39.3413 41.7277 29.8185 32.2939 29.7345 32.2696C29.2465 32.6872 28.5738 33.4026 28.1043 33.8751L21.7028 40.3414C21.3467 40.7044 19.8268 42.2185 19.6895 42.5345L19.6917 42.6072C19.9312 42.6827 22.3647 42.6554 22.7755 42.6554L30.108 42.655H40.1645Z" fill="#DEFFCC"/>
<path d="M36.3178 30.715C35.2956 31.7085 34.1365 32.8087 33.1758 33.8531C33.804 34.5564 34.6447 35.3634 35.3195 36.0387L39.1046 39.8207C39.7368 40.4539 40.5285 41.1712 41.0955 41.8435C41.4345 42.1221 41.6691 42.3776 41.9873 42.655H43.3602V37.6881C42.7592 37.151 42.2842 36.6591 41.7113 36.0974L37.4158 31.837C37.0605 31.48 36.6482 31.0844 36.3178 30.715Z" fill="#DEFFCC"/>
<path d="M25.9251 23.5246C27.584 23.2969 29.1128 24.4592 29.337 26.1186C29.5614 27.7779 28.3963 29.3043 26.7364 29.5254C25.0813 29.7458 23.56 28.5847 23.3363 26.9298C23.1125 25.2751 24.2708 23.7516 25.9251 23.5246ZM26.6416 28.3021C27.625 28.1353 28.2878 27.2039 28.1231 26.2202C27.9585 25.2366 27.0286 24.5717 26.0445 24.7342C25.0574 24.8971 24.39 25.8304 24.5551 26.8173C24.7203 27.8042 25.6551 28.4694 26.6416 28.3021Z" fill="#313131"/>
<path d="M26.6416 28.3021C27.625 28.1353 28.2878 27.2039 28.1231 26.2202C27.9585 25.2366 27.0286 24.5717 26.0445 24.7342C25.0574 24.8971 24.39 25.8304 24.5551 26.8173C24.7203 27.8042 25.6551 28.4694 26.6416 28.3021Z" fill="white"/>
<path d="M47.3992 9.2853C47.4749 9.28264 47.5509 9.28045 47.6268 9.28018L51.8869 9.2854C52.5614 9.28479 54.6772 8.96363 54.6663 9.94036C54.6424 12.0827 54.7067 14.2496 54.668 16.3898C54.3477 16.8662 54.2117 16.8193 53.659 16.8203C53.313 16.8213 51.8478 16.7621 51.6518 16.8682C51.4988 16.9512 51.0533 18.11 50.4169 16.8203C49.7412 16.8208 47.1889 17.1053 46.9359 16.3847C46.8333 16.0923 46.852 10.5863 46.8879 9.89645C46.9062 9.54379 47.0705 9.39939 47.3992 9.2853ZM48.1219 15.5782H53.2597C53.6243 15.5465 53.4079 14.7235 53.4077 14.3175L53.4089 10.5609C52.8933 10.5351 52.2385 10.56 51.7059 10.5604L48.3299 10.5609C47.9133 10.5878 48.1189 11.9352 48.1197 12.3914L48.1219 15.5782Z" fill="#313131"/>
<path d="M48.1219 15.5782H53.2597C53.6243 15.5465 53.4079 14.7235 53.4077 14.3175L53.4089 10.5609C52.8933 10.5351 52.2385 10.56 51.7059 10.5604L48.3299 10.5609C47.9133 10.5878 48.1189 11.9352 48.1197 12.3914L48.1219 15.5782Z" fill="#CCE8FF"/>
<path d="M15.9088 9.28215C17.3704 9.30852 17.1295 9.70329 17.1261 11.008L17.1394 16.2931C17.1433 16.9921 16.0537 16.8209 15.5811 16.8203L13.5359 16.8172C13.1874 17.4364 12.669 17.3421 12.2886 16.8172C11.8598 16.8076 11.3944 16.8169 10.9626 16.8172C9.52311 16.8749 9.35715 16.9751 9.37194 15.5896L9.37649 11.0682C9.35505 8.7777 9.65454 9.28158 11.9976 9.28109L15.9088 9.28215ZM10.5641 15.5751H15.9088C15.9566 13.9918 15.9086 12.1576 15.9088 10.5577H10.5641V15.5751Z" fill="#313131"/>
<path d="M10.5641 15.5751H15.9088C15.9566 13.9918 15.9086 12.1576 15.9088 10.5577H10.5641V15.5751Z" fill="#CCE8FF"/>
<path d="M50.9952 46.5953C51.38 46.5822 51.5431 46.6462 51.7364 46.9822C55.0514 46.9058 54.6636 46.6371 54.6649 49.5792L54.6652 54.1496C54.2995 54.7617 53.7075 54.5716 53.0851 54.5702L50.6536 54.5679L48.6235 54.5699C47.9391 54.5763 47.3679 54.7657 46.9432 54.1496C46.969 53.6354 46.9449 52.8938 46.945 52.3623L46.918 47.9051C46.9165 47.4747 46.9955 46.9422 47.5219 46.9629C48.4597 46.9998 49.492 46.9358 50.4141 46.9822C50.6052 46.7712 50.7281 46.6806 50.9952 46.5953ZM48.1936 53.3256H53.2569L53.3752 53.3102C53.4316 53.1911 53.4062 48.6433 53.4061 48.1956H48.425C47.9646 48.2384 48.1926 49.5272 48.1932 50.0439L48.1936 53.3256Z" fill="#313131"/>
<path d="M48.1936 53.3256H53.2569L53.3752 53.3102C53.4316 53.1911 53.4062 48.6433 53.4061 48.1956H48.425C47.9646 48.2384 48.1926 49.5272 48.1932 50.0439L48.1936 53.3256Z" fill="#CCE8FF"/>
<path d="M12.809 46.593C13.1786 46.5432 13.3658 46.662 13.5336 46.9798C14.4735 46.9775 16.617 46.6715 17.1228 47.4556L17.1242 51.8993C17.1242 52.6123 17.144 53.3507 17.1006 54.0551C16.9822 54.8771 14.4058 54.5671 13.7117 54.5656L11.1405 54.5662C10.7102 54.5672 10.2015 54.5926 9.78394 54.5656C9.18098 54.1565 9.37287 53.2938 9.37248 52.5975L9.37347 48.5127C9.37488 46.4092 10.1201 46.9763 12.2064 46.9798C12.4074 46.6851 12.4557 46.6382 12.809 46.593ZM10.5618 53.3232H15.728L15.8118 53.3157C16.1101 52.8541 15.7483 49.2595 15.9065 48.2478C14.2356 48.2595 12.5076 48.2165 10.8449 48.2478C10.3685 48.315 10.5603 49.8683 10.5604 50.3511L10.5618 53.3232Z" fill="#313131"/>
<path d="M10.5618 53.3232H15.728L15.8118 53.3157C16.1101 52.8541 15.7483 49.2595 15.9065 48.2478C14.2356 48.2595 12.5076 48.2165 10.8449 48.2478C10.3685 48.315 10.5603 49.8683 10.5604 50.3511L10.5618 53.3232Z" fill="#CCE8FF"/>
<path d="M18.9688 50.1589C19.6939 50.1298 20.7954 50.1316 21.5197 50.1929C22.1603 50.247 22.2109 51.0935 21.5181 51.407C21.0769 51.4383 19.1452 51.4669 18.8081 51.3265C18.3026 51.1159 18.3204 50.3804 18.9688 50.1589Z" fill="#313131"/>
<path d="M37.8014 12.5289C38.4204 12.488 39.7452 12.4902 40.3596 12.5899C40.8773 12.6739 41.0913 13.4993 40.3209 13.7956C39.6748 13.8339 38.8663 13.7519 38.2483 13.7966C37.2503 13.8689 37.0072 12.8375 37.8014 12.5289Z" fill="#313131"/>
<path d="M19.3386 12.5318C19.8918 12.5308 21.4765 12.4133 21.7811 12.7584C22.2414 13.2802 21.743 13.7895 21.0864 13.7985C20.5421 13.7975 19.3301 13.8389 18.8723 13.7985C18.1479 13.27 18.471 12.601 19.3386 12.5318Z" fill="#313131"/>
<path d="M42.6383 12.5322C43.3885 12.5124 44.4022 12.4964 45.1234 12.5707C45.6424 12.6242 45.8189 13.4739 45.093 13.799L43.6264 13.8046C43.056 13.809 42.1167 13.9795 42.2095 13.0055C42.2292 12.7999 42.4718 12.6315 42.6383 12.5322Z" fill="#313131"/>
<path d="M50.9951 41.8438C52.1571 41.8534 51.7879 44.5784 51.6478 44.8359C51.5388 45.036 51.3568 45.1181 51.1474 45.1795C50.0474 45.1745 50.1143 42.1924 50.9951 41.8438Z" fill="#313131"/>
<path d="M50.9132 37.1934C51.3448 37.1641 51.4757 37.2367 51.7369 37.5719C51.826 38.3442 51.9952 40.0087 51.2437 40.4433C49.9943 40.4493 50.175 37.5538 50.9132 37.1934Z" fill="#313131"/>
<path d="M50.9098 23.2574C51.2996 23.2083 51.4902 23.3174 51.7336 23.6144C51.8362 24.379 52.0437 26.091 51.2403 26.4519C50.9292 26.5109 50.6498 26.3284 50.4113 26.1514C50.3302 25.4542 50.1471 23.5778 50.9098 23.2574Z" fill="#313131"/>
<path d="M23.9502 12.5299C24.4072 12.5052 25.9284 12.4588 26.3034 12.6163C26.8912 12.8632 26.726 13.6092 26.2001 13.7967C25.6985 13.8159 24.01 13.8892 23.6445 13.686C23.0362 13.3479 23.3384 12.6512 23.9502 12.5299Z" fill="#313131"/>
<path d="M37.8059 50.156L39.2743 50.1513C39.6533 50.151 40.4134 50.0613 40.6438 50.4069C40.915 50.814 40.6956 51.1698 40.3254 51.4042C40.1415 51.4319 39.6635 51.4093 39.4558 51.4078L37.8059 51.4042C37.3165 51.0679 37.1914 50.3949 37.8059 50.156Z" fill="#313131"/>
<path d="M50.9128 32.5346C52.1397 32.3923 51.7219 34.3791 51.7365 35.2988C51.591 35.5045 51.4654 35.6615 51.2433 35.7857C50.9706 35.7732 50.6049 35.6565 50.499 35.3791C50.3318 34.9411 50.0793 32.7952 50.9128 32.5346Z" fill="#313131"/>
<path d="M42.7513 50.1541C43.244 50.1405 44.7606 50.0775 45.1516 50.2234C45.7336 50.4405 45.6533 51.1934 45.0918 51.4022C44.0843 51.3987 42.4153 51.8306 42.1523 50.7642C42.25 50.4021 42.3745 50.2415 42.7513 50.1541Z" fill="#313131"/>
<path d="M50.9968 18.6367C52.0891 18.6728 51.7549 20.4991 51.7379 21.361C51.5494 21.6632 51.482 21.7431 51.1491 21.8431C50.7956 21.8056 50.7269 21.7705 50.4976 21.5046C50.3501 20.9246 50.0935 18.8181 50.9968 18.6367Z" fill="#313131"/>
<path d="M29.9023 12.5307C30.4688 12.5351 31.4335 12.4136 31.2949 13.3074C31.256 13.5581 31.1466 13.6604 30.9433 13.7974C30.4789 13.8112 29.9843 13.8003 29.5175 13.7974C28.5586 13.8181 27.4045 13.6564 28.3949 12.5307H29.9023Z" fill="#313131"/>
<path d="M12.81 27.9108C13.0994 27.8837 13.3794 27.9747 13.4926 28.2684C13.6429 28.6584 13.8429 30.8547 13.0296 31.1582C11.8817 31.2068 12.2621 29.0044 12.2874 28.1372C12.4806 27.9954 12.575 27.9514 12.81 27.9108Z" fill="#313131"/>
<path d="M23.9517 50.1574C24.4419 50.1502 25.9747 50.0698 26.3528 50.2162C27.0082 50.47 26.7417 51.2188 26.2015 51.4055C25.6312 51.408 22.8013 51.7833 23.5178 50.4414C23.612 50.2649 23.7734 50.2167 23.9517 50.1574Z" fill="#313131"/>
<path d="M12.81 23.2534C13.044 23.2149 13.3346 23.2358 13.4484 23.4833C13.634 23.8874 13.8829 26.0842 13.0296 26.4479C12.7048 26.4811 12.5234 26.3431 12.2874 26.1474C12.2532 25.3863 11.935 23.3577 12.81 23.2534Z" fill="#313131"/>
<path d="M50.9124 27.9079C51.357 27.8787 51.4783 27.9579 51.7361 28.3054C51.7246 29.1657 52.0631 30.6663 51.2429 30.9958C50.103 31.0385 50.3519 29.1935 50.4139 28.3054C50.5868 28.0795 50.6671 28.0312 50.9124 27.9079Z" fill="#313131"/>
<path d="M12.8074 41.8443C13.8644 41.8042 13.5352 43.9406 13.532 44.7177C13.3652 44.9363 13.2784 45.0494 13.027 45.1801C12.7748 45.1479 12.4594 45.0157 12.3562 44.7683C12.1877 44.3647 11.9342 42.1529 12.8074 41.8443Z" fill="#313131"/>
<path d="M12.8071 37.1914C13.1198 37.1948 13.2231 37.2484 13.4441 37.4637C13.6168 37.9159 13.8346 40.1292 13.0267 40.4413C11.9802 40.5224 12.2376 38.2844 12.2845 37.5699C12.4699 37.3734 12.5465 37.2908 12.8071 37.1914Z" fill="#313131"/>
<path d="M33.3905 50.155C33.999 50.1398 35.7841 49.9284 35.9405 50.6263C36.0306 51.0292 35.775 51.2782 35.4151 51.4032C34.9098 51.4052 33.358 51.499 33.0071 51.286C32.4601 50.954 32.7338 50.2567 33.3905 50.155Z" fill="#313131"/>
<path d="M33.3918 12.5302C33.963 12.5453 35.1678 12.4332 35.689 12.6602C36.1598 12.8653 36.0567 13.6696 35.4164 13.797C34.8878 13.7993 33.3903 13.9057 33.0125 13.6643C32.4948 13.3335 32.7448 12.6463 33.3918 12.5302Z" fill="#313131"/>
<path d="M28.5671 50.1569C29.3179 50.1248 31.4953 49.8611 31.2318 50.9377C31.1661 51.2056 31.023 51.2966 30.7798 51.4051C30.2081 51.4063 28.4575 51.6082 28.1696 51.0807C27.9565 50.6902 28.2253 50.3339 28.5671 50.1569Z" fill="#313131"/>
<path d="M12.8107 18.6364C13.2168 18.5674 13.343 18.7356 13.5353 19.0556C13.5507 19.8684 13.8009 21.4466 13.0303 21.8428C12.8334 21.8256 12.3991 21.6812 12.3681 21.4497C12.27 20.7177 11.9561 18.8856 12.8107 18.6364Z" fill="#313131"/>
<path d="M12.8644 32.5312C13.4767 32.6037 13.5452 33.0345 13.5337 33.5646C13.5178 34.2947 13.7754 35.4703 13.0272 35.7824C11.9496 35.7868 11.9643 32.7941 12.8644 32.5312Z" fill="#313131"/>
</svg>
