<svg width="200" height="200" viewBox="0 0 200 200" fill="none" xmlns="http://www.w3.org/2000/svg">
<path d="M36.5746 144.344C43.401 144.252 50.4389 144.344 57.2865 144.344L119.848 144.341C123.686 144.339 127.698 144.223 131.507 144.476C139.026 144.976 137.383 156.743 137.402 161.706C137.418 166.098 135.59 169.92 130.683 170.532C123.356 170.454 115.874 170.531 108.533 170.531L40.1654 170.54C38.8404 170.553 37.5384 170.619 36.1844 170.488C28.2545 169.888 29.8811 160.291 29.8134 154.925C29.7477 149.707 30.3772 145.035 36.5746 144.344ZM118.305 167.295L125.794 167.303C129.597 167.303 134.165 167.762 134.081 162.432C134.028 159.04 135.579 148.158 131.092 147.776C127.766 147.493 124.315 147.596 120.967 147.596L48.8686 147.599L41.2936 147.594C34.2431 147.596 33.1031 147.172 33.0919 155.189L33.0951 162.566C33.1413 167.498 36.1795 167.301 39.9197 167.3L118.305 167.295Z" fill="#313131"/>
<path d="M118.305 167.295L125.794 167.303C129.597 167.303 134.165 167.762 134.081 162.432C134.028 159.04 135.579 148.158 131.092 147.776C127.766 147.493 124.315 147.596 120.967 147.596L48.8686 147.599L41.2936 147.594C34.2431 147.596 33.1031 147.172 33.0919 155.189L33.0951 162.566C33.1413 167.498 36.1795 167.301 39.9197 167.3L118.305 167.295Z" fill="#DEFFCC"/>
<path d="M36.5746 150.016C37.2094 149.952 38.8752 150.004 39.5826 150.007L129.183 150.002C131.431 150.017 131.654 150.701 131.65 152.797C131.646 155.405 132.397 163.036 130.683 164.687C129.378 164.793 126.293 164.688 124.825 164.688L40.7736 164.693C39.5045 164.698 37.248 164.766 36.0758 164.559C35.1288 163.185 35.3257 151.683 35.6539 150.854C35.831 150.406 36.1492 150.199 36.5746 150.016ZM38.7862 161.424H128.047L128.29 161.385C128.553 160.754 128.341 154.518 128.397 153.327H39.2951L38.9112 153.367C38.685 153.65 38.7669 160.436 38.7862 161.424Z" fill="#313131"/>
<path d="M38.7862 161.424H128.047L128.29 161.385C128.553 160.754 128.341 154.518 128.397 153.327H39.2951L38.9112 153.367C38.685 153.65 38.7669 160.436 38.7862 161.424Z" fill="#CCE8FF"/>
<path d="M142.161 127.841C143.397 127.784 144.505 128.003 145.722 128.189L149.999 128.812C151.929 129.077 164.548 129.728 163.987 132.133C163.656 133.555 160.966 135.724 159.956 136.667C176.708 144.41 171.177 172.876 149.632 170.227C146.937 169.736 135.445 164.614 141.799 162.799C142.43 162.932 143.478 163.329 144.134 163.563C151.262 166.105 159.003 161.539 157.747 153.47C157.167 149.75 152.95 146.423 149.884 144.341C148.35 145.406 145.555 148.041 144.163 148.519C143.24 148.18 142.763 147.913 142.661 146.875C142.16 141.757 141.109 133.724 141.263 128.68C141.587 128.232 141.69 128.121 142.161 127.841ZM145.559 143.424C146.853 142.485 148.575 140.787 149.884 140.243C151.665 140.896 157.111 146.045 158.663 147.703C163.434 153.236 161.146 163.127 154.478 166.065C153.474 166.496 152.164 166.921 151.094 167.292C152.699 167.157 154.789 167.037 156.302 166.645C167 163.224 170.09 149.835 162.232 142.207C156.852 136.985 152.115 140.319 158.759 133.377L148.893 131.934C147.614 131.747 145.902 131.561 144.667 131.317C144.908 135.224 145.662 139.554 145.559 143.424Z" fill="#313131"/>
<path d="M145.559 143.424C146.853 142.485 148.575 140.787 149.884 140.243C151.665 140.896 157.111 146.045 158.663 147.703C163.434 153.236 161.146 163.127 154.478 166.065C153.474 166.496 152.164 166.921 151.094 167.292C152.699 167.157 154.789 167.037 156.302 166.645C167 163.224 170.09 149.835 162.232 142.207C156.852 136.985 152.115 140.319 158.759 133.377L148.893 131.934C147.614 131.747 145.902 131.561 144.667 131.317C144.908 135.224 145.662 139.554 145.559 143.424Z" fill="#DEFFCC"/>
<path d="M99.0904 110.397C105.647 109.775 107.361 113.995 107.304 119.751L107.285 125.445C107.287 131.255 108.983 138.869 101.19 140.247C90.9467 140.725 92.9681 131.098 92.767 124.586C92.5986 119.133 91.7021 111.254 99.0904 110.397ZM100.627 137.016C105.139 135.959 104.009 131.814 104.004 128.287V121.263C104.002 117.835 104.732 113.281 99.5955 113.605C94.7217 114.615 96.0627 120.766 95.9853 124.741C96.0213 129.096 94.4236 137.195 100.627 137.016Z" fill="#313131"/>
<path d="M100.627 137.016C105.139 135.959 104.009 131.814 104.004 128.287V121.263C104.002 117.835 104.732 113.281 99.5955 113.605C94.7217 114.615 96.0627 120.766 95.9853 124.741C96.0213 129.096 94.4236 137.195 100.627 137.016Z" fill="#CCE8FF"/>
<path d="M122.954 100.511C128.25 100.213 134.591 109.11 138.546 112.864C143.979 118.021 142.616 125.689 135.193 126.326C131.294 126.445 130.518 125.061 127.992 122.526L121.731 116.194C116.138 110.592 112.944 108.617 120.096 101.957C121.014 101.102 121.75 100.797 122.954 100.511ZM134.714 123.048C136.032 122.94 136.967 122.681 137.834 121.583C140.43 118.294 136.803 115.697 134.702 113.615L128.725 107.751C127.315 106.364 125.378 103.636 123.377 103.705C122.236 104.209 118.438 107.645 119.457 109.052C121.026 111.22 123.485 113.375 125.42 115.339L129.931 119.864C131.577 121.492 132.286 122.729 134.714 123.048Z" fill="#313131"/>
<path d="M134.714 123.048C136.032 122.94 136.967 122.681 137.834 121.583C140.43 118.294 136.803 115.697 134.702 113.615L128.725 107.751C127.315 106.364 125.378 103.636 123.377 103.705C122.236 104.209 118.438 107.645 119.457 109.052C121.026 111.22 123.485 113.375 125.42 115.339L129.931 119.864C131.577 121.492 132.286 122.729 134.714 123.048Z" fill="#CCE8FF"/>
<path d="M75.4734 100.916C78.982 100.553 82.4148 102.901 83.3722 106.303C85.2085 111.825 77.6421 116.75 74.1539 120.432C71.6382 123.088 69.9285 125.445 66.2609 126.331C60.1839 126.434 55.7449 120.808 58.9082 115.737C59.7386 114.406 60.9476 113.32 62.0453 112.222L69.8234 104.446C71.9249 102.334 72.4082 101.38 75.4734 100.916ZM66.2609 123.053C69.0042 121.919 75.9898 113.362 78.7011 111.212C81.7468 108.797 80.1605 103.933 75.4734 104.212C73.55 104.845 64.5804 114.22 62.6652 116.183C59.421 119.508 62.3343 123.178 66.2609 123.053Z" fill="#313131"/>
<path d="M66.2609 123.053C69.0042 121.919 75.9898 113.362 78.7011 111.212C81.7468 108.797 80.1605 103.933 75.4734 104.212C73.55 104.845 64.5804 114.22 62.6652 116.183C59.421 119.508 62.3343 123.178 66.2609 123.053Z" fill="#CCE8FF"/>
<path d="M134.081 43.9956C140.801 43.371 144.572 51.3397 140.048 56.2049C138.197 58.196 136.238 60.0276 134.308 61.9382L130.708 65.5175C128.608 67.6022 127.507 68.8698 124.387 69.0917C117.978 69.2503 114.038 61.7792 118.028 57.5839C121.04 54.4167 129.854 44.4194 134.081 43.9956ZM124.387 65.9139C127.054 65.3827 129.039 62.5772 130.947 60.626C133.345 58.1421 136.125 55.8999 138.251 53.1753C139.857 51.1159 137.739 46.9202 134.708 47.1831C131.072 47.8995 126.952 53.4628 124.04 56.2319C122.145 58.1174 118.88 60.0901 120.132 63.096C120.929 65.0089 122.154 65.955 124.387 65.9139Z" fill="#313131"/>
<path d="M124.387 65.9139C127.054 65.3827 129.039 62.5772 130.947 60.626C133.345 58.1421 136.125 55.8999 138.251 53.1753C139.857 51.1159 137.739 46.9202 134.708 47.1831C131.072 47.8995 126.952 53.4628 124.04 56.2319C122.145 58.1174 118.88 60.0901 120.132 63.096C120.929 65.0089 122.154 65.955 124.387 65.9139Z" fill="#CCE8FF"/>
<path d="M64.7848 44.0036C69.3067 43.4083 74.0008 49.1919 76.818 52.2977C80.068 55.8809 85.6454 58.8524 83.0485 64.4833C81.7887 67.2145 80.0235 68.0981 77.4126 69.0997C72.4813 69.4575 71.445 67.2704 68.2919 64.1872L62.5684 58.5137C60.5446 56.4876 58.568 55.0938 58.2848 52.0567C57.9036 47.9684 60.6899 44.4481 64.7848 44.0036ZM77.0227 65.9219C78.7153 65.0235 81.4938 62.177 79.9602 60.2544C77.6032 57.2985 74.6005 54.7333 71.9469 52.0419C69.927 49.993 67.8028 46.9848 64.7848 47.1911C60.686 48.6536 60.4633 51.734 63.5063 54.7044C66.5563 57.6817 73.0583 66.2348 77.0227 65.9219Z" fill="#313131"/>
<path d="M77.0227 65.9219C78.7153 65.0235 81.4938 62.177 79.9602 60.2544C77.6032 57.2985 74.6005 54.7333 71.9469 52.0419C69.927 49.993 67.8028 46.9848 64.7848 47.1911C60.686 48.6536 60.4633 51.734 63.5063 54.7044C66.5563 57.6817 73.0583 66.2348 77.0227 65.9219Z" fill="#CCE8FF"/>
<path d="M133.29 78.3271C137.53 78.1927 146.011 77.9646 150.048 78.474C157.857 79.4591 158.638 90.8095 149.885 92.9474C145.221 93.081 137.074 93.3369 132.504 92.8486C125.486 92.0986 124.242 79.6033 133.29 78.3271ZM149.633 89.6732C153.414 88.7974 154.128 83.6525 150.796 82.0213C149.491 81.3818 145.274 81.5834 143.705 81.5837L133.681 81.5884C129.673 82.083 129.162 86.74 131.624 89.0728C132.549 89.9494 137.267 89.6802 138.716 89.6798L149.633 89.6732Z" fill="#313131"/>
<path d="M149.633 89.6732C153.414 88.7974 154.128 83.6525 150.796 82.0213C149.491 81.3818 145.274 81.5834 143.705 81.5837L133.681 81.5884C129.673 82.083 129.162 86.74 131.624 89.0728C132.549 89.9494 137.267 89.6802 138.716 89.6798L149.633 89.6732Z" fill="#CCE8FF"/>
<path d="M99.1005 29.1326C109.652 27.9957 107.338 42.2363 107.311 49.0894C107.293 53.6539 106.811 57.848 101.2 58.0394C94.1192 58.114 92.7782 56.1281 92.7755 49.073L92.7763 42.5594C92.7771 36.9665 91.4685 30.231 99.1005 29.1326ZM101.2 54.809C102.541 54.7375 103.875 53.8707 103.926 52.4285C104.116 47.0754 104.01 41.6758 103.977 36.3164C103.959 33.4433 101.781 32.156 99.1005 32.3397C97.2407 32.9156 96.1708 34.2408 96.0274 36.148C95.8966 37.8853 95.8681 52.0351 96.154 52.8941C96.9032 55.1484 99.2786 54.823 101.2 54.809Z" fill="#313131"/>
<path d="M101.2 54.809C102.541 54.7375 103.875 53.8707 103.926 52.4285C104.116 47.0754 104.01 41.6758 103.977 36.3164C103.959 33.4433 101.781 32.156 99.1005 32.3397C97.2407 32.9156 96.1708 34.2408 96.0274 36.148C95.8966 37.8853 95.8681 52.0351 96.154 52.8941C96.9032 55.1484 99.2786 54.823 101.2 54.809Z" fill="#CCE8FF"/>
<path d="M52.0605 78.33C56.998 78.3327 61.9566 78.3702 66.8898 78.269C73.1074 77.862 75.3523 86.9991 71.4973 90.7718C69.6383 92.5913 67.6188 92.5022 65.1879 92.485C60.4883 92.485 55.7848 92.4944 51.0863 92.4858C41.9008 92.5686 40.7797 77.9952 52.0605 78.33ZM66.6105 89.2093C70.1371 89.1456 70.0094 87.0655 69.9402 84.1573C69.857 80.6432 64.018 81.5823 61.6305 81.5878L50.5039 81.5913C46.1449 82.228 46.2231 88.4557 49.9672 89.1163C51.1984 89.3331 54.3293 89.2116 55.7098 89.2116L66.6105 89.2093Z" fill="#313131"/>
<path d="M66.6105 89.2093C70.1371 89.1456 70.0094 87.0655 69.9402 84.1573C69.857 80.6432 64.018 81.5823 61.6305 81.5878L50.5039 81.5913C46.1449 82.228 46.2231 88.4557 49.9672 89.1163C51.1984 89.3331 54.3293 89.2116 55.7098 89.2116L66.6105 89.2093Z" fill="#CCE8FF"/>
</svg>
