<svg width="64" height="64" viewBox="0 0 64 64" fill="none" xmlns="http://www.w3.org/2000/svg">
<path d="M41.7692 14.2679C41.8 13.5565 41.527 12.5731 42.3139 12.2081C43.3592 12.101 43.3444 12.802 43.337 13.5986L43.3368 24.0483C49.2007 25.2323 49.1103 33.6206 43.3368 34.6116L43.3388 44.8537C43.3386 45.4781 43.5504 46.9221 42.5895 46.9225C41.5609 46.9229 41.7523 45.7996 41.7692 45.0973C35.3004 40.4665 30.1603 38.2063 22.2437 36.4647C22.0467 38.5054 21.2785 39.8393 19.3054 40.6127C19.328 41.3706 19.6057 42.7394 19.7486 43.5455L20.683 48.6766C21.134 51.8718 19.6444 51.7034 17.149 51.7881C14.7736 51.8685 14.1668 51.4439 13.7268 49.1514L11.8044 38.4883C11.6867 37.8307 11.5088 37.0271 11.5071 36.3739C9.25678 36.3247 7.21196 35.2915 6.80222 32.8474C6.64349 31.5446 6.60884 27.7135 6.78946 26.4671C7.33567 22.6979 10.8648 22.9049 13.6821 22.9052L20.2364 22.9089C26.9735 22.9112 36.4447 18.1892 41.7692 14.2679ZM41.7692 16.1814C35.6246 20.1953 30.2001 22.9621 22.7675 24.2792V34.9865C24.8566 35.3511 27.2128 36.0148 29.2175 36.6918C34.2807 38.4018 37.4478 40.3104 41.7692 43.1322L41.7723 17.0211C41.7731 16.8237 41.7879 16.3422 41.7692 16.1814ZM10.8921 24.4684C8.64688 24.6333 8.28739 26.2221 8.29052 28.1313L8.29412 30.0987C8.2946 31.796 8.07271 34.449 10.4898 34.7482C11.3712 34.8572 12.3897 34.8156 13.2914 34.8154L18.5659 34.8144H21.2117V24.4684H10.8921ZM43.3368 25.6278C43.2961 26.2776 43.3365 27.3594 43.3368 28.0545V33.1099C44.093 32.7841 44.539 32.5856 45.1381 31.9977C47.1007 29.8379 46.1753 26.4004 43.3368 25.6278ZM12.9974 36.3739C13.1109 37.1482 13.2758 37.9344 13.4149 38.7064L14.3993 44.1456C14.5675 45.1076 15.1429 49.7246 15.823 50.2302C16.3553 50.2644 18.8086 50.3134 19.1188 50.1148C19.4089 49.6366 19.1662 49.0606 19.0713 48.5389L17.5529 40.0215C17.34 38.8486 17.0918 37.5472 16.9163 36.3739H12.9974ZM19.3054 36.3739H18.5659C18.5421 37.0048 18.8296 38.3864 18.9686 39.0461C19.2117 38.9591 19.3823 38.8671 19.5926 38.7131C20.4187 38.0577 20.5427 37.3767 20.683 36.3739H19.3054Z" fill="#313131"/>
<path d="M41.7692 16.1814C35.6246 20.1953 30.2001 22.9621 22.7675 24.2792V34.9865C24.8566 35.3511 27.2128 36.0148 29.2175 36.6918C34.2807 38.4018 37.4478 40.3104 41.7692 43.1322L41.7723 17.0211C41.7731 16.8237 41.7879 16.3422 41.7692 16.1814Z" fill="#CDCCFF"/>
<path d="M10.8921 24.4684C8.64688 24.6333 8.28739 26.2221 8.29052 28.1313L8.29412 30.0987C8.2946 31.796 8.07271 34.449 10.4898 34.7482C11.3712 34.8572 12.3897 34.8156 13.2914 34.8154L18.5659 34.8144H21.2117V24.4684H10.8921Z" fill="#CDCCFF"/>
<path d="M12.9974 36.3739C13.1109 37.1482 13.2758 37.9344 13.4149 38.7064L14.3993 44.1456C14.5675 45.1076 15.1429 49.7246 15.823 50.2302C16.3553 50.2644 18.8086 50.3134 19.1188 50.1148C19.4089 49.6366 19.1662 49.0606 19.0713 48.5389L17.5529 40.0215C17.34 38.8486 17.0918 37.5472 16.9163 36.3739H12.9974Z" fill="#CDCCFF"/>
<path d="M50.8847 24.6502C50.3139 24.6068 49.8434 24.0454 50.1697 23.5346C50.4544 23.0888 51.0963 22.5483 51.497 22.1576L53.3342 20.3501C53.8912 19.8064 54.6265 18.8253 55.3998 18.6504C55.9458 18.7074 56.4674 19.3027 56.0804 19.7543C55.6061 20.3079 55.0229 20.8375 54.5087 21.3538L52.525 23.3272C52.0638 23.7867 51.5499 24.5147 50.8847 24.6502Z" fill="#313131"/>
<path d="M10.8919 33.111C10.1937 33.226 9.94822 32.615 9.94071 32.0532C9.91844 30.3364 9.92784 28.6166 9.9273 26.8998C9.92717 26.4883 10.1627 26.2932 10.5185 26.1645C10.8594 26.1469 11.2781 26.2202 11.4233 26.5775C11.6527 27.1414 11.5259 32.5395 11.4439 32.7074C11.3381 32.9239 11.1041 33.0307 10.8919 33.111Z" fill="#313131"/>
<path d="M56.6326 30.3094L52.7583 30.311C52.0851 30.3108 51.4263 30.3241 50.7404 30.294C49.8512 30.2549 49.5877 28.9374 50.7478 28.7528L54.4525 28.75C55.1329 28.75 55.7847 28.7499 56.4918 28.7604C57.5723 28.7762 57.608 30.0838 56.6326 30.3094Z" fill="#313131"/>
<path d="M55.5911 40.166C54.7545 40.2046 51.2151 36.4529 50.4674 35.6693C49.8781 35.0515 49.9355 34.507 50.7464 34.198C51.5287 34.1362 55.0621 37.9533 55.8735 38.7128C56.4419 39.2448 56.3611 39.9294 55.5911 40.166Z" fill="#313131"/>
</svg>
